<?xml version="1.0" standalone="no"?>
<!DOCTYPE svg PUBLIC "-//W3C//DTD SVG 1.1//EN" "http://www.w3.org/Graphics/SVG/1.1/DTD/svg11.dtd" >
<svg xmlns="http://www.w3.org/2000/svg" xmlns:xlink="http://www.w3.org/1999/xlink" version="1.1">
<metadata>
Created by FontForge 20201107 at Sun Apr 13 11:47:49 2025
 By 
</metadata>
<defs>
<font id="Rbk6-Regular" horiz-adv-x="250" >
  <font-face 
    font-family="Rbk6"
    font-weight="400"
    font-stretch="normal"
    units-per-em="1000"
    panose-1="2 0 5 3 0 0 0 0 0 0"
    ascent="800"
    descent="-200"
    x-height="421"
    cap-height="617"
    bbox="33 -128 1644 800"
    underline-thickness="50"
    underline-position="-100"
    unicode-range="U+000D-2295"
  />
<missing-glyph horiz-adv-x="364" 
d="M33 0v666h265v-666h-265zM66 33h199v600h-199v-600z" />
    <glyph glyph-name="s_t.liga" unicode="st" horiz-adv-x="602" 
d="M429 514q2 13 3.5 19t6 11t12.5 5q16 0 16 -22q0 -11 -1 -18l-3 -29l44 1h44l1 -10q1 -10 -7.5 -16t-29.5 -8q-14 -2 -38 -5l-17 -2v-80q0 -119 22 -182q9 -25 9 -36q0 -10 -12 -15q-6 -2 -7 -2q-15 0 -30 52q-22 75 -22 178v79l-75 -6l-5 11q-2 3 -2 9q0 14 48 21
q24 3 30 5t7 7q2 10 6 33zM164 495q16 3 37 3q52 0 85 -15q11 -5 13.5 -8t1.5 -10t-3.5 -8.5t-16.5 -1.5q-27 0 -58 3q-12 1 -29 1t-32 -4q-41 -11 -41 -34q0 -15 82 -90q83 -74 95 -131q2 -12 2 -17q0 -50 -54 -65q-21 -7 -49 -7q-54 0 -101 24.5t-47 54.5q0 6 3 12
q6 14 22 14q5 0 7 -1q7 -3 4 -13q-3 -11 6 -19q15 -14 46 -23t61 -9q26 0 45 8q12 5 14.5 8.5t2.5 15.5q0 45 -94 129q-77 68 -84 96q-2 8 -2 13q0 25 23.5 45.5t60.5 28.5z" />
    <glyph glyph-name="f_f.liga" unicode="ff" horiz-adv-x="648" 
d="M503 630q10 2 16 2q28 0 52.5 -13.5t24.5 -29.5q0 -18 -14 -18q-8 0 -12 7q-9 16 -47 16q-1 0 -5 -0.5t-5 -0.5q-34 -5 -50 -41q-9 -21 -10 -65l-1 -47h56q45 0 57 -3t12 -13q0 -7 -5.5 -10.5t-18.5 -5.5t-42 -3q-54 -2 -57 -5q-1 -3 -1 -7q0 -22 9 -135q11 -137 11 -147
q0 -17 -8 -25t-17 -4t-11 18q-5 22 -14 153q-11 141 -13 145q0 1 -5 1q-4 0 -17.5 -1.5t-20.5 -1.5q-14 -2 -32 -2q-13 0 -17.5 3.5t-4.5 12.5q0 11 10 15t43 8l42 5l1 19q4 78 23.5 120.5t70.5 52.5zM146 507q19 116 98 116q25 0 49 -8q31 -9 31 -24q0 -9 -13 -9
q-9 0 -47 3q-4 0 -9.5 0.5t-7.5 0.5q-19 0 -29 -6.5t-19 -24.5q-18 -36 -18 -67q0 -6 60 -6q61 0 69 -3q12 -5 12 -14q0 -4 -5 -11t-15 -8t-59 -2l-67 -1l3 -72q5 -112 16 -242q1 -12 1 -29q0 -18 -3.5 -23.5t-15.5 -5.5q-11 0 -15 10.5t-6 46.5q0 9 -8 110q-1 13 -8 136
l-2 65l-40 -3q-12 -1 -27 -1q-14 0 -18 8q-2 3 -2 9q0 10 8 17.5t19 7.5q4 0 6 -1h4q5 -1 9 -1q3 0 9.5 0.5t10.5 0.5l24 3z" />
    <glyph glyph-name="c_o_n.liga" unicode="con" horiz-adv-x="1139" 
d="M186 482q18 3 25 3q8 0 23 -3q40 -8 40 -31q0 -17 -14 -17q-5 0 -15 5q-12 8 -31 8q-29 0 -59 -21.5t-46 -56.5q-21 -47 -21 -93q0 -54 27 -81q17 -17 55 -27.5t79 -10.5q3 0 9.5 0.5t9.5 0.5q4 0 9.5 0.5t7.5 0.5q14 0 18.5 -3.5t4.5 -12.5q0 -23 -58 -23q-61 0 -102 13
q-100 31 -100 141q0 74 40.5 135.5t97.5 72.5zM595 410q-38 8 -65 8q-21 0 -30 -4q-33 -13 -53 -47.5t-20 -77.5q0 -8 2 -26q17 -110 95 -110q2 0 6 0.5t6 0.5q40 4 73 37.5t45 81.5q5 23 5 47q0 38 -9 56q-11 24 -55 34zM508 455q16 3 31 3q20 0 52 -7q61 -13 83.5 -39.5
t22.5 -86.5q0 -99 -58 -158q-51 -52 -114 -52h-11q-67 4 -100 68q-26 51 -26 105q0 62 33 109t87 58zM800 439q5 8 15 8q17 0 17 -49v-29l15 21q41 55 87 55q44 0 83 -42q25 -26 38.5 -61t24.5 -104t11 -107q0 -19 -3 -23q-4 -6 -12 -6q-11 0 -17 9q-7 12 -12 69
q-9 84 -21 126.5t-34 67.5q-28 31 -59 31q-29 0 -55 -38q-19 -28 -29.5 -71.5t-18.5 -125.5q-6 -59 -8 -63t-12.5 -4.5t-16.5 3.5q-5 2 -5 58v50q3 209 12 225z" />
    <glyph glyph-name="m_m.liga" unicode="mm" horiz-adv-x="1242" 
d="M779 484q11 7 34 7q20 0 29 -5q53 -29 74 -174q6 -38 9 -38t7 9q26 65 54.5 107.5t52.5 50.5q11 4 34 4q28 0 40 -6q18 -9 28 -32t21 -84q2 -13 6 -31.5t8.5 -40t5.5 -28.5q12 -60 12 -70q0 -8 -3 -11q-5 -6 -12 -6q-11 0 -17 9q-7 11 -30 124q-24 116 -29 126
q-4 8 -8.5 9.5t-21.5 1.5q-18 0 -23.5 -2t-16.5 -14q-31 -36 -55 -93q-11 -28 -28.5 -83.5t-17.5 -64.5t-4 -17q-5 -8 -16 -8t-14 7q-2 3 -6 50q-5 93 -20.5 165t-34.5 95q-9 12 -25 12q-24 0 -46 -46q-33 -66 -50 -180q-8 -54 -12 -60q-5 -8 -16 -8t-14 7q-12 22 -12 228
q0 62 3 72q8 22 24 8q7 -6 7 -60q0 -58 5 -58q4 0 11 20q30 86 67 108zM391 482q11 4 29 4q32 0 44 -9q26 -19 39 -70.5t42 -255.5q0 -2 0.5 -4.5t0.5 -3.5q0 -19 -20 -19q-11 0 -15.5 8t-7.5 32q-1 4 -6.5 43.5t-8.5 65.5q-16 110 -27.5 143t-35.5 33q-28 0 -47 -25
q-23 -30 -47.5 -110.5t-30.5 -144.5q-2 -32 -6 -40.5t-17 -8.5t-16.5 10.5t-9.5 63.5q-27 228 -42 246q-1 2 -5 2q-13 0 -37 -27q-34 -37 -51 -102q-7 -28 -14.5 -73.5t-7.5 -64.5q0 -13 -6 -23q-6 -8 -14 -8q-11 0 -17 11q-3 6 -7 108t-4 161q0 27 1 31q4 21 18 21
q10 0 14 -12.5t4 -46.5q1 -50 5 -50q3 0 15 23q19 36 50.5 64.5t52.5 28.5q25 0 38 -27q15 -31 28 -129q6 -38 7 -38q3 0 17 43q42 133 95 150z" />
    <glyph glyph-name="a_t_i_o.liga" unicode="atio" horiz-adv-x="1147" 
d="M664 582q13 13 19 13q11 0 20 -11.5t9 -24.5q0 -4 -2 -10q-9 -24 -32 -24q-11 0 -19 7.5t-8 21.5t13 28zM424 553q3 7 14 7q10 0 13 -7q4 -8 4 -56v-49l13 2q7 1 51 5q10 1 26 1t21 -3.5t5 -13.5q0 -18 -38 -18q-15 0 -45 -4l-27 -5l1 -52q0 -46 6 -114q9 -86 9 -108
q0 -17 -3.5 -21t-13.5 -4q-14 0 -19 35t-19 222l-3 32l-31 -2q-9 -1 -20 -1q-13 0 -18 5q-7 9 -7 12q0 6 7 12t15 6q9 0 31 4l21 5l1 51q2 54 6 59zM184 438q-4 10 -15 10q-8 0 -21 -5q-55 -24 -62 -135q0 -4 -0.5 -12t-0.5 -11q0 -87 37 -118q13 -11 21 -11q7 0 18 9
q35 30 35 179q0 61 -12 94zM124 469q19 10 42 10q14 0 26 -5q3 -2 9 -4.5t8.5 -4t6 -5t5.5 -8.5q5 -11 38.5 -174.5t33.5 -174.5q0 -7 -5.5 -12t-12.5 -5q-5 0 -9 3q-12 6 -25 84q-8 42 -10 46q-2 5 -3 5t-12 -37q-16 -56 -58 -67q-6 -2 -16 -2q-25 0 -53 28q-19 19 -30 52
q-11 32 -11 87q0 147 76 184zM994 437q-13 7 -19 7q-5 0 -22 -3q-41 -8 -68 -39.5t-34 -80.5q-2 -16 -2 -24q0 -43 16.5 -86t37.5 -54q12 -6 25 -6q36 0 72 36t51 88q6 20 6 56q0 35 -11 54q-20 34 -52 52zM936 474q22 5 42 5q16 0 34 -4q20 -5 51 -46q22 -29 31 -60
q5 -20 5 -39q0 -45 -20.5 -92.5t-54.5 -80.5q-43 -40 -94 -43q-4 0 -9 -0.5t-7 -0.5q-13 0 -32 12q-51 34 -67 125q-4 20 -4 44q0 67 34.5 117t90.5 63zM661 452q3 4 14.5 4t13.5 -4q2 -3 6 -69q8 -137 9 -151q5 -67 5 -76q0 -15 -3 -18q-5 -6 -13.5 -6t-13.5 6
q-6 7 -13.5 111t-7.5 167q0 32 3 36z" />
    <glyph glyph-name="a_t_i.liga" unicode="ati" horiz-adv-x="772" 
d="M671 564q9 11 21 11q6 0 10 -4q7 -7 7 -28q0 -11 -2 -14q-4 -9 -15 -15q-6 -2 -10 -2q-9 0 -15 7.5t-6 18.5q0 15 10 26zM452 554q4 6 11.5 6t11.5 -5q5 -7 8 -39l2 -35l37 -1q30 -1 38 -4.5t8 -13.5t-7.5 -13t-38.5 -4l-37 -2l2 -31q5 -111 14 -189q6 -54 14 -62
q7 -7 7 -17t-6 -17t-15 -7q-22 0 -31 49q-13 67 -20 219l-2 49l-39 -2q-9 -1 -23 -1q-26 0 -26 13q0 1 0.5 3t0.5 3q2 9 9.5 12t38.5 7l35 5l2 35q2 36 6 42zM206 419q0 7 -2 8.5t-9 1.5q-11 0 -29 -11.5t-29 -25.5q-12 -15 -25 -40.5t-18 -44.5q-5 -23 -5 -42q0 -25 6 -38
q5 -13 17.5 -27t19.5 -14q10 0 23.5 23.5t23.5 58.5q6 25 16.5 82t10.5 69zM221 468q15 9 23 -1q3 -5 5 -48q3 -72 50 -217q25 -77 25 -90q0 -14 -18 -14q-6 0 -10 4q-5 5 -27.5 68.5t-30.5 94.5t-11 31t-6 -14q-31 -119 -74 -131q-10 -2 -15 -2q-26 0 -48.5 24t-30.5 62
q-5 23 -5 30q0 6 5 33q13 68 55.5 117t88.5 50q19 0 24 3zM669 453q3 6 10 6q11 0 15 -10q6 -9 11 -91q5 -72 15 -161q5 -41 5 -68q0 -15 -3.5 -19.5t-12.5 -4.5q-12 0 -17 17t-11 81q-16 166 -16 215q0 30 4 35z" />
    <glyph glyph-name="t_h_e.liga" unicode="the" horiz-adv-x="1045" 
d="M347 649q3 5 12.5 4t11.5 -6t6 -137q2 -138 5 -182l2 -53l15 34q24 60 59 93q37 35 70 35q17 0 30 -10q56 -42 67 -246q1 -16 1 -36q0 -17 -5 -22q-8 -6 -14 -6q-11 0 -15 11t-5 53q-4 87 -18.5 144.5t-35.5 70.5q-4 2 -8 2q-16 0 -40 -23q-26 -24 -40.5 -55t-36.5 -106
q-19 -62 -24 -67q-6 -7 -13 -7q-9 0 -16 9q-8 12 -17 344q0 7 -0.5 20t-0.5 19q0 102 10 117zM128 585q7 7 14 7q10 0 13.5 -12.5t3.5 -48.5v-13q0 -31 3.5 -38.5t20.5 -7.5q3 0 11 0.5t14 0.5h19q26 0 30 -2q5 -3 6 -11t-3 -14q-2 -5 -27 -9t-50 -4h-21l3 -76q3 -87 3 -165
q0 -91 -4 -99q-4 -11 -16 -11t-15 5q-2 2 -5 172.5t-4 171.5q-2 2 -31 6.5t-31 5.5q-15 6 -9 25q3 8 16 8q11 0 20 -1l34 -1v52q0 53 5 59zM928 428q-12 9 -36 9q-15 0 -32 -5q-27 -9 -49.5 -36.5t-23.5 -54.5v-18l36 -2q10 -1 28 -1q56 0 82 11q25 12 25 44q0 12 -9.5 29
t-20.5 24zM841 466q24 10 51 10q48 0 78 -34q27 -31 27 -69q0 -54 -48 -77q-34 -16 -89 -16q-2 0 -5.5 0.5t-4.5 0.5q-4 1 -35 3q-3 0 -7.5 0.5t-6.5 0.5q-12 0 -12 -7q0 -6 9 -25q15 -32 55.5 -60t74.5 -29h10.5t9 -0.5t4.5 -0.5q3 0 6 -8q2 -4 2 -7q0 -7 -5.5 -14
t-14.5 -8q-3 -1 -10 -1q-26 0 -65.5 18.5t-63.5 42.5q-54 53 -54 130v13q6 100 94 137z" />
    <glyph glyph-name="e_r_e.liga" unicode="ere" horiz-adv-x="1045" 
d="M889 441q-12 6 -29 6q-41 0 -73 -24q-13 -11 -26 -28q-8 -12 -17 -33t-9 -28q0 -6 49 -6q27 0 42 3q70 12 77 70q1 4 1 12q0 19 -15 28zM813 479q23 7 47 7q26 0 43 -7q36 -16 39 -61v-8q0 -72 -62 -102q-40 -19 -93 -19q-28 0 -49 6l-9 2l2 -28q4 -71 76 -108
q56 -29 112 -29q32 0 46 10q8 7 17 7q12 0 12 -12q0 -10 -10 -20q-20 -22 -71 -22q-61 0 -125 31q-26 13 -51 38.5t-34 48.5q-11 30 -11 78q0 35 5 52q27 105 116 136zM277 398q0 22 -10 30t-34 10h-7q-38 0 -67 -21q-23 -16 -42 -43t-24 -50q-2 -6 -1.5 -9t2.5 -3.5
l10 -2.5q1 0 8.5 -0.5t12.5 -0.5q4 0 15 0.5t16 0.5q121 6 121 89zM181 471q18 7 47 7q22 0 34 -4q14 -4 28.5 -16t19.5 -25t5 -33q0 -23 -6 -41q-23 -72 -131 -86q-8 -1 -27 -1q-43 0 -58 7q-6 2 -6 -2q0 -3 2 -12q10 -66 60 -103t128 -40q42 -2 44 -7q1 -2 1 -5
q0 -11 -16 -18t-41 -7q-17 0 -33 3q-116 21 -163 112q-21 42 -21 86q0 71 52 129q36 40 81 56zM433 395q0 9 -0.5 23t-0.5 20q0 36 14 36h2q18 -3 18 -43q0 -24 4 -24q2 0 17 18q35 42 97 45h16q21 0 37 -8q12 -6 14.5 -9.5t2.5 -12.5q0 -10 -1.5 -12t-9.5 -1q-13 0 -30 5
q-7 2 -21 2q-55 0 -81 -40q-31 -47 -31 -136q0 -36 2 -57q3 -48 3 -61q0 -12 -3 -20q-6 -13 -17 -13t-16 11t-16 277z" />
    <glyph glyph-name="m_e_n_t.liga" unicode="ment" horiz-adv-x="1694" 
d="M1499 534q4 6 12.5 7t13.5 -4t5 -29t5 -27q3 -3 46 -12q40 -7 51.5 -13t11.5 -17q0 -13 -16 -13q-12 0 -45 6q-38 4 -44 4h-3q-7 -3 -4 -23q3 -28 6 -155q3 -69 3 -101q0 -35 -3.5 -43.5t-15.5 -8.5q-16 0 -19 19.5t-5 136.5q-4 151 -5 164l-2 20h-30q-47 0 -47 21
q0 10 9.5 13.5t36.5 3.5q25 0 30 4.5t5 26.5q0 12 4 20zM395 487q14 8 36 8q20 0 33 -7q46 -23 70 -106q6 -22 22 -115t16 -106q0 -7 -5 -11.5t-11 -4.5t-11 5q-7 6 -25 106q-18 104 -32.5 144.5t-38.5 53.5q-12 6 -21 6q-15 0 -35 -20q-33 -35 -56 -101t-27 -143
q-2 -50 -10 -55q-12 -9 -23 0q-8 5 -10 51q-7 97 -31.5 160.5t-57.5 71.5q-1 0 -3.5 0.5t-3.5 0.5q-32 0 -56.5 -62t-24.5 -144q0 -4 0.5 -11.5t0.5 -11.5q0 -6 0.5 -15t0.5 -13q0 -36 -15 -41q-11 -4 -19 4q-6 6 -8 23.5t-3 99.5q0 16 -0.5 42t-0.5 37q0 115 9 125
q7 7 15 5q8 -1 9 -6t2 -33l1 -38l12 19q34 55 79 55q34 0 63 -33t45 -88q5 -19 9 -20q1 1 14 37q16 47 41 82.5t50 48.5zM1056 469q5 7 12 7q11 0 15 -7.5t4 -27.5v-9q0 -36 1 -41q2 -7 6 -1l11 15q38 61 106 61q48 0 79 -35q25 -26 41 -79q10 -33 23.5 -95.5t15.5 -87.5
q0 -3 0.5 -7.5t0.5 -6.5q0 -22 -16 -22h-5q-9 1 -11.5 8.5t-11.5 58.5q-8 45 -22.5 101.5t-23.5 74.5q-25 51 -71 51q-20 0 -40 -10q-44 -23 -57 -111q-9 -63 -9 -126v-10v-5q0 -10 -6.5 -17.5t-15.5 -7.5q-11 0 -15 11.5t-9 65.5q-5 58 -5 166q0 79 3 86zM905 382
q7 10 7 19q0 28 -52 28q-42 0 -80 -25t-58 -65q-5 -12 -5 -16q0 -8 15 -8q12 0 20 1q119 10 153 66zM811 461q19 6 46 6q36 0 58 -11q36 -18 36 -52q0 -18 -12 -38q-48 -84 -191 -85h-41l2 -20q8 -71 75 -98q28 -11 80 -11q20 0 30 3q8 2 11 2q14 0 14 -13q0 -27 -61 -30
h-12q-74 0 -122 39.5t-54 105.5q0 3 -0.5 7t-0.5 7q0 63 39.5 115t102.5 73z" />
    <glyph glyph-name="o_n.liga" unicode="on" horiz-adv-x="823" 
d="M190 437q-10 -2 -16 2q-1 1 -3 1q-8 0 -22.5 -9.5t-24.5 -22.5q-34 -40 -34 -100q0 -25 8 -51q14 -43 41 -67.5t58 -24.5t60 27q43 42 43 133q0 45 -16 67t-59 38q-21 7 -32 7h-3zM166 479q23 7 30 7q8 0 18 -5q2 -1 8.5 -4.5t16 -8t16.5 -8.5q53 -26 70 -60
q16 -32 16 -76q0 -24 -4 -45q-18 -106 -90 -142q-22 -11 -51 -11q-26 0 -48 10q-41 20 -69.5 68.5t-28.5 104.5q0 43 19 82q16 35 39 55.5t58 32.5zM587 453q13 4 33 4q44 0 75 -22q31 -23 53.5 -90.5t26.5 -151.5q1 -16 1 -39q0 -40 -13 -45q-11 -4 -18 3q-7 6 -7 41
q0 131 -41 216q-13 27 -29.5 37.5t-45.5 10.5q-38 0 -60 -23q-19 -20 -33.5 -72t-19.5 -119q-4 -47 -8 -58.5t-15 -11.5q-16 0 -19 18t-3 125q0 134 3 149q3 24 17 24q6 0 9 -2q8 -5 8 -40v-35l10 17q30 51 76 64z" />
    <glyph glyph-name="s_c_h.liga" unicode="sch" horiz-adv-x="1040" 
d="M726 610q6 3 13 0t8 -165l1 -162l21 37q19 32 51.5 66.5t53.5 44.5q16 8 32 8q24 0 41 -24q29 -41 43 -255q2 -42 2 -44q0 -15 -4 -20q-6 -9 -16 -9q-8 0 -13 8q-5 9 -10 80q-17 226 -45 226q-7 0 -26 -14t-34 -30q-58 -62 -84 -170q-11 -45 -16 -53q-4 -8 -15 -8
q-9 0 -13 5q-8 9 -9 252q0 140 3 180t16 47zM128 484q17 5 47 5q43 0 62 -10q20 -10 20 -23q0 -11 -14 -11q-5 0 -8 1q-12 3 -55 3q-40 0 -62 -10q-20 -10 -26 -20q-2 -4 -2 -6q0 -7 48 -45q70 -55 114 -115.5t48 -105.5q0 -3 0.5 -8t0.5 -7q0 -24 -18 -45q-29 -33 -89 -33
q-34 0 -60 11q-30 14 -51.5 41.5t-21.5 51.5q0 8 1 11q6 19 18 19q11 0 11 -17q0 -22 21 -44t50 -30q15 -5 36 -5q32 0 52 17q12 11 12 27t-14 46q-38 80 -145 164q-32 25 -43 37.5t-11 25.5q0 1 0.5 3t0.5 3q8 51 78 69zM491 467q24 12 48 12q42 0 50 -25q2 -6 2 -9
q0 -8 -9 -8q-7 0 -12 2q-15 5 -26 5q-32 0 -66 -34q-53 -53 -53 -129q0 -23 6 -43q7 -21 27.5 -42.5t41.5 -28.5q32 -10 63 -10q50 0 65 17q9 9 16 9q13 0 13 -19q0 -38 -87 -45h-13q-54 0 -98.5 27t-61.5 71q-11 28 -11 66q0 23 5 46q11 43 39 82.5t61 55.5z" />
    <glyph glyph-name="s_s.liga" unicode="ss" horiz-adv-x="628" 
d="M48 424q0 52 63 73q12 5 39 5q68 0 98 -23q11 -8 11 -18q0 -12 -14 -12q-7 0 -14 4q-30 15 -67 15q-45 0 -64 -19q-12 -11 -12 -29q0 -14 7 -24t48 -51q44 -46 62.5 -73t27.5 -61q3 -13 3 -23q0 -23 -17 -40q-21 -21 -65 -21q-46 0 -77 23q-25 19 -25 45q0 13 11 21
q7 5 9.5 4.5t6.5 -5.5q5 -7 5 -14t10.5 -16.5t23.5 -13.5q12 -4 33 -4q28 0 37 6t7 24q-5 45 -79 120q-42 43 -55 63.5t-13 43.5zM438 490q22 5 45 5q58 0 85 -17q11 -7 10 -19q-2 -14 -13 -14q-6 0 -13 4q-11 6 -56 6q-53 0 -67 -7q-24 -13 -24 -31q0 -13 51 -64
q55 -57 65 -74q38 -59 38 -105q0 -51 -46 -72q-23 -11 -57 -11q-49 0 -84 23q-19 12 -31.5 32t-12.5 36q0 9 5 16q6 7 14 7q15 0 15 -17q0 -10 11.5 -23.5t27.5 -22.5q25 -13 55 -13q39 0 55 19q9 10 9 25t-7 35q-19 51 -80 112q-43 43 -55.5 61t-12.5 37q0 53 73 72z" />
    <glyph glyph-name="t_h.liga" unicode="th" horiz-adv-x="706" 
d="M378 610q4 8 14 8t14 -7q3 -8 3 -164q0 -157 4 -157q3 0 14 22q17 36 43 61.5t50 32.5q12 2 16 2q80 0 115 -198q7 -42 7 -54q0 -6 -2 -12q-4 -9 -16 -11h-4q-7 0 -10 9.5t-11 52.5q-31 173 -80 173q-10 0 -26 -10q-11 -7 -29 -32t-26 -45q-32 -77 -37 -117
q-4 -26 -8 -30q-5 -5 -12 -5q-11 0 -17 9q-6 10 -6 236v106q0 123 4 130zM125 519q1 7 1.5 18t1 17t2 13t4 10t7.5 3q15 0 19 -60q3 -43 7 -45q5 -3 33 -3q47 0 47 -15q0 -22 -34 -22q-12 0 -19 1l-32 2v-28q0 -94 14 -237q1 -6 1 -16q0 -11 -5 -19q-6 -9 -17 -9q-7 0 -12 5
q-10 12 -18 229l-2 70q-12 1 -35.5 1t-35.5 1l-1 12q-1 12 7 16.5t36 7.5l28 3z" />
    <glyph glyph-name="n_n.liga" unicode="nn" horiz-adv-x="777" 
d="M52 466q7 7 15 5q7 -1 9 -5.5t4 -26.5q3 -25 5 -76q2 -44 6 -44l11 26q32 88 79 113q16 8 46 8q28 0 46 -12q51 -37 72 -133q7 -35 7 -133q0 -86 -6 -97q-4 -9 -19 -9q-10 0 -11 5q-1 2 -3 105q-2 94 -9.5 133.5t-31.5 74.5q-20 29 -48 29q-26 0 -50 -27q-22 -26 -42 -90
t-27 -130q-4 -35 -6 -42.5t-9 -11.5q-10 -5 -19 3q-5 5 -7.5 26t-9.5 114q-8 115 -8 150q0 37 6 45zM574 463q15 8 32 8q73 0 104 -160q20 -107 20 -174q0 -13 -2 -17q-5 -8 -18 -8q-12 0 -15 7q-3 10 -6 52q-17 210 -64 253q-9 9 -20 9q-39 0 -72 -101q-27 -79 -35 -163
q-4 -45 -23 -45q-11 0 -15 9t-4 46q0 10 2 90q4 131 8 163t18 32q10 0 13.5 -9t3.5 -34v-12q0 -7 -0.5 -16.5t-0.5 -12.5l1 -12q2 0 14 24q24 54 59 71z" />
    <glyph glyph-name="t_i_n_g.liga" unicode="ting" horiz-adv-x="1262" 
d="M359 521q-7 6 -7 20q0 18 10 34.5t25 16.5q23 0 23 -39q0 -16 -10.5 -27.5t-23.5 -11.5q-10 0 -17 7zM115 544q6 9 12 9q20 0 20 -61l1 -16l26 -2q57 -5 77 -10.5t20 -18.5q0 -1 -0.5 -3t-0.5 -3q-2 -7 -5 -8.5t-16 0.5q-37 4 -59 5l-43 2l2 -46q1 -11 4.5 -62.5
t5.5 -79.5q5 -70 5 -93q0 -11 -1 -12q-3 -9 -18 -9q-9 0 -13 5q-8 9 -17 182q-1 25 -2.5 52t-2.5 41t-1 15q0 2 -23 2h-6q-29 0 -29 16q0 17 38 22l20 2v31q0 31 6 40zM356 467q3 9 13 9q13 0 15.5 -11t2.5 -59q0 -51 8 -159q6 -71 6 -89q0 -15 -3 -21q-6 -11 -16 -11
q-7 0 -12 4q-9 6 -11 62q-10 140 -10 200q0 57 7 75zM1128 428q-29 8 -52 8q-53 0 -87 -33t-34 -88q0 -11 1 -17q4 -47 37.5 -86t77.5 -39q60 0 88 74l8 21q-14 102 -21 154zM959 427q48 44 112 44q29 0 60 -12q12 -5 23 -6.5t15 -1.5t9 -5t8 -15t10 -34q11 -41 12 -103
q0 -44 5 -112q2 -34 2 -47q0 -121 -67 -160q-44 -26 -92 -26q-54 0 -84 33q-21 22 -21 47q0 10 5 20t10 10q4 0 16 -25q12 -26 27.5 -35.5t46.5 -9.5q56 0 87 31q17 17 23.5 38t7.5 71q0 7 0.5 18t0.5 16q0 23 -2 23q-5 0 -19 -16q-36 -36 -84 -36q-56 0 -102 49
q-36 39 -47 94q-4 17 -4 39q0 69 42 111zM526 452q4 9 14 9t13 -9q1 -2 5 -52q5 -89 13 -125q1 -3 2 -3q2 0 10 28q33 107 78 131q17 9 38 9q14 0 25 -4q41 -12 58 -66t24 -194q1 -12 1 -31q0 -21 -3.5 -28.5t-12.5 -7.5q-10 0 -13 5q-6 9 -11 82q-11 129 -23 166.5
t-46 37.5q-30 0 -55 -49q-26 -50 -44 -163q-11 -70 -20 -76q-7 -6 -11 -6t-11 6q-9 8 -20 117q-14 142 -14 191q0 26 3 32z" />
    <glyph glyph-name="o_r.liga" unicode="or" horiz-adv-x="703" 
d="M232 424q-30 11 -61 11q-23 0 -33 -6q-22 -12 -35.5 -45t-13.5 -71q0 -27 8 -54q8 -23 24 -47t31 -34q16 -11 35 -11q33 0 64 28q21 19 35.5 62.5t14.5 81.5q0 25 -8 39q-15 29 -61 46zM115 470q5 5 38 5q41 0 65 -6q38 -9 68.5 -30.5t43.5 -48.5q10 -20 10 -51
q0 -45 -18 -95.5t-42 -75.5q-41 -41 -92 -41q-25 0 -46 12q-63 35 -86 125q-6 26 -6 50q0 80 45 127q16 18 16 21q0 4 4 8zM432 441q4 6 11 6q17 0 17 -38q0 -31 6 -31q3 0 14 13q28 33 81 43q19 4 40 4q52 0 52 -21q0 -9 -9.5 -13t-39.5 -5q-47 -1 -71 -14t-38 -44
q-19 -41 -19 -92q0 -20 1 -32q3 -44 3 -59q0 -16 -5 -23q-5 -5 -13 -5q-12 0 -20 8q-8 9 -11 97q-4 84 -4 145q0 56 5 61z" />
    <glyph glyph-name="t_e_r.liga" unicode="ter" horiz-adv-x="1022" 
d="M136 569q7 7 10.5 7t10.5 -5q6 -5 6 -28v-21v-44l44 3q12 1 27 1q17 0 26 -6q6 -5 6.5 -7.5t-4.5 -9.5q-5 -8 -15 -10.5t-54 -6.5q-26 -2 -28 -5v-9q0 -94 10 -240q2 -44 2 -45q0 -14 -4 -21q-6 -9 -15 -9t-14 8q-8 16 -16 203l-5 106l-30 -3q-7 -1 -17 -1q-25 0 -25 15
q0 17 42 24l29 5l1 14q5 77 13 85zM571 439q-19 10 -46 10q-41 0 -82.5 -23t-60.5 -58q-8 -14 -8 -18q0 -7 26 -13q52 -11 94 -11q77 0 101 29q12 13 12 24q0 1 -0.5 4.5t-0.5 5.5q-3 34 -35 50zM474 481q21 6 46 6q53 0 84 -23q41 -29 41 -78q0 -54 -50 -80
q-25 -13 -73 -18q-5 -1 -17 -1q-31 0 -73 6.5t-63 14.5h-1q-5 0 -5 -11q0 -29 16 -59q22 -44 67 -71t103 -31q35 -2 37 -6q1 -2 1 -8q0 -22 -42 -22q-50 0 -106 28q-53 26 -83.5 73.5t-30.5 101.5q0 50 27 92q19 29 52 52t70 34zM735 459q3 7 12 8.5t14 -4.5q3 -3 9 -41
q4 -35 8 -35q3 0 3 3q0 7 23 28t38 29q23 11 56 11q37 0 55 -9q13 -7 16.5 -11.5t3.5 -14.5t-12 -10q-11 0 -30 4q-17 3 -31 3q-44 0 -68 -26q-27 -28 -40 -72q-7 -21 -7 -43q0 -17 3 -68q3 -46 3 -68q0 -35 -14 -42q-4 -2 -7 -2q-14 0 -22 20q-11 27 -11 97q0 15 2 47
q2 34 2 44t-4 76q-3 37 -3 61q0 13 1 15z" />
    <glyph glyph-name="e_n_t.liga" unicode="ent" horiz-adv-x="1068" 
d="M894 548q5 8 17 8q11 0 12 -6q2 -6 2 -36v-6q0 -31 5.5 -35.5t37.5 -6.5q29 -2 39 -5t10 -12q0 -12 -12.5 -16.5t-42.5 -4.5h-34l2 -113q2 -115 7 -153q3 -24 3 -33t-5 -17q-6 -10 -19 -9l-12 1l-5 39q-2 15 -7.5 139.5t-5.5 145.5h-4q-18 0 -32 -1q-5 0 -12 -0.5
t-10 -0.5q-18 0 -24.5 3.5t-6.5 13.5q0 12 9.5 16.5t42.5 6.5l36 2l3 23q2 26 2 37q0 12 4 20zM261 436q-11 7 -41 7q-26 0 -39 -5q-33 -12 -56.5 -40.5t-30.5 -63.5l-3 -13l24 -3q25 -3 56 -3q51 0 68 6q47 17 47 64q0 35 -25 51zM165 474q15 7 43 7h18q29 -1 36.5 -2.5
t19.5 -9.5q16 -12 29 -31q12 -19 13 -49v-13q0 -18 -9 -36q-18 -36 -55 -52q-13 -7 -26.5 -8t-69.5 -1h-77l2 -29q6 -85 59 -112q21 -12 97 -12.5t81 -8.5q1 -1 1 -5q0 -14 -25 -19q-37 -7 -88 -7q-20 0 -28 1q-67 7 -102.5 56t-35.5 132q0 154 117 199zM452 456q5 11 15 11
q7 0 12 -6q4 -4 7 -61l2 -55l8 17q18 42 42 66q34 35 84 35q25 0 39.5 -9.5t26.5 -34.5q16 -31 27 -99.5t13 -138.5v-21q0 -23 -5 -29q-7 -7 -18 -3l-10 3l-5 66q-2 39 -9 97q-7 47 -18.5 84.5t-21.5 43.5q-5 3 -17 3q-23 0 -39 -8q-32 -16 -49 -58t-28 -131q-9 -73 -19 -86
q-6 -9 -18 -9q-11 0 -14 7q-7 12 -7 237q0 75 2 79z" />
    <glyph glyph-name="a_r_e.liga" unicode="are" horiz-adv-x="973" 
d="M885 403q-6 23 -18.5 32.5t-41.5 9.5q-44 0 -73 -29q-13 -13 -25.5 -37.5t-14.5 -41.5l-2 -15l43 -3q12 -1 33 -1q44 0 65 11q36 17 36 58q0 6 -2 16zM785 480q12 3 36 3q33 0 48 -5q25 -10 40.5 -36t15.5 -56q0 -19 -8 -38q-16 -35 -45 -50.5t-81 -15.5q-22 0 -35 1
q-36 2 -43 2h-5q-1 -1 -1 -4q0 -10 6.5 -35t12.5 -39q17 -34 36.5 -48.5t52.5 -14.5h11q27 1 46 13q17 11 23 6t6 -12q0 -22 -30 -37q-18 -9 -48 -9q-45 0 -74 17q-36 21 -58 68.5t-22 103.5q0 66 32.5 118t83.5 68zM200 427q-3 18 -12 18q-8 0 -27 -12q-33 -19 -52 -59
t-19 -92t29 -82q21 -21 36 -21q4 0 6 1q14 5 27.5 64.5t14.5 115.5q0 52 -3 67zM149 469q22 11 42 11q19 0 30 -11q9 -9 14 -24t15 -68q6 -32 32 -145q20 -82 20 -99q0 -10 -15 -12h-4q-9 0 -14 13t-19 69t-17 56q-2 0 -11 -34q-22 -84 -65 -84h-6q-36 5 -65 38t-36 79
q-2 18 -2 23q0 13 6 43q22 111 95 145zM419 441q2 30 17 30q5 0 10 -4q6 -5 9 -31l3 -25l20 20q29 31 88 36q7 1 16 1q10 0 17 -6q8 -8 8 -13q0 -10 -6 -13.5t-23 -4.5q-48 -4 -70 -22.5t-35 -62.5q-7 -27 -7 -103q0 -79 -5 -84q-4 -4 -14.5 -4.5t-14.5 3.5q-3 3 -8.5 107.5
t-5.5 155.5q0 5 0.5 12t0.5 8z" />
    <glyph glyph-name="Q_u.liga" unicode="Qu" horiz-adv-x="912" 
d="M352 519q-19 19 -26.5 25.5t-22.5 12.5t-35 6q-15 0 -38 -3q-44 -5 -80.5 -42.5t-50.5 -94.5q-10 -37 -10 -76q0 -83 43 -135q12 -15 35.5 -27.5t45.5 -14.5h11q48 0 57 9q4 4 -12 28q-15 25 -15 36q0 7 6 10q4 2 6 2q11 0 34 -34q19 -26 23 -26q7 0 25 15.5t30 31.5
q17 22 27.5 61.5t10.5 76.5q0 19 -3 34q-12 55 -61 105zM257 598q6 2 19 2q59 0 120 -72q58 -67 58 -154q0 -2 -0.5 -8t-0.5 -8q-9 -122 -92 -184l-18 -14l27 -41q26 -40 26 -55q0 -7 -6 -10q-8 -2 -9 -2q-12 0 -40 44q-28 42 -33 47q-3 2 -28 -4q-24 -6 -52 -6q-29 0 -50 6
q-107 32 -127 174q-2 22 -2 33q0 52 17 103t46 83q46 50 108 59q27 4 37 7zM782 480q6 10 17 10q8 0 12 -7q4 -8 4 -40q0 -53 24 -177q14 -77 20 -115q3 -19 3 -27t-8 -14q-9 -7 -11.5 -7.5t-9.5 4.5q-6 5 -18 71q-11 64 -15 75q-3 10 -6 5q-1 -3 -4 -10q-50 -120 -107 -120
q-19 0 -41 12q-72 41 -90 207q-4 36 -4 68q0 52 16 55h2l2 1q7 0 10.5 -12t5.5 -48q9 -168 59 -223q20 -22 40 -22q3 0 9 2q38 14 71 123q12 38 12 106q0 70 7 83z" />
    <glyph glyph-name="c_k.liga" unicode="ck" horiz-adv-x="693" 
d="M398 607q5 8 12.5 10t12.5 -4q2 -3 6 -94q2 -97 5 -138l3 -50l32 30q23 21 57 44.5t48 27.5q7 3 17 -5q6 -5 6 -10q0 -11 -39 -36q-67 -41 -98 -86l-11 -17l18 -15q20 -19 134 -99q25 -18 32.5 -25t7.5 -14q0 -20 -16 -20q-15 0 -136 92l-53 40v-61q0 -50 -3 -60.5
t-17 -10.5q-11 0 -15 11q-3 8 -6 191q-3 181 -3 233q0 55 6 66zM181 490q20 7 41 7q28 0 47 -12t19 -30q0 -15 -11 -15q-8 0 -17 10q-6 7 -11.5 8.5t-21.5 1.5q-46 0 -94 -47q-18 -18 -23 -26.5t-12 -32.5q-10 -40 -10 -74q0 -36 10 -63q16 -41 36 -58t51 -17h12
q25 2 52.5 18t36.5 33q4 8 15 8q18 0 18 -14q0 -16 -24 -40q-47 -45 -110 -45q-31 0 -55 12q-35 18 -58.5 66.5t-23.5 100.5q0 28 7 63.5t17 54.5q14 26 46 53t63 38z" />
    <glyph glyph-name="T_h.liga" unicode="Th" horiz-adv-x="824" 
d="M276 597q73 6 88 6q12 0 20 -4t8 -11q0 -10 -16.5 -15t-70.5 -10q-63 -5 -75 -9q-5 -2 -5 -71q0 -140 10 -310q1 -12 2 -26.5t1.5 -23t0.5 -13.5q0 -12 -4 -20q-5 -8 -13 -8q-10 0 -15 11t-8 41q-11 108 -11 286q0 38 1 53l3 79l-64 2q-51 1 -63.5 4t-12.5 16t12.5 15.5
t70.5 2.5q49 0 141 5zM477 589q3 14 14 14q9 0 12 -8q5 -12 10 -160q8 -163 10 -181l2 -31l13 22q13 23 33.5 45t34.5 28q18 8 34 8q38 0 73 -30.5t50 -78.5q12 -43 12 -94q0 -20 -2 -25q-4 -14 -15 -15h-4q-10 0 -13.5 11t-5.5 47q-3 48 -10 69q-13 35 -36 55.5t-48 20.5
q-16 0 -28 -8q-20 -12 -44 -54.5t-33 -81.5q-7 -29 -10.5 -36.5t-10.5 -7.5h-5q-13 1 -17 11q-4 8 -9 110q-4 122 -7 172q-4 92 -4 127q0 51 4 71z" />
    <glyph glyph-name="S_h.liga" unicode="Sh" horiz-adv-x="797" 
d="M456 616q3 10 14 10q10 0 11 -7q2 -8 2 -182q0 -177 2 -180q2 -4 10 15l4 10q26 71 88 100q24 12 48 12h2q50 0 75 -41t35 -140q2 -18 2 -48q0 -49 -10 -59q-11 -11 -21 -3q-7 6 -8 61q-3 139 -38 177q-9 10 -14.5 12t-20.5 2q-32 0 -60 -22t-41 -59q-11 -29 -26 -100
q-12 -53 -19 -69.5t-18 -16.5h-3q-11 2 -15 22t-7 97q-3 90 -3 182q0 197 11 227zM134 606q21 3 43 3q44 0 110 -13q48 -9 48 -25q0 -15 -19 -15q-14 0 -51 6q-53 8 -91 8q-41 0 -57 -8q-29 -14 -29 -57q0 -33 13 -53.5t43 -35.5q102 -53 180 -157q39 -51 39 -90
q0 -32 -29 -58q-34 -30 -85 -30q-69 0 -122 50q-17 16 -39.5 45.5t-22.5 35.5q0 5 4.5 9.5t9.5 4.5t43 -38q32 -32 51 -45t46 -20q20 -4 29 -4q31 0 53.5 15t22.5 37q0 42 -82 124q-29 30 -49 45.5t-55 33.5q-38 21 -51 32.5t-23 32.5q-9 18 -11 27.5t-2 36.5q0 41 7 53
q23 43 76 50z" />
    <glyph glyph-name="C_h.liga" unicode="Ch" horiz-adv-x="834" 
d="M503 617q3 2 8 2q20 0 24 -186q0 -6 0.5 -9.5t0.5 -9.5v-11l4 -140l21 29q18 26 43 52.5t36 31.5q9 5 30 5q22 0 32 -5q48 -22 67 -106q17 -72 17 -158q0 -24 -3 -32.5t-13 -8.5q-14 0 -20 51t-15.5 116t-32.5 90q-14 15 -29 15q-12 0 -24 -7q-16 -10 -52 -59t-47 -76
q-8 -21 -10 -48q-3 -48 -21 -48q-7 0 -14 9q-5 6 -6 40.5t-2 213.5q0 174 1 210.5t5 38.5zM250 610q21 3 41 3q43 0 75 -12t32 -29q0 -3 -1 -5q-3 -8 -10 -8q-6 0 -20 7q-12 7 -56 8h-14q-66 0 -109 -24q-28 -17 -54 -54t-36 -76q-5 -20 -5 -56q0 -116 106 -167
q49 -23 103 -23q34 0 51.5 6t35.5 23q19 18 25 18q3 0 3 -8v-8q-8 -62 -112 -67h-11q-68 0 -127.5 33.5t-88.5 88.5q-11 21 -19.5 52t-8.5 51q0 34 13.5 76t33.5 73q53 82 153 98z" />
    <glyph glyph-name="f_o_r.liga" unicode="for" horiz-adv-x="970" 
d="M197 641q13 4 33 4q28 0 51 -8t26 -20q1 -3 1 -8q0 -9 -12 -9q-3 0 -17 2q-19 4 -39 4q-86 0 -96 -103l-2 -26l50 -2q39 -1 52.5 -5t16.5 -14q1 -3 1 -7q0 -8 -12 -10t-52 -2h-56l2 -70q4 -73 9 -129q9 -88 9 -105q0 -16 -5 -19q-6 -6 -17 -4q-12 1 -15 14
q-4 10 -12.5 117.5t-8.5 141.5q0 24 -2 38q-1 9 -4.5 10.5t-19.5 2.5q-14 1 -18.5 3t-6.5 9q-2 6 -2 8q0 18 31 18h7q11 0 13 5.5t6 38.5q14 103 89 125zM461 437q-5 7 -21 0q-68 -28 -68 -145v-17q5 -105 53 -130q12 -6 30 -6q21 0 40 8q40 18 66 68t26 101q0 48 -23 75
q-12 14 -36 26.5t-44 14.5q-21 2 -23 5zM445 476q14 2 19 2q29 0 88 -29q38 -19 59 -61q13 -26 14 -61v-11q0 -105 -67 -170q-47 -47 -99 -47q-26 0 -50 12q-35 18 -56 65t-21 110q0 98 49 151q29 32 64 39zM830 465q16 11 40 11q35 0 47 -24q6 -11 2 -21q-3 -6 -5.5 -8
t-7 -0.5t-12.5 6.5q-10 7 -23 7q-42 0 -81 -83l-14 -29l3 -91q1 -30 1 -64q0 -29 -5 -33q-5 -5 -16 -5t-16 5q-19 19 -19 101q0 39 7 63q6 26 6 76q0 40 3.5 55t13.5 17h3q15 0 15 -24v-16l20 23q20 22 38 34z" />
    <glyph glyph-name="f_l.liga" unicode="fl" horiz-adv-x="476" 
d="M216 636q15 5 46 5q46 0 62 -8q24 -13 24 -28t-12 -15q-6 0 -19 5q-19 9 -50 9t-51 -10q-39 -21 -51 -105l-3 -15h60q41 0 52 -1.5t15 -6.5q5 -7 5 -9.5t-5 -9.5q-6 -9 -65 -11l-60 -2q-1 0 -1 -36q0 -79 17 -218q6 -48 6 -67q0 -25 -14 -27q-1 0 -2.5 -0.5t-2.5 -0.5
q-10 0 -15 19t-13 92q-10 89 -14 166l-3 65l-28 -1h-10q-18 0 -26 6q-7 6 -7 12q0 14 43 20q30 4 30 8l4 32q14 104 88 132zM402 616q4 10 13 10q10 0 13 -6.5t3 -35.5q0 -8 -2 -78q-3 -73 -3 -198v-42q0 -17 0.5 -41.5t0.5 -32.5q0 -49 -3.5 -60.5t-15.5 -11.5h-1
q-13 0 -15.5 20t-2.5 137v52q0 252 13 287z" />
    <glyph glyph-name="f_i.liga" unicode="fi" horiz-adv-x="472" 
d="M230 625q13 3 26 3q25 0 48 -11q31 -14 31 -34q0 -17 -11 -17q-8 0 -21 9q-19 13 -43 13q-23 0 -37 -6q-21 -9 -37.5 -35t-21.5 -59l-3 -16h59q40 0 49.5 -1.5t12.5 -6.5q8 -15 -7 -23q-3 -2 -26.5 -4t-48.5 -3.5t-29 -2.5l-14 -2l3 -49q5 -91 31 -191q13 -52 13 -69
q0 -10 -4 -14t-12.5 -4t-12.5 4q-4 5 -20 70.5t-23 106.5q-8 52 -11 97l-2 49q-11 1 -33.5 1t-33.5 1l-1 12q-1 13 6.5 17.5t33.5 6.5q29 2 31 6q0 1 1 6t3 13t3 15q22 98 101 118zM379 572q7 7 18 7t19.5 -8t8.5 -20q0 -14 -9 -23.5t-20 -9.5q-14 0 -19 12q-5 9 -5 21
q0 14 7 21zM379 461q8 5 17 -2q5 -4 7 -19.5t3 -78.5q5 -157 15 -209q4 -19 4 -33q0 -18 -9 -24q-8 -4 -11 -4q-13 0 -16 16q-7 26 -14.5 120t-7.5 150q0 76 12 84z" />
    <glyph glyph-name="A_n.liga" unicode="An" horiz-adv-x="857" 
d="M303 486q-20 49 -23 52t-9 -6q-25 -39 -72.5 -138t-47.5 -112q0 -3 17 -3q18 0 31 1q72 6 105 9q63 6 63 8q0 9 -22.5 75t-41.5 114zM262 577q12 14 18 14q32 0 119 -263q29 -87 29 -91q0 -9 20 -58t27 -57q11 -12 11 -28q0 -19 -18 -19q-30 0 -75 147q-12 39 -14 39
q-4 0 -90 -9q-11 -1 -125 -12l-38 -3l-15 -37q-16 -43 -24 -72q-11 -36 -19 -37h-4q-16 0 -16 23q0 14 6 35q13 53 58 149q113 241 150 279zM655 420q21 8 37 8q31 0 55 -27q19 -22 31 -65.5t24 -134.5q7 -63 7 -73q0 -18 -7 -23q-7 -4 -15 -2.5t-11 8.5q-4 11 -13 86
q-18 146 -47 180q-10 12 -24 12t-33 -10q-96 -48 -102 -217q-1 -44 -5.5 -57.5t-16.5 -13.5q-11 0 -14 5q-6 7 -16 123t-10 168q0 15 1 18q4 15 15 15q5 0 9 -5q4 -4 8 -57q6 -65 9 -65q2 0 12 21q17 37 46 65.5t60 40.5z" />
    <glyph glyph-name="a_n.liga" unicode="an" horiz-adv-x="762" 
d="M213 429q0 8 -1.5 10t-8.5 2q-23 0 -60 -35q-54 -54 -54 -148q0 -38 4 -49q4 -10 14 -21t18 -14q2 -1 5 -1q20 0 37 27q20 30 31 119q7 58 11 79q4 20 4 31zM182 476q9 3 18 3q30 0 47 -20q7 -8 7 -54q0 -89 49 -197q17 -43 17 -51q0 -17 -14 -17q-1 0 -3 0.5t-3 0.5
q-10 3 -25 35q-23 51 -29 69q-10 30 -15 30l-1 -5q-1 -4 -2.5 -11.5l-2.5 -12.5q-10 -50 -36.5 -81t-57.5 -31q-5 0 -15 2q-31 8 -49.5 42t-18.5 80q0 18 3 36q11 68 46.5 117.5t84.5 64.5zM445 464q9 9 15 2q12 -12 12 -82q0 -36 3 -36t12 24q10 25 29.5 44.5t40.5 25.5
q19 6 37 6q20 0 34 -7q28 -13 40.5 -44t30.5 -132q15 -84 15 -106q0 -23 -17 -23t-22 39q-4 32 -18 105t-19 90q-7 24 -16 31t-30 7q-30 0 -48 -15.5t-29 -50.5q-16 -46 -24 -133q-4 -60 -7 -73t-11 -18q-8 -6 -18 0q-9 6 -11.5 34t-4.5 158l-3 145z" />
    <glyph glyph-name="S_t.liga" unicode="St" horiz-adv-x="639" 
d="M131 600q22 8 54 8q56 0 124 -21q32 -10 32 -19q0 -1 -4 -7q-4 -4 -11 -4q-9 0 -47 7q-51 9 -84 9q-49 0 -77 -23l-16 -14l1 -33q3 -52 39 -107q19 -29 88 -88q73 -63 93 -87.5t20 -49.5q0 -23 -20.5 -40.5t-57.5 -26.5q-27 -6 -53 -6q-71 0 -122 45q-41 36 -41 64
q0 12 11 13h3q8 0 22 -18q25 -34 70 -55q19 -9 59 -9q42 0 61 9q31 15 31 26q0 3 -2 7q-10 22 -99 99q-62 54 -86 82.5t-40 69.5q-17 41 -17 76q0 69 69 93zM468 556q5 10 16 8l10 -1q0 -19 -1 -56t-1 -55l42 3q10 1 26 1q29 0 29 -15q0 -9 -9 -13t-36 -7q-6 -1 -14.5 -2
t-11.5 -1t-8.5 -1t-7 -2t-4.5 -2.5t-3.5 -3.5t-1.5 -5t-1 -6.5v-9.5v-24q0 -24 7 -136q5 -68 5 -76q0 -15 -5 -22q-6 -10 -16 -10q-8 0 -14 7.5t-6 18.5v6v7q0 13 -4 81q-5 68 -5 108q0 31 -2 47l-3 14l-29 -2h-15q-32 0 -32 19t41 19q28 0 34 3.5t6 22.5q0 65 14 85z" />
    <glyph glyph-name="t_t.liga" unicode="tt" horiz-adv-x="567" 
d="M138 545q3 11 16 11q6 0 11 -5q2 -3 6 -48l3 -43l45 2q12 1 27 1q19 0 25 -6q7 -7 7 -12q0 -16 -55 -19q-40 -4 -43 -6q-5 -2 -5 -21v-15q8 -165 14 -230q2 -16 2 -36q0 -14 -3.5 -18.5t-12.5 -4.5q-16 0 -22 33t-11 158q-3 99 -6 117l-2 12l-31 2q-31 2 -41.5 7.5
t-10.5 18.5v14l37 1h18.5t15.5 0.5t7 0.5q5 0 5 38q0 36 4 48zM379 538q4 10 14 9q11 -2 15.5 -13.5t4.5 -39.5v-6q0 -30 4 -37.5t21 -7.5q3 0 10 0.5t12 0.5t13.5 0.5t11.5 0.5q32 0 32 -13t-13 -18t-50 -8q-35 -4 -38 -7q-1 -1 -1 -28q0 -89 7 -184q2 -34 2 -38
q0 -16 -4 -26q-6 -12 -19 -12q-6 0 -11 5q-9 10 -13 190l-3 93l-25 -1h-12q-24 0 -24 16q0 10 4.5 14.5t16.5 5.5q4 0 9 1t11 2t8 1l13 2v44q0 44 4 54z" />
    <glyph glyph-name="r_e_s.liga" unicode="res" horiz-adv-x="976" 
d="M763 475q35 12 83 12q43 0 69 -11q13 -5 13 -17q0 -17 -17 -17q-3 0 -15 2q-23 5 -48 5q-39 0 -66 -9q-24 -8 -30.5 -14.5t-6.5 -27.5q0 -16 7 -24t27 -19q16 -7 48.5 -31.5t54.5 -45.5q45 -42 45 -89q0 -14 -5 -27q-10 -24 -37.5 -37.5t-64.5 -13.5q-52 0 -101 25
q-20 11 -39.5 28.5t-19.5 25.5q0 20 17 20q11 0 18 -11q14 -20 49 -33t74 -13q69 0 69 36q0 18 -14 39q-9 14 -45.5 44t-63.5 46q-34 19 -46 35.5t-12 44.5q0 33 12.5 50t44.5 27zM537 408q-15 31 -58 31q-20 0 -38 -9q-25 -12 -45.5 -39t-22.5 -53q-1 -13 10 -16
q20 -6 71 -6q28 0 37 3q14 4 28 21t19 35q4 16 4 18q0 5 -5 15zM350 393q18 35 53 60t75 25q34 0 65 -20q37 -25 37 -67q0 -41 -35 -79q-18 -20 -34 -26.5t-50 -6.5q-43 0 -64 3l-25 3l3 -13q6 -31 31 -64.5t51 -45.5q19 -9 45 -9q20 0 26 6q4 6 12 6q6 0 11 -5t5 -13
t-12 -20q-8 -8 -14.5 -9.5t-31.5 -1.5q-33 0 -59 12q-48 23 -77.5 74.5t-29.5 109.5q0 46 18 81zM49 462q3 5 12.5 4.5t13.5 -5.5q5 -5 9 -53q3 -51 7 -51q5 0 15 21q13 24 36.5 48.5t39.5 28.5q20 4 49 4q32 0 42 -4q7 -3 7 -10q0 -16 -52 -21q-29 -3 -42.5 -10.5
t-29.5 -29.5q-26 -35 -36 -73.5t-10 -107.5v-12v-31q0 -36 -3.5 -45t-16.5 -9q-12 0 -15.5 12.5t-8.5 74.5q-19 203 -19 249q0 18 2 20z" />
    <glyph glyph-name="i_n_g.liga" unicode="ing" horiz-adv-x="1161" 
d="M53 656q0 8 7 3q8 -6 3 -9q-2 -1 -4 -1q-6 0 -6 7zM257 600q7 7 14 7t20 -8q17 -11 17 -27q0 -15 -16 -31q-10 -10 -22 -10t-20 8.5t-8 21.5q0 21 15 39zM265 464q4 7 13 7q13 0 17 -10q4 -6 7 -106q1 -18 2 -55t2 -64.5t2 -43.5q2 -48 2 -51q0 -19 -4 -24q-6 -8 -15 -8
t-14 6q-8 10 -14 193q-3 81 -3 112q0 34 5 44zM446 465q6 7 14 7q11 0 14 -10q4 -10 4 -70q0 -59 3 -59q2 0 17 28q23 46 53.5 72.5t58.5 26.5q22 0 38 -16q19 -19 30.5 -58.5t28.5 -143.5q13 -79 13 -101q0 -17 -9 -23q-7 -4 -9.5 -4t-9.5 4q-10 6 -10 21q0 11 -13 94.5
t-18 107.5q-19 79 -43 79h-4q-13 -3 -29.5 -17t-27.5 -32q-50 -76 -50 -179q0 -41 -4 -49q-5 -7 -17 -7q-9 0 -13 5q-4 6 -13 88q-9 87 -9 173q0 56 5 63zM1004 420q-8 8 -19 8q-8 0 -24 -3q-37 -7 -59 -41q-21 -31 -21 -86t28 -86q21 -22 54 -22q26 0 51.5 15t38.5 40
t13 55q0 7 -2 27q-4 31 -11.5 47t-23.5 27q-18 12 -25 19zM953 459q13 3 24 3q13 0 43 -6q20 -4 36 -20q27 -25 37 -55.5t16 -103.5q4 -43 4 -91q0 -159 -63 -218q-34 -32 -78 -43q-20 -4 -29 -4q-41 0 -67 23q-9 8 -18.5 26.5t-9.5 27.5q0 8 4.5 13t10.5 5q9 0 13 -10
q10 -25 24.5 -35t39.5 -10h4q47 0 84 40q28 32 39 92q9 45 9 95q0 14 -2 14t-20 -16q-31 -30 -81 -33q-3 0 -7.5 -0.5t-6.5 -0.5q-39 0 -71 28q-47 44 -47 122q0 58 30 102t82 55z" />
    <glyph glyph-name="E_r.liga" unicode="Er" horiz-adv-x="675" 
d="M103 595q9 2 107 2q86 -1 93 -5q2 -1 5 -4q9 -9 5 -16t-89 -9q-134 -3 -139 -15v-11q0 -49 1 -86l3 -95l83 2h38q40 0 51 -2.5t11 -11.5q0 -13 -10 -16.5t-47 -3.5q-45 0 -81 -3l-45 -3l3 -74q4 -79 5 -88l2 -14l24 -2q1 0 12 -0.5t19 -0.5q20 0 72 2q58 2 66 2
q25 0 33.5 -3t8.5 -11q0 -26 -174 -26q-88 0 -97 15q-5 10 -11 153.5t-6 238.5q0 58 3 61q14 16 54 24zM524 444q17 7 44 7q23 0 36 -5q21 -10 21 -28q0 -8 -6 -14q-5 -4 -17 2q-10 6 -32 6q-25 0 -40 -7q-40 -18 -62 -64q-20 -41 -20 -92q0 -28 1 -47t1 -45q0 -29 -3 -34
q-4 -5 -14 -5q-12 0 -16 7q-11 19 -11 218q0 79 4 90q5 7 12 7q17 0 17 -42v-21l20 21q29 32 65 46z" />
    <glyph glyph-name="t_i_o.liga" unicode="tio" horiz-adv-x="901" 
d="M376 597q9 6 22 6q14 0 20 -6q8 -6 8 -23q0 -15 -8 -28q-13 -21 -36 -21q-16 0 -22 12q-4 7 -4 18q0 27 20 42zM147 565q4 6 13 7t13 -4q3 -5 5 -44l2 -39l50 -2q51 -2 56 -5q5 -4 4.5 -13t-6.5 -12q-8 -4 -53 -6q-48 -2 -48 -7q0 -25 5 -120q9 -170 9 -196q0 -27 -7 -34
q-12 -12 -23 -1q-8 8 -10 59q-1 10 -8 171q-5 119 -7 121h-4q-4 0 -32 -2q-24 -2 -27 -2q-11 0 -17 5q-10 7 -10 16q0 19 33 19q17 0 39 2l20 3v38q0 40 3 46zM729 425q-9 4 -25 4q-36 0 -58 -18q-23 -17 -37 -54t-14 -79q0 -34 8 -58q17 -57 60 -63q6 -1 17 -1
q37 0 71.5 21t50.5 54q10 20 10 53q-1 49 -24 88.5t-59 52.5zM671 463q9 4 28 4q29 0 56 -11q41 -19 69.5 -70t28.5 -103q0 -9 -2 -25q-9 -53 -48.5 -90t-94.5 -49q-15 -3 -29 -3q-56 0 -89.5 45t-33.5 120q0 88 51 142q22 22 36 28q12 4 28 12zM387 458q10 8 20 1
q5 -4 5 -19q0 -1 -2 -45q-3 -69 -3 -112q0 -37 1 -54q0 -13 0.5 -34.5t0.5 -30.5q0 -42 -2 -46q-6 -7 -21 -6q-5 0 -7.5 3t-4.5 13.5t-2.5 29t-0.5 51.5v62q1 113 3.5 146t12.5 41z" />
    <glyph glyph-name="a_n_d.liga" unicode="and" horiz-adv-x="1205" 
d="M1010 371q-20 14 -47 15h-12q-15 0 -29 -10q-41 -32 -41 -93t42 -105q43 -45 116 -45q41 0 61 19q12 12 12 22q0 1 -0.5 5t-0.5 7q-4 47 -34.5 103t-66.5 82zM1095 401q-9 101 -9 147q0 74 21 74h3q6 -1 6.5 -6.5t3.5 -43.5q8 -144 25 -289q12 -101 12 -139q0 -18 -3 -24
q-4 -7 -15 -7t-16 6q-5 5 -13 -2q-22 -20 -74 -20q-59 0 -103 25q-31 18 -56 53t-32 72q-3 16 -3 35q0 72 42 112q31 31 76 31q66 0 119 -69q16 -21 19 -21q1 0 1 2q0 4 -4 64zM207 435q-6 9 -18 9q-19 0 -45 -24q-29 -26 -43 -73q-13 -43 -13 -91q0 -71 28 -108
q11 -16 25 -16q24 0 45 44q14 31 18.5 61.5t6.5 102.5q1 24 1 54q0 33 -5 41zM148 468q25 12 42 12q23 0 46 -23q9 -9 11.5 -15.5t4.5 -30.5q5 -57 49 -198q19 -62 19 -77q0 -19 -20 -19q-22 0 -24 37q-1 14 -13 52t-16 38q-1 0 -5 -18q-7 -52 -36 -93q-28 -40 -65 -40
q-20 0 -36 12q-26 19 -41.5 61t-15.5 91q0 23 2 35q18 137 98 176zM410 469q3 7 11 7q11 0 16 -9q4 -7 6 -79l2 -71l16 29q30 58 71 83q18 10 43 10t42 -12q33 -23 54.5 -82.5t37.5 -178.5q4 -27 4 -44q0 -15 -4 -20t-14 -5q-11 0 -15 7t-6 30q-1 6 -4.5 32t-5.5 41
q-30 194 -87 194q-22 0 -45 -22q-34 -31 -55 -95.5t-20 -138.5q0 -28 -19 -28q-11 0 -15.5 13t-8.5 61q-6 94 -6 219q0 51 2 59z" />
    <glyph glyph-name="e_e.liga" unicode="ee" horiz-adv-x="720" 
d="M248 425q-11 9 -41 10h-10q-21 0 -39 -11q-37 -22 -55 -60q-9 -18 -9 -25q0 -11 41 -16q34 -4 48 -4q47 0 84 18q7 3 9.5 5t3.5 4t1 7v9q-1 16 -11 35.5t-22 27.5zM180 474q8 2 24 2q42 0 74 -28t41 -74q3 -14 3 -23q0 -22 -14.5 -35t-50.5 -25q-30 -10 -78 -10
q-47 0 -85 10q-7 1 -7.5 -0.5t1.5 -14.5q3 -17 15.5 -39.5t24.5 -33.5q46 -38 112 -38h8l26 1l2 -13q1 -8 -1.5 -11t-11.5 -7q-15 -6 -34 -6q-69 0 -124 44q-34 26 -50 76q-7 21 -7 47q0 61 38.5 113.5t93.5 64.5zM588 435q-10 3 -20 3q-48 0 -85 -43q-9 -11 -17.5 -27.5
t-8.5 -23.5q0 -2 1 -3q2 -2 21 -2q4 0 14 0.5t15 0.5q113 5 113 57q0 29 -33 38zM495 455q36 21 69 21h13q38 -3 61.5 -26.5t23.5 -53.5q0 -39 -36 -65q-41 -30 -125 -30h-17l-33 1v-23q0 -80 102 -107q18 -5 68 -5l49 -1l1 -10q3 -19 -35 -27q-8 -2 -27 -2
q-41 0 -87.5 16.5t-69.5 39.5q-42 42 -42 111q0 49 22.5 93t62.5 68z" />
    <glyph glyph-name="S_c_h.liga" unicode="Sch" horiz-adv-x="1164" 
d="M801 619q5 6 12 6q10 -2 14 -24.5t6 -97.5q4 -111 6 -123l3 -23l11 22q29 59 99 72q8 2 21 2q35 0 59.5 -30t46.5 -100q37 -113 37 -195q0 -11 -2 -21q-4 -15 -16 -16h-4q-17 0 -17 34q0 79 -39 198q-17 52 -31 71.5t-36 19.5h-2q-17 0 -38 -9.5t-30 -20.5
q-21 -25 -35 -85.5t-14 -126.5q0 -28 -4.5 -39t-16.5 -11q-13 0 -17 16t-6 84q-7 151 -8 175q-6 100 -6 153q0 61 7 69zM144 602q26 8 75 8q43 0 79 -6q35 -6 45.5 -11t11.5 -15l2 -11l-35 3q-29 3 -94 3q-60 0 -80 -9q-18 -8 -30 -20q-10 -11 -8 -26q2 -14 15 -37t27 -37
q12 -12 70 -52q112 -76 142 -139q20 -42 20 -73t-19 -51q-29 -34 -89 -34q-16 0 -32 3q-67 12 -130.5 50t-63.5 66q0 13 8 13q10 0 29 -16q42 -33 98 -55t97 -22q14 0 24 3q40 10 40 42q0 9 -3 21q-10 42 -42.5 78t-102.5 84q-50 34 -74.5 58t-38.5 53q-15 30 -15 54
q0 16 8 29q20 31 66 46zM579 475q11 3 34 3h4q28 0 46 -8t18 -20q0 -7 -5.5 -8t-30.5 -1h-10q-46 0 -66 -10q-34 -17 -54 -59q-17 -37 -17 -73q0 -50 31 -90q17 -22 47 -35.5t60 -13.5q24 0 39 8q12 6 17 12t11 24q1 6 8 6q11 0 17 -11q4 -8 4 -13q0 -15 -16 -31
q-31 -34 -82 -34q-41 0 -84 22q-44 22 -72 78q-15 30 -16 65v11q0 66 33 115.5t84 62.5z" />
    <glyph glyph-name="t_i_o_n.liga" unicode="tion" horiz-adv-x="1315" 
d="M395 604q9 9 18 9q11 0 23 -9q13 -7 13 -24q0 -13 -8.5 -25.5t-22.5 -15.5q-1 0 -3 -0.5t-3 -0.5q-18 0 -33 17q-3 3 -3 9q0 21 19 40zM149 548q5 8 15 8t14 -7q4 -9 0 -30q-4 -26 -4 -27q0 -11 21 -11h25q48 0 55 -7q16 -14 3 -24q-6 -4 -34 -4q-34 0 -52 -3l-22 -3
l2 -108q2 -101 6 -151q3 -26 3 -35q0 -11 -4 -16q-7 -10 -15 -10q-10 0 -16 13q-14 36 -14 219v82l-12 -2q-29 -6 -49 -6q-7 0 -10 1q-10 3 -10 14q0 12 5 15q6 4 42 11l36 7l5 33q6 34 10 41zM749 420q-22 21 -36 21q-7 0 -29 -5q-34 -8 -58 -33q-19 -19 -25.5 -38.5
t-6.5 -54.5q0 -40 10 -67q20 -51 52 -72q24 -15 50 -15q44 0 78.5 36.5t34.5 87.5q0 2 -0.5 6t-0.5 7q-8 70 -69 127zM655 464q29 8 57 8q59 0 64 -21q2 -8 24 -32q56 -61 56 -139q0 -8 -2 -24q-8 -60 -49 -97q-17 -15 -43 -28q-24 -12 -57 -12q-32 0 -52 10
q-44 21 -71.5 72t-27.5 109q0 32 9 60q10 32 35 58t57 36zM390 461q5 7 12 7q10 0 13.5 -10t3.5 -42v-19q0 -86 4 -159q3 -56 3 -81t-3.5 -32t-13.5 -8q-9 -1 -14 7q-12 22 -12 219q0 110 7 118zM1072 458q16 6 38 6q31 0 59 -13q32 -16 48 -52t31 -126q13 -81 16 -96
q2 -9 2 -22q0 -17 -15 -18q-10 -1 -14 6q-11 23 -32 143q-12 71 -22.5 96t-32.5 36q-15 7 -35 7q-48 0 -72 -31q-45 -57 -49 -189q-3 -69 -8 -74q-13 -15 -26 1q-7 8 -10 105q-1 24 -1 70q0 105 8 127q5 12 20 12q6 0 8 -2q4 -3 4 -14q0 -13 -1 -23q0 -3 -0.5 -8t-0.5 -7
q0 -18 3 -18q2 0 5 11q2 9 17.5 28.5t27.5 27.5q15 11 32 17z" />
    <glyph glyph-name="h_i_s.liga" unicode="his" horiz-adv-x="926" 
d="M52 625q5 9 13 9q12 0 15.5 -17.5t4.5 -92.5q7 -243 15 -243q1 0 21 51q28 71 62.5 109t69.5 38q13 0 27 -6q45 -21 69 -119q15 -60 15 -145q0 -64 -10 -74t-20 -2q-7 6 -8 79q-1 117 -31 181q-22 48 -44 48q-14 0 -37.5 -25t-38.5 -56q-18 -38 -41 -103t-27 -90
q-4 -30 -8 -34q-5 -5 -13 -5q-12 0 -17 8q-3 7 -7 76q-1 13 -5.5 85.5t-8 141.5t-3.5 114q0 62 7 72zM472 603q14 8 27 8q15 0 26 -11q10 -10 10 -23q0 -12 -8.5 -22.5t-21.5 -13.5q-13 -4 -27 -4q-30 0 -30 27q0 25 24 39zM679 484q24 6 61 6q51 0 69 -9q16 -7 16 -18
t-21 -11q-15 0 -26 2q-18 2 -27 2q-48 0 -78 -14q-9 -5 -11 -7.5t-1 -12.5q1 -9 6 -15t24 -19q35 -24 71 -46q65 -42 97 -88q15 -24 16 -47l2 -25l-19 -19q-22 -21 -46.5 -29t-68.5 -8q-47 0 -66 9q-24 11 -40 30.5t-16 37.5q0 16 15 16q3 0 11 -4q9 -5 9 -10q0 -3 12 -17
q23 -25 71 -25q2 0 7.5 0.5t8.5 0.5q36 2 59.5 13.5t23.5 27.5q0 15 -23.5 43.5t-48.5 43.5q-129 81 -138 98q-9 15 -9 37q0 7 2 15q4 13 20 24.5t38 17.5zM474 446q13 15 24 1q5 -6 6 -103q2 -106 5 -144q2 -30 2 -36q0 -17 -4 -22.5t-13 -5.5q-11 0 -16 8q-11 22 -11 191
q0 103 7 111z" />
    <glyph glyph-name="s_h.liga" unicode="sh" horiz-adv-x="751" 
d="M424 607q5 7 12 7q11 0 13 -12q4 -21 6 -178l2 -176l13 34q22 59 60 96.5t76 37.5q45 0 68 -89q18 -79 28 -194q1 -8 1 -21q0 -25 -17 -25q-11 0 -16.5 13t-8.5 47q-9 106 -26 175q-14 52 -32 55h-2q-12 0 -33 -16.5t-34 -36.5q-31 -46 -55 -145q-12 -49 -19 -63t-20 -14
h-2q-11 0 -14 12q-5 22 -5 186v60q0 242 5 247zM143 480q21 5 51 5q50 0 67 -16q10 -9 6 -17q-5 -7 -60 -7q-57 0 -78 -9q-17 -7 -29.5 -18.5t-12.5 -21.5q0 -12 29 -37t72 -51q92 -55 120 -99q8 -13 8 -27q0 -16 -8 -27q-14 -19 -74 -38q-30 -9 -73 -9q-41 0 -59 7
q-19 8 -32.5 23t-13.5 29q0 12 6 20t14 8q6 0 10.5 -7t4.5 -16q0 -7 13 -15q11 -8 54 -8q44 0 81.5 10.5t37.5 23.5q0 10 -32 37t-74 52q-48 28 -68.5 44.5t-37.5 39.5q-17 21 -17 42q0 20 20 43q26 28 75 39z" />
    <glyph glyph-name="e_r.liga" unicode="er" horiz-adv-x="702" 
d="M258 443q-20 4 -27 4q-15 0 -36 -6q-73 -20 -97 -85q-8 -21 -8 -27q0 -9 24 -12q7 -1 24 -1q74 0 131 23q20 9 27 19t7 29q0 45 -45 56zM197 482q18 3 34 3q49 0 80 -27.5t31 -71.5q0 -42 -27.5 -65t-89.5 -34q-48 -9 -85 -9q-11 0 -27 2l-23 3v-12q0 -14 13 -38t27 -36
q47 -41 133 -55q13 -2 16.5 -5t3.5 -12q0 -16 -29 -16h-5q-35 1 -80.5 21t-71.5 46q-49 49 -49 120q0 45 23 93q37 75 126 93zM419 448q5 11 16 11q7 0 12 -6q5 -5 8 -55q3 -49 5 -49q3 0 14 17q13 20 38.5 42.5t48.5 34.5q34 16 59 16q17 0 24 -7q8 -8 8 -15q0 -13 -34 -17
q-51 -6 -90.5 -49.5t-54.5 -100.5q-8 -28 -8 -72q0 -32 1 -54v-12q0 -23 -4 -30t-16 -7t-16 12.5t-5 58.5q0 2 -2.5 63.5t-3.5 97.5q-2 39 -2 87q0 30 2 34z" />
    <glyph glyph-name="s_p.liga" unicode="sp" horiz-adv-x="737" 
d="M139 490q15 3 41 3q35 0 55 -5q37 -12 37 -31q0 -15 -14 -15q-6 0 -18 5q-19 8 -54 8q-30 0 -48 -6q-15 -5 -33.5 -21t-18.5 -24q0 -18 54 -61q101 -78 126 -108q41 -48 41 -86q0 -17 -13 -33q-29 -32 -106 -32q-49 0 -88 17q-22 10 -37.5 26.5t-15.5 30.5q0 22 13 22
q9 0 20 -16q21 -31 88 -39q10 -1 27 -1q72 0 72 29q0 43 -123 137q-54 41 -76 65.5t-22 46.5q0 12 6 24q8 19 34 38t53 26zM567 419q-24 13 -51 13q-35 0 -86 -22q-6 -2 -6 -60v-55l1 -113l15 -8q13 -6 38 -8h10q43 0 87.5 24.5t62.5 59.5q10 20 10 48t-10 48
q-10 21 -30 41.5t-41 31.5zM445 453q4 2 13 5.5t12.5 5t10 3.5t13.5 2.5t15 0.5q2 0 8 -0.5t9 -0.5q32 -1 54.5 -12t51.5 -40q47 -48 55 -100q2 -14 2 -21q0 -56 -45 -102.5t-115 -62.5q-23 -5 -39 -5q-24 0 -48 9l-16 6l2 -53q1 -14 2.5 -42t2.5 -35q1 -6 1 -14
q0 -11 -6 -18t-14 -7q-10 0 -16 9q-11 29 -11 343q0 113 4 125q6 17 18 17t13 -14q1 -8 23 1z" />
    <glyph glyph-name="O_n.liga" unicode="On" horiz-adv-x="919" 
d="M249 556q-24 3 -32 3q-9 0 -20 -3q-32 -10 -61 -46t-42 -83q-7 -28 -7 -65t7 -65q12 -45 38 -78.5t57 -44.5q18 -6 39 -6q37 0 68 16q39 18 68.5 55.5t38.5 79.5q3 15 3 35q0 42 -11 72q-20 52 -59.5 87.5t-86.5 42.5zM215 587q12 1 31 1q47 0 88 -26q71 -46 98 -128
q12 -39 12 -78q0 -93 -68 -161q-65 -65 -148 -65h-12q-57 3 -103 52q-64 69 -64 176q0 112 64 180q24 26 46 36.5t56 12.5zM738 448q10 3 21 3q45 0 68 -46q14 -27 20.5 -66.5t15.5 -148.5q1 -16 3 -33t3 -27.5t1 -16.5q0 -7 -2 -11q-3 -7 -16 -7q-10 0 -14 5q-8 9 -18 128
q-7 82 -13.5 116t-19.5 53q-10 14 -28 14q-45 0 -97 -77q-29 -44 -41.5 -82t-16.5 -97q-4 -57 -11 -66q-5 -5 -11 -5q-11 0 -16 10q-8 15 -14 237q0 10 -0.5 25.5t-0.5 21.5q0 38 3.5 48.5t14.5 12.5h2q8 0 11.5 -16.5t5.5 -70.5l3 -69l15 29q61 117 132 136z" />
    <glyph glyph-name="t_h_e_r.liga" unicode="ther" horiz-adv-x="1424" 
d="M377 590q10 8 20 0q8 -5 10 -51q3 -37 3 -106q0 -58 2 -74l3 -14l19 21q56 62 128 62q12 0 24 -3q19 -5 27.5 -13.5t14.5 -29.5q7 -25 7 -146q0 -124 -7 -134q-12 -17 -26 -1q-6 6 -6 70v58v54q0 63 -3.5 81t-15.5 23q-8 2 -13 2q-22 0 -51.5 -13.5t-47.5 -31.5
q-26 -28 -41 -114q-11 -56 -13.5 -64t-10.5 -12q-10 -5 -17 4q-5 5 -6.5 30t-3.5 153q-3 167 -3 205q0 20 1 29.5t2 10.5zM137 541q4 4 15 4q17 0 17 -30q0 -13 -1 -21l-2 -33l48 2q5 0 14 0.5t12 0.5q21 0 28 -3.5t7 -14.5q0 -10 -10 -13t-47 -5q-38 -2 -48 -5
q-9 -4 -9 -131q0 -26 2 -92q1 -27 1 -63q0 -30 -3.5 -38t-15.5 -9h-5q-12 0 -14.5 25.5t-2.5 147.5l-1 156l-26 -2q-7 -1 -18 -1q-27 0 -27 17q0 11 8 15t36 6l32 3l4 40q4 39 6 44zM963 422q-10 0 -14 1q-1 0 -3 0.5t-4 0.5q-37 0 -83 -36q-14 -11 -27.5 -29t-13.5 -25
q0 -5 36 -5q46 0 91 11t52 24q4 7 4 15q0 14 -16 29q-14 14 -22 14zM920 460q7 2 21 2q39 0 70 -25t31 -57q0 -5 -2 -15q-21 -73 -182 -73h-55l2 -21q4 -49 52.5 -82t103.5 -33h6l28 1l1 -12q3 -27 -41 -27q-32 0 -73 16t-68 41q-47 44 -47 108q0 25 2 35t13 31
q19 40 58 71.5t80 39.5zM1149 448q3 5 14 5t15 -10.5t4 -39.5v-29l22 20q38 37 86 37q34 0 59.5 -14t25.5 -33q0 -20 -14 -20q-9 0 -20 11q-13 13 -27 16q-10 3 -21 3q-60 0 -98 -83q-7 -15 -8 -28.5t-1 -68.5q0 -74 -5 -86q-6 -11 -17 -11q-9 0 -15 7q-7 8 -7 73
q0 58 2.5 151.5t4.5 99.5z" />
    <glyph glyph-name="c_b.liga" unicode="cb" horiz-adv-x="703" 
d="M568 418q-17 7 -25 7q-7 0 -25 -7q-35 -16 -52 -61q-6 -17 -14.5 -62t-8.5 -61q0 -12 12 -24q34 -34 69 -34q38 0 62 37q29 45 29 111q0 32 -9 53q-13 29 -38 41zM388 604q2 6 10.5 6.5t13.5 -5.5q6 -10 10 -119q5 -103 5 -114q0 -2 14 21q23 38 57 58q22 11 44 11
q29 0 55.5 -16t40.5 -44q17 -34 17 -80t-19 -97q-15 -39 -45 -64t-66 -25q-31 0 -63 22q-19 12 -23 10t-4 -19t-4 -25q-3 -8 -15 -8t-15 8q-4 9 -8 145q-3 107 -8 216q-2 28 -2 66t5 53zM49 302q0 60 31.5 104t81.5 56q21 6 46 6q33 0 58.5 -9.5t25.5 -22.5q0 -10 -14 -10
q-10 0 -30 3q-12 2 -33 2q-60 0 -95 -38q-28 -31 -28 -84v-14q5 -123 115 -123h12q51 3 73 27q6 7 12 7q12 0 12 -17q0 -8 -3 -14q-11 -19 -42.5 -31t-68.5 -12q-32 0 -58 10q-18 7 -38 25.5t-31 37.5q-10 18 -18 48t-8 49z" />
    <glyph glyph-name="q_u.liga" unicode="qu" horiz-adv-x="822" 
d="M211 414q-5 5 -12 5q-9 0 -30 -9q-20 -9 -39.5 -28.5t-29.5 -40.5q-11 -23 -11 -58q0 -31 7 -50t26 -40q35 -38 81 -38q70 0 93 92q7 25 7 37q0 10 -3 26q-7 54 -24 73q-9 9 -25.5 17.5t-28.5 8.5q-6 0 -11 5zM98 402q49 53 102 53q29 0 61 -16q35 -16 51 -38t23 -63
q3 -20 3 -45q0 -53 -9 -76q-7 -15 -7 -60v-35q0 -79 5 -107q9 -60 20 -60q5 0 12 17.5t7 30.5q0 33 19 33q20 0 20 -34q0 -30 -18 -58t-42 -34q-10 -2 -23 11q-36 36 -39 171q0 48 -2 48t-24 -12q-26 -13 -56 -13q-57 0 -105 50q-48 49 -48 114q0 70 50 123zM453 420
q13 15 23 -1q6 -8 6 -52q0 -71 21 -136.5t53 -94.5q16 -14 31 -14q24 0 56 35q37 40 52 105q16 66 16 135q0 19 8 25q12 9 23 -2q8 -8 8 -39q0 -70 19 -218q5 -40 5 -50q0 -22 -16 -22q-12 0 -16.5 9.5t-9.5 47.5q-7 55 -11 55q-2 0 -11 -17q-23 -46 -57.5 -74.5
t-66.5 -28.5q-57 0 -98 82t-42 195q0 53 7 60z" />
    <glyph glyph-name="i_o_n.liga" unicode="ion" horiz-adv-x="964" 
d="M60 604q6 7 16 7q12 0 22.5 -9.5t10.5 -22.5q0 -12 -8 -25t-18 -17t-14.5 -3t-11.5 9q-10 10 -10 27q0 21 13 34zM397 438q-22 26 -27 26q-28 -2 -55 -17q-48 -23 -69 -104q-9 -35 -9 -63q0 -67 52 -92q22 -11 63 -13h16q58 0 86 28q28 27 32 61q1 5 1 15q0 57 -47 110
q-14 15 -43 49zM333 493q25 5 37 5q18 0 36 -9q15 -8 32.5 -26t17.5 -26q0 -6 20 -30q35 -40 46 -89q4 -20 4 -32q0 -60 -32 -98q-30 -35 -74 -46q-22 -6 -54 -6q-63 0 -99 19q-69 35 -69 127q0 46 19 99q35 94 116 112zM773 495q9 4 22 4q29 0 52 -27q41 -48 63 -255
q6 -58 6 -80t-8 -30q-7 -7 -17 -3q-8 4 -11 18t-9 81q-23 257 -76 257q-5 0 -13 -4q-36 -20 -67 -83q-21 -42 -29 -76.5t-9 -92.5q-1 -50 -5 -63t-15 -13q-13 0 -16.5 20t-7.5 123q-4 118 -4 134q0 78 18 81h3l1 1q7 0 9.5 -12.5t4.5 -52.5l2 -56l12 26q17 35 44 64.5
t50 38.5zM62 461q12 16 25 -2q6 -8 6 -171q0 -129 -2.5 -154t-16.5 -25q-11 0 -15.5 16t-5.5 67q-1 19 -1 65q0 194 10 204z" />
    <glyph glyph-name="c_h.liga" unicode="ch" horiz-adv-x="727" 
d="M396 627q5 7 10 7q10 0 13 -12q4 -18 6 -190l2 -190l7 23q14 48 42 88t56 54q15 6 30 6q22 0 36 -10q28 -20 48 -74q21 -54 32 -134q1 -4 1 -13q0 -32 -15 -37l-2 -1h-2q-15 0 -20 37q-7 58 -23 111t-33 71q-13 13 -22 13q-13 0 -36 -23q-37 -38 -62 -128
q-32 -111 -49 -115q-19 -4 -24 12q-4 9 -4 151q0 331 9 354zM172 482q17 4 49 4q45 0 61 -8q12 -6 11 -17l-1 -10l-35 1h-17q-112 0 -146 -76q-9 -21 -9 -34q0 -2 0.5 -6t0.5 -7q4 -49 37 -84.5t83 -46.5q20 -5 57 -5q35 0 42 5q5 3 9 3q6 0 10.5 -5t4.5 -12t-6 -13
q-13 -15 -64 -15h-18q-108 6 -158 74q-20 27 -27 48.5t-7 56.5q0 39 11 62q32 66 112 85z" />
    <glyph glyph-name=".notdef" horiz-adv-x="364" 
d="M33 0v666h265v-666h-265zM66 33h199v600h-199v-600z" />
    <glyph glyph-name=".null" 
 />
    <glyph glyph-name=".null" 
 />
    <glyph glyph-name="nonmarkingreturn" horiz-adv-x="333" 
 />
    <glyph glyph-name="CR" unicode="&#xd;" 
 />
    <glyph glyph-name="space" unicode=" " 
 />
    <glyph glyph-name="exclam" unicode="!" horiz-adv-x="183" 
d="M61 695q4 8 14 8t14 -10t4 -67q0 -44 8 -188q8 -136 8 -157q0 -29 -7 -36q-5 -7 -14 -7q-11 0 -15 16.5t-7 76.5q-1 17 -4.5 76t-4.5 84q-3 54 -3 104q0 86 7 100zM59 127q-11 9 -11 23q0 18 15.5 35t33.5 17q13 0 24 -10q12 -11 12 -25q-1 -20 -16.5 -34t-34.5 -14
q-14 0 -23 8z" />
    <glyph glyph-name="quotedbl" unicode="&#x22;" horiz-adv-x="268" 
d="M61 584q15 10 19 10q6 0 12 -8t6 -70q0 -63 -3 -69q-4 -7 -16 -7t-16 8q-5 10 -10 41t-5 56q0 21 2 26t11 13zM178 578q8 6 21 4q12 -2 17 -8t5 -22q0 -6 -2 -28q-4 -40 -4 -57q0 -38 -20 -38h-3q-14 2 -18 17.5t-4 65.5q0 60 8 66z" />
    <glyph glyph-name="numbersign" unicode="#" horiz-adv-x="449" 
d="M275 419q0 6 -7 7.5t-43 1.5q-51 0 -53 -7q-4 -14 -9.5 -48t-5.5 -44q0 -6 52 -6h49l8 44q9 43 9 52zM171 599q3 6 10 7t12 -4q4 -4 4 -16t-8 -66q-6 -48 -6 -51q0 -4 51 -4h49l11 52q10 48 17 67q6 15 17 14t12 -15q0 -16 -9 -66l-8 -52q0 -2 35 -6q28 -2 34.5 -5.5
t6.5 -12.5q0 -10 -10 -13.5t-40 -3.5h-34l-8 -46q-7 -39 -7 -51q0 -6 1.5 -7t5.5 -1q18 0 43 -4q47 -6 47 -20q0 -1 -2 -7q-3 -7 -26 -7h-29l-51 2l-7 -31q-43 -181 -49 -189q-6 -7 -12 -7q-8 0 -14 9q-3 4 -3 11q0 15 21 100q22 95 22 106q0 6 -52 6h-50l-13 -49
q-25 -100 -40 -136q-3 -9 -15 -9q-10 0 -16 7q-3 3 -3 9q0 8 24 93q4 15 8.5 31t8 28t3.5 14q3 6 2 8.5t-3.5 3t-10.5 0.5q-10 0 -28 5q-12 4 -12 15t8.5 15t31.5 4h25l8 42q10 46 11 50q1 6 -2 7.5t-17 3.5q-20 2 -27 6t-7 13q0 18 38 18q24 0 24 2q0 7 13 66.5t15 63.5z
" />
    <glyph glyph-name="dollar" unicode="$" horiz-adv-x="375" 
d="M276 287q-5 12 -33 44l-23 25l2 -75q2 -74 4 -81q2 -3 6 -3q10 0 30 9q24 10 24 42q0 20 -10 39zM184 543q0 28 -3 28q-7 0 -20.5 -10.5t-19.5 -21.5q-7 -15 -3 -29q3 -10 20 -34t21 -24q5 0 5 91zM197 663q11 13 23 -1q5 -8 7 -29q1 -16 3 -19.5t7 -3.5q9 0 17 -5.5
t8 -12.5q0 -11 -19 -12l-18 -1l-3 -84l-2 -84l32 -33q40 -41 56.5 -70.5t16.5 -60.5q0 -32 -21.5 -56t-57.5 -31l-23 -5l2 -35q1 -8 1 -21q0 -32 -18 -35h-3q-11 0 -15.5 12.5t-4.5 45.5v40l-19 7q-40 14 -91 63q-25 25 -25 36v6q1 10 3 13t9 4q11 1 16 -9q7 -13 47.5 -44
t50.5 -31q5 0 5 93v94l-31 33q-54 57 -54 94q0 25 21.5 50t50.5 34l20 6l3 23q2 23 6 29z" />
    <glyph glyph-name="percent" unicode="%" horiz-adv-x="516" 
d="M349 628q11 13 20 12q12 -2 12 -10q0 -10 -18 -42q-39 -67 -117 -231.5t-83 -189.5q-5 -22 -22 -22q-7 0 -13 6t-6 13q0 16 40 103q58 124 112 228.5t75 132.5zM132 540q-13 8 -18 8q-10 0 -20 -32q-10 -33 -10 -66q0 -32 9 -44q10 -13 23 -13q18 0 31.5 25t13.5 55
q0 49 -29 67zM60 511q3 7 8 24t8.5 25t13 15.5t25.5 7.5q35 0 59 -31t24 -75q0 -9 -2 -25q-7 -43 -29.5 -69.5t-51.5 -26.5q-4 0 -14 2q-26 6 -42 37q-9 17 -9 51q0 37 10 65zM405 350q-10 12 -17 12q-11 0 -22 -33.5t-11 -65.5q0 -10 1 -14q2 -19 10.5 -38t21.5 -19
q9 0 18 11q21 25 21 74q0 50 -22 73zM363 391q11 9 23 9q14 0 29 -9q24 -14 37.5 -44.5t13.5 -67.5q0 -17 -3 -33q-8 -43 -27 -67t-44 -24q-10 0 -23 5q-51 22 -51 99q0 37 13.5 76.5t31.5 55.5z" />
    <glyph glyph-name="ampersand" unicode="&#x26;" horiz-adv-x="499" 
d="M200 334l-20 24q-6 0 -61 -86q-30 -48 -30 -78q0 -24 24.5 -40t59.5 -16q21 0 42 6q48 16 89 50l15 13l-50 51q-51 52 -69 76zM212 614q-22 11 -59 11q-8 0 -14 -2q-23 -9 -23 -35q0 -15 8 -42q6 -19 27 -62.5t29 -51.5q2 -2 3 -2q4 0 22 23q43 58 43 99q0 42 -36 62z
M141 657q10 2 18 2q46 0 73 -17q27 -16 41 -45q12 -24 12 -47q0 -51 -75 -153q-2 -2 -2 -5q0 -8 26 -42q22 -29 63 -72.5t46 -43.5q8 0 35 48t36 77q7 22 20 22h4q10 -1 10 -21q0 -15 -22 -60q-24 -49 -40 -71l-15 -22l19 -20q17 -19 29 -25q11 -6 11 -13q0 -9 -14 -11h-3
q-11 0 -36 20q-27 22 -31 22q-3 0 -13 -10q-22 -24 -72 -49q-41 -21 -88 -21q-52 0 -87.5 26.5t-35.5 68.5q0 55 81 163l28 36l-14 24q-36 63 -55 115q-7 25 -7 52q0 30 9 44q16 22 49 28z" />
    <glyph glyph-name="quotesingle" unicode="'" horiz-adv-x="153" 
d="M53 589q6 9 23 9t24 -7q5 -7 5 -17q0 -11 -3 -44q-5 -64 -9 -77t-17 -13q-10 0 -13 8t-7 38q-8 67 -8 80q0 15 5 23z" />
    <glyph glyph-name="parenleft" unicode="(" horiz-adv-x="222" 
d="M127 605q15 17 27 17q8 0 8 -7q0 -13 -21 -53q-54 -105 -54 -239v-25q3 -65 12 -101q18 -73 56 -155q15 -32 15 -43t-13 -11q-7 0 -11.5 4t-14.5 21q-26 44 -48.5 104t-29.5 104q-5 28 -5 90q0 65 5 96q22 141 74 198z" />
    <glyph glyph-name="parenright" unicode=")" horiz-adv-x="206" 
d="M51 600q0 10 10 10q9 0 26 -21t30 -47q42 -88 42 -217q0 -104 -29 -205q-27 -91 -53 -91h-2q-14 2 -14 13q0 8 11 33q21 47 35 118t14 133q0 120 -49 221q-21 42 -21 53z" />
    <glyph glyph-name="asterisk" unicode="*" horiz-adv-x="395" 
d="M156 621q3 5 12.5 4.5t13.5 -5.5q5 -5 7 -33q2 -27 6 -27t29 27q27 30 41 30q3 0 8 -3q5 -5 5 -9q0 -11 -22 -34q-43 -48 -43 -55q0 -3 54 -3t62 -3q16 -3 16 -16q0 -3 -2 -7q-3 -7 -64 -9q-60 -2 -60 -6q0 -2 39.5 -55.5t39.5 -68.5q0 -8 -5 -13q-6 -4 -9 -4
q-12 0 -39 41q-26 39 -28 39t-2 -8q0 -5 1 -24t1 -29q0 -23 -5 -28q-6 -6 -13 -6q-9 0 -15 10t-6 26q0 21 -4 50.5t-7 29.5q-2 0 -11.5 -15t-18.5 -31t-10 -17q-5 -3 -11 -3q-12 0 -16 10q-2 4 -2 7q0 7 18 42q19 38 19 41h-4q-6 0 -30 -2q-20 -2 -24 -2q-26 0 -26 21
q0 8 9 11.5t37 7.5q33 4 34 5q3 3 -14 21q-36 44 -36 60q0 8 6 9h2q7 0 35 -28l31 -31l-1 39q0 41 2 44z" />
    <glyph glyph-name="plus" unicode="+" horiz-adv-x="440" 
d="M189 515q3 10 14 10q9 0 13 -6q3 -3 8 -76q4 -74 5 -76q1 -5 59 -5q49 0 79 -5q15 -3 18.5 -6t3.5 -13q0 -9 -11 -11.5t-47 -2.5h-27l-71 1l2 -63q0 -6 0.5 -16t0.5 -14q0 -29 -4 -36.5t-17 -7.5q-22 0 -22 39v6v90h-66q-64 0 -72 8q-7 7 -3 17q3 9 31 11q21 3 67 3h40
l-2 72q-1 16 -1 43q0 32 2 38z" />
    <glyph glyph-name="comma" unicode="," horiz-adv-x="185" 
d="M109 185q1 6 10.5 6.5t14.5 -4.5q4 -4 4 -13q0 -26 -34 -107q-12 -29 -20.5 -39.5t-18.5 -10.5q-17 0 -17 10q0 9 14 40q29 63 47 118z" />
    <glyph glyph-name="hyphen" unicode="-" horiz-adv-x="293" 
d="M56 348q9 6 51 6q38 0 79 -4q36 -3 47.5 -6.5t11.5 -12.5t-9.5 -12t-40.5 -3q-5 0 -22 0.5t-28 0.5q-87 2 -90 4q-7 3 -7 12t8 15z" />
    <glyph glyph-name="period" unicode="." horiz-adv-x="173" 
d="M62 182q9 9 27 9q19 0 27.5 -7t9.5 -26v-6q0 -21 -13 -33.5t-36 -12.5q-22 0 -29 22q-1 2 -1 9q0 30 15 45z" />
    <glyph glyph-name="slash" unicode="/" horiz-adv-x="344" 
d="M249 569q22 29 31 29q5 0 9 -4t4 -10q0 -12 -24 -50q-86 -136 -161 -337l-26 -69h-13q-18 0 -18 13q0 8 8 34q33 103 87 215t103 179z" />
    <glyph glyph-name="zero" unicode="0" horiz-adv-x="370" 
d="M211 545q-10 10 -22 16h-4q-23 0 -45 -24q-21 -24 -36.5 -100.5t-15.5 -150.5q0 -18 2 -46q7 -81 33 -110q13 -14 30 -14q29 0 64 31q36 32 54 82q12 33 12 87q0 62 -15 116q-8 31 -25.5 65.5t-31.5 47.5zM150 589q8 4 23 4q23 0 45 -10q29 -14 60 -74q44 -88 44 -183
q0 -28 -5 -65q-12 -86 -73 -142q-46 -43 -90 -43q-53 0 -80 60q-26 57 -26 152q0 69 13 138q24 133 89 163z" />
    <glyph glyph-name="one" unicode="1" horiz-adv-x="254" 
d="M115 575q20 20 29 20q13 0 17.5 -14.5t8.5 -66.5q6 -75 16.5 -186.5t14.5 -124.5q4 -18 4 -54q0 -30 -4 -41t-15 -11t-15 16t-8 77q-5 80 -8 83q-2 3 -13 100t-12 130q0 21 -5 21q-2 0 -28 -28q-24 -27 -33 -27q-5 0 -9 4t-4 10q0 24 64 92z" />
    <glyph glyph-name="two" unicode="2" horiz-adv-x="341" 
d="M107 565q0 14 29 24t60 10q18 0 29 -4q51 -17 51 -75q0 -40 -24 -101q-23 -57 -69 -151t-62 -117q-8 -12 -8 -14q0 -3 37.5 -4t80 -3t50.5 -7q9 -6 9 -14t-9 -14q-8 -5 -38 -5q-6 0 -72 2q-101 2 -110 10q-9 7 -9 15q0 10 19 32q28 34 85.5 152t72.5 172q8 29 8 46
q0 42 -44 42q-21 0 -46 -7q-20 -4 -24 -4q-16 0 -16 15z" />
    <glyph glyph-name="three" unicode="3" horiz-adv-x="378" 
d="M133 595q13 3 37 3q54 0 81 -10q19 -7 33 -20t16 -26q1 -5 1 -14q0 -41 -68 -92q-40 -31 -40 -33q0 -4 19 -8q51 -12 83.5 -48.5t32.5 -78.5q0 -23 -10 -43q-19 -39 -82 -70q-25 -12 -63.5 -23.5t-53.5 -11.5q-27 0 -47.5 14t-20.5 31q0 20 12 20q6 0 15 -9
q10 -12 22 -16q3 -1 11 -1q25 0 66 14t69 32q44 29 44 63q0 12 -9.5 31.5t-18.5 28.5q-17 15 -47.5 25.5t-57.5 10.5q-40 0 -40 21q0 8 15.5 22.5t59.5 46.5q62 46 69 70q0 1 0.5 2.5t0.5 2.5q0 14 -23.5 23t-63.5 9q-27 0 -51 -6q-18 -4 -22 -4q-15 0 -15 11q0 1 2 9
q5 15 44 24z" />
    <glyph glyph-name="four" unicode="4" horiz-adv-x="324" 
d="M250 597q12 14 24 0q5 -7 5 -225q0 -271 -6 -277q-3 -5 -15 -5q-11 0 -15 10t-4 138v129l-84 -2q-23 -1 -55 -1q-30 0 -38.5 3.5t-11.5 16.5q-1 3 -1 19q0 37 7.5 100t14.5 80q5 12 15 12q9 0 12.5 -3.5t3.5 -15.5q0 -14 -6 -61q-8 -61 -8 -91v-22h151v30q0 54 3.5 107
t7.5 58z" />
    <glyph glyph-name="five" unicode="5" horiz-adv-x="347" 
d="M111 600q6 3 47 3q42 0 57 -3q27 -5 27 -17q0 -2 -2 -6q-4 -7 -60 -9q-57 -2 -61 -6t-6 -83q-2 -70 -4 -108l-2 -30l32 -1q65 -1 93 -11q30 -11 47.5 -31.5t17.5 -44.5q0 -25 -27 -58t-63 -51q-53 -27 -105 -27t-52 30q0 14 11 14q3 0 9 -2q9 -4 27 -4q32 0 70.5 14.5
t59.5 35.5q31 33 31 49q0 14 -16.5 26.5t-38.5 16.5q-21 3 -69 3q-56 0 -61 3q-3 3 -3 40q0 51 1 96q3 133 7 141q2 5 8 8.5t14 6.5t11 5z" />
    <glyph glyph-name="six" unicode="6" horiz-adv-x="315" 
d="M182 313q-18 8 -30 8q-14 0 -28 -7q-18 -8 -21 -8q-4 0 -11 -5q-5 -3 -5 -12q0 -1 2 -25q8 -60 37 -89q12 -12 32 -15h6q33 0 51 36q10 20 10 34q0 2 -0.5 6.5t-0.5 7.5q-3 48 -42 69zM188 602q21 12 34 12t13 -11q0 -9 -26 -27q-50 -37 -80 -96q-12 -26 -26 -72t-14 -62
v-9l22 10q21 10 45 10q54 0 88 -52q21 -33 21 -67q0 -9 -4 -29q-18 -70 -74 -87q-18 -4 -25 -4q-37 0 -70 37q-44 47 -44 144q0 101 47 195q38 78 93 108z" />
    <glyph glyph-name="seven" unicode="7" horiz-adv-x="376" 
d="M209 601q12 1 63 1q42 0 48 -8q5 -8 5 -15q0 -13 -16 -38q-29 -43 -104 -264q-47 -137 -56 -150q-9 -14 -18 -14l-12 7q-8 8 -3 21q6 15 51 147q66 194 92 247q13 26 11 28h-7q-8 0 -66 -2q-84 -4 -93 -4q-31 0 -42 4.5t-11 14.5q0 16 158 25z" />
    <glyph glyph-name="eight" unicode="8" horiz-adv-x="353" 
d="M203 327q-16 24 -30 38l-11 11l-14 -17q-16 -19 -29 -47t-15 -51q0 -3 -0.5 -7t-0.5 -6q0 -14 11 -36q16 -34 45.5 -59t53.5 -25q18 0 32 13.5t18 35.5q1 3 1 9q0 50 -61 141zM179 576q-1 3 -13 3q-34 0 -56 -15q-22 -16 -22 -30q0 -26 49 -75l26 -27l32 34q50 52 50 69
q0 1 -0.5 1t-0.5 1q-8 8 -33 20t-32 19zM108 605q16 6 46 6t50 -6t43 -29t26 -23t7 -11q2 -8 2 -11q0 -29 -60 -92l-31 -33l12 -14q31 -37 59 -87.5t37 -85.5q4 -13 4 -30q0 -41 -25 -70t-61 -29q-1 0 -4 0.5t-5 0.5q-29 4 -63 27t-52 51q-24 40 -24 84v13q1 37 14 63
q14 28 32 51l19 26l-31 34q-53 57 -53 95q0 10 3 19q4 13 21.5 29t33.5 22z" />
    <glyph glyph-name="nine" unicode="9" horiz-adv-x="314" 
d="M221 526q-3 9 -6 11t-16 3h-4q-28 0 -56.5 -16t-39.5 -38q-9 -17 -9 -50q0 -42 16 -67t42 -25q12 0 21 4q12 5 26.5 18.5t21.5 28.5q9 19 9 68q0 50 -5 63zM185 576q19 3 30 3q14 0 25 -10q19 -16 22 -47t5 -196q1 -64 1 -137q0 -62 -7 -69q-13 -13 -24 0q-7 7 -8.5 110
t-3.5 105t-22 -11q-29 -20 -57 -20q-34 0 -60 29q-36 39 -36 102q0 18 2 26q18 99 133 115z" />
    <glyph glyph-name="colon" unicode=":" horiz-adv-x="177" 
d="M79 473q12 7 22 7q20 0 27 -18q1 -3 1 -8q0 -16 -14 -35t-32 -25q-8 -2 -11 -2q-24 0 -24 27q0 10 4 19q10 25 27 35zM61 198q6 7 19 7t23 -7q15 -10 15 -25q0 -10 -1 -17q-2 -15 -4 -19t-15 -9q-15 -7 -23 -7q-7 0 -16 6q-8 5 -8 18q0 10 1 18q3 29 9 35z" />
    <glyph glyph-name="semicolon" unicode=";" horiz-adv-x="195" 
d="M89 467q7 4 17 4q16 0 28.5 -10t12.5 -24q0 -18 -12 -30t-28 -12q-13 0 -23 10t-10 29q0 27 15 33zM107 183q6 6 12 6q8 0 14 -9q4 -6 4 -9q0 -7 -15 -38q-20 -45 -24 -59q-9 -27 -13 -34t-13 -8h-4q-18 0 -18 17q0 14 23 67t34 67z" />
    <glyph glyph-name="less" unicode="&#x3c;" horiz-adv-x="400" 
d="M283 511q48 22 59 22q5 0 7 -5q1 -2 1 -5q0 -14 -67 -48q-67 -35 -124.5 -74t-57.5 -50q0 -8 104 -34q132 -33 132 -64q0 -15 -15 -15q-8 0 -19 6q-34 17 -113 37q-121 31 -132 43q-8 10 -8 18q0 16 31 46q62 59 202 123z" />
    <glyph glyph-name="equal" unicode="=" horiz-adv-x="400" 
d="M64 456q4 4 38 4q1 0 133 -4q96 -4 102 -7q7 -4 7.5 -11.5t-5.5 -12.5q-4 -4 -83 -4q-172 0 -188 8q-9 5 -9 15q0 7 5 12zM52 320q3 5 33 5q5 0 69 -2q68 -2 104.5 -3.5t58.5 -3t28 -3t7 -4.5q2 -7 -10 -14q-8 -6 -65 -6h-76q-101 1 -126 4t-27 14q-2 7 4 13z" />
    <glyph glyph-name="greater" unicode="&#x3e;" horiz-adv-x="401" 
d="M50 501q0 13 9 13q10 0 51 -27q66 -43 154 -82q59 -26 73 -36t14 -23t-16.5 -27t-70.5 -47q-54 -32 -105 -67q-52 -34 -60 -34q-9 0 -14 5.5t-5 12.5q0 12 12 17q10 5 53 35q43 29 99 63t56 38q-3 5 -82 45q-168 83 -168 114z" />
    <glyph glyph-name="question" unicode="?" horiz-adv-x="327" 
d="M129 603q14 2 25 2q41 0 71 -10q52 -20 52 -68q0 -39 -37 -75q-32 -29 -82 -55q-28 -14 -30 -16q3 -17 7 -37q9 -40 9 -70q0 -22 -5 -27q-7 -7 -15 -7q-10 0 -13 7t-9 52q-5 37 -12 64q-6 22 -6 26q0 10 9 16.5t39 21.5q39 21 63 37q43 32 43 62q0 12 -7 20
q-18 23 -74 23q-25 0 -51 -6q-27 -6 -38 -6q-9 0 -14 5q-3 3 -3 7q0 21 78 34zM120 186q6 3 13 3q15 0 28 -12t13 -27q0 -29 -26 -37q-8 -3 -15 -3q-29 0 -29 39q0 30 16 37z" />
    <glyph glyph-name="at" unicode="@" horiz-adv-x="578" 
d="M289 393q-2 24 -3.5 28t-9.5 4q-63 -3 -80 -67q-4 -13 -4 -32q0 -54 25 -67q6 -3 13 -3q23 0 41.5 35.5t18.5 83.5q0 12 -1 18zM318 610q-26 8 -47 8q-65 0 -116 -56.5t-65 -147.5q-3 -21 -3 -51q0 -66 10 -102q7 -29 23 -61.5t31 -47.5q18 -19 35.5 -26.5t48.5 -8.5h11
q47 0 95 29q33 21 33 25q0 3 -10 11q-27 21 -44 77q-5 20 -10 20q-4 0 -9 -12q-30 -49 -69 -49q-25 0 -46 22q-30 30 -30 82v12q3 53 31 86t74 36q28 2 32 7q5 5 15 4q22 -3 22 -53v-13q0 -35 11.5 -82.5t27.5 -80.5q15 -29 28 -29q10 0 29 14q61 45 64 135v18q0 56 -26 109
q-22 41 -62 75.5t-84 49.5zM132 591q63 65 135 65q48 0 103 -29q46 -24 85 -67t56 -87q18 -48 18 -105q0 -35 -5 -56q-7 -35 -22.5 -60t-52.5 -62q-39 -41 -66 -61q-70 -52 -141 -52q-40 0 -73 16q-50 23 -82.5 89t-37.5 155q-1 9 -1 26q0 144 84 228z" />
    <glyph glyph-name="A" unicode="A" horiz-adv-x="475" 
d="M311 319q-8 25 -44.5 125.5t-39.5 100.5q-4 0 -22 -42q-16 -39 -40.5 -107t-24.5 -74q0 -2 38.5 -4.5t79 -4.5t41.5 -2q13 -2 14 1q0 1 -2 7zM210 594q10 13 23 12q9 -1 12.5 -7t17.5 -40q28 -70 56 -147q39 -108 41 -112q4 -7 16.5 -46t25.5 -81.5t15 -48.5q5 -12 5 -26
q0 -15 -12 -18q-1 0 -2.5 -0.5t-2.5 -0.5q-16 0 -33 57q-26 85 -35 109t-16 26q-6 2 -103 6l-94 3l-4 -13l-10 -32q-9 -32 -15.5 -58t-6.5 -35q0 -25 -18 -25h-4q-10 1 -15 12q-3 6 -3 12q0 10 7 39q21 88 76.5 236t78.5 178z" />
    <glyph glyph-name="B" unicode="B" horiz-adv-x="377" 
d="M238 377q-15 6 -41 6q-35 0 -57 -9q-19 -7 -40 -12l-16 -3l2 -45q5 -87 12 -131q2 -13 16 -15q3 -1 12 -1q46 0 84 17q46 22 70 63q11 17 11 45t-11 45q-17 29 -42 40zM201 549q-25 25 -71 25q-19 0 -34 -6l-17 -7l3 -79q4 -78 5 -81q2 -2 6 -2q14 0 34 11q15 7 36.5 28
t35.5 42q17 26 17 40t-15 29zM103 607q11 4 28 4q45 0 80 -22q43 -25 43 -66q0 -33 -30 -74l-19 -25l23 -5q62 -13 91 -74q10 -23 10 -53q0 -31 -13 -57q-22 -47 -73 -77t-107 -30h-5q-28 0 -32 -2q-6 -2 -8 -2q-15 0 -24 17q-17 41 -20 267q-1 46 -1 118q0 36 1 39
q2 9 6.5 14.5t17.5 12.5q17 10 32 15z" />
    <glyph glyph-name="C" unicode="C" horiz-adv-x="391" 
d="M107 538q51 57 117 57q23 0 45 -7q25 -7 41.5 -19.5t16.5 -23.5t-8 -11q-7 0 -15 7q-26 22 -71 22q-1 0 -5 -0.5t-5 -0.5q-60 -7 -98 -62.5t-38 -128.5q0 -58 25 -109q18 -36 52.5 -65t66.5 -34q3 -1 10 -1q49 0 79 46q12 17 15 17q7 0 7 -23q0 -22 -18 -41t-49 -30
q-15 -5 -30 -5q-38 0 -78.5 24.5t-70.5 66.5q-47 65 -47 156q0 103 58 165z" />
    <glyph glyph-name="D" unicode="D" horiz-adv-x="426" 
d="M143 541q-14 3 -41 9l-16 3l-3 -17q-1 -6 -1 -32q0 -79 8.5 -226.5t14.5 -154.5q6 -8 27 -8q37 0 73 18t69 50.5t48 64.5q16 35 16 73t-16 79q-23 57 -65 90.5t-114 50.5zM74 579q10 3 22 3q11 0 43 -5q191 -33 233 -206q6 -25 6 -50q0 -112 -107 -191q-67 -50 -130 -50
h-13q-7 1 -19 1q-13 0 -15 -2q-2 -4 -11.5 -3.5t-12.5 4.5q-8 9 -15 131q-9 178 -9 281q0 32 1 38q4 22 9 27t5 12q0 6 13 10z" />
    <glyph glyph-name="E" unicode="E" horiz-adv-x="391" 
d="M184 575q31 3 66 3q40 0 47 -3q15 -8 2 -19q-7 -5 -73 -12q-75 -9 -127 -21q-6 -1 -7 -4.5t1 -14.5q3 -26 6 -80q4 -64 5 -65q2 -2 18 -2q23 0 80 3q20 1 42 1q17 0 21 -4q12 -13 -9 -22q-11 -4 -58.5 -10t-68.5 -6h-22v-21q0 -19 3.5 -69t5.5 -59q2 -8 21 -11.5t97 -7.5
q91 -6 97 -12q8 -8 8 -14q0 -15 -57 -15q-5 0 -20 0.5t-24 0.5q-136 5 -152 22q-11 14 -18 150q-10 197 -16 227q-3 12 -3 20q0 11 12 20q19 13 123 25z" />
    <glyph glyph-name="F" unicode="F" horiz-adv-x="346" 
d="M116 600q40 4 80 4q55 0 78 -5q20 -5 20 -17v-2q-1 -1 -1 -2q-3 -7 -58 -7q-49 0 -99 -6q-31 -4 -37 -6.5t-8 -10.5q-6 -20 -6 -153v-10l8 -1q8 0 23 -1t28 -2q42 -2 55 -5.5t13 -12.5q0 -11 -13 -13.5t-62 -2.5h-54l2 -110q0 -14 0.5 -35.5t0.5 -28.5q0 -42 -3.5 -52.5
t-13.5 -10.5h-1q-15 0 -18 12.5t-4 82.5v14q-1 28 -1 89q0 223 9 257q5 18 14 24q10 6 48 11z" />
    <glyph glyph-name="G" unicode="G" horiz-adv-x="495" 
d="M213 586q32 8 72 8q71 0 103 -17q11 -6 10 -17v-3.5t-0.5 -3l-2 -2t-4.5 -1.5h-8t-15 0.5t-28 1.5t-34 2q-13 1 -33 1q-23 0 -46 -5q-67 -16 -103 -64t-36 -122q0 -88 48 -145.5t127 -64.5q3 0 7.5 -0.5t6.5 -0.5q88 0 120 111q10 33 10 41q0 10 -20 10t-36 -1
q-21 -1 -42 -1q-16 0 -22 6q-5 5 -5 11q0 10 11 14q9 2 51.5 6t62.5 4q24 0 32 -6t8 -27q0 -7 -2 -31q-11 -109 -16 -133t-18 -24q-7 0 -13.5 9t-6.5 18q0 6 -1 6t-11 -9q-3 -3 -5 -4q-44 -38 -100 -38q-18 0 -27 2q-91 15 -144.5 82t-53.5 167q0 86 42 142.5t122 77.5z" />
    <glyph glyph-name="H" unicode="H" horiz-adv-x="455" 
d="M366 590q13 9 21 -8q4 -10 9 -154q6 -152 9 -218q3 -39 3 -57q0 -20 -4 -25.5t-14 -5.5q-12 0 -15 7q-3 5 -7.5 68t-4.5 98v27l-137 -2l-137 -2q-2 -44 -4 -96q-4 -97 -6 -99q-3 -5 -11 -5q-11 0 -17 8q-6 6 -6 60q0 66 1 124q4 247 15 269q4 7 9.5 7.5t8.5 -6.5
q2 -5 6 -113q3 -107 8 -110q3 -2 62 -2q83 0 131 2l72 2l2 114q1 113 6 117z" />
    <glyph glyph-name="I" unicode="I" horiz-adv-x="352" 
d="M143 615q18 2 69 2h14q66 0 66 -18q0 -16 -53 -16q-39 0 -47 -3l-10 -2l3 -148q1 -130 8 -208q1 -14 2.5 -29.5t2.5 -24.5l1 -8q0 -1 42 -5q59 -4 59 -21q0 -12 -15.5 -14t-95.5 -2q-102 0 -112 4t-10 17t7.5 15.5t43.5 2.5h40l-3 26q-11 116 -13 258l-2 135l-39 -2
q-10 -1 -24 -1q-17 0 -20 3q-5 4 -5 13t5 13q8 6 86 13z" />
    <glyph glyph-name="J" unicode="J" horiz-adv-x="376" 
d="M123 610q3 3 52 3h44q72 -1 88.5 -4t16.5 -15q0 -15 -52 -15h-31l2 -14q12 -78 19 -178q3 -37 3 -75q0 -113 -23 -190q-19 -61 -51 -98t-65 -37q-19 0 -37 15q-16 15 -27 39t-11 44q0 8 1 12q4 21 11 21q9 0 21 -39q7 -25 19 -39.5t24 -14.5q11 0 30.5 19.5t30.5 43.5
q39 82 39 225q0 85 -12 215l-5 51h-38q-38 0 -46 4q-7 4 -7.5 13t4.5 14z" />
    <glyph glyph-name="K" unicode="K" horiz-adv-x="400" 
d="M50 572q4 7 12 7t12 -8q9 -18 11 -195q0 -31 3 -31l2 2q1 1 6 8.5t14.5 21.5t16.5 24q47 68 102.5 119t79.5 51q12 0 12 -14q0 -9 -29 -30q-40 -29 -91 -91q-20 -25 -48 -66t-28 -46q0 -3 51 -41q55 -42 123 -103q46 -41 48 -47q2 -8 -3 -15.5t-12 -7.5q-9 0 -90 72
q-37 33 -85 70.5t-53 37.5q-2 0 -9 -13q-4 -8 -4 -24q0 -3 2 -45q3 -53 10 -73q4 -9 4 -20q0 -19 -12 -25q-6 -3 -10 -3q-20 0 -27 70q-12 120 -12 322q0 86 4 93z" />
    <glyph glyph-name="L" unicode="L" horiz-adv-x="343" 
d="M55 585q5 6 12 5.5t10 -6.5q4 -8 6 -152q4 -276 13 -287q2 -2 13 -2q44 0 106 13q42 9 58 9q18 0 18 -14q0 -10 -5 -13q-6 -5 -55 -16.5t-80 -15.5q-14 -2 -33 -2q-17 0 -25 2q-23 5 -30.5 14.5t-9.5 38.5q-7 83 -7 237q0 178 9 189z" />
    <glyph glyph-name="M" unicode="M" horiz-adv-x="644" 
d="M398 562q12 9 23 9q25 0 50 -52q13 -27 26.5 -73t55.5 -206q39 -150 39 -174q0 -11 -4 -15q-2 -2 -4 -2q-9 0 -19 34q-79 279 -83 294q-36 139 -55 156l-10 8l-7 -13q-17 -28 -33.5 -88.5t-23.5 -119.5q-12 -100 -20 -130t-24 -37q-13 -4 -23 1q-15 7 -33 40.5t-63 136.5
q-84 194 -89 189q-3 -3 -8 -108q-5 -100 -13 -179q-8 -80 -8 -98q0 -26 -6 -28q-1 -1 -4 -1q-15 0 -15 50q0 12 4 64q6 65 11 179q8 145 18 156q3 5 17 5t26 -17q28 -38 106 -220q57 -134 68 -134h1q5 1 8 16.5t10 74.5q14 118 36 186q25 78 46 96z" />
    <glyph glyph-name="N" unicode="N" horiz-adv-x="476" 
d="M63 617q6 9 19 9t22 -9q23 -20 131 -220q135 -248 152 -248q3 0 3 30q0 61 -9 150q-13 132 -13 199q0 31 3 40q6 16 10 19q2 2 4 2q10 0 18 -108q6 -82 15 -158q11 -88 11 -132q0 -85 -37 -85q-25 0 -62 54.5t-133 232.5q-99 182 -105 182q-5 0 -6.5 -42t-3.5 -183
q-2 -190 -3 -196q-2 -9 -10 -12.5t-13 1.5q-10 10 -10 170q0 15 0.5 50.5t0.5 56.5q2 175 16 197z" />
    <glyph glyph-name="O" unicode="O" horiz-adv-x="458" 
d="M234 559q-26 4 -31 4q-13 0 -25 -5q-39 -14 -65.5 -76.5t-26.5 -138.5q0 -16 1 -24q6 -88 55 -137q41 -41 100 -44h10q46 0 72.5 21t41.5 69q9 34 9 77q0 41 -7 66q-22 89 -91 161q-22 24 -43 27zM162 584q20 6 35 6q49 0 84 -23t69.5 -74.5t50.5 -105.5q9 -29 9 -89
q0 -58 -9 -85q-13 -37 -38 -65.5t-56 -39.5q-24 -9 -59 -9q-22 0 -42 5q-74 19 -115.5 82t-41.5 153q0 48 14 106q14 52 41 90.5t58 48.5z" />
    <glyph glyph-name="P" unicode="P" horiz-adv-x="372" 
d="M210 541q-30 10 -77 10q-20 0 -32 -3l-17 -4v-244l13 -2q1 0 3 -0.5t4 -0.5q36 0 82 23q36 18 64.5 55.5t33.5 72.5q0 2 0.5 4t0.5 4q0 26 -20.5 49.5t-54.5 35.5zM60 564q23 23 93 23q28 0 45 -4q36 -7 69.5 -30t46.5 -49q10 -19 10 -44q0 -20 -8 -46
q-22 -64 -77.5 -106t-117.5 -42h-11l-26 2l2 -65q1 -21 1 -48q0 -22 -2 -25q-4 -8 -13 -8q-10 0 -17 10q-8 13 -9 192v80q0 143 14 160z" />
    <glyph glyph-name="Q" unicode="Q" horiz-adv-x="509" 
d="M302 566q-22 5 -39 5q-53 0 -100 -33q-69 -50 -73 -143v-15q0 -57 27 -111q25 -52 71.5 -86t91.5 -34q9 0 14 1q26 4 26 12t-13 28q-15 25 -15 35q0 8 8 11h2l2 1q12 0 35 -30q18 -23 21 -23q4 0 17.5 17.5t20.5 30.5q22 46 22 106q0 34 -7 59q-17 63 -68 130
q-17 23 -24.5 29.5t-18.5 9.5zM209 600q18 5 47 5q38 0 62 -8q27 -10 65 -61q78 -106 78 -206q0 -40 -17.5 -86.5t-42.5 -73.5q-18 -20 -18 -23q0 -2 11 -17q14 -17 28.5 -43t14.5 -33q0 -8 -5 -13t-11 -5q-10 0 -17 10q-6 7 -21.5 33.5t-22.5 34.5l-11 13l-16 -7
q-27 -10 -51 -10q-39 0 -85 22q-30 15 -62 47q-22 23 -31.5 36t-21.5 38q-33 69 -33 132q0 98 68 162q41 39 92 53z" />
    <glyph glyph-name="R" unicode="R" horiz-adv-x="425" 
d="M258 481q-1 25 -39.5 49.5t-79.5 24.5q-13 0 -31.5 -3.5t-20.5 -5.5q-3 -3 -3 -67q0 -178 8 -178q9 0 78 52q21 16 45 41t34 42q9 14 9 36v9zM64 577q38 13 76 13q75 0 125 -50q33 -33 33 -69q0 -24 -17 -55q-13 -23 -43 -54t-58 -50q-8 -6 -18 -13t-16.5 -11.5
t-7.5 -5.5q-6 -4 2 -7q2 -1 9 -4q119 -47 204 -130q20 -20 20 -27q0 -4 -6 -7q-4 -2 -8 -2q-17 0 -55 31q-52 42 -108 70q-88 44 -99 44q-3 0 -3 -59v-24q0 -35 -9 -44q-10 -10 -19 -4q-6 4 -7.5 15.5t-3.5 72.5q0 9 -4.5 103.5t-4.5 146.5q0 115 18 120z" />
    <glyph glyph-name="S" unicode="S" horiz-adv-x="351" 
d="M152 586q16 5 43 5q37 0 67 -9.5t30 -25.5q0 -8 -10 -8q-6 0 -17 3q-34 8 -53 8q-10 0 -34 -4q-35 -7 -62 -25t-27 -34q0 -21 79 -109q66 -73 94.5 -114t36.5 -73q3 -10 3 -21q0 -43 -29 -57q-18 -9 -44 -9q-41 0 -78 19q-23 11 -50.5 37t-36.5 45q-10 19 -10 31q0 7 5 7
t42 -35q32 -30 50 -41.5t43 -18.5q18 -5 35 -5q24 0 32 8q3 3 3 11q0 41 -50 104q-16 22 -50 59q-114 127 -114 161q0 27 29 53t73 38z" />
    <glyph glyph-name="T" unicode="T" horiz-adv-x="439" 
d="M67 608q3 1 28 1q60 0 169.5 -5t116.5 -9q7 -3 7 -13q0 -9 -8 -14q-3 -2 -27 -2q-29 0 -50 1l-70 2l2 -18q2 -11 8 -124q2 -32 7 -103t6 -89q4 -49 4 -90v-10q-3 -16 -17 -16q-3 0 -9 2q-17 6 -18 98q-3 119 -16 298l-2 50l-30 3q-32 2 -61 2q-30 0 -42 4q-13 4 -13 15
q0 13 15 17z" />
    <glyph glyph-name="U" unicode="U" horiz-adv-x="437" 
d="M60 575q3 5 11 5q15 0 15 -28q0 -3 -0.5 -10t-0.5 -11q0 -5 -0.5 -15.5t-0.5 -16.5q0 -130 31 -223q16 -46 41.5 -83t49.5 -50q13 -7 32 -7q20 0 34 9q48 32 67 143q14 82 14 166q0 43 -4 66q-2 18 -2 19q0 7 5 11q5 5 13 5q9 0 14 -9q11 -20 11 -110v-26
q-9 -216 -82 -285q-32 -30 -68 -30q-48 0 -93 48q-72 78 -94 240q-5 33 -5 87q0 92 12 105z" />
    <glyph glyph-name="V" unicode="V" horiz-adv-x="420" 
d="M331 548q0 10 6.5 20.5t14.5 10.5t13 -9q5 -8 5 -16q0 -7 -3 -28q-15 -115 -103 -338q-25 -61 -25 -71q0 -6 -9 -16.5t-14 -10.5q-6 0 -14 8q-11 11 -27 63q-7 25 -64 201q-59 182 -59 196q0 3 2 7q4 7 10 7q9 0 15 -12q20 -36 85 -239q46 -145 51 -145h1q10 6 62 165
q21 62 37 125t16 82z" />
    <glyph glyph-name="W" unicode="W" horiz-adv-x="609" 
d="M543 602q3 5 4.5 6.5t3 1t4.5 -4.5q5 -6 5 -36q0 -35 -5 -70q-12 -99 -16 -136q-22 -213 -50 -255q-9 -14 -24 -14q-9 0 -19 8q-40 37 -92 281q-23 111 -28 111l-1 -1q-5 -6 -64 -218q-28 -103 -35 -116q-10 -19 -30 -19q-8 0 -19.5 12.5t-20.5 30.5q-17 33 -43.5 123
t-46.5 181q-14 62 -14 76q0 9 5 14q5 7 9 7t10 -7.5t8 -15.5q37 -150 69 -253q35 -112 42 -112q3 0 43 137q48 167 60 197.5t29 30.5q18 0 29 -28.5t33 -128.5q27 -124 32 -143q9 -36 22.5 -73t18.5 -37q15 0 39 214q23 209 42 237z" />
    <glyph glyph-name="X" unicode="X" horiz-adv-x="455" 
d="M54 604q3 4 7 4q5 0 10 -4.5t10.5 -12.5t10 -15.5t10 -17t7.5 -13.5q24 -39 61 -92t40 -53q1 0 3.5 4t7.5 12.5t8 13.5q64 106 91 134q18 21 29 21q7 0 10 -10q1 -3 1 -7q0 -6 -27 -44q-20 -29 -58 -91t-38 -75q0 -5 64 -90q102 -135 102 -150q0 -7 -7.5 -12t-13.5 -3
t-40 47q-129 171 -130 171q-3 0 -62 -110q-44 -80 -48 -84q-6 -7 -14 -7q-17 0 -17 17q0 3 28 46.5t56.5 95.5t28.5 76q0 8 -44 74q-88 134 -88 168q0 5 2 7z" />
    <glyph glyph-name="Y" unicode="Y" horiz-adv-x="381" 
d="M55 581q1 3 12 3q9 0 21.5 -18t54.5 -91q45 -78 49 -78q3 0 46.5 72.5t49.5 85.5q9 22 22 22q5 0 11 -3q9 -5 9 -14q0 -15 -74 -136l-50 -82l2 -21q5 -56 10 -105q6 -58 6 -79q0 -14 -2.5 -18.5t-10.5 -4.5h-5q-8 1 -11 3.5t-6 12.5q-5 13 -14 120l-8 104l-46 81
q-69 125 -69 139q0 4 3 7z" />
    <glyph glyph-name="Z" unicode="Z" horiz-adv-x="395" 
d="M104 618q28 2 71 2h31q70 -1 97 -9q23 -7 31 -11t8 -12q0 -12 -24 -42q-59 -75 -110 -165q-20 -35 -47.5 -93t-27.5 -66q0 -3 -10 -25q-8 -16 -8 -21q0 -10 53 -10q149 0 169 -10q8 -4 8 -14t-8 -14q-10 -4 -88 -4q-63 0 -127 4q-59 5 -59 25q0 8 22 54q19 39 22 55
q5 29 58.5 123.5t100.5 158.5q21 28 21 30l-22 6q-24 4 -64 4q-28 0 -45 -1q-29 -1 -62 -1q-29 0 -34 4q-8 6 -8 13t9 12q8 3 43 7z" />
    <glyph glyph-name="bracketleft" unicode="[" horiz-adv-x="265" 
d="M122 637q24 3 47 3q18 0 32 -2q12 -3 12 -14q0 -7 -11 -10t-47 -7q-42 -4 -56 -9q-10 -4 -12 -6.5t-1 -10.5q0 -5 4 -71q5 -84 8 -183q10 -275 17 -282q21 -2 45 -4q43 -3 49 -12q6 -8 -2 -17q-5 -7 -13.5 -8t-48.5 -1h-19q-38 0 -44.5 9t-10.5 62q-9 125 -15 336
q-3 139 -8 166q-4 21 0 30q9 23 74 31z" />
    <glyph glyph-name="backslash" unicode="\" horiz-adv-x="396" 
d="M51 593q3 6 11 6q11 0 20 -10q11 -13 93 -177q79 -156 111 -216q58 -108 58 -120q0 -5 -5 -5q-4 0 -7 1q-46 15 -218 382q-34 73 -57 119q-8 13 -6 20z" />
    <glyph glyph-name="bracketright" unicode="]" horiz-adv-x="255" 
d="M55 602q5 5 27 5q18 0 61 -5q45 -5 50 -12q15 -15 16 -294v-63q0 -111 -6 -169q-5 -54 -10 -64q-5 -11 -40 -11q-20 0 -33 1q-40 2 -52 5.5t-15 13.5q-1 2 -1 6q0 9 12.5 12t47.5 5l49 2l3 25q3 25 3 235q0 208 -3 238l-3 30l-46 7q-47 5 -56 11q-7 4 -8 10.5t4 11.5z
" />
    <glyph glyph-name="asciicircum" unicode="^" horiz-adv-x="371" 
d="M176 589q6 6 16 6q11 0 17 -7q5 -6 51.5 -128t59.5 -165q2 -6 2 -10q0 -22 -15 -25h-3q-14 0 -35 59q-20 58 -47.5 131.5t-30.5 74.5q-4 2 -43 -83q-37 -80 -54.5 -108.5t-29.5 -28.5q-2 0 -8 2q-6 3 -6 9q0 10 20 50q7 14 60 129q39 84 46 94z" />
    <glyph glyph-name="underscore" unicode="_" horiz-adv-x="488" 
d="M58 31q6 3 26 3h7q41 -3 101 -6q97 -5 187 -14q63 -7 63 -18q0 -4 -2 -7q-6 -11 -34 -11q-19 0 -58 3q-43 3 -174 8q-103 4 -116 8q-13 7 -13 17t13 17z" />
    <glyph glyph-name="grave" unicode="`" horiz-adv-x="244" 
d="M54 645q4 4 8 4q9 0 40 -24l63 -49q21 -16 26 -22.5t5 -14.5q0 -17 -18 -17q-5 0 -46.5 32.5t-61.5 52.5t-20 30q0 4 4 8z" />
    <glyph glyph-name="a" unicode="a" horiz-adv-x="351" 
d="M207 394q-1 29 -6 30q-1 1 -2 1h-2q-8 0 -25.5 -11.5t-28.5 -24.5q-26 -31 -45 -91q-12 -38 -12 -80q0 -33 8 -47q9 -15 22 -15q17 0 35.5 23t32.5 63q9 24 16 68.5t7 74.5v9zM198 462q32 6 34 6q10 0 14 -6t4 -23q0 -18 -1 -30q0 -5 -0.5 -14.5t-0.5 -14.5
q0 -125 39 -203q14 -30 14 -32q0 -6 -9 -11q-4 -3 -10 -3q-25 0 -46 67q-11 34 -12 34q-2 0 -19 -35q-40 -83 -91 -83q-7 0 -11 1q-21 5 -45 44q-7 12 -8.5 20.5t-1.5 41.5q0 44 9 75q23 80 65 123q34 34 76 43z" />
    <glyph glyph-name="b" unicode="b" horiz-adv-x="381" 
d="M266 360q-10 8 -31 8q-20 0 -39 -8q-43 -19 -75 -85q-25 -51 -25 -78v-7q1 -9 4 -12.5t13 -6.5q9 -4 26 -4q26 0 54 11q21 7 46.5 30.5t36.5 44.5q12 24 12 50q0 40 -22 57zM57 636q12 14 24 -3q6 -8 6 -162t4 -154q2 0 15 19q23 35 58.5 55t71.5 20q44 0 68 -27
q29 -30 29 -81q0 -24 -2 -33.5t-13 -30.5q-19 -38 -53.5 -68t-74.5 -41q-20 -5 -35 -5q-13 0 -21 1q-76 5 -83 15q-6 8 -6 211q0 269 12 284z" />
    <glyph glyph-name="c" unicode="c" horiz-adv-x="312" 
d="M140 441q15 7 30 7q14 0 20 -7q6 -6 6 -12q0 -9 -17 -11q-41 -6 -67 -55t-26 -105q0 -36 12 -62q17 -35 61 -35q35 0 66 22q20 14 27 14q10 0 10 -18q0 -28 -46 -47q-22 -10 -56 -10q-31 0 -47 7t-34 27q-31 35 -31 100q0 63 25 114q11 22 30.5 43t36.5 28z" />
    <glyph glyph-name="d" unicode="d" horiz-adv-x="380" 
d="M220 393q-10 5 -20 5q-16 0 -35 -9q-30 -14 -49.5 -43.5t-19.5 -64.5q0 -22 11 -47q31 -63 122 -65h34l12 13q11 13 11 39q0 58 -19 108t-47 64zM287 398q3 0 3 54.5t1.5 114t7.5 68.5q7 10 18 10q8 0 11 -6q4 -8 6 -256q1 -69 1 -157q0 -93 -5 -101q-6 -9 -16 -9
q-11 0 -19 10q-5 7 -8 7.5t-14 -3.5q-17 -6 -47 -6q-39 0 -68 10q-51 16 -80 55t-29 89q0 8 2 24q12 86 89 127q26 14 55 14q31 0 49 -11q16 -8 28 -22q12 -12 15 -12z" />
    <glyph glyph-name="e" unicode="e" horiz-adv-x="346" 
d="M247 424q-14 14 -34 14q-22 0 -48 -18q-18 -13 -39.5 -45t-21.5 -45q0 -3 1 -4q5 -5 50 -5q44 0 64 10q39 19 39 59q0 23 -11 34zM186 473q17 5 25 5h2q29 0 56 -23q29 -26 29 -64q0 -31 -19 -58.5t-53 -40.5q-22 -9 -68 -9q-26 0 -48 3l-20 3v-29q0 -55 40 -86.5
t110 -31.5h12l37 1v-11q0 -11 -11 -20q-9 -7 -31 -7h-17q-78 2 -125.5 38.5t-55.5 102.5q-1 6 -1 18q0 63 42 129t96 80z" />
    <glyph glyph-name="f" unicode="f" horiz-adv-x="335" 
d="M184 607q9 3 21 3q26 0 52 -9.5t26 -19.5q0 -7 -7 -7q-3 0 -7.5 0.5t-13 1.5t-16.5 2q-7 1 -19 1q-27 0 -44 -14q-34 -27 -34 -126v-21l1 -54l47 -2q59 -3 59 -15q0 -5 -4 -10q-5 -6 -49 -9q-46 -4 -46 -8q0 -28 23 -189q3 -18 3 -26t-6 -14t-13 -6q-11 0 -15 10
q-3 5 -10.5 62t-14.5 111t-8 54q0 2 -21 4q-36 5 -36 20t26 15h6l20 -1l-1 49v18q0 154 81 180z" />
    <glyph glyph-name="g" unicode="g" horiz-adv-x="370" 
d="M249 390q-5 5 -36 5q-12 0 -26 -2q-42 -9 -67 -38q-34 -40 -34 -99q0 -49 24 -80q27 -35 70 -35q14 0 25 4q44 16 59 91q3 12 3 25q0 15 -6 62q-7 62 -12 67zM132 408q35 20 78 20q28 0 51 -10q15 -7 20 -11.5t12 -19.5q16 -32 16 -80v-17v-8q0 -23 6 -91q8 -65 8 -127
q0 -145 -67 -181q-22 -11 -47 -11q-22 0 -43 9q-28 13 -52 46t-24 59q0 10 4 18.5t9 8.5q2 0 18 -31q27 -52 59 -66q14 -7 28 -7t29 8q30 14 41 69q4 20 4 94q0 52 -2 64l-2 17l-15 -18q-13 -16 -33 -28q-18 -11 -53 -11q-33 0 -56 12q-35 20 -54 57.5t-19 81.5
q0 48 21.5 89.5t62.5 63.5z" />
    <glyph glyph-name="h" unicode="h" horiz-adv-x="369" 
d="M50 590q4 8 13 8q10 0 14 -10q7 -20 22 -319l2 -28l23 46q60 125 105 125q16 0 30 -14q26 -26 47 -149q15 -90 15 -117q0 -14 -4 -20q-5 -6 -16 -6t-14 7q-4 6 -8 46q-10 81 -23.5 143.5t-22.5 68.5q-1 0 -1 0.5t-1 0.5q-9 0 -29 -25.5t-37 -60.5q-28 -54 -41 -126
q-7 -34 -13 -46t-17 -12q-13 0 -18 14t-9 64q-20 223 -20 366q0 40 3 44z" />
    <glyph glyph-name="i" unicode="i" horiz-adv-x="146" 
d="M49 558q-4 5 -4 13q0 10 7.5 18.5t18.5 8.5q6 0 12 -3q7 -3 7 -18q0 -13 -7 -22q-6 -7 -16 -7q-12 0 -18 10zM51 472q5 11 15 11q8 0 13 -9q4 -6 7 -110q4 -122 8 -166l5 -66l-9 -7q-8 -7 -11.5 -7t-11.5 7q-7 6 -12 63q-7 93 -7 210q0 66 3 74z" />
    <glyph glyph-name="j" unicode="j" horiz-adv-x="266" 
d="M175 581q7 10 18 10q13 0 17 -12q2 -4 2 -13q0 -16 -9.5 -30t-21.5 -14h-4q-13 3 -13 25q0 20 11 34zM177 437q6 6 11 6q7 0 11.5 -19.5t10.5 -76.5q10 -98 10 -169q0 -74 -9 -108q-25 -95 -77 -106q-3 -1 -9 -1q-27 0 -47 26t-25 66q0 1 -0.5 5t-0.5 5q0 14 5 25t10 11
h1q5 -2 12 -32q18 -67 41 -67q10 0 22 12q40 43 40 177q0 46 -4 90q-5 65 -6 98q-1 16 -1 36q0 17 5 22z" />
    <glyph glyph-name="k" unicode="k" horiz-adv-x="395" 
d="M64 613q4 5 12 4.5t11 -7.5q2 -4 2 -19q0 -23 -3 -72q-2 -29 -2 -89q0 -46 1 -65l3 -69l51 50q97 95 121 95h1q15 -3 10 -21q-2 -7 -36 -36q-64 -56 -105 -101q-21 -24 -21 -28q0 -2 2 -4q5 -5 69 -38q75 -38 119 -68t44 -43q0 -15 -17 -15q-8 0 -41 22
q-24 17 -103.5 58.5t-86.5 41.5q0 -3 -0.5 -3.5t1 -10t2.5 -13.5q4 -19 4 -48q0 -23 -8 -29q-7 -5 -14.5 -3.5t-11.5 8.5q-11 21 -20 215q-2 54 -2 85q0 180 18 203z" />
    <glyph glyph-name="l" unicode="l" horiz-adv-x="135" 
d="M56 631q4 6 11.5 6t12.5 -6q4 -5 4 -73v-60v-41q0 -119 3 -190q2 -80 2 -81q0 -25 -4 -32q-5 -8 -13 -8q-7 0 -14 7q-8 9 -10 78q-3 81 -3 169q0 218 11 231z" />
    <glyph glyph-name="m" unicode="m" horiz-adv-x="599" 
d="M173 457q14 6 25 6q53 0 80 -111q9 -36 11 -36q3 0 7 14q12 37 35.5 73t42.5 46q9 5 26 5q18 0 27 -5q23 -11 45.5 -51.5t36.5 -94.5q4 -13 10 -35t7 -26q5 -16 14 -65t9 -64q0 -26 -16 -26q-8 0 -14 9q-8 13 -18 78q-23 131 -50 184q-32 62 -50 62q-16 0 -36.5 -30
t-35.5 -76q-22 -66 -23 -132q0 -42 -4 -48q-5 -5 -14 -5q-23 0 -23 42q0 25 -8.5 82.5t-16.5 90.5q-7 29 -17.5 52.5t-17.5 26.5q-2 1 -6 1q-22 0 -52.5 -40t-42.5 -86q-6 -24 -6 -90q0 -65 -4 -75q-3 -7 -16 -7q-12 0 -15 7q-4 7 -9.5 92.5t-6.5 140.5q0 74 15 80q2 1 5 1
q13 0 16 -49l2 -38l14 24q12 20 36 43.5t38 29.5z" />
    <glyph glyph-name="n" unicode="n" horiz-adv-x="359" 
d="M59 465q8 8 17 2q4 -3 7 -71l2 -67l15 28q22 40 54 67t57 27q50 0 71 -69q15 -51 27 -176q3 -33 3 -43q0 -12 -5 -20q-7 -10 -14 -10q-9 0 -13 9q-4 7 -8 42q-1 24 -8 80q-10 80 -22 114t-31 34q-15 0 -40 -23q-21 -18 -39 -56q-29 -59 -29 -147q0 -51 -8 -58
q-7 -5 -11 -5q-9 0 -16 10q-5 11 -13 93t-8 134q0 93 12 105z" />
    <glyph glyph-name="o" unicode="o" horiz-adv-x="415" 
d="M243 434q-19 9 -50 9q-20 0 -32 -4q-13 -4 -31.5 -24.5t-28.5 -40.5q-15 -33 -15 -70q0 -74 46 -125q39 -42 88 -42q32 0 59 19t40 54q11 28 11 72q0 19 -3 34q-8 38 -32 71.5t-52 46.5zM185 475q8 1 23 1q55 0 97 -43q62 -64 62 -158q0 -80 -49 -132q-40 -43 -95 -43
q-18 0 -34 4q-54 12 -91 58.5t-48 114.5q-2 18 -2 26q0 63 39.5 114t97.5 58z" />
    <glyph glyph-name="p" unicode="p" horiz-adv-x="393" 
d="M253 442q-11 5 -32 5q-64 0 -119 -41l-21 -15l2 -81q1 -37 1 -51.5t3 -33t3.5 -22.5t8 -13.5t10.5 -11t17 -11.5t32 -10q37 0 84 47q63 63 63 136v12q-2 25 -8 42q-17 37 -44 48zM99 444q55 40 119 40q20 0 36 -4q60 -15 84 -88q7 -21 7 -48q0 -97 -83 -175
q-48 -45 -92 -50h-9q-31 0 -54 16l-15 10q-1 -37 -1 -82q0 -68 -3.5 -87t-16.5 -20q-1 0 -3 -0.5t-3 -0.5q-9 0 -11.5 26t-5.5 153q-3 148 -3 214q0 81 5 91q4 8 14 8t14 -7q3 -6 5.5 -5.5t15.5 9.5z" />
    <glyph glyph-name="q" unicode="q" horiz-adv-x="432" 
d="M224 395q-13 8 -32 8q-13 0 -28 -5q-19 -7 -38.5 -27t-27.5 -42q-11 -30 -11 -68q0 -25 5 -39q9 -30 32.5 -47.5t49.5 -17.5t45 18q37 34 37 116v13q-3 43 -12 63q-11 23 -20 28zM153 432q20 7 45 7t45 -7.5t21 -19.5q2 -10 13.5 -39t14.5 -41q3 -16 3 -43q0 -46 -7 -65
q-6 -14 -6 -106q0 -131 16 -147q3 -3 7 -3q13 0 29 30q10 20 10 33q0 11 -4 24q-1 2 -1 4q0 9 11 9q17 0 25 -16q5 -9 5 -24q0 -43 -34 -77q-23 -23 -45 -23q-17 0 -31 15q-13 13 -17.5 39t-6.5 88l-2 75l-14 -10q-26 -17 -57 -17q-48 0 -85 38.5t-40 95.5v10q0 59 30 106.5
t75 63.5z" />
    <glyph glyph-name="r" unicode="r" horiz-adv-x="280" 
d="M48 448q4 9 11.5 10.5t11.5 -6.5q4 -7 7 -40q4 -34 5 -34q4 0 12 13q17 24 45.5 40t53.5 16q16 0 27 -8q18 -15 5 -26q-5 -3 -31 -5q-25 -1 -42 -13q-35 -23 -55 -79q-8 -23 -8 -107q0 -82 -4 -86q-3 -5 -13 -5q-13 0 -16 7q-8 15 -10 177q0 20 -0.5 50t-0.5 40
q0 48 2 56z" />
    <glyph glyph-name="s" unicode="s" horiz-adv-x="339" 
d="M138 480q27 5 52 5q54 0 84 -16q16 -10 16 -25q0 -11 -8 -11q-5 0 -17 5q-14 7 -67 7t-73 -9q-35 -15 -35 -38q0 -7 5 -17q3 -6 51 -45q44 -35 82 -73t49 -58q13 -23 13 -46q0 -30 -24 -45q-23 -14 -51 -14q-60 0 -117 57q-41 41 -41 64q0 5 1 7q5 11 13 11q10 0 18 -16
q7 -14 33 -37.5t44 -32.5q28 -13 53 -13q32 0 32 20q0 2 -2 10q-7 24 -37 55t-96 84q-2 1 -9.5 7.5t-10.5 9t-10 8.5t-10 9.5t-8.5 9.5t-8 10.5t-6 10.5t-4.5 12t-1 12q0 22 21 46q23 26 69 36z" />
    <glyph glyph-name="t" unicode="t" horiz-adv-x="329" 
d="M155 541q4 6 13.5 6.5t12.5 -4.5q2 -2 2 -41q0 -46 1 -57l3 -19l38 -4q39 -4 48 -13q8 -8 4 -15q-6 -7 -46 -7q-41 0 -43 -2q-1 -4 -1 -9q0 -70 13 -159q6 -44 6 -61q0 -16 -4.5 -21.5t-15.5 -5.5q-12 0 -15 9q-2 7 -10 82.5t-12 125.5l-3 35h-18q-21 0 -36 -3
q-16 -2 -19 -2q-22 0 -22 20q0 9 10 12.5t43 7.5q40 5 42 10q2 4 2 57q1 52 7 58z" />
    <glyph glyph-name="u" unicode="u" horiz-adv-x="393" 
d="M54 424q7 10 15 10q7 0 10 -9q2 -5 6 -46q4 -73 35 -134q37 -74 74 -74q8 0 16 5q12 7 18 15t12.5 24t8.5 20q26 52 35 155q2 28 6.5 35.5t18.5 7.5q11 0 14.5 -11.5t3.5 -49.5q0 -94 13 -189q6 -39 6 -52q0 -15 -10 -19t-17 2q-8 8 -13.5 37.5t-8.5 55t-5 25.5
q-3 0 -19 -34q-24 -50 -58 -61q-9 -4 -22 -4q-63 0 -110 101q-30 67 -33 136q-1 11 -1 27q0 19 5 27z" />
    <glyph glyph-name="v" unicode="v" horiz-adv-x="332" 
d="M55 425q4 6 10 6q11 0 29 -45q5 -12 56 -119q36 -73 41 -73h1q10 16 44 167q8 38 14.5 51t16.5 13q7 0 13 -7t3 -11q-3 -6 -10 -49q-10 -62 -31.5 -138.5t-31.5 -87.5q-6 -8 -17 -8q-9 0 -17 8q-11 11 -63 125t-60 143q-4 18 2 25z" />
    <glyph glyph-name="w" unicode="w" horiz-adv-x="520" 
d="M250 417q5 4 12 4q8 0 14 -9t6 -24q0 -33 15.5 -86t34.5 -86q28 -49 52 -49q52 0 52 174v10q0 53 2 55q3 5 9 5q13 0 19 -11q7 -11 7 -85q0 -70 -9 -103q-21 -77 -71 -86q-2 0 -4.5 -0.5t-3.5 -0.5q-9 0 -28 9q-51 25 -87 125q-10 26 -13 24q-4 -11 -8 -31
q-17 -60 -35 -86q-20 -28 -50 -28h-6q-29 5 -51 33t-39 83t-19 97v8q0 21 4 28.5t15 7.5q9 0 12.5 -9t5.5 -38q4 -57 29.5 -113.5t47.5 -56.5q19 0 34 38.5t35 139.5q12 56 18 61z" />
    <glyph glyph-name="x" unicode="x" horiz-adv-x="352" 
d="M259 447q12 8 15.5 9t7.5 -4q4 -4 4 -10q0 -14 -22 -39q-20 -21 -49 -63l-26 -38l50 -75q10 -16 25 -37.5t23 -33.5t9 -15q6 -12 6 -21q0 -18 -14 -18t-24 19q-15 26 -54.5 81.5t-43.5 55.5t-26 -40t-40 -82q-14 -31 -19.5 -38t-13.5 -8h-3q-15 0 -15 15q0 6 3 15
q17 50 66 136l26 46l-38 61q-41 65 -41 75q0 3 2 7q5 8 9 8q13 0 62 -73q27 -39 29 -39q3 0 19 22q46 66 73 84z" />
    <glyph glyph-name="y" unicode="y" horiz-adv-x="338" 
d="M259 456q5 12 17 12t15 -7q2 -3 2 -64q0 -253 -10 -313q-14 -77 -44 -119.5t-73 -42.5q-29 0 -59.5 22t-46.5 54q-11 19 -11 33q0 10 6 19q5 8 9 8q6 0 15 -21q8 -20 27.5 -41t37.5 -30q14 -7 21 -7q3 0 11 2q40 12 62 95q4 17 9.5 64.5t5.5 68.5q0 7 -1 8t-4 -3.5
t-8 -12.5q-10 -17 -28 -33t-29 -18q-11 -4 -26 0q-45 7 -74.5 72t-29.5 155v16q3 79 23 79h2l11 -1v-76q0 -73 9 -106q12 -45 31 -73.5t37 -28.5q16 0 33 24.5t28 60.5q22 74 25 146q4 52 7 58z" />
    <glyph glyph-name="z" unicode="z" horiz-adv-x="358" 
d="M184 467q77 7 95 7q12 0 20 -5q9 -6 9 -14q0 -13 -19 -28q-84 -68 -150 -169q-43 -68 -43 -84q0 -4 27 -6q107 -5 122 -15q8 -5 8 -14q0 -10 -11 -14q-7 -3 -26 -3t-58.5 3.5t-48.5 3.5q-32 0 -43.5 2.5t-15.5 11.5q-3 4 -3 11q0 13 21 58q42 91 135 187q27 29 27 32h-3
q-19 0 -59 -3q-34 -2 -41 -2q-25 0 -34 4.5t-9 15.5q0 8 18 11.5t82 9.5z" />
    <glyph glyph-name="braceleft" unicode="{" horiz-adv-x="304" 
d="M145 580q39 34 90 34q12 -1 14.5 -2.5t2.5 -9.5t-3 -10.5t-14 -5.5q-46 -12 -66 -32q-7 -7 -7 -17q0 -1 2 -27q3 -30 3 -73q0 -37 -12 -63q-13 -26 -32 -45l-20 -19l24 -27q56 -62 56 -129q0 -8 -2 -22q-4 -17 -4 -37q0 -22 6 -31q6 -8 23 -11q28 -5 28 -21q0 -9 -12 -15
q-7 -3 -16 -3q-36 0 -57 29q-12 17 -12 50q0 9 2 27q3 21 3 36q0 32 -14 58t-51 66q-27 29 -27 40q0 18 13 22q31 9 47 33q19 27 19 63q0 9 -2 35q-4 31 -4 53q0 35 22 54z" />
    <glyph glyph-name="bar" unicode="|" horiz-adv-x="137" 
d="M51 637q5 9 13 9q7 0 11 -9q3 -8 9.5 -210t7.5 -315v-44q0 -46 -2.5 -58t-12.5 -12h-5q-11 2 -15 10t-4 29q0 15 1 25v20q0 44 -4 216q-5 167 -5 236q0 91 6 103z" />
    <glyph glyph-name="braceright" unicode="}" horiz-adv-x="350" 
d="M107 589q8 2 19 2q23 0 36 -5q42 -19 42 -75q0 -33 -15 -71q-12 -29 -12 -33q0 -3 34 -14q35 -11 59 -23q30 -14 30 -27q0 -20 -80 -74l-32 -22l1 -81v-47q0 -38 -8 -54q-16 -33 -61 -43q-12 -3 -23 -3q-19 0 -31.5 7t-12.5 19q0 16 20 16q1 0 5 -0.5t7 -0.5q2 0 6 -0.5
t6 -0.5q36 0 48 21q5 9 5 43v50q0 7 -0.5 19.5t-0.5 17.5q0 41 5 53.5t23 23.5q17 10 41 29t24 21q0 7 -56 22q-33 9 -42 14.5t-9 17.5v7q2 20 16 53q14 37 14 62q0 16 -6 28q-7 14 -25 14q-14 0 -23 -2q-14 -2 -19 -2q-20 0 -20 15q0 12 35 23z" />
    <glyph glyph-name="asciitilde" unicode="~" horiz-adv-x="420" 
d="M62 364q39 41 69 41q18 0 37 -13q40 -28 62 -38t46 -10q20 0 42 14q32 20 39 20q2 0 6 -2q6 -4 8 -15q1 -12 -14 -23q-41 -34 -85 -34q-50 0 -117 49q-20 13 -26 13q-9 0 -38 -22q-24 -18 -34 -18q-7 0 -9 12q-1 11 14 26z" />
    <glyph glyph-name="nbsp" unicode="&#xa0;" 
 />
    <glyph glyph-name="sterling" unicode="&#xa3;" horiz-adv-x="432" 
d="M234 602q20 5 35 5q21 0 53 -6q29 -5 38.5 -9t9.5 -12q0 -6 -3.5 -7t-23.5 -1h-39q-57 0 -73 -8q-25 -13 -39 -48t-14 -82v-17l4 -41q2 -2 62 -7q74 -6 85 -22q4 -6 -2 -12q-5 -5 -24 -5q-3 0 -47 2l-66 4q1 -17 3 -36q2 -12 2 -33q0 -20 -2 -30q-10 -54 -29 -70
q-6 -5 -6 -7q0 -4 20 -4q4 0 54 2q19 1 46 1q32 0 59 -6q44 -10 44 -24q0 -6 -4 -8t-21 -2q-21 0 -38 1h-29q-55 0 -93 -3q-20 -2 -55 -2q-83 0 -83 31q0 17 32 25q40 8 56 40q9 19 9 62v14q0 37 -5.5 43t-39.5 8q-37 2 -48.5 7t-11.5 21t21 16q9 0 29 -3.5t27 -3.5h15
l-3 40q0 3 -0.5 10t-0.5 10q0 65 26 110t70 57z" />
    <glyph glyph-name="yen" unicode="&#xa5;" horiz-adv-x="408" 
d="M283 600q6 7 13 7q15 0 15 -19q0 -21 -24.5 -108t-41.5 -127q-8 -18 -2 -21q5 -3 41 -3t48 -4q19 -8 11 -23q-3 -6 -57 -8l-54 -2l-1 -17q-1 -17 4 -22q7 -4 56 -8q44 -4 55.5 -8t10.5 -15l-1 -11h-123l3 -42q1 -14 1 -30t-6 -22q-8 -10 -17 -7q-10 2 -13 12t-5 48l-2 43
h-27q-40 0 -40 17q0 13 8.5 16.5t37.5 4.5l22 1v38h-37q-30 0 -40.5 3.5t-10.5 14.5q0 13 9 17t38 4q26 0 26 4t-33 63q-62 109 -79 141.5t-17 44.5q0 10 1 12.5t6 2.5q13 0 95 -139q52 -89 54 -89q5 0 24.5 59.5t33.5 116.5q12 47 18 55z" />
    <glyph glyph-name="guillemotleft" unicode="&#xab;" horiz-adv-x="365" 
d="M137 403q21 18 24 18q2 0 8 -3q7 -4 7 -12q0 -12 -14 -29q-50 -56 -65 -80l-7 -10l28 -30q9 -10 25.5 -27.5t19.5 -20.5q17 -17 17 -32q0 -14 -19 -14q-11 0 -51 45q-3 4 -9 11q-49 54 -51 67q-1 2 -1 4q0 7 10 22q31 46 78 91zM247 398q23 23 32 23h3q13 -1 13 -14
q0 -9 -27 -40q-35 -42 -43 -53l-15 -20l14 -16q14 -18 52 -56q39 -40 39 -51q0 -20 -20 -20q-10 0 -60 56q-48 52 -57.5 65t-9.5 23q0 21 79 103z" />
    <glyph glyph-name="logicalnot" unicode="&#xac;" horiz-adv-x="413" 
d="M65 380q5 2 94 2q169 0 187 -4q19 -5 19 -23q0 -1 -1 -3v-1q-1 -4 -5 -81q-2 -60 -5.5 -74t-16.5 -14q-12 0 -15.5 10.5t-3.5 45.5q0 24 3 72l3 29l-49 3q-27 2 -126 2q-74 0 -86 4q-13 4 -13 15q0 13 15 17z" />
    <glyph glyph-name="degree" unicode="&#xb0;" horiz-adv-x="269" 
d="M167 546q-6 6 -18 6q-9 0 -29 -5q-34 -9 -34 -46q0 -12 2 -19q9 -37 45 -37q18 0 33 15q11 11 13 16.5t2 21.5q0 34 -14 48zM110 585q18 6 33 6q35 0 56.5 -27t21.5 -63q0 -40 -25 -66q-27 -28 -64 -28q-27 0 -48.5 15t-29.5 42q-5 18 -5 32q0 30 16.5 54.5t44.5 34.5z
" />
    <glyph glyph-name="plusminus" unicode="&#xb1;" horiz-adv-x="425" 
d="M200 536q5 9 10 9q10 0 12 -14.5t2 -80.5v-86h13q9 0 47 -2q56 -3 73.5 -7t17.5 -14q0 -11 -12.5 -13.5t-67.5 -2.5h-70l2 -52q0 -6 0.5 -15t0.5 -13q0 -23 -3.5 -29.5t-14.5 -6.5q-20 0 -20 43q0 10 -3 49l-2 23h-42q-62 0 -62 20q0 10 9.5 13t41.5 3q42 0 48 2t6 35
q0 40 4.5 86t9.5 53zM62 161q10 5 21 2q10 -2 50 -2h28q7 0 20 0.5t19 0.5q131 0 151 -13q8 -5 8 -10q0 -11 -18 -13t-121 -3h-56q-80 0 -90 2q-23 5 -23 21q0 9 11 15z" />
    <glyph glyph-name="uni00b2" unicode="&#xb2;" horiz-adv-x="274" 
d="M95 574q0 25 55 25q76 0 76 -55q0 -61 -85 -159q-22 -25 -22 -33q0 -4 47 -4q36 0 45.5 -3t9.5 -14q0 -14 -15 -17.5t-71 -3.5q-67 0 -77 4q-8 5 -8 11q0 12 38 56q98 111 98 159q0 12 -2 15t-14 6q-11 3 -37 3h-9l-29 -1v11z" />
    <glyph glyph-name="uni00b3" unicode="&#xb3;" horiz-adv-x="274" 
d="M125 612q5 1 19 1q36 0 47 -8q16 -11 16 -26q0 -23 -32 -57l-25 -26l17 -10q58 -35 58 -93q0 -40 -33 -64q-32 -23 -70 -23q-36 0 -58 21q-14 14 -14 26q0 22 12 22q8 0 20 -14q14 -15 38 -15t44.5 14t20.5 33q0 26 -21 46t-55 25q-21 3 -28 7t-7 13q0 11 4 15.5t24 15.5
q23 13 41.5 30t18.5 25q0 6 -9 6q-1 0 -27 -2q-39 -3 -51 -3q-9 0 -11 1.5t-2 6.5q0 23 63 33z" />
    <glyph glyph-name="periodcentered" unicode="&#xb7;" horiz-adv-x="189" 
d="M57 333q-9 7 -9 20q0 19 16 37.5t36 18.5q11 0 21 -7q20 -16 20 -43q0 -20 -12.5 -31.5t-30.5 -11.5q-21 0 -41 17z" />
    <glyph glyph-name="guillemotright" unicode="&#xbb;" horiz-adv-x="410" 
d="M202 422q-2 10 10 18q2 0 30.5 -19t46.5 -34q30 -23 50.5 -45.5t20.5 -32.5q0 -11 -58 -68q-63 -63 -74 -63q-3 0 -7 2q-8 5 -8 10q0 13 53 67l52 54l-13 14q-8 9 -57 50q-45 36 -46 47zM62 424q5 8 11 8q15 0 83 -72q36 -38 44.5 -49t8.5 -20q0 -15 -22 -30
q-20 -15 -68 -61q-45 -43 -49 -43q-8 0 -14 5t-6 12q0 8 43.5 52t54.5 52q14 10 14 15q0 3 -29 38.5t-54 62.5q-18 18 -18 26q0 3 1 4z" />
    <glyph glyph-name="onequarter" unicode="&#xbc;" horiz-adv-x="444" 
d="M55 590q3 5 10 4.5t11 -5.5q4 -4 7 -66t3 -112q0 -39 -2 -42q-4 -7 -14 -7q-8 0 -13 6q-9 13 -9 125q0 87 7 97zM308 555q16 16 25 16q7 0 11 -7q0 -1 1.5 -3.5t1.5 -3.5q0 -5 -26 -38q-56 -71 -153 -235q-51 -88 -69.5 -116t-28.5 -32t-17 4q-7 9 -4 16q4 9 71 120.5
t91 149.5q61 93 97 129zM371 367q4 11 15 10l10 -1v-112q0 -111 -6 -117q-7 -7 -16 -4q-17 3 -17 41q0 13 1 21l3 36l-36 4q-31 3 -43 9q-11 6 -11 32q0 14 1 23q6 63 19 63q3 0 8 -3q6 -4 9 -45q1 -27 3 -33t7 -8q10 -2 21 -2q20 0 20 3q0 12 5 44.5t7 38.5z" />
    <glyph glyph-name="onehalf" unicode="&#xbd;" horiz-adv-x="491" 
d="M80 582q8 16 20 3q9 -11 14 -161q1 -25 1 -56q0 -32 -5 -37q-6 -4 -10 -4q-14 0 -19 16q-5 17 -5 136q0 96 4 103zM307 569q15 22 25 22q7 0 8 -3t-1 -14q-3 -18 -38 -73q-32 -48 -117 -194q-75 -130 -91.5 -156t-23.5 -26q-1 0 -2.5 0.5t-2.5 0.5q-14 2 -14 12
q0 12 20 47q22 37 22 39t49.5 86t74.5 124q34 55 91 135zM358 400q7 1 21 1q46 0 57 -30q5 -12 5 -22q0 -22 -21 -53.5t-73 -90.5q-38 -43 -38 -46q0 -1 52 -3q42 -2 53 -5t11 -16q0 -11 -16 -14t-74 -4h-27q-39 0 -48 3.5t-9 16.5q0 11 10.5 26.5t47.5 55.5q79 87 89 113
q4 9 4 18q0 11 -10 14q-4 1 -15 1q-35 0 -59 -8q-14 -4 -18 -4q-9 0 -12 8v1l-1 2q0 11 21 21.5t50 14.5z" />
    <glyph glyph-name="multiply" unicode="&#xd7;" horiz-adv-x="395" 
d="M268 479q26 22 37 22h2q13 -1 13 -7q0 -12 -41 -50q-36 -34 -61 -62l-19 -20l73 -73q72 -72 72 -83q0 -16 -18 -16q-5 0 -7 1q-7 2 -76 71l-69 69l-47 -54q-30 -36 -40.5 -45.5t-18.5 -9.5q-14 0 -14 12q0 2 2 10q3 8 47 61q43 52 43 55q0 4 -48 56q-48 53 -48 65
q0 4 4 8t9 4q13 0 62 -52l50 -52l33 33q45 45 60 57z" />
    <glyph glyph-name="oslash" unicode="&#xd8;" horiz-adv-x="458" 
d="M355 367q-9 22 -17 28q-3 3 -5 3q-5 0 -19 -17q-43 -50 -108 -147q-30 -45 -30 -52q0 -5 7.5 -9.5t22.5 -11.5q21 -10 53 -10q33 0 46 5q17 6 33 22t23 34q11 31 11 68q0 48 -17 87zM263 422q-15 0 -20 -1q-12 -2 -40 -9q-26 -7 -38 -17.5t-26 -40.5q-12 -25 -12 -64
q0 -38 9 -57q9 -18 10 -18t41 56q25 35 75 101q32 41 32 47q0 3 -31 3zM356 482q30 31 40 31q7 0 7 -13q0 -11 -31 -49q-14 -17 -14 -22q0 -3 9 -12q26 -24 39 -96q4 -21 4 -39q0 -7 -2 -29q-9 -68 -42.5 -101.5t-96.5 -36.5h-12q-53 0 -90 25q-14 9 -16 9q-1 0 -22.5 -28.5
t-32.5 -44.5q-15 -23 -27 -23q-2 0 -8 2q-9 5 -9 12q0 12 25 47q29 42 35 51l9 13l-13 27q-21 42 -21 84q0 51 27 94.5t68 64.5q25 12 48 12h17q31 0 59 -5l19 -5z" />
    <glyph glyph-name="oslash" unicode="&#xf8;" horiz-adv-x="458" 
d="M355 367q-9 22 -17 28q-3 3 -5 3q-5 0 -19 -17q-43 -50 -108 -147q-30 -45 -30 -52q0 -5 7.5 -9.5t22.5 -11.5q21 -10 53 -10q33 0 46 5q17 6 33 22t23 34q11 31 11 68q0 48 -17 87zM263 422q-15 0 -20 -1q-12 -2 -40 -9q-26 -7 -38 -17.5t-26 -40.5q-12 -25 -12 -64
q0 -38 9 -57q9 -18 10 -18t41 56q25 35 75 101q32 41 32 47q0 3 -31 3zM356 482q30 31 40 31q7 0 7 -13q0 -11 -31 -49q-14 -17 -14 -22q0 -3 9 -12q26 -24 39 -96q4 -21 4 -39q0 -7 -2 -29q-9 -68 -42.5 -101.5t-96.5 -36.5h-12q-53 0 -90 25q-14 9 -16 9q-1 0 -22.5 -28.5
t-32.5 -44.5q-15 -23 -27 -23q-2 0 -8 2q-9 5 -9 12q0 12 25 47q29 42 35 51l9 13l-13 27q-21 42 -21 84q0 51 27 94.5t68 64.5q25 12 48 12h17q31 0 59 -5l19 -5z" />
    <glyph glyph-name="divide" unicode="&#xf7;" horiz-adv-x="425" 
d="M198 505q6 3 13 3q15 0 27 -13t12 -27q0 -5 -1 -7q-8 -26 -34 -26q-12 0 -22 7q-16 10 -16 29q0 25 21 34zM323 387h12q40 0 40 -16q0 -10 -19 -14t-86 -10q-12 -1 -142 -14q-35 -4 -50 -4q-10 0 -16 3q-12 5 -12 14q0 8 7.5 14t17.5 6q15 0 52 5q41 6 196 16zM205 276
q8 4 16 4q18 0 29 -11q9 -9 9 -22q0 -14 -9 -26.5t-24 -16.5q-9 -3 -15 -3q-14 0 -23 23q-4 12 -4 18q0 7 4 15q6 13 17 19z" />
    <glyph glyph-name="Gamma" unicode="&#x393;" horiz-adv-x="383" 
d="M304 610q3 2 10 2q16 0 16 -14q0 -10 -9 -16q-11 -8 -98 -11q-78 -3 -112 -6l-22 -3l2 -55q7 -190 11 -236q6 -67 6 -110q0 -41 -6 -50q-5 -9 -15 -9q-13 0 -16 12t-4 58q0 38 -7 124q-5 65 -9 179l-2 111l9 6q22 15 167 15q73 0 79 3z" />
    <glyph glyph-name="Gamma" unicode="&#x3b3;" horiz-adv-x="383" 
d="M304 610q3 2 10 2q16 0 16 -14q0 -10 -9 -16q-11 -8 -98 -11q-78 -3 -112 -6l-22 -3l2 -55q7 -190 11 -236q6 -67 6 -110q0 -41 -6 -50q-5 -9 -15 -9q-13 0 -16 12t-4 58q0 38 -7 124q-5 65 -9 179l-2 111l9 6q22 15 167 15q73 0 79 3z" />
    <glyph glyph-name="Delta" unicode="&#x394;" horiz-adv-x="443" 
d="M237 539q0 8 -9 -3q-3 -3 -5 -7q-21 -40 -61 -154t-58 -183l-14 -51q31 -4 141 -5l125 -2l-25 73q-45 127 -77 259q-17 66 -17 73zM220 590q8 8 13 8q7 0 19 -18q17 -28 53 -162q24 -88 52 -172q38 -109 38 -121q0 -5 -1 -8q-2 -11 -12 -17q-7 -4 -27 -4q-30 0 -58 2
q-82 4 -158 4q-66 0 -79 3t-13 17q0 11 26 100t42 134q73 202 105 234z" />
    <glyph glyph-name="Delta" unicode="&#x3b4;" horiz-adv-x="443" 
d="M237 539q0 8 -9 -3q-3 -3 -5 -7q-21 -40 -61 -154t-58 -183l-14 -51q31 -4 141 -5l125 -2l-25 73q-45 127 -77 259q-17 66 -17 73zM220 590q8 8 13 8q7 0 19 -18q17 -28 53 -162q24 -88 52 -172q38 -109 38 -121q0 -5 -1 -8q-2 -11 -12 -17q-7 -4 -27 -4q-30 0 -58 2
q-82 4 -158 4q-66 0 -79 3t-13 17q0 11 26 100t42 134q73 202 105 234z" />
    <glyph glyph-name="Lambda" unicode="&#x39b;" horiz-adv-x="464" 
d="M226 586q8 9 21 8q20 -3 39 -53q132 -352 132 -396q0 -19 -15 -19h-3q-10 1 -15.5 12.5t-20.5 65.5q-6 26 -36 107q-20 55 -52 146q-30 85 -34 85q-2 0 -4 -4q-8 -15 -107 -276q-33 -87 -45.5 -113.5t-20.5 -26.5q-7 0 -12.5 6t-5.5 13q0 11 97 259q67 169 82 186z" />
    <glyph glyph-name="Lambda" unicode="&#x3bb;" horiz-adv-x="464" 
d="M226 586q8 9 21 8q20 -3 39 -53q132 -352 132 -396q0 -19 -15 -19h-3q-10 1 -15.5 12.5t-20.5 65.5q-6 26 -36 107q-20 55 -52 146q-30 85 -34 85q-2 0 -4 -4q-8 -15 -107 -276q-33 -87 -45.5 -113.5t-20.5 -26.5q-7 0 -12.5 6t-5.5 13q0 11 97 259q67 169 82 186z" />
    <glyph glyph-name="Xi" unicode="&#x39e;" horiz-adv-x="472" 
d="M128 607q42 2 76 2q180 0 193 -11q6 -5 6 -12t-7 -11q-10 -4 -153 -4q-103 0 -126 1.5t-28 6.5q-8 8 -4 16q4 6 11.5 8t31.5 4zM293 390q34 2 38 2q19 0 26 -6q8 -7 4 -15q-4 -9 -13 -11q-12 -2 -96.5 -9.5t-103.5 -7.5q-47 0 -47 17q0 9 20.5 14t78.5 9q81 6 93 7z
M188 164q52 4 130 4q87 0 99 -4q10 -4 9 -14q-2 -11 -21 -13.5t-114 -6.5q-93 -3 -164 -10q-44 -4 -50 -4q-18 0 -24 5t-6 17q0 9 10.5 12.5t47.5 6.5q61 5 83 7z" />
    <glyph glyph-name="Xi" unicode="&#x3be;" horiz-adv-x="472" 
d="M128 607q42 2 76 2q180 0 193 -11q6 -5 6 -12t-7 -11q-10 -4 -153 -4q-103 0 -126 1.5t-28 6.5q-8 8 -4 16q4 6 11.5 8t31.5 4zM293 390q34 2 38 2q19 0 26 -6q8 -7 4 -15q-4 -9 -13 -11q-12 -2 -96.5 -9.5t-103.5 -7.5q-47 0 -47 17q0 9 20.5 14t78.5 9q81 6 93 7z
M188 164q52 4 130 4q87 0 99 -4q10 -4 9 -14q-2 -11 -21 -13.5t-114 -6.5q-93 -3 -164 -10q-44 -4 -50 -4q-18 0 -24 5t-6 17q0 9 10.5 12.5t47.5 6.5q61 5 83 7z" />
    <glyph glyph-name="Pi" unicode="&#x3a0;" horiz-adv-x="460" 
d="M58 586q7 8 35 8q26 0 46 -1q88 -2 166 -9.5t84 -13.5q10 -10 14 -121q1 -62 8 -189q4 -60 4 -88q0 -20 -3 -26q-6 -13 -19 -13q-7 0 -10 5q-8 11 -18 267q-5 131 -7 133q-1 1 -34 4.5t-78 7t-77 4.5q-46 1 -86 6v-101v-66v-141v-31q0 -77 -3 -86q-3 -10 -14 -15
q-8 -2 -9 -2q-9 0 -10.5 22t-1.5 114v42q0 276 13 290z" />
    <glyph glyph-name="Pi" unicode="&#x3c0;" horiz-adv-x="460" 
d="M58 586q7 8 35 8q26 0 46 -1q88 -2 166 -9.5t84 -13.5q10 -10 14 -121q1 -62 8 -189q4 -60 4 -88q0 -20 -3 -26q-6 -13 -19 -13q-7 0 -10 5q-8 11 -18 267q-5 131 -7 133q-1 1 -34 4.5t-78 7t-77 4.5q-46 1 -86 6v-101v-66v-141v-31q0 -77 -3 -86q-3 -10 -14 -15
q-8 -2 -9 -2q-9 0 -10.5 22t-1.5 114v42q0 276 13 290z" />
    <glyph glyph-name="Sigma" unicode="&#x3a3;" horiz-adv-x="470" 
d="M81 601q6 6 51 6q5 0 105 -2q150 -3 154 -7q13 -11 -2 -24q-6 -6 -123 -7l-115 -1l43 -37q59 -48 82 -89q12 -20 12 -31q0 -14 -22 -37q-34 -35 -109 -143q-44 -65 -47 -69q-5 -7 1 -7l14 -1q274 -2 290 -11q8 -4 8 -13q0 -10 -8 -14q-6 -3 -99 -3q-248 0 -261 8
q-8 6 -8 14q0 12 20 37q23 27 55 76q64 95 100 136q23 25 23 30t-14.5 25t-28.5 33q-33 29 -70 59q-58 46 -58 59q0 4 7 13z" />
    <glyph glyph-name="Sigma" unicode="&#x3c3;" horiz-adv-x="470" 
d="M81 601q6 6 51 6q5 0 105 -2q150 -3 154 -7q13 -11 -2 -24q-6 -6 -123 -7l-115 -1l43 -37q59 -48 82 -89q12 -20 12 -31q0 -14 -22 -37q-34 -35 -109 -143q-44 -65 -47 -69q-5 -7 1 -7l14 -1q274 -2 290 -11q8 -4 8 -13q0 -10 -8 -14q-6 -3 -99 -3q-248 0 -261 8
q-8 6 -8 14q0 12 20 37q23 27 55 76q64 95 100 136q23 25 23 30t-14.5 25t-28.5 33q-33 29 -70 59q-58 46 -58 59q0 4 7 13z" />
    <glyph glyph-name="Phi" unicode="&#x3a6;" horiz-adv-x="527" 
d="M386 464q-10 6 -67 28l-50 21l3 -69v-34q0 -48 -2 -100q-2 -42 -2 -53l1 -15q2 -1 4 -1q12 0 48 8t49 14q64 28 70 101v9q0 62 -54 91zM234 461q-4 56 -6 56q-51 -10 -83 -31q-17 -10 -36 -48q-14 -27 -16.5 -37.5t-2.5 -38.5q0 -38 10 -52q13 -19 47.5 -38.5t64.5 -24.5
l15 -2l2 30q6 81 6 141q0 31 -1 45zM237 625q3 5 12.5 5t12.5 -5t7 -38l3 -33l34 -5q62 -9 65 -33q0 -4 27 -17q52 -25 71 -70q9 -19 9 -55t-9 -60q-35 -90 -171 -108l-35 -4v-14q0 -26 -4.5 -66.5t-7.5 -44.5q-4 -5 -13 -5q-12 0 -16 8q-4 5 -4 18q0 3 2 33q4 48 4 59v15
l-28 7q-46 11 -82.5 35t-50.5 51q-13 26 -13 63q0 67 42 127q32 46 115 62l23 4l2 33q2 35 5 38z" />
    <glyph glyph-name="Phi" unicode="&#x3c6;" horiz-adv-x="527" 
d="M386 464q-10 6 -67 28l-50 21l3 -69v-34q0 -48 -2 -100q-2 -42 -2 -53l1 -15q2 -1 4 -1q12 0 48 8t49 14q64 28 70 101v9q0 62 -54 91zM234 461q-4 56 -6 56q-51 -10 -83 -31q-17 -10 -36 -48q-14 -27 -16.5 -37.5t-2.5 -38.5q0 -38 10 -52q13 -19 47.5 -38.5t64.5 -24.5
l15 -2l2 30q6 81 6 141q0 31 -1 45zM237 625q3 5 12.5 5t12.5 -5t7 -38l3 -33l34 -5q62 -9 65 -33q0 -4 27 -17q52 -25 71 -70q9 -19 9 -55t-9 -60q-35 -90 -171 -108l-35 -4v-14q0 -26 -4.5 -66.5t-7.5 -44.5q-4 -5 -13 -5q-12 0 -16 8q-4 5 -4 18q0 3 2 33q4 48 4 59v15
l-28 7q-46 11 -82.5 35t-50.5 51q-13 26 -13 63q0 67 42 127q32 46 115 62l23 4l2 33q2 35 5 38z" />
    <glyph glyph-name="Psi" unicode="&#x3a8;" horiz-adv-x="544" 
d="M279 590q12 12 23 -5q5 -7 5 -37q0 -35 -1 -66q0 -13 -0.5 -40.5t-0.5 -40.5q0 -14 0.5 -35.5t0.5 -26.5l2 -49l19 2q29 4 57.5 27t47.5 59q26 51 26 119v11v25.5t-0.5 21.5t-0.5 9q0 3 5 4t11 -0.5t9 -5.5q13 -14 13 -66q0 -49 -11 -86q-17 -63 -60 -107t-93 -50l-21 -2
l2 -73q1 -23 1 -50q0 -23 -6 -28q-15 -12 -25 2q-5 9 -8 69q-2 71 -8 80q-5 6 -26 12q-42 13 -81 43.5t-62 68.5q-21 35 -34 83t-13 85q0 45 19 45q18 0 18 -44q0 -22 5 -49q25 -133 132 -184q7 -3 14.5 -6.5t11.5 -5.5t7 -2q7 0 9 14t2 55v43q0 170 11 181z" />
    <glyph glyph-name="Psi" unicode="&#x3c8;" horiz-adv-x="544" 
d="M279 590q12 12 23 -5q5 -7 5 -37q0 -35 -1 -66q0 -13 -0.5 -40.5t-0.5 -40.5q0 -14 0.5 -35.5t0.5 -26.5l2 -49l19 2q29 4 57.5 27t47.5 59q26 51 26 119v11v25.5t-0.5 21.5t-0.5 9q0 3 5 4t11 -0.5t9 -5.5q13 -14 13 -66q0 -49 -11 -86q-17 -63 -60 -107t-93 -50l-21 -2
l2 -73q1 -23 1 -50q0 -23 -6 -28q-15 -12 -25 2q-5 9 -8 69q-2 71 -8 80q-5 6 -26 12q-42 13 -81 43.5t-62 68.5q-21 35 -34 83t-13 85q0 45 19 45q18 0 18 -44q0 -22 5 -49q25 -133 132 -184q7 -3 14.5 -6.5t11.5 -5.5t7 -2q7 0 9 14t2 55v43q0 170 11 181z" />
    <glyph glyph-name="Omega" unicode="&#x3a9;" horiz-adv-x="602" 
d="M230 585q24 6 49 6q18 0 50 -5q57 -10 78 -29t44 -81q22 -59 22 -102q0 -9 -2 -29q-10 -77 -28 -108q-3 -5 -35 -46q-26 -31 -26 -35q9 -1 25 -1q7 0 27.5 0.5t33.5 0.5l86 1l1 -10q5 -30 -120 -30h-25q-59 1 -72.5 5t-13.5 19q0 12 19 31q47 51 62 74.5t21 53.5
q8 46 8 73q0 45 -24 104q-14 34 -26 46.5t-39 18.5q-39 9 -70 9q-76 0 -127 -65q-50 -63 -50 -115q0 -34 20 -77q21 -45 79 -109q34 -38 34 -49q0 -13 -7.5 -17t-32.5 -4q-7 0 -57 2q-53 3 -70.5 7t-17.5 14t14 13.5t56 3.5q54 0 54 3q0 2 -29 35q-80 92 -80 177
q0 57 36 113q54 83 133 102z" />
    <glyph glyph-name="Omega" unicode="&#x3c9;" horiz-adv-x="602" 
d="M230 585q24 6 49 6q18 0 50 -5q57 -10 78 -29t44 -81q22 -59 22 -102q0 -9 -2 -29q-10 -77 -28 -108q-3 -5 -35 -46q-26 -31 -26 -35q9 -1 25 -1q7 0 27.5 0.5t33.5 0.5l86 1l1 -10q5 -30 -120 -30h-25q-59 1 -72.5 5t-13.5 19q0 12 19 31q47 51 62 74.5t21 53.5
q8 46 8 73q0 45 -24 104q-14 34 -26 46.5t-39 18.5q-39 9 -70 9q-76 0 -127 -65q-50 -63 -50 -115q0 -34 20 -77q21 -45 79 -109q34 -38 34 -49q0 -13 -7.5 -17t-32.5 -4q-7 0 -57 2q-53 3 -70.5 7t-17.5 14t14 13.5t56 3.5q54 0 54 3q0 2 -29 35q-80 92 -80 177
q0 57 36 113q54 83 133 102z" />
    <glyph glyph-name="uni2010" unicode="&#x2010;" horiz-adv-x="316" 
d="M111 313q84 4 106 4q45 0 47 -5q4 -4 4 -9q0 -10 -15 -15q-7 -3 -101 -9q-50 -3 -71 -3t-27 3.5t-6 12.5q0 11 12 15t51 6z" />
    <glyph glyph-name="uni2011" unicode="&#x2011;" horiz-adv-x="305" 
d="M56 308q6 5 30 5q28 0 52 -1q118 -4 118 -19q0 -2 -2 -6q-4 -6 -105 -6h-100l-1 10q-1 9 8 17z" />
    <glyph glyph-name="figuredash" unicode="&#x2012;" horiz-adv-x="505" 
d="M170 371q142 3 218 3q41 0 47 -1q22 -3 22 -18q0 -5 -5 -10q-7 -7 -38 -7q-298 -8 -315 -8q-35 0 -42 5q-10 7 -10 16t9 13q6 4 114 7z" />
    <glyph glyph-name="endash" unicode="&#x2013;" horiz-adv-x="447" 
d="M57 323q7 5 71 5h94q157 -1 167 -8t10 -15q0 -6 -8 -11q-5 -3 -97 -3q-232 0 -241 7q-14 12 4 25z" />
    <glyph glyph-name="emdash" unicode="&#x2014;" horiz-adv-x="748" 
d="M148 329q111 3 325 3t220 -3q7 -4 7.5 -11t-5.5 -12q-8 -6 -352 -13q-192 -4 -252 -4q-37 0 -39 5q-4 5 -4 12q0 12 9 16q6 4 91 7z" />
    <glyph glyph-name="afii00208" unicode="&#x2015;" horiz-adv-x="701" 
d="M263 342q11 1 57 1q173 0 239 -6q77 -8 90 -17q6 -5 4.5 -12t-9.5 -10q-3 -1 -15 -1q-20 0 -34 2q-52 5 -185 5q-168 0 -261 -7q-70 -6 -82 -6q-2 0 -5 1h-3q-11 3 -11 14q0 15 16 19q27 7 199 17z" />
    <glyph glyph-name="uni2016" unicode="&#x2016;" horiz-adv-x="313" 
d="M219 611q4 8 14 7l11 -1l3 -161q2 -128 17 -428q1 -22 1 -47q0 -21 -7 -28q-6 -6 -12 -6q-9 0 -14 11q-5 9 -7 66q-1 14 -2.5 45t-4 81t-3.5 79q-7 134 -7 241q0 122 11 141zM64 608q11 14 22 -3q5 -7 5 -53q0 -56 -1 -105q0 -33 -2 -152t-3 -173q-3 -169 -8 -181
q-3 -6 -8 -6q-1 0 -3 0.5t-4 0.5q-11 1 -14 13t-3 103q0 119 4 238q9 310 15 318z" />
    <glyph glyph-name="underscoredbl" unicode="&#x2017;" horiz-adv-x="402" 
d="M123 101q57 3 122 3q52 0 64 -2q8 -2 10 -10.5t-4 -13.5q-5 -5 -82 -8q-14 -1 -61.5 -3t-61.5 -3q-12 -1 -29 -1q-35 0 -35 17q0 10 14 14t63 7zM106 -7q74 6 153 6q65 -1 80.5 -4t15.5 -14q0 -12 -16.5 -14.5t-93.5 -4.5q-124 -5 -140 -6q-11 -1 -27 -1q-19 0 -25.5 4
t-6.5 13q0 10 10.5 13.5t49.5 7.5z" />
    <glyph glyph-name="quoteleft" unicode="&#x2018;" horiz-adv-x="188" 
d="M111 601q19 13 26 -2q2 -4 2 -8q0 -7 -6 -26q-2 -7 -8.5 -34t-10.5 -40q-8 -35 -14.5 -48t-16.5 -13q-6 0 -20 7q-15 8 -15 21q0 12 5 29q7 22 29 65.5t29 48.5z" />
    <glyph glyph-name="quoteright" unicode="&#x2019;" horiz-adv-x="172" 
d="M80 593q6 10 22 10t19 -8q2 -6 2 -8q0 -9 -23 -73q-14 -40 -21.5 -52.5t-15.5 -12.5q-15 0 -15 29q0 16 12 60t20 55z" />
    <glyph glyph-name="quotesinglbase" unicode="&#x201a;" horiz-adv-x="164" 
d="M69 187q6 7 24 7q10 0 14 -0.5t7 -3t3 -8.5q0 -12 -15 -58q-18 -56 -22 -64.5t-14 -8.5q-19 0 -19 26q0 9 1 14q10 83 21 96z" />
    <glyph glyph-name="quotereversed" unicode="&#x201b;" horiz-adv-x="200" 
d="M56 596q6 7 21 7q13 0 19 -6q4 -5 27.5 -73t24.5 -70q4 -7 4 -14q0 -18 -18 -18q-12 0 -24 18q-11 16 -36 74t-25 67q0 8 7 15z" />
    <glyph glyph-name="quotedblleft" unicode="&#x201c;" horiz-adv-x="304" 
d="M107 593q6 14 17 13q15 -2 15 -14q0 -8 -16 -69q-14 -51 -23 -69t-23 -18q-6 0 -19 5q-10 4 -10 17q0 11 13 43.5t27 55.5q15 26 19 36zM224 586q13 13 19 13q5 0 10 -6q2 -2 2 -6q0 -10 -15 -55t-21 -69q-2 -13 -8 -19q-9 -9 -29 -9q-5 0 -13 2q-7 3 -8 6.5t0 14.5
q2 18 26 67t37 61z" />
    <glyph glyph-name="quotedblright" unicode="&#x201d;" horiz-adv-x="291" 
d="M205 602q16 4 24 4q6 0 10 -5q2 -4 2 -7q0 -6 -9 -38q-17 -55 -27 -105q-5 -22 -19 -22q-7 0 -12 8q-3 7 -3 37q0 98 12 115q6 8 22 13zM72 597q7 7 24 7q19 0 25 -8q4 -4 4 -11q0 -10 -14 -49q-8 -24 -18 -56q-12 -42 -28 -42h-3q-13 1 -13 30q0 18 6.5 54t6.5 37
q3 29 10 38z" />
    <glyph glyph-name="quotedblbase" unicode="&#x201e;" horiz-adv-x="284" 
d="M63 202q6 2 12 2q16 0 30.5 -6.5t14.5 -18.5q0 -9 -19 -62.5t-24 -60.5q-3 -5 -13 -5t-13.5 6t-3.5 28t1 38q2 52 4.5 63.5t10.5 15.5zM202 202q24 2 29 0q6 -2 6 -10q0 -17 -33 -116q-10 -33 -23 -33q-5 0 -12 7q-6 6 -7.5 16.5t-1.5 53.5t1.5 54t7.5 17q8 8 33 11z" />
    <glyph glyph-name="uni201f" unicode="&#x201f;" horiz-adv-x="304" 
d="M66 610q11 4 21 4q13 0 18 -6q3 -3 13 -55q10 -54 14 -70q2 -7 2 -17q0 -17 -14 -17h-4q-10 1 -33 49q-34 69 -34 90q0 16 17 22zM213 603q11 0 14 -2t6 -10q5 -13 13.5 -54.5t9.5 -57.5v-7q0 -12 -3.5 -15.5t-12.5 -3.5q-8 0 -13.5 5t-16.5 23q-39 62 -39 87
q0 15 12.5 25t29.5 10z" />
    <glyph glyph-name="dagger" unicode="&#x2020;" horiz-adv-x="330" 
d="M159 621q4 8 14 8t14 -7q4 -10 4 -75v-68l43 -1q33 -1 39 -2.5t6 -10.5q0 -12 -50 -18l-40 -5l3 -148q0 -21 0.5 -50.5t0.5 -39.5q0 -54 -3.5 -65t-18.5 -11h-13l-3 27q-3 22 -3 155v128l-45 3q-35 2 -45.5 5t-10.5 13q0 19 59 19h41l2 67q2 67 6 76z" />
    <glyph glyph-name="daggerdbl" unicode="&#x2021;" horiz-adv-x="373" 
d="M184 620q13 11 24 -6q3 -3 5 -63q3 -58 8 -61q3 -2 42 -6q51 -4 51 -17q0 -10 -9.5 -13t-43.5 -3h-44v-73q0 -63 3 -90l2 -18l42 -2q58 -3 58 -18q0 -10 -10.5 -13t-44.5 -4l-44 -1l-2 -61q-1 -48 -5 -60.5t-16 -12.5t-14.5 11t-2.5 60v61l-38 -2q-36 -3 -57 -3
q-24 0 -31 5q-6 4 -6 18q0 9 4 12q3 2 43 4q83 3 83 11l-1 13q0 14 -0.5 35.5t-0.5 42.5v85h-54q-40 0 -51.5 2.5t-11.5 11.5q0 1 0.5 3t0.5 3q3 19 72 20l39 1l2 61q1 43 2 53t6 14z" />
    <glyph glyph-name="bullet" unicode="&#x2022;" horiz-adv-x="248" 
d="M87 420q19 17 26 20t24 3q23 0 34 -6q12 -7 20.5 -23.5t8.5 -32.5q0 -17 -12.5 -42.5t-26.5 -38.5q-22 -19 -47 -19q-26 0 -45 20t-20 51q0 21 7.5 34.5t30.5 33.5z" />
    <glyph glyph-name="uni2023" unicode="&#x2023;" horiz-adv-x="291" 
d="M52 545q4 7 11 7q16 0 54 -29q42 -31 78 -52q33 -20 39.5 -25.5t6.5 -15.5q0 -6 -6.5 -11.5t-32.5 -20.5q-37 -22 -77.5 -40.5t-50.5 -18.5q-11 0 -14 5t-7.5 62.5t-4.5 92.5q0 38 4 46z" />
    <glyph glyph-name="onedotenleader" unicode="&#x2024;" horiz-adv-x="188" 
d="M74 298q10 6 22 6q17 0 30.5 -13t13.5 -31q0 -5 -1 -8q-2 -12 -13 -22t-24 -13q-3 -1 -10 -1q-17 0 -30.5 11.5t-13.5 27.5q0 11 8 24.5t18 18.5z" />
    <glyph glyph-name="twodotenleader" unicode="&#x2025;" horiz-adv-x="541" 
d="M65 556q6 2 20 2q39 0 53 -6q7 -4 7 -19q0 -19 8 -46q6 -22 6 -31q0 -4 -2 -8q-9 -15 -50 -15h-14q-32 2 -38.5 11t-6.5 51q0 34 3 45t14 16zM412 548q18 3 39 3q13 0 19 -1q23 -5 23 -55v-16q-1 -39 -7.5 -45.5t-41.5 -8.5h-11q-26 0 -32 3q-16 8 -16 73q0 29 4.5 36
t22.5 11z" />
    <glyph glyph-name="ellipsis" unicode="&#x2026;" horiz-adv-x="553" 
d="M436 200q11 11 20 11q8 0 22 -8q27 -15 27 -48q0 -22 -12.5 -36.5t-31.5 -14.5q-1 0 -3.5 0.5t-4.5 0.5q-16 3 -25 17.5t-9 33.5q0 27 17 44zM78 196q12 11 27 11q16 0 27.5 -12.5t11.5 -30.5q0 -10 -5 -23t-20.5 -24t-29.5 -11q-16 0 -28.5 12t-12.5 26q0 8 10 25.5
t20 26.5zM263 195q8 4 22 4q26 0 38 -12q8 -8 8 -21q0 -14 -23 -37t-34 -23q-8 0 -21 11q-12 11 -12 31q0 35 22 47z" />
    <glyph glyph-name="uni2027" unicode="&#x2027;" horiz-adv-x="177" 
d="M69 412q13 8 22 8q12 0 25 -13t13 -29q0 -8 -5 -18q-9 -15 -23.5 -28t-21.5 -13q-12 0 -21 11t-10 30v8q0 30 21 44z" />
    <glyph glyph-name="minute" unicode="&#x2032;" horiz-adv-x="156" 
d="M71 600q14 2 16 2q3 0 12 -7q7 -5 8 -14t2 -52v-28q0 -32 -4 -43t-15 -11q-24 0 -36 73q-6 37 -6 54q0 14 5 19t18 7z" />
    <glyph glyph-name="second" unicode="&#x2033;" horiz-adv-x="282" 
d="M71 594q13 4 24 4q7 0 9 -3q2 -2 2 -69q0 -57 -4.5 -73.5t-18.5 -16.5q-10 0 -14 4q-2 5 -11.5 60.5t-9.5 67.5t4.5 17t18.5 9zM188 586q8 4 17 4q12 0 21 -6t9 -28q0 -13 -5 -51q-8 -72 -29 -72q-2 0 -8 2q-9 4 -11 18.5t-3 69.5l-1 58z" />
    <glyph glyph-name="uni2034" unicode="&#x2034;" horiz-adv-x="390" 
d="M52 593q4 5 23 5q15 0 20 -4t5 -18q0 -4 -2 -30q-10 -93 -17 -98t-10 -4.5t-11 6.5q-6 5 -8 16t-3 56q-1 16 -1 39q0 28 4 32zM172 583q5 8 16 8q14 0 23 -12q6 -7 6 -21q0 -1 -2 -39q-3 -49 -8 -60q-5 -8 -13 -8q-10 0 -16 9q-9 14 -9 88q0 29 3 35zM296 581q4 6 17 6
q14 0 22 -8q7 -7 7 -17q0 -9 -1 -15q-3 -43 -5 -59q-2 -34 -7 -43q-6 -9 -17 -9q-8 0 -12 6q-8 12 -8 95q0 40 4 44z" />
    <glyph glyph-name="uni2035" unicode="&#x2035;" horiz-adv-x="201" 
d="M60 718q11 8 17 8t12 -6q6 -7 34 -68.5t30 -72.5q0 -1 0.5 -3t0.5 -3q0 -8 -4.5 -14.5t-10.5 -6.5q-7 0 -15 8t-16.5 21.5t-15 26t-14.5 28.5t-11 21q-17 31 -17 43q0 11 10 18z" />
    <glyph glyph-name="uni2036" unicode="&#x2036;" horiz-adv-x="325" 
d="M188 721q9 6 16 6q10 0 18.5 -14t22.5 -53q15 -40 24 -59q8 -18 8 -27q0 -12 -12 -14h-5q-9 0 -15.5 8t-27.5 40q-44 68 -44 88q0 5 1 7q4 13 14 18zM64 710q12 9 24 9q6 0 10 -3q9 -6 42 -85q22 -50 22 -63q0 -10 -16 -10q-9 0 -13 3t-9 13q-6 14 -42 61q-32 44 -32 56
q0 10 14 19z" />
    <glyph glyph-name="uni2037" unicode="&#x2037;" horiz-adv-x="468" 
d="M194 717q8 5 24 5q14 0 22 -11t35 -69q25 -53 25 -62q0 -5 -1 -7q-4 -10 -11 -12q-5 -2 -15 3.5t-10 10.5t-20 35t-36 47q-25 28 -25 43q0 11 12 17zM60 706q10 13 19 13t15 -16q8 -21 35 -69q29 -55 29 -66q0 -10 -13 -10q-8 0 -14 5.5t-20 25.5q-61 84 -61 97
q0 7 10 20zM320 710q6 9 21 9q14 0 24 -13t34 -62q21 -43 21 -50q0 -4 -3 -9q-7 -10 -14 -10q-9 0 -21 18q-17 25 -40 55q-27 36 -27 48q0 6 5 14z" />
    <glyph glyph-name="uni2038" unicode="&#x2038;" horiz-adv-x="332" 
d="M145 348q17 10 26 -4q3 -6 60 -117q51 -103 51 -113q0 -9 -13 -9q-9 0 -17 8t-49 92q-43 85 -45 85t-11 -19t-21.5 -48.5t-21.5 -55.5q-21 -58 -34 -58q-6 0 -13 7t-7 13q0 7 24.5 68.5t42.5 100.5q23 47 28 50z" />
    <glyph glyph-name="guilsinglleft" unicode="&#x2039;" horiz-adv-x="262" 
d="M137 402q26 27 35 27h3q14 -2 14 -10q0 -12 -24 -42q-22 -27 -45.5 -61.5t-23.5 -39.5q0 -6 35 -43q31 -32 52 -60q17 -23 24 -27q5 -3 5 -11.5t-5 -13.5t-11 -5q-13 0 -49 40q-7 8 -31 34.5t-34 37.5q-32 35 -32 44t32 57t55 73z" />
    <glyph glyph-name="guilsinglright" unicode="&#x203a;" horiz-adv-x="235" 
d="M62 432q5 5 10 5q11 0 37 -27q31 -33 53.5 -71t22.5 -57q0 -7 -32 -43q-5 -5 -26 -29.5t-28 -33.5q-23 -29 -35 -29q-5 0 -10 5q-4 4 -4 11q0 22 64 92l29 32l-8 19q-14 34 -54 79q-23 27 -23 38q0 5 4 9z" />
    <glyph glyph-name="uni20a9" unicode="&#x20a9;" horiz-adv-x="537" 
d="M175 272q0 5 -9.5 7.5t-14.5 -1.5q-2 -1 -2 -8t2 -18t4.5 -19.5t3.5 -8.5q3 0 9.5 19.5t6.5 28.5zM355 261l2 29h-12q-11 0 -11 -7q0 -6 6 -33q5 -23 8 -23q4 0 7 34zM370 361l3 22h-32q-30 0 -30 -4l1 -1v-3l2 -11q3 -11 4 -18l5 -21h18q16 0 21 6t8 30zM277 358l-7 27
q-5 1 -16 1t-16 1l-5 -24q-6 -28 -7 -33v-2l-1 -2q0 -5 27 -5q29 0 29 7q0 6 -4 30zM174 387q-23 0 -37 2q-3 1 -6 1q-7 0 -7 -8q0 -4 7 -36l7 -29h48l4 20q1 4 2.5 11t3 13t1.5 10l2 16h-25zM261 435q-2 14 -6 15q-2 0 -4 -6q-6 -25 4 -22q7 1 6 13zM52 595q5 5 10 5
q13 0 22 -33q6 -21 18 -77q13 -59 14 -60q1 -2 47 -4l46 -1l10 43q11 46 15 81q3 30 6.5 38t13.5 8q11 0 17 -15.5t16 -73.5q13 -75 15 -80q3 -3 41 -7l39 -2l8 36q11 43 15 67q7 37 7 39q1 8 9.5 10t15.5 -3q8 -5 8 -23q0 -23 -11 -70q-10 -43 -10 -53q0 -4 18 -6
q22 -3 22 -14q0 -14 -31 -17l-20 -2l-5 -25q-5 -25 -3 -27t41 -4q4 0 10 -1q29 -1 30 -6q1 -2 1 -5q0 -12 -49 -17l-41 -4l-7 -52q-9 -70 -18.5 -96.5t-26.5 -26.5h-2q-11 1 -16.5 16t-19.5 84q-13 68 -17 70q-1 1 -15 1q-50 0 -55 -5q-3 -3 -14 -45q-24 -91 -35 -104
q-4 -5 -15 -5q-12 0 -16 5t-18 74l-15 69l-22 4q-23 4 -28.5 7.5t-5.5 11.5q0 17 34 17q13 0 13 5q0 9 -8.5 42t-10.5 34q-9 3 -19.5 12.5t-11.5 14.5q-1 8 3 14t12 6q7 0 7 8q0 13 -11 62q-11 51 -11 67q0 9 4 13z" />
    <glyph glyph-name="Euro" unicode="&#x20ac;" horiz-adv-x="463" 
d="M169 558q24 24 49.5 34t71.5 10h16q47 -1 67 -10q33 -15 33 -29q0 -15 -12 -15q-6 0 -20 6q-26 13 -68 13q-11 0 -33 -2q-41 -6 -63 -21.5t-39 -49.5q-20 -40 -20 -67q0 -3 1 -4q4 -2 73 -4q70 -2 89 -4t25 -11q5 -7 3.5 -13.5t-7.5 -7.5h-192v-54l44 -1h26h49h15
q29 0 29 -15t-27 -15q-12 0 -14 -4q-4 -4 -58 -4h-24q-19 0 -25.5 -2t-6.5 -9t8 -34q17 -60 47 -89q21 -20 51 -20q13 0 21 1q26 3 55 18q30 17 44 31q15 15 25 15q11 0 11 -19q0 -10 -19 -28q-22 -22 -44 -32l-26 -14q-1 -2 -27 -8q-15 -3 -33 -3q-36 0 -59 12
q-64 33 -94 170q-1 7 -4.5 8.5t-17.5 3.5q-23 3 -26 9q-5 8 -5 12q0 13 24 15q5 0 12 1l8 1q3 0 3 29v29h-16q-34 0 -38 16q0 1 -0.5 2t-0.5 2q0 15 34 15q24 0 26 5q3 6 8 33q13 60 51 98z" />
    <glyph glyph-name="uni20b9" unicode="&#x20b9;" horiz-adv-x="393" 
d="M119 603q44 3 129 3h25q45 0 57 -4t12 -17q0 -11 -15.5 -14t-73.5 -3h-69l13 -19q22 -31 22 -59v-10l39 -1q43 0 57.5 -3t14.5 -13q0 -8 -13.5 -11.5t-55.5 -5.5l-54 -2l-8 -15q-7 -15 -35 -44t-48 -43q-22 -14 -18 -18q14 -24 74 -103t77 -96q19 -19 19 -30q0 -8 -10 -9
h-3q-19 0 -58 42.5t-115 147.5q-33 45 -33 57t32 33q23 15 51.5 41.5t28.5 32.5q0 3 -47 7q-37 3 -45.5 7t-8.5 17q0 14 38 14q4 0 14 -0.5t17 -0.5l52 -2l-2 17q-4 26 -29 44t-62 21q-35 3 -35 14q0 6 7 14q8 9 59 11z" />
    <glyph glyph-name="uni20ba" unicode="&#x20ba;" horiz-adv-x="471" 
d="M172 429q-3 0 -25 -11.5t-32 -11.5q-12 0 -12 14q0 8 5.5 13t29.5 19l35 20l3 38q5 77 14 86q7 7 15 3q5 -2 6 -10t2 -44l2 -50l29 14q60 28 78 28h5q10 -1 13 -3.5t3 -10.5q0 -5 -7.5 -9.5t-36.5 -17.5q-38 -17 -66 -32l-20 -11v-34v-17q0 -13 7 -13q8 0 67 21
q47 16 59 16q4 0 6 -1q17 -9 1 -23q-11 -8 -59.5 -26.5t-52.5 -20.5l-28 -11v-36q0 -29 4 -95q3 -52 7.5 -60.5t29.5 -8.5q40 0 77.5 33.5t54.5 85.5q10 29 19 30h2q14 0 14 -22q0 -24 -17 -61q-22 -45 -64.5 -75.5t-83.5 -31.5q-54 0 -69 30q-13 22 -13 153v17q0 20 -6 20
q-3 0 -36 -15q-48 -24 -63 -24q-3 0 -9 2q-10 4 -9 17q1 8 6 11.5t30 14.5q54 23 61 26l26 12v31q0 31 -2 31z" />
    <glyph glyph-name="uni20bd" unicode="&#x20bd;" horiz-adv-x="409" 
d="M259 632q-28 6 -54 6h-30v-142l12 -3q13 -3 27 -3q45 0 81 36q26 26 26 45q0 9 -5 22q-11 28 -57 39zM146 664q5 9 28 9q20 0 36 -1q59 -2 82 -11q66 -26 66 -85q0 -16 -4 -28q-7 -23 -28 -45.5t-47 -35.5q-18 -9 -27.5 -11t-37.5 -2h-39v-36h65q66 0 74 -7t4 -15
q-5 -10 -41 -12.5t-69 -3.5t-33 -8q0 -2 4 -58q2 -34 2 -37q0 -16 -5 -24q-6 -9 -13 -9t-15 10t-10 65l-3 56l-23 2q-46 5 -46 20q0 9 6.5 12t33.5 5l28 2q0 6 1 20t1 20l-36 1q-29 2 -39 6t-10 15q0 9 5.5 12t21.5 3q5 0 18 0.5t19 0.5l20 1l2 80q3 80 9 89z" />
    <glyph glyph-name="arrowleft" unicode="&#x2190;" horiz-adv-x="567" 
d="M120 307q63 57 68 57q16 0 16 -21q0 -12 -30 -43q-31 -31 -31 -33t136 -2q215 0 233 -14q6 -4 4 -14l-1 -10l-193 -1q-190 0 -210 -4l-18 -3l13 -8q11 -8 56 -23q37 -13 45 -17.5t8 -13.5q0 -14 -19 -14q-12 0 -28 4q-119 31 -119 70q0 15 13 32t57 58z" />
    <glyph glyph-name="arrowup" unicode="&#x2191;" horiz-adv-x="307" 
d="M147 517q8 2 12 2q24 0 44.5 -31.5t43.5 -104.5q10 -31 10 -40q0 -3 -2 -9q-4 -9 -15 -8q-10 2 -16 12.5t-24 61.5q-22 62 -29 62q-1 0 -2 -1t-1 -18q0 -102 11 -199q5 -44 5 -73q0 -19 -4 -23t-13 -4q-14 0 -17 7q-5 9 -8 63q-1 21 -6 74.5t-5 93.5q0 47 -5 47
q-4 0 -25 -29q-25 -32 -37 -32q-5 0 -8 3q-6 5 -6 14q0 13 10 27q9 12 29 44q30 53 58 61z" />
    <glyph glyph-name="arrowright" unicode="&#x2192;" horiz-adv-x="576" 
d="M392 303q0 6 6.5 14t12.5 8q5 0 47.5 -22.5t51.5 -30.5q16 -14 16 -36q0 -1 -0.5 -3.5t-0.5 -3.5q-4 -17 -81 -83q-34 -29 -44 -29h-2q-11 1 -14 11q-1 2 -1 5q0 7 37 42l39 37l-191 2q-147 2 -180 4.5t-37 12.5q0 1 -1 4q0 11 21 14q12 3 191 3q176 0 176 2q0 1 -23 24
t-23 25z" />
    <glyph glyph-name="arrowdown" unicode="&#x2193;" horiz-adv-x="298" 
d="M114 494q5 8 13 8q10 0 14 -10q5 -10 5 -101q0 -75 4.5 -141.5t9.5 -66.5q3 0 31 32q27 33 36 33q20 0 20 -17t-33 -58t-56 -53q-16 -8 -27 -8q-32 0 -58 70q-13 33 -18 40t-5 11q0 6 4.5 10.5t11.5 4.5q3 0 9 -2q12 -4 26 -33l14 -29l-2 62q-4 98 -4 152q0 88 5 96z" />
    <glyph glyph-name="arrowboth" unicode="&#x2194;" horiz-adv-x="501" 
d="M341 309q3 4 8 4q14 0 48 -25q54 -39 54 -62q0 -8 -23 -26q-21 -16 -43 -42q-24 -27 -36 -27q-3 0 -7 2q-7 3 -7 11q0 14 28 45q4 4 7.5 8.5t5.5 6.5l1 3q-58 -1 -127 -2l-125 -2l22 -13q27 -16 27 -30q0 -9 -15 -9q-8 0 -53.5 17.5t-51.5 22.5q-6 4 -6 11q0 19 55 67
q40 35 58 35q4 0 6 -2q6 -4 6 -11q0 -11 -19 -26q-20 -16 -20 -18t125 -2q124 1 124 6q0 4 -20 20q-23 18 -23 33q0 3 1 5z" />
    <glyph glyph-name="arrowupdn" unicode="&#x2195;" horiz-adv-x="254" 
d="M101 494q6 9 23 9q15 0 16 -7q6 -21 36 -63q23 -33 23 -47q0 -6 -5 -11q-4 -3 -9 -3q-14 0 -26 19l-11 17l-1 -57v-112l1 -54l13 20q13 20 23 22q8 2 14 -2.5t6 -13.5q0 -7 -23 -55.5t-29 -53.5q-10 -7 -21 -7q-21 0 -25 25q-2 14 -20 34q-17 20 -17 30q0 16 10 17
q9 2 17 -6q8 -6 9 -5q3 3 3 166q0 66 -1 67q-1 3 -11 -11q-3 -3 -5 -7q-9 -14 -13 -17t-13 -3q-10 0 -12.5 2.5t-2.5 13.5q0 13 22 48q26 40 29 45z" />
    <glyph glyph-name="arrowupdnbse" unicode="&#x21a8;" horiz-adv-x="269" 
d="M108 488q18 19 31 19t25.5 -13.5t29.5 -48.5q17 -34 17 -43q0 -6 -4 -10q-5 -5 -10 -5q-13 0 -33 36q-11 18 -13 18t-2 -81q0 -132 3 -152l3 -18l22 21q21 21 27 21q2 0 8 -3q7 -4 7 -14q0 -15 -16 -47q-27 -55 -49 -55q-13 0 -24 7t-37 34q-38 39 -38 48q0 3 2 7
q4 7 11 7q10 0 24 -11q16 -11 19 -9t3 108q0 108 -3 115q-3 8 -15 -9l-2 -3q-13 -19 -22 -19h-6q-10 1 -13 3.5t-3 12.5q0 26 58 84zM70 92q2 5 23 5q25 0 64 -4q41 -4 51.5 -7t10.5 -13q0 -17 -35 -17q-17 0 -29 1q-83 4 -86 20q-1 8 1 15z" />
    <glyph glyph-name="arrowdblright" unicode="&#x21d2;" horiz-adv-x="494" 
d="M300 604q2 2 6 2q7 0 19 -10t27.5 -29.5t26.5 -34t28.5 -40t21.5 -30.5q15 -21 15 -29t-30 -38q-18 -18 -56 -61q-34 -41 -50 -41h-4q-9 1 -9 9q0 10 20.5 36t20.5 29t-131 5q-99 1 -123 4t-24 14q0 13 11 16q8 3 158 3l149 1l26 26l-13 19q-14 20 -17 26q-2 5 -12 6
t-54 1h-18q-62 0 -143.5 3t-87.5 6q-7 3 -7 12t8 13q10 4 82 4q56 0 132 -4q14 -1 28.5 -2t22.5 -1.5t12 -0.5q11 0 11 3l-2 4q-5 9 -26 36q-21 30 -21 37q0 3 3 6z" />
    <glyph glyph-name="arrowdblboth" unicode="&#x21d4;" horiz-adv-x="541" 
d="M425 471l-22 32h-267l-20 -21q-18 -18 -18 -24q0 -2 1 -4t3.5 -4t4.5 -4t6.5 -5.5t7.5 -6.5l21 -16l146 -4q21 0 47 -0.5t40.5 -1t24.5 -0.5q34 0 38 5q7 8 7 16q0 9 -20 38zM344 602q4 4 10 4q21 0 75 -76q36 -51 48 -63q14 -16 14 -25q0 -8 -35 -69t-48 -74
q-8 -10 -19 -8q-11 1 -11 11q0 12 17.5 41.5t17.5 33.5q0 2 -114 2h-114l13 -20q12 -18 12 -28q0 -7 -9 -9h-1q-10 0 -40 29q-27 27 -71 61q-39 30 -39 42q0 13 49 62q84 87 108 87q8 0 12.5 -6t2.5 -13q-2 -8 -24 -26q-6 -5 -10.5 -9t-6.5 -7l-2 -3q4 -4 158 -4q41 0 41 1
q0 5 -19 26q-19 22 -19 31q0 5 4 9z" />
    <glyph glyph-name="universal" unicode="&#x2200;" horiz-adv-x="527" 
d="M328 440q-3 3 -62 3q-24 0 -34 -1q-34 -1 -34 -8t30 -76.5t34 -69.5q3 0 12.5 21t21.5 50.5t13 32.5q19 45 19 48zM448 728q4 10 16 10q8 0 11 -6l1 -2v-3q0 -20 -20 -87q-20 -61 -81 -191q-21 -43 -58 -137q-24 -61 -31.5 -74t-18.5 -13q-10 0 -17.5 9t-23.5 40
q-21 42 -96 231t-77 207q-1 3 -1 9q0 13 6 13q3 0 6 -4q17 -20 88 -187l25 -62l86 -1h85l10 18q43 88 70 173q15 47 20 57z" />
    <glyph glyph-name="partialdiff" unicode="&#x2202;" horiz-adv-x="397" 
d="M255 381q-22 11 -48 11q-35 0 -63 -18q-54 -32 -54 -107q0 -47 24 -77q22 -27 60 -27q39 0 75 35q13 13 18.5 23t14.5 39q10 29 16 65q2 14 2 15q0 8 -13 20t-32 21zM180 595q7 2 24 2q67 0 106 -29q40 -29 40 -108q0 -22 -5 -59q-7 -58 -8 -68q-7 -69 -37.5 -123.5
t-74.5 -74.5q-26 -11 -53 -11q-46 0 -78 31q-45 42 -45 114q0 18 2 27q10 55 44.5 89.5t89.5 43.5q6 1 19 1q42 0 78 -22q19 -12 22 -7q7 11 7 69q0 16 -1 21q-5 40 -41 56q-28 13 -71 13q-21 0 -32 -4q-9 -3 -15 -3q-14 0 -14 13q0 8 12.5 16.5t30.5 12.5z" />
    <glyph glyph-name="existential" unicode="&#x2203;" horiz-adv-x="468" 
d="M81 719q11 1 136 1q115 0 152 -9q33 -8 44 -15q7 -6 7 -12t-3 -22q-7 -37 -17 -312q-4 -114 -7 -122q-4 -9 -13 -11l-4 -1h-6q-99 0 -240 16q-42 5 -53 12q-10 7 -10 20q0 7 5 12q4 4 13 4.5t10 -3.5q2 -4 36 -8q31 -4 116.5 -9.5t105.5 -5.5h3q2 2 6 75t4 100v37
l-131 -2q-36 -1 -84 -1q-42 0 -53 3t-11 12q0 13 21.5 15.5t126.5 4.5l131 2q3 77 8 121q4 40 4 43q0 10 -32.5 13.5t-142.5 5.5q-108 1 -129.5 4t-21.5 16t29 16z" />
    <glyph glyph-name="emptyset" unicode="&#x2205;" horiz-adv-x="548" 
d="M428 591q-17 11 -19 11q-7 0 -136 -122q-74 -70 -97 -90l-27 -24l15 -14q49 -43 123 -43h10q35 2 58.5 11.5t45.5 32.5q26 27 44.5 74.5t18.5 87.5q0 50 -36 76zM300 659q-27 5 -49 5q-55 0 -93 -19q-16 -8 -33.5 -25t-25.5 -31q-9 -17 -10 -55v-15q0 -51 23 -98
q7 -14 10.5 -18.5t6.5 -2.5q8 6 116.5 106t111.5 103q21 18 18 23q-9 12 -75 27zM209 699q22 2 33 2q74 0 139 -31q28 -13 30 -13q4 0 34 21q31 21 43 21q7 0 10 -9q1 -2 1 -6q0 -10 -33 -34l-24 -18l18 -22q21 -25 29 -44t10 -47v-8q0 -51 -23.5 -107t-58.5 -87
q-53 -48 -130 -48q-81 0 -146 53l-22 17l-10 -7q-11 -8 -22 -20q-12 -12 -20 -12q-5 0 -11 6q-6 4 -6 11q0 12 23 32l22 21l-13 24q-34 65 -34 131q0 43 15 76q17 38 57.5 65t88.5 33z" />
    <glyph glyph-name="gradient" unicode="&#x2207;" horiz-adv-x="520" 
d="M380 680q-25 0 -137.5 5.5t-136.5 5.5q-12 0 -12 -1q0 -5 36.5 -98.5t58.5 -144.5q33 -75 51 -122q19 -49 20 -50l1 -1q5 0 40 100q24 69 45 124q23 61 24 64q10 38 45 98l12 20h-47zM390 523q0 -2 -26 -79t-26 -78q0 -6 -21 -60.5t-28 -66.5q-14 -23 -26 -23q-5 0 -11 3
q-11 5 -19 20t-25 63q-22 59 -54 133q-72 168 -91 241q-1 6 -5.5 18t-4.5 18q0 13 24 16q2 0 12 0.5t17 0.5q61 0 195 -8q119 -7 125 -7q32 -1 39 -8q3 -3 3 -6q0 -7 -20 -46q-54 -103 -58 -131z" />
    <glyph glyph-name="element" unicode="&#x2208;" horiz-adv-x="504" 
d="M64 514q28 57 95.5 93.5t154.5 36.5q24 0 51 -3q49 -7 49 -23v-9h-74q-59 -1 -86 -5.5t-61 -20.5q-35 -16 -65.5 -45t-35.5 -52q-3 -12 9 -14q10 -3 173 -5l163 -2l1 -11q1 -12 -9 -15q-23 -10 -198 -10q-40 0 -78 2q-41 3 -58 3h-3q-1 -1 -1 -2q0 -7 13.5 -26.5
t30.5 -35.5q81 -75 196 -75q43 0 73 12q30 11 39 11q11 0 11 -12q0 -17 -26 -29q-33 -17 -99 -17q-53 0 -89 11q-134 41 -178 133q-12 27 -12 53q0 29 14 57z" />
    <glyph glyph-name="notelement" unicode="&#x2209;" horiz-adv-x="482" 
d="M204 424q0 4 -6 4q-53 -5 -91 -11l-14 -3l5 -17q5 -17 13 -25q6 -7 25.5 -18t25.5 -11t24 39q18 38 18 42zM274 577q0 2 -16 2q-43 -1 -82.5 -13.5t-55.5 -29.5q-7 -8 -17 -30.5t-12 -36.5l-3 -14l19 2q37 4 69 6q38 4 45 6t10 9q43 91 43 99zM311 659q11 24 15 30t9 6h2
q10 -1 10 -18q0 -14 -7 -31l-8 -20l25 -1q60 0 60 -21q0 -4 -3 -7q-4 -6 -28 -6q-6 0 -45 -3l-24 -2l-22 -53q-23 -56 -23 -57q0 -4 70 -4q54 -1 68 -3.5t14 -11.5q0 -14 -14 -18t-60 -4q-52 0 -76 -2l-21 -3l-24 -49l-25 -52q0 -4 36 -9q21 -3 37 -3q22 0 55 4q45 5 72 5h6
q15 -1 18.5 -3t3.5 -12q0 -9 -12.5 -13t-57.5 -10q-42 -6 -92 -6q-43 0 -73 5q-2 0 -4 0.5t-3 0.5q-4 0 -6 -3t-10 -20q-13 -31 -14 -37q-5 -20 -18 -20q-1 0 -3 0.5t-3 0.5q-13 3 -13 17q0 11 9 35q12 31 12 39q0 2 -0.5 3.5t-1.5 3t-2 2.5t-3 2l-4 2t-5.5 3t-5.5 3
q-25 13 -38 27t-22 38q-11 29 -11 63q0 47 21.5 85.5t54.5 54.5q18 10 50.5 18.5t48.5 8.5q11 0 41 4l26 5z" />
    <glyph glyph-name="product" unicode="&#x220f;" horiz-adv-x="474" 
d="M61 599q11 6 32 6q3 0 63 -2q69 -3 137 -3q57 0 70 -1.5t20 -7.5q6 -5 7 -31.5t3 -171.5q1 -146 5 -206.5t16 -143.5q8 -51 8 -66q0 -10 -7 -13q-5 -3 -9 -3q-15 0 -21 19q-13 41 -24 189.5t-11 281.5v38l1 78l-40 -2h-9q-25 0 -105.5 5.5t-95.5 5.5h-17l2 -296v-103
q0 -191 -4 -201q-5 -8 -17 -8q-11 0 -14 7q-7 13 -7 126q0 21 2 213l3 283z" />
    <glyph glyph-name="summation" unicode="&#x2211;" horiz-adv-x="474" 
d="M237 595q123 3 152 3q2 0 4 -3t2.5 -8t-0.5 -10q-4 -10 -12 -13q-11 -4 -137 -8t-128 -6q-4 -4 58 -69q55 -60 97 -113.5t42 -65.5q0 -7 -22 -29q-36 -36 -105 -159q-42 -74 -54 -94q-17 -26 -17 -30q0 -7 79 -12q14 -1 51 -1q129 0 153 7h3q7 0 12.5 -5.5t5.5 -12.5
q0 -3 -1 -4q-4 -11 -31 -15.5t-107 -5.5q-8 0 -24 -0.5t-23 -0.5q-116 0 -152 12q-19 6 -19 25q0 5 1 7q1 6 25 41q32 48 58 96q70 126 102 162q17 19 17 26q0 15 -67.5 91t-125.5 133q-23 22 -23 35q0 6 6 12q8 8 37.5 10.5t142.5 4.5z" />
    <glyph glyph-name="minus" unicode="&#x2212;" horiz-adv-x="437" 
d="M125 366q27 1 107 1q148 0 153 -3t3 -11t-9 -13q-12 -7 -165 -10q-114 -2 -118 -2q-38 0 -42 3q-6 5 -6 17q0 10 5 13q3 3 72 5z" />
    <glyph glyph-name="uni2215" unicode="&#x2215;" horiz-adv-x="431" 
d="M346 599q13 15 22 14q11 -2 11 -10q0 -13 -29 -57q-53 -80 -142 -238q-104 -185 -122 -209q-10 -12 -21 -11q-13 2 -13 9q0 14 68 136q171 300 226 366z" />
    <glyph glyph-name="uni2216" unicode="&#x2216;" horiz-adv-x="416" 
d="M61 668q11 0 37 -36.5t106 -166.5q102 -164 142 -217q19 -25 19 -35q0 -5 -4 -9q-5 -5 -11 -5q-11 0 -24 16q-54 63 -192 294q-81 135 -81 150q0 9 8 9z" />
    <glyph glyph-name="uni2218" unicode="&#x2218;" horiz-adv-x="345" 
d="M86 407q0 -43 20.5 -67t59.5 -24q43 0 69 27.5t27 73.5q0 31 -3 38q-2 7 -16.5 19t-20.5 12q-2 0 -14 6t-27 6q-38 0 -64 -23q-31 -27 -31 -68zM141 530q22 6 32 6q11 0 34.5 -5.5t27.5 -9.5t12 -4q9 0 22 -11t20 -25q8 -16 8 -61t-10 -66q-17 -36 -50.5 -57t-71.5 -21
q-45 0 -78 30q-21 20 -29 39t-10 52v12q0 55 32 87q25 25 61 34z" />
    <glyph glyph-name="radical" unicode="&#x221a;" horiz-adv-x="532" 
d="M461 727q9 7 13 7t5 -3t-1 -6q-12 -14 -64 -228q-43 -176 -86 -284q-54 -134 -77 -134q-10 0 -15.5 10.5t-11.5 39.5q-2 13 -25.5 116.5t-23.5 126.5q0 4 -49 4q-40 0 -57 4t-17 16q0 7 13.5 10t63.5 6q44 2 50 2q24 0 29.5 -5.5t5.5 -22.5q0 -15 4 -45q3 -21 21 -99.5
t20 -80.5q0 -1 1 -1q6 0 28 55q40 99 89 280q35 133 50.5 175.5t33.5 56.5z" />
    <glyph glyph-name="uni221b" unicode="&#x221b;" horiz-adv-x="500" 
d="M159 794q0 6 87 6h88l-2 -16q-4 -29 -41 -52l-24 -15q9 -7 20 -14q40 -26 40 -70q0 -37 -26.5 -59.5t-72.5 -24.5l-30 -2l5 -14q15 -38 58.5 -132t50.5 -94q8 0 12 34q12 70 45 235t43 198q6 19 9 22.5t13 3.5h14l-8 -33q-15 -56 -47 -256q-15 -88 -27 -143
q-13 -59 -13 -65q0 -7 -10 -29t-16 -29q-7 -7 -15 -7q-7 0 -14 7q-13 15 -60 116t-60 142q-6 17 -8 19q-4 4 -24 -16q-52 -50 -82 -50q-11 0 -13 11q-1 10 12 18q15 9 44.5 33.5t36.5 33.5l8 12l-10 11q-10 10 -10 25q0 10 6 13q5 3 8 -2q1 -4 16 -11.5t28 -10.5
q15 -3 30 -3q30 0 50 13t20 33q0 12 -7 23q-12 19 -56 33q-40 12 -40 32q0 12 4 15t28 9q32 8 53 20t21 21q0 3 -2 5q-4 4 -31 4q-40 0 -62 -6q-14 -3 -22 -3q-17 0 -17 9z" />
    <glyph glyph-name="infinity" unicode="&#x221e;" horiz-adv-x="538" 
d="M181 373q-14 5 -32 5q-48 0 -60 -42q-2 -8 -2 -12q0 -15 20 -24q13 -6 42 -6q25 0 45 6t40.5 16.5t20.5 14.5q0 5 -29 21t-45 21zM447 386q-5 9 -15 9q-26 0 -72 -42l-25 -24l23 -10q25 -11 51 -11q29 0 36.5 7t7.5 35q0 27 -6 36zM398 426q15 7 32 7q36 0 52 -33
q8 -16 8 -42q0 -32 -11 -54t-22 -28t-43 -6q-55 0 -100 27l-13 8l-26 -13q-21 -12 -59 -26q-38 -12 -69 -12q-44 0 -71.5 19.5t-27.5 50.5q0 16 7 31q10 21 25 35q31 28 67 28q44 0 112 -41q33 -21 40 -21q5 0 29 20q46 40 70 50z" />
    <glyph glyph-name="angle" unicode="&#x2220;" horiz-adv-x="476" 
d="M303 666q34 44 44 44q5 0 8 -6q1 -2 1 -5q0 -18 -71 -114q-53 -71 -95 -138q-90 -145 -90 -159q0 -2 41 -2h112q91 0 122 -5t40.5 -9.5t9.5 -14.5q0 -16 -20 -16q-3 0 -13 2q-23 5 -124 5q-37 0 -115 -2q-64 -2 -66 -2q-23 0 -29 6q-8 8 -8 15q0 8 21.5 51.5t46.5 85.5
q67 113 185 264z" />
    <glyph glyph-name="logicaland" unicode="&#x2227;" horiz-adv-x="485" 
d="M179 600q18 34 32 34q12 0 25 -12q12 -11 43.5 -57.5t57.5 -92.5q22 -37 60 -113t38 -81t-8 -13q-5 -5 -10 -5q-8 0 -19 17.5t-39 71.5q-79 154 -128 220q-14 19 -19 14q-4 -4 -28 -75q-34 -102 -71 -171q-20 -39 -27.5 -48.5t-17.5 -9.5q-19 0 -19 17t13 57
q30 94 78 177q28 48 39 70z" />
    <glyph glyph-name="logicalor" unicode="&#x2228;" horiz-adv-x="418" 
d="M52 616q4 4 13 2q10 -1 21.5 -23.5t59.5 -133.5q80 -184 89 -184q7 0 41.5 100.5t50.5 161.5q15 56 25 56l2 -1h2q11 -4 11 -22q0 -17 -7 -48q-9 -40 -33 -115t-41 -114t-29 -54.5t-25 -15.5q-8 0 -12 2q-22 8 -138 290q-32 76 -32 92q0 3 2 7z" />
    <glyph glyph-name="intersection" unicode="&#x2229;" horiz-adv-x="421" 
d="M152 460q26 4 30 4t36 -8q63 -16 98.5 -51t49.5 -95q7 -29 7 -102q0 -61 -6 -74q-7 -13 -20 -13q-5 0 -8 3q-4 4 -4 44v19v19q0 99 -26.5 146.5t-92.5 65.5q-20 4 -39 4q-26 0 -41 -5q-53 -18 -53 -168q0 -18 2 -62q3 -47 3 -61t-5 -21q-8 -8 -13 -8q-14 0 -20 67
q-3 27 -3 68q0 7 0.5 21.5t0.5 20.5q4 96 27 137.5t77 48.5z" />
    <glyph glyph-name="union" unicode="&#x222a;" horiz-adv-x="426" 
d="M55 647q5 6 9 6q12 0 17 -20t5 -74q2 -159 51 -235q13 -19 35 -31.5t43 -12.5q11 0 18 3q12 5 29 27q43 58 67 227q8 55 11 67t11 17q5 4 11 4q14 0 14 -22q0 -20 -11.5 -89t-20.5 -106q-19 -77 -52.5 -122.5t-72.5 -45.5q-27 0 -56 13t-46 32q-48 54 -64 180
q-5 43 -5 98q0 75 7 84z" />
    <glyph glyph-name="integral" unicode="&#x222b;" horiz-adv-x="359" 
d="M252 641q7 3 18 3q16 0 30 -7q7 -3 5 -14q-1 -8 -3.5 -9.5t-16.5 -1.5q-28 -1 -40 -17t-12 -55q0 -28 10 -95q17 -105 17 -178q0 -44 -6 -91q-8 -64 -32 -118.5t-53 -77.5q-28 -22 -56 -22q-36 0 -53 35q-8 18 -8 25q0 10 9 19q10 10 15 10q6 0 6 -15t8.5 -25t19.5 -10
q37 0 67.5 57t39.5 140q4 48 4 72q0 65 -17 179q-9 57 -9 93q0 44 13.5 68t43.5 35z" />
    <glyph glyph-name="uni222e" unicode="&#x222e;" horiz-adv-x="454" 
d="M258 477q0 -2 10 -67.5t10 -66.5t2 -1q14 0 35 19q20 17 20 41q0 16 -10 32q-7 12 -22 25t-21 13q-2 0 -8 6q-5 6 -10.5 5.5t-5.5 -6.5zM226 431q-6 36 -9 45t-8 10h-1q-8 0 -23.5 -13.5t-21.5 -25.5t-6 -32q0 -28 19 -49.5t49 -26.5l14 -3l-2 20q-1 4 -4.5 31t-6.5 44z
M273 737q9 4 24 4q47 0 87 -40q16 -16 16 -27q0 -8 -7 -8q-9 0 -24 12q-37 30 -67 30q-32 0 -48 -34q-9 -18 -9 -65q0 -91 10 -91q2 0 32 -13q40 -19 62.5 -46.5t22.5 -58.5q0 -5 -2 -17q-5 -25 -26 -45.5t-48 -28.5l-15 -4v-53q0 -89 -22 -137q-11 -24 -30 -33
q-15 -7 -34 -7q-37 0 -73.5 26.5t-58.5 70.5q-14 28 -14 40q0 1 0.5 5t0.5 6q3 37 35 48q8 2 9 2q5 0 5 -4t-8 -17q-10 -17 -10 -28q0 -12 10 -34q16 -32 46.5 -54.5t57.5 -22.5q26 0 35.5 24.5t11.5 97.5l2 62l-17 3q-69 12 -94 64q-11 22 -11 52q0 25 8 43q8 17 25 33
t35 22l20 7l-1 63v17q0 65 13.5 93.5t50.5 42.5z" />
    <glyph glyph-name="uni222f" unicode="&#x222f;" horiz-adv-x="692" 
d="M514 597q-27 18 -32 18q-3 0 -3 -21q0 -19 1 -34q2 -43 11 -131t11 -90h1q6 0 30 17.5t39 33.5q38 39 38 76q0 32 -26 67.5t-70 63.5zM212 500q-6 115 -8 117h-1q-6 0 -28.5 -24.5t-33.5 -44.5q-19 -33 -36 -73t-17 -51q0 -30 31 -58q12 -10 39.5 -24.5t42.5 -18.5l10 -3
l3 33v24q0 31 -2 123zM399 647q-33 7 -54 8q-3 0 -8 0.5t-8 0.5q-29 0 -55 -6t-29 -14v-9q0 -13 2 -75q4 -86 4 -160v-82l18 -3q21 -3 64 -3q75 0 102 7l28 7v16q0 10 -8 82q-15 124 -15 196q0 4 0.5 8t0.5 6q0 13 -42 21zM229 779l10 21h55l-13 -10q-34 -29 -34 -102v-14
l30 6q26 4 46 4q53 0 92 -11l28 -7l6 40q5 39 15 66l9 26q7 0 21.5 1t21.5 1l-9 -18q-19 -40 -24 -101l-2 -30l26 -15q52 -28 88 -66q47 -52 47 -106q0 -29 -13 -55q-9 -18 -42 -49.5t-57 -45.5l-28 -17v-35q0 -57 -16 -104.5t-40 -65.5q-10 -9 -27 -9q-16 0 -31 10
q-24 16 -48 52.5t-24 56.5q0 14 5 14q7 0 29 -27q54 -67 69 -67q5 0 8 3q18 15 29 67q10 45 10 76q0 10 -2 12h-3q-13 0 -28 -4q-23 -6 -88 -6q-19 0 -81 2l-18 1l-7 -39q-30 -171 -90 -185q-3 -1 -9 -1q-25 0 -47.5 31t-36.5 86q-6 23 -6 39q0 13 4 24q2 8 8.5 14t11.5 6
q1 0 7 -31.5t19 -70.5t30 -54q4 -4 9 -4q12 0 28 34q13 26 26.5 80t13.5 76q0 7 -1 8t-19 8q-45 13 -83 45q-41 33 -41 89q0 7 2 21q4 24 25.5 68.5t42.5 72.5q24 30 41 44q7 5 17 13.5t11 8.5q6 4 6 23q0 54 21 100zM350 795q-12 5 12 5q20 0 20 -7q0 -16 -13 -16
q-7 0 -8 7q-2 7 -11 11zM602 794q0 6 11 6q21 0 6 -12q-5 -4 -11 -2t-6 8z" />
    <glyph glyph-name="approxequal" unicode="&#x2248;" horiz-adv-x="475" 
d="M109 466q21 10 46 10q23 0 38 -6t52 -28q63 -39 106 -39q14 0 21 4q12 7 18 16q8 9 15 9q11 0 11 -15q0 -9 -6 -19q-18 -32 -65 -32q-50 0 -110 37q-34 21 -47 27t-27 6h-11q-27 -1 -53 -19q-29 -19 -33 -19q-5 0 -9.5 5t-4.5 11q0 8 21 26.5t38 25.5zM134 333
q22 11 37 11q22 0 59 -23q88 -54 132 -54q20 0 31 10q17 15 27 5q5 -5 5 -12q0 -15 -19.5 -28t-43.5 -13q-60 0 -149 57q-30 20 -41 20q-10 0 -30 -12.5t-36 -27.5q-14 -14 -27 -14t-13 17q0 9 23 31q25 23 45 33z" />
    <glyph glyph-name="uni225d" unicode="&#x225d;" horiz-adv-x="499" 
d="M179 594q0 11 -10 17.5t-23 6.5q-29 0 -29 -19q0 -7 11 -12.5t26 -5.5q2 0 4 0.5t4 0.5q17 2 17 12zM177 763q2 6 11.5 5.5t13.5 -6.5q2 -5 8 -76q2 -29 6 -96q0 -3 0.5 -7.5t0.5 -6.5q0 -14 -4.5 -18.5t-16.5 -4.5t-32 -4q-14 -2 -18 -2q-10 0 -23 4q-44 12 -44 48
q0 15 9 28q18 26 62 26h25v52q0 52 2 58zM287 646q-13 8 -22 -1q-11 -11 8 -11q17 0 17 7q0 3 -3 5zM374 758q12 7 30 7q19 0 32 -13q12 -12 12 -22q0 -7 -5 -11t-17 5q-10 9 -21 9q-21 0 -30 -40q-3 -12 -3 -19q0 -13 18 -13q15 0 25 -6t10 -15q0 -14 -38 -14h-20l3 -25
q5 -33 10 -53q6 -20 6 -28q0 -9 -10 -9h-5q-9 1 -12 4.5t-9 18.5q-9 22 -13 50q-7 37 -10 37q-1 0 -7 -6q-18 -16 -46 -16q-5 0 -7.5 -1t-1.5 -3q2 -7 16.5 -13.5t27.5 -6.5q17 0 17 -8q0 -22 -28 -22q-37 0 -62 31q-16 20 -16 46q0 24 13.5 41.5t35.5 19.5q1 0 4 0.5t5 0.5
q11 0 29 -11q19 -12 22 -9q5 5 8 26q12 53 37 68zM134 490q111 6 196 6q66 0 80 -5q7 -2 8.5 -9.5t-4.5 -12.5q-6 -4 -88 -6q-88 -2 -147 -7q-38 -3 -58 -3q-33 0 -39 11q-4 8 0 15.5t11 7.5q1 0 7 0.5t16 1.5t18 1zM52 373q4 8 18 5q108 -16 303 -16q46 0 51 2q14 5 20 -1
q4 -4 4 -11q0 -14 -15 -20q-13 -5 -87 -5q-76 0 -164 4.5t-107 10.5q-25 8 -25 23q0 5 2 8z" />
    <glyph glyph-name="notequal" unicode="&#x2260;" horiz-adv-x="493" 
d="M326 528q15 17 27 17q7 0 8 -6q1 -2 1 -6q0 -13 -27 -48l-23 -31l60 -4q64 -6 66 -7q7 -2 5 -10t-10 -11q-10 -4 -77 -4h-67l-17 -26q-37 -59 -37 -69q0 -2 1 -2q144 -4 167 -12q17 -5 17 -16q0 -5 -4 -9q-3 -4 -34 -4q-39 0 -72 1l-101 3l-22 -40q-14 -26 -38 -71
q-14 -29 -20.5 -37t-14.5 -8q-18 0 -18 13q0 17 32 75q7 13 16.5 30t13.5 25t4 9q-6 1 -14 1q-4 0 -15 -0.5t-17 -0.5h-21q-27 0 -36 4t-9 17q0 9 11.5 12t59.5 5l66 4q3 4 29.5 48.5t25.5 45.5q-29 0 -63 -2q-36 -2 -47 -2q-19 0 -23 2q-8 3 -8.5 10t6.5 14q6 5 45.5 10
t80.5 5h35l21 29q21 28 37 46z" />
    <glyph glyph-name="equivalence" unicode="&#x2261;" horiz-adv-x="476" 
d="M229 479q30 3 92 3q73 0 81 -4q7 -3 8 -10t-5 -12q-8 -6 -78 -9q-61 -2 -125 -8q-41 -5 -67 -5q-20 0 -25 8q-6 9 -1 16q7 11 120 21zM172 352q42 2 95 2q106 0 132 -4q15 -2 23 -6q6 -3 6 -12.5t-5 -13.5q-6 -6 -230 -6q-95 0 -100 3q-9 5 -2 23q4 10 81 14zM53 237
q5 5 181 6h107q71 0 77 -6q14 -14 -7 -25q-8 -5 -131 -8q-94 -2 -115 -2q-84 0 -102 8q-13 6 -13 18q0 6 3 9z" />
    <glyph glyph-name="lessequal" unicode="&#x2264;" horiz-adv-x="463" 
d="M302 490q56 28 72 28q8 0 10 -6q1 -1 1 -4q0 -8 -59 -41q-79 -44 -146 -88t-67 -52q0 -3 67.5 -26t136 -47t70.5 -26q5 -8 0.5 -13.5t-14.5 -5.5q-22 0 -156 41t-154 54q-13 9 -13 19q0 5 1 8q3 12 87.5 65.5t163.5 93.5zM115 136q24 3 77 3q111 0 165 -7
q32 -4 43.5 -8.5t11.5 -15.5q0 -12 -31 -12q-29 0 -51 2q-36 3 -96 3q-42 0 -62 -1q-33 -1 -69 -1q-28 0 -32 4q-9 9 1 21q6 8 43 12z" />
    <glyph glyph-name="greaterequal" unicode="&#x2265;" horiz-adv-x="455" 
d="M55 522q3 4 12 4q30 0 146 -55q76 -36 145 -81q26 -17 31 -22t5 -14q0 -20 -45 -35q-83 -28 -170 -68q-55 -26 -66 -26q-16 0 -16 18q0 13 11 19q98 48 195 81q31 11 31 15q0 9 -103.5 61.5t-167.5 75.5q-13 4 -13 15q0 5 5 12zM118 156q7 0 28.5 0.5t35.5 0.5
q186 0 211 -5q11 -3 12 -13v-5q0 -11 -27 -13.5t-150 -3.5q-45 -1 -103 -1q-62 0 -68 6q-14 14 0 27q6 6 61 7z" />
    <glyph glyph-name="uni226a" unicode="&#x226a;" horiz-adv-x="557" 
d="M239 636q23 16 35 16q11 0 11 -13q0 -9 -43 -45q-47 -40 -94.5 -91.5t-47.5 -63.5q0 -4 9 -9q19 -11 80 -54.5t84 -62.5q41 -33 42 -33q7 -4 4 -14q-2 -10 -16 -10q-13 0 -69 40q-11 8 -116 80q-47 31 -57.5 40.5t-10.5 18.5q0 14 73 98q48 54 116 103zM372 606
q27 16 33 16t11 -5t5 -11t-46 -41q-5 -3 -8 -5.5t-8 -6.5t-10 -7q-21 -15 -62 -51q-32 -29 -32 -37q0 -2 3 -2q4 0 61 -36.5t87 -58.5q38 -27 69 -54t31 -33q0 -5 -7 -10t-14 -5q-5 0 -59 41q-112 83 -196 127q-22 11 -27.5 15.5t-5.5 13.5q0 6 8.5 15t42.5 39q74 66 124 96
z" />
    <glyph glyph-name="uni226b" unicode="&#x226b;" horiz-adv-x="546" 
d="M52 653q0 5 5 10.5t9 5.5q11 0 79.5 -64t111.5 -113q37 -43 48 -52q13 -12 13 -21q0 -7 -2 -11t-88 -70.5t-120 -89.5q-15 -11 -28 -11q-12 0 -12 12q0 9 26.5 31.5t107.5 83.5q66 49 66 55t-55 66.5t-98 101.5q-63 59 -63 66zM240 634q-5 8 -1.5 13.5t12.5 5.5
q11 0 76 -44t94 -72q27 -26 51 -59t24 -44q0 -10 -30 -37q-37 -33 -111 -110q-54 -55 -69 -68t-23 -13h-3q-14 2 -14 8q0 8 46.5 60.5t102.5 105.5q59 57 59 59t-17 27q-34 48 -107 98q-79 55 -90 70z" />
    <glyph glyph-name="propersubset" unicode="&#x2282;" horiz-adv-x="471" 
d="M215 636q23 5 76 5h28q82 -1 92 -8q14 -9 6 -22q-3 -6 -95 -8q-79 -1 -103 -6.5t-55 -27.5q-24 -17 -36 -31t-26 -43q-14 -28 -14 -54q0 -35 14.5 -55t52.5 -41q37 -19 90 -19q30 0 48 2q45 4 81 4q31 0 35 -4q12 -12 -2 -23q-5 -5 -39 -7q-5 -1 -34.5 -3.5t-43.5 -4.5
q-27 -3 -49 -3q-71 0 -123 34q-38 25 -53.5 52.5t-15.5 71.5q0 21 3 31t16 37q19 38 44 63q47 46 103 60z" />
    <glyph glyph-name="propersuperset" unicode="&#x2283;" horiz-adv-x="502" 
d="M90 622q20 7 52 7q100 0 207 -55q27 -14 53.5 -39t39.5 -49q12 -23 12 -52q0 -33 -11 -54q-22 -46 -80 -77t-141 -42q-13 -2 -40 -2q-94 0 -124 27q-8 8 -8 11q0 6 14 6q7 0 11 -1q23 -2 77 -4q15 -1 37 -1q25 0 55 5q79 15 126 50t47 79q0 31 -23 61q-46 62 -188 97
q-37 9 -68 9h-21l-47 -1v9q0 10 20 16z" />
    <glyph glyph-name="notsubset" unicode="&#x2284;" horiz-adv-x="463" 
d="M289 576q3 7 -7 7q-17 -1 -56 -7t-52 -10q-49 -14 -68 -47q-16 -26 -16 -75q0 -32 8 -47q19 -35 60 -56q19 -10 29 -10q11 0 12 9q1 2 45.5 118.5t44.5 117.5zM335 679q5 8 14 8q15 0 15 -18q0 -6 -8 -28l-8 -19h15q15 0 25 -5.5t10 -14.5q0 -12 -37 -17l-29 -4l-8 -19
q-23 -56 -55.5 -143.5t-32.5 -91.5q0 -3 20 -3q24 0 62 5q55 9 70 9q12 0 19 -7q5 -5 5 -10q0 -24 -132 -31q-57 -3 -60 -7q-1 -1 -21 -57t-23 -58q-7 -5 -16 -3q-11 1 -11 13q0 11 15 60q13 46 13 51q0 4 -22 12t-44 25q-61 48 -61 120q0 22 4 42q11 62 57 91.5t145 38.5
l53 5l10 24q6 15 16 32z" />
    <glyph glyph-name="reflexsubset" unicode="&#x2286;" horiz-adv-x="498" 
d="M113 605q81 78 252 78q35 0 47 -3t12 -13q0 -11 -9 -14.5t-36 -3.5q-121 -2 -189 -35q-41 -19 -67.5 -56.5t-26.5 -74.5q0 -20 7 -34q21 -43 117 -67q40 -10 103 -10q65 0 67 5q4 6 12 4q10 -1 11 -14q1 -9 -2 -12t-16 -9q-19 -9 -67 -10h-19q-80 0 -143.5 22t-88.5 59
q-19 29 -19 65v15q4 57 55 108zM90 312q25 3 93 3q159 0 215 -9q33 -5 41.5 -9t8.5 -15q0 -15 -26 -15q-4 0 -50 4q-43 5 -125 5h-57q-15 0 -41 -0.5t-36 -0.5q-49 0 -55 2q-9 3 -9 15q0 7 5 11q5 5 36 9z" />
    <glyph glyph-name="uni2288" unicode="&#x2288;" horiz-adv-x="473" 
d="M260 566q0 1 -12 1q-13 0 -43.5 -10.5t-52.5 -23.5q-36 -20 -49 -40.5t-13 -56.5q0 -41 27 -64q9 -7 25.5 -16t21.5 -9h1q9 21 19 44q15 36 47 108q29 65 29 67zM312 671q14 20 22 20h3q11 -1 11 -12t-13 -36.5t-13 -28.5q0 -4 16 -4q25 0 42.5 -8t17.5 -19q0 -3 -1 -5
q-3 -9 -18 -9q-3 0 -21 2q-20 2 -32 2h-8l-15 -2l-32 -73q-63 -141 -63 -156q0 -3 1 -4q4 -5 107 -5h101l1 -10q1 -7 -2 -10t-13 -7t-49.5 -8.5t-64.5 -4.5q-3 0 -7.5 0.5t-5.5 0.5q-14 2 -49 4l-40 2l-10 -28q-10 -30 -10 -31q0 -2 29 -2q72 0 157 7q30 3 51 3q3 0 6 -0.5
t5 -0.5h2q6 -2 6 -10q0 -11 -9 -17q-10 -7 -89.5 -14.5t-138.5 -7.5h-34l-15 -47q-10 -32 -15 -41t-13 -9q-2 0 -10 2q-9 3 -9 11q0 9 9 41q10 36 10 38q0 4 -16 4q-27 0 -27 19q0 17 36 21l23 2l11 31q2 6 5.5 15t5 13.5t1.5 5.5q0 5 -26 18q-72 36 -72 115q0 70 48 107
q62 46 149 61l38 6l7 19q5 18 20 40z" />
    <glyph glyph-name="circleplus" unicode="&#x2295;" horiz-adv-x="629" 
d="M344 702q-30 8 -57 8q-69 0 -124 -45q-68 -54 -68 -151q0 -31 11 -66q27 -79 94 -128.5t143 -49.5q36 0 69 12q59 21 92 69t33 110q0 30 -7 58q-17 68 -66 116t-120 67zM223 744q22 5 64 5q52 0 76 -6q57 -14 109 -57.5t80 -99.5q29 -59 29 -123q-1 -77 -39 -134.5
t-108 -86.5l-34 -14h-58q-41 0 -54 2t-37 11q-125 47 -177 163q-25 53 -25 112q0 82 49.5 146t124.5 82zM292 639q3 6 13 6q11 0 13.5 -10t3.5 -65q2 -57 5 -60q1 -1 13 -1q10 0 54 2q19 1 46 1q22 0 24 -2q7 -4 7 -15q0 -9 -6 -12q-7 -4 -72 -9l-66 -5l4 -45q3 -46 3 -65
q0 -24 -7 -30q-10 -8 -20 0q-8 6 -11 62q-5 65 -7 77l-54 -3q-16 -1 -37 -1q-18 0 -23.5 3t-5.5 11q0 11 12.5 15.5t50.5 7.5q49 4 54 6q3 3 3 64q0 59 3 68z" />
  </font>
</defs>
</svg>
