<?xml version="1.0" standalone="no"?>
<!DOCTYPE svg PUBLIC "-//W3C//DTD SVG 1.1//EN" "http://www.w3.org/Graphics/SVG/1.1/DTD/svg11.dtd" >
<svg xmlns="http://www.w3.org/2000/svg" xmlns:xlink="http://www.w3.org/1999/xlink" version="1.1">
<metadata>
Created by FontForge 20201107 at Mon Apr 14 06:43:59 2025
 By 
</metadata>
<defs>
<font id="Rbk6-Regular" horiz-adv-x="250" >
  <font-face 
    font-family="Rbk6"
    font-weight="400"
    font-stretch="normal"
    units-per-em="1000"
    panose-1="2 0 5 3 0 0 0 0 0 0"
    ascent="800"
    descent="-200"
    x-height="482"
    cap-height="776"
    bbox="33 -342 2441 1051"
    underline-thickness="50"
    underline-position="-100"
    unicode-range="U+000D-2295"
  />
<missing-glyph horiz-adv-x="364" 
d="M33 0v666h265v-666h-265zM66 33h199v600h-199v-600z" />
    <glyph glyph-name="s_t.liga" unicode="st" horiz-adv-x="851" 
d="M630 665q5 9 20 9q24 0 24 -32q0 -5 -2 -29l-4 -44l66 2l66 1l2 -15q2 -15 -12 -23.5t-45 -12.5q-45 -5 -56 -7l-25 -4v-120q0 -181 32 -272q13 -41 13 -53q0 -19 -18 -25q-8 -2 -11 -2q-13 0 -22.5 17t-21.5 60q-19 65 -25 118t-7 150l-1 117q-19 -2 -56 -4t-56 -4
l-7 16q-4 10 -4 13q0 22 73 32q34 4 44 7.5t12 11.5q1 4 8 48q5 35 13 45zM220 592q28 5 56 5q76 0 126 -22q15 -7 19.5 -11t4.5 -11v-5q-1 -8 -2 -10.5t-4.5 -4t-12.5 -1.5h-12q-6 0 -37.5 2t-49.5 3q-36 2 -43 2q-25 0 -49 -7q-61 -18 -61 -51q1 -25 123 -135
q66 -60 99 -105.5t44 -91.5q3 -14 3 -26q0 -34 -21.5 -59t-60.5 -37q-33 -10 -73 -10q-82 0 -152 36t-70 81q0 11 4 19q10 22 32 22q3 0 11 -2q10 -4 7 -20q-1 -3 -1 -9q0 -9 10 -19q23 -21 69.5 -34.5t91.5 -13.5q41 0 68 12q17 7 20.5 12.5t3.5 23.5q0 37 -32.5 82
t-107.5 112q-115 104 -126 144q-3 11 -3 20q0 37 34.5 67.5t91.5 41.5z" />
    <glyph glyph-name="t_t.liga" unicode="tt" horiz-adv-x="797" 
d="M178 668q6 16 24 16q10 0 16 -7q6 -9 10 -73l4 -64l68 2q44 2 47 2q23 0 31 -8q10 -10 10 -18q0 -23 -81 -29q-56 -4 -65 -9q-8 -4 -8 -26q0 -16 1 -27q13 -258 21 -346q4 -46 4 -53q0 -22 -6 -29t-20 -7q-13 0 -20.5 9t-13 42.5t-9 85.5t-7.5 151q-4 130 -9 175l-2 18
l-47 3q-47 4 -62.5 12t-15.5 27v20l55 2q30 1 62 1q7 2 7 42v15q0 55 6 73zM539 658q6 16 22 13q17 -2 24 -19.5t7 -60.5v-22q0 -36 5.5 -45t29.5 -9q20 0 34 1q15 1 38 1q27 0 37.5 -4t10.5 -15q0 -19 -19.5 -26.5t-75.5 -12.5q-52 -4 -56 -10q-2 -4 -2 -51q0 -140 10 -268
q3 -42 3 -61q0 -23 -5 -35q-10 -19 -28 -19q-11 0 -17 8q-14 17 -21 286l-4 140l-37 -2q-3 0 -9 -0.5t-8 -0.5q-38 0 -38 25q0 15 7.5 21.5t25.5 8.5q5 1 21 3t21 3l18 3v66q0 66 6 82z" />
    <glyph glyph-name="s_h.liga" unicode="sh" horiz-adv-x="1079" 
d="M612 761q7 10 18 10q15 0 19 -14q7 -23 10 -254v-14v-2l3 -265l19 51q34 88 91 144.5t113 56.5q69 0 102 -134q8 -34 23 -135t19 -156q1 -11 1 -29q0 -23 -5.5 -31.5t-20.5 -8.5q-17 0 -25 19.5t-12 71.5q-15 162 -38 262q-21 79 -49 82h-2q-18 0 -49 -24t-51 -54
q-46 -69 -83 -218q-18 -73 -29 -94.5t-30 -21.5h-3q-21 0 -25 43t-4 281v64q0 361 8 370zM190 570q33 8 74 8q73 0 103 -25q16 -15 10 -25q-4 -7 -19.5 -8.5t-71.5 -1.5t-75.5 -2t-40.5 -11q-26 -11 -44.5 -28.5t-18.5 -32.5q0 -18 43.5 -55.5t107.5 -76.5q142 -86 180 -148
q12 -20 12 -43t-12 -38q-25 -31 -110 -57q-48 -14 -114 -14q-55 0 -85 11q-28 11 -48.5 34t-20.5 44q0 17 9 29.5t21 12.5q9 0 16 -10.5t7 -23.5t19 -24q19 -12 82 -12q66 0 122 16t56 35q0 16 -49 57t-111 78q-72 42 -102.5 66.5t-55.5 58.5q-26 35 -26 63q0 31 30 65
q37 42 112 58z" />
    <glyph glyph-name="r_e_s.liga" unicode="res" horiz-adv-x="1414" 
d="M1192 579q24 2 39 2q77 0 117 -16q19 -8 19 -26q0 -26 -25 -26q-8 0 -22 3q-28 7 -72 7q-61 0 -100 -13q-36 -11 -45 -21.5t-9 -41.5q0 -24 9.5 -36.5t40.5 -28.5q23 -11 72 -47.5t82 -67.5q67 -62 67 -133q0 -23 -7 -40q-14 -37 -56 -57.5t-98 -20.5q-77 0 -150 37
q-30 15 -59 41.5t-29 39.5q0 14 7.5 23t17.5 9q15 0 27 -17q21 -30 73.5 -50t110.5 -20q106 0 106 54q0 24 -22 58q-13 21 -68 66.5t-97 69.5q-50 29 -68.5 53.5t-18.5 63.5q0 52 18.5 78t66.5 41q37 12 73 16zM745 496q-28 13 -52 13q-26 0 -56 -14q-38 -17 -68.5 -57.5
t-34.5 -79.5q0 -2 -0.5 -5t-0.5 -4q0 -7 3.5 -10t13.5 -5q35 -10 114 -10q37 0 48 4q21 7 42.5 32t28.5 53q5 15 5 25t-7 24q-9 19 -36 34zM634 558q27 10 57 10q53 0 99 -31q55 -37 55 -101q0 -61 -51 -118q-27 -31 -52 -40.5t-76 -9.5q-45 0 -95 5l-37 4l4 -19
q9 -47 46.5 -97t76.5 -68q30 -14 69 -14q30 0 38 9q7 8 17 8q9 0 16.5 -7t7.5 -19q0 -11 -18 -29q-13 -12 -22.5 -14.5t-45.5 -2.5q-34 0 -49 3t-40 15q-73 35 -117 112.5t-44 163.5q0 67 28 122q19 37 57 71t76 47zM50 544q4 6 15 6q15 0 23 -9q8 -10 13 -79q5 -72 10 -77
h1q7 0 23 32q20 36 55 72t58 43q26 7 79 7q47 0 58 -6q11 -5 11 -15q0 -24 -78 -32q-43 -5 -64 -16.5t-45 -43.5q-39 -52 -53.5 -109t-14.5 -157v-24v-42q0 -58 -5 -71.5t-25 -13.5q-17 0 -23 20t-14 111q-28 298 -28 369q0 27 4 35z" />
    <glyph glyph-name="c_b.liga" unicode="cb" horiz-adv-x="1003" 
d="M827 477q-23 10 -38 10q-13 0 -38 -10q-23 -11 -45.5 -37t-32.5 -55q-10 -25 -22 -91.5t-12 -91.5q0 -20 18 -38q50 -50 103 -50q56 0 94 56q43 65 43 165q0 48 -14 81q-13 27 -24 39t-32 22zM556 756q3 10 17 10q13 0 20 -9q7 -10 14 -178q2 -41 4 -83.5t3 -65.5l1 -22
q0 -1 2.5 2.5t8.5 13.5t10 16q34 57 86 86q31 16 66 16q43 0 82.5 -24t60.5 -65q10 -18 18 -55.5t8 -63.5q0 -70 -28 -147q-19 -50 -59.5 -87t-84.5 -44q-6 -1 -18 -1q-55 0 -100 31q-24 17 -34 17h-1q-5 -3 -5 -29t-6 -38q-6 -11 -23 -11q-16 0 -22 10q-8 15 -13 219
q-5 206 -11 323q-4 86 -4 102q0 48 8 77zM217 543q33 9 70 9q50 0 88 -14t38 -34q0 -15 -22 -15q-12 0 -45 5q-36 4 -50 4q-88 0 -142 -58q-42 -45 -42 -125q0 -3 0.5 -11t0.5 -12q8 -185 170 -185q3 0 9.5 0.5t10.5 0.5q77 5 109 40q13 16 25 10q14 -8 14 -23q0 -12 -7 -23
q-17 -29 -63.5 -46t-101.5 -17q-49 0 -89 15q-27 10 -57.5 37.5t-45.5 55.5q-14 26 -26.5 72t-12.5 74q0 117 72 184q27 25 46.5 36.5t50.5 19.5z" />
    <glyph glyph-name="f_l.liga" unicode="fl" horiz-adv-x="663" 
d="M296 804q18 7 66 7q74 0 96 -12q36 -19 36 -41q0 -24 -17 -24q-9 0 -28 8q-30 13 -77 13q-50 0 -75 -14q-32 -17 -50 -52.5t-28 -104.5l-3 -23h90q62 0 77.5 -1.5t21.5 -9.5q7 -10 7 -15q0 -7 -7 -15q-6 -8 -23 -11t-74 -5q-21 -1 -43.5 -2t-34.5 -2h-12q-2 -2 -2 -53
q0 -111 27 -327q9 -72 9 -100q0 -37 -21 -40q-2 0 -4.5 -0.5t-3.5 -0.5q-16 0 -23 27.5t-19 137.5q-18 165 -21 249l-4 98l-43 -2q-4 0 -10.5 -0.5t-9.5 -0.5q-23 0 -33 9q-11 11 -11 18q0 23 65 32q45 6 45 11l6 48q20 157 131 198zM575 774q5 15 20 15t19.5 -10t4.5 -52
q0 -37 -3 -118q-5 -130 -5 -313v-46q1 -51 1 -121q0 -47 -2.5 -67.5t-7.5 -25.5t-17 -5h-2q-16 0 -20 12q-7 23 -7 176v124q1 382 19 431z" />
    <glyph glyph-name="e_e.liga" unicode="ee" horiz-adv-x="1031" 
d="M347 488q-18 13 -61 14q-5 0 -12.5 0.5t-10.5 0.5q-22 0 -50 -16q-55 -32 -82 -90q-14 -33 -14 -39q0 -10 12.5 -14t48.5 -9q39 -6 72 -6q69 0 126 27q14 6 18 10t4 13q0 2 -0.5 6.5t-0.5 7.5q-1 23 -17 52.5t-33 42.5zM246 562q24 4 36 4q64 0 111.5 -43t60.5 -113
q4 -26 4 -34q0 -33 -21 -52t-75 -37q-39 -14 -117 -14q-79 0 -127 14q-3 1 -8 1q-4 0 -4 -6q0 -1 2 -17q4 -26 23 -60.5t37 -49.5q70 -57 168 -57h12l40 1l1 -19q0 -2 0.5 -4.5t0.5 -3.5q0 -7 -3.5 -10.5t-15.5 -8.5q-21 -9 -52 -9q-45 0 -97 18t-89 48q-23 18 -44 50
t-31 64q-10 33 -10 70q0 92 57.5 171.5t140.5 96.5zM858 503q-15 5 -26 5q-12 0 -34 -5q-23 -5 -52.5 -23t-45.5 -37q-13 -16 -25 -40.5t-12 -35.5q0 -4 1 -5q3 -3 54 -3h20q170 8 170 86q0 44 -50 58zM779 560q24 6 49 6q3 0 7.5 -0.5t6.5 -0.5q58 -4 92.5 -39t34.5 -81
q0 -59 -54 -98q-30 -21 -82.5 -34t-108.5 -13q-4 0 -11 0.5t-11 0.5l-50 2v-34q2 -120 154 -161q26 -8 102 -8l73 -1l1 -15q2 -15 -10.5 -25t-40.5 -15q-26 -4 -41 -4q-62 0 -131 24t-105 60q-64 64 -64 166q0 73 34 139t95 103q29 18 60 28z" />
    <glyph glyph-name="a_n_d.liga" unicode="and" horiz-adv-x="1759" 
d="M1488 407q-18 14 -29.5 17t-39.5 5h-16q-26 0 -46 -14q-62 -47 -62 -138q0 -92 64 -159q32 -32 80 -50t95 -18q60 0 89 28q18 17 18 32q0 11 -1 19q-6 71 -52.5 156t-99.5 122zM1619 775q7 9 19 7q9 -1 11.5 -12.5t5.5 -61.5q15 -263 36 -434q20 -170 20 -211
q0 -21 -5 -33q-6 -11 -25 -11q-15 0 -22 9q-6 6 -8.5 5.5t-11.5 -8.5q-30 -29 -110 -29q-93 0 -155 37q-46 27 -83 79.5t-49 107.5q-5 28 -5 52q0 49 16.5 94.5t46.5 74.5q48 47 114 47q98 0 179 -105q22 -31 29 -31h1q1 1 1 4q0 4 -10.5 123.5t-10.5 188.5q0 88 16 107z
M284 503q-9 14 -26 14q-29 0 -69 -37q-40 -36 -64 -110q-20 -61 -20 -133q0 -105 43 -165q10 -15 17.5 -19.5t20.5 -4.5q20 0 34.5 14.5t31.5 51.5q21 47 29 94t10 152q1 33 1 76q0 55 -8 67zM196 552q34 17 65 17q20 0 33 -7q12 -5 34 -27q15 -15 18.5 -25t6.5 -44
q8 -94 73 -297q28 -85 28 -115q0 -29 -30 -29q-16 0 -25.5 15t-11.5 41q-2 22 -19 78.5t-23 56.5q-5 0 -9 -27q-5 -32 -20 -73t-33 -67q-41 -59 -98 -59q-29 0 -54 18q-39 27 -62 91t-23 138q0 25 3 51q26 204 147 264zM589 554q4 10 18 10q16 0 22 -13q7 -13 10 -120
l3 -106l23 44q46 88 108 124q24 15 64 15q37 0 63 -17q49 -34 80.5 -124t56.5 -269q6 -45 6 -66t-6 -28.5t-20 -7.5q-16 0 -22 10.5t-10 44.5q0 2 -16 110q-44 292 -131 292q-28 0 -67 -34q-51 -46 -81.5 -140.5t-30.5 -202.5v-13q0 -38 -28 -38q-17 0 -23.5 19.5
t-12.5 92.5q-9 124 -9 325q0 84 3 92z" />
    <glyph glyph-name="s_c_h.liga" unicode="sch" horiz-adv-x="1511" 
d="M1063 765q10 5 20 0q4 -2 5.5 -9t3 -33.5t2.5 -72.5t1 -133l2 -242l31 55q28 47 77 99t81 68q26 12 47 12q37 0 62 -37q43 -63 65 -381q3 -45 3 -64q0 -24 -6 -33q-9 -13 -24 -13t-20 11q-6 12 -15 121q-25 338 -68 338q-10 0 -38 -20.5t-51 -44.5q-89 -96 -127 -255
q-16 -64 -24 -79q-7 -13 -25 -13q-11 0 -17 7q-12 13 -13 379v67q0 161 5.5 212t22.5 61zM166 576q34 8 72 8q62 0 92 -15q30 -17 30 -36q0 -15 -21 -15q-8 0 -12 1q-12 2 -82 4h-20q-41 0 -74 -15q-31 -15 -39 -30q0 -1 -1 -3q-2 -4 -2 -6q0 -7 11 -17t61 -50
q104 -81 170.5 -172.5t72.5 -159.5q1 -9 1 -23q0 -37 -26 -66q-46 -50 -134 -50q-54 1 -89 17q-46 22 -78 62.5t-32 75.5q0 12 2 17q8 28 27 28q16 0 16 -24q1 -33 32.5 -66t73.5 -46q30 -8 53 -8q47 0 79 26q19 17 19 42q0 26 -21 68q-57 119 -219 246q-47 37 -63.5 56
t-16.5 37q0 7 1 11q6 37 37 64t80 39zM711 550q36 18 74 18q61 0 73 -37q3 -7 3 -13q0 -13 -15 -13q-7 0 -16 3q-20 7 -40 7q-49 0 -99 -50q-38 -38 -58.5 -89.5t-20.5 -104.5q0 -35 9 -65q10 -31 41 -63t62 -43q42 -14 91 -14q78 0 101 26q12 13 24 13q20 0 20 -30
q0 -26 -35.5 -44t-95.5 -23q-3 0 -10 -0.5t-10 -0.5q-80 0 -146.5 41t-92.5 108q-16 43 -16 101q0 38 7 66q15 64 57.5 122.5t92.5 84.5z" />
    <glyph glyph-name="C_h.liga" unicode="Ch" horiz-adv-x="1202" 
d="M727 776q9 5 19 0q13 -7 19 -68t12 -253l6 -210l32 43q29 40 65.5 79t52.5 47t45 8t48 -8q33 -14 59.5 -56t40.5 -103q10 -43 18.5 -118.5t8.5 -118.5q0 -36 -5.5 -48.5t-19.5 -12.5q-22 0 -30.5 76t-23 173.5t-48.5 134.5q-13 14 -21 18.5t-22 4.5q-23 0 -37 -9
q-23 -15 -77 -89.5t-71 -114.5q-11 -29 -15 -71q-6 -71 -30 -71q-10 0 -22 13q-4 5 -6 14t-3.5 49t-2.5 110t-1 207v164q0 205 9 210zM347 765q27 4 61 4q66 0 113.5 -17t47.5 -43q0 -5 -1 -8q-4 -12 -15 -12q-7 0 -29 10q-20 12 -84 13h-20q-103 0 -166 -37
q-41 -25 -79 -80.5t-54 -114.5q-9 -31 -9 -84q2 -175 160 -250q71 -34 154 -34q51 0 77 8.5t54 34.5q29 28 37 28q6 0 6 -13q0 -1 -0.5 -5.5t-0.5 -6.5q-11 -93 -168 -101h-16q-102 0 -192 50t-133 133q-17 32 -29.5 78t-12.5 76q0 50 20 114.5t50 110.5q41 64 96 98.5
t133 47.5z" />
    <glyph glyph-name="T_h.liga" unicode="Th" horiz-adv-x="1183" 
d="M385 745q117 9 136 9q17 0 27 -5q11 -5 11 -18q0 -16 -24.5 -22.5t-106.5 -14.5q-105 -9 -112 -12q-7 -1 -7 -83q0 -16 2 -150q4 -225 13 -340q6 -72 6 -93t-6 -30q-9 -13 -20 -13q-16 0 -23 17t-12 62q-15 167 -15 428q0 57 1 79l4 119l-95 3q-76 2 -95.5 6.5
t-19.5 23.5t18 22.5t106 4.5q117 2 212 7zM687 733q4 13 7.5 17.5t12.5 4.5q14 0 19 -13q6 -16 15 -239q12 -245 14 -272l3 -47l20 33q19 34 50 67t52 43q23 11 52 11q57 0 108.5 -45t74.5 -117q19 -62 19 -140q0 -28 -4 -39q-7 -22 -22 -23h-5q-14 0 -19.5 17t-9.5 70
q-5 74 -16 105q-18 52 -53 83t-72 31q-23 0 -42 -12q-29 -18 -65.5 -82t-50.5 -123q-11 -44 -16 -55t-16 -11h-7q-18 1 -25 16t-13 165q-3 76 -12 258q-6 99 -6 180q0 91 7 117z" />
    <glyph glyph-name="a_t_i.liga" unicode="ati" horiz-adv-x="1112" 
d="M983 696q15 18 32 18q9 0 15 -7q11 -14 11 -43q0 -11 -4 -21q-5 -14 -24 -22q-7 -3 -15 -3q-14 0 -22.5 10.5t-8.5 26.5q0 22 16 41zM654 681q8 10 19 10q10 0 16 -8q8 -10 11 -59l4 -52l55 -3q46 -2 58 -6.5t12 -19.5t-12 -19.5t-58 -6.5l-55 -3l2 -46q3 -118 22 -284
q11 -84 20 -93q10 -10 10 -25q0 -14 -8.5 -24.5t-22.5 -10.5q-33 0 -46 73q-19 104 -30 328l-4 74l-58 -4q-13 -1 -34 -1q-22 0 -30.5 4.5t-8.5 15.5q0 1 0.5 3.5t0.5 4.5q2 13 14.5 18t58.5 11l52 7l3 54q2 53 9 62zM284 478q0 10 -3 13t-13 3q-16 0 -43 -17.5t-44 -38.5
q-19 -23 -38.5 -62t-26.5 -66t-7 -60q0 -39 10 -60q8 -20 26.5 -40.5t28.5 -20.5q15 0 35.5 36t34.5 87q10 36 25 122t15 104zM308 553q8 5 16 5q10 0 18 -8q6 -10 8 -71q4 -114 74 -326q38 -119 38 -135q0 -9 -9 -15t-18 -6t-15 6q-7 7 -40.5 102.5t-45.5 142.5
q-9 36 -16 46q-2 3 -6 -6q-3 -6 -5 -15q-46 -178 -110 -197q-11 -3 -22 -3q-38 0 -72.5 36.5t-47.5 93.5q-7 35 -7 45q0 7 7 49q20 102 84 175.5t133 74.5q26 0 36 6zM980 529q4 10 16 10q15 0 22 -16q7 -14 16 -136q9 -117 22 -242q8 -83 8 -105q0 -21 -5 -26.5t-19 -5.5
q-18 0 -25.5 25.5t-17.5 121.5q-23 233 -23 318q0 45 6 56z" />
    <glyph glyph-name="t_h_e.liga" unicode="the" horiz-adv-x="1514" 
d="M491 824q3 6 14 6q17 0 22 -10q6 -13 10 -204q4 -204 7 -274l4 -80l21 52q35 87 90 139t105 52q24 0 44 -14q85 -64 101 -370q2 -50 2 -53q0 -25 -8 -33q-12 -10 -21 -10q-17 0 -23 17.5t-8 79.5q-6 131 -27.5 217t-52.5 105q-6 3 -12 3q-21 0 -60 -35q-39 -36 -61 -82
t-55 -159q-25 -90 -36 -101q-9 -10 -21 -10q-16 0 -23 13q-11 17 -24 517q-1 23 -1 66q0 147 13 168zM163 728q7 9 21 9q15 0 20.5 -18.5t5.5 -72.5v-29q0 -39 5.5 -49t29.5 -10q22 0 37 1q13 1 36 1q34 0 39 -3q9 -5 9 -21q0 -10 -5 -18q-4 -6 -40.5 -11.5t-75.5 -6.5h-31
l4 -114q4 -119 4 -253q0 -133 -5 -144q-6 -16 -24 -16q-17 0 -22 7q-2 3 -6.5 258t-7.5 258t-47.5 10.5t-46.5 8.5q-14 5 -14 25q0 5 2 13q4 10 20 10q18 0 33 -1l51 -1v78q0 80 8 89zM1363 492q-19 13 -59 13q-24 0 -44 -6q-40 -13 -73 -55t-35 -83l-1 -26l55 -3
q15 -1 44 -1q87 0 121 16q38 18 38 65q0 18 -15 44t-31 36zM1233 550q35 14 77 14q40 0 66 -11t50 -39q41 -45 41 -104q0 -38 -19 -69.5t-54 -46.5q-19 -9 -61.5 -16.5t-71.5 -7.5q-3 0 -7.5 0.5t-6.5 0.5q-31 4 -54 5q-8 1 -20 1q-19 0 -19 -10q0 -8 14 -38
q22 -49 82 -89.5t112 -42.5q34 -2 36 -2q7 -3 11 -13q3 -4 3 -10q0 -11 -9.5 -20.5t-22.5 -12.5q-4 -1 -14 -1q-38 0 -98 28t-96 63q-82 81 -82 193q0 4 0.5 11t0.5 10q5 74 41.5 127.5t100.5 79.5z" />
    <glyph glyph-name="e_r.liga" unicode="er" horiz-adv-x="1002" 
d="M363 515q-18 5 -40 5q-26 0 -54 -8q-109 -29 -146 -128q-12 -34 -12 -40q0 -9 7.5 -12t28.5 -6q22 -2 36 -2q48 0 104.5 10t91.5 25q30 13 41 28t11 43q0 68 -68 85zM271 573q30 5 51 5q74 0 120.5 -40.5t46.5 -107.5q0 -63 -41 -98t-135 -52q-78 -13 -127 -13
q-23 0 -41 3l-34 5v-19q0 -20 19.5 -56.5t40.5 -54.5q71 -60 199 -82q19 -3 24 -6t7 -13v-5q0 -26 -46 -26h-6q-52 1 -120 31.5t-107 70.5q-74 76 -74 181q0 71 34 138q58 112 189 139zM605 523q6 16 23 16q10 0 18 -9q7 -7 12 -82q4 -76 7 -76q4 0 22 27q20 31 58 65t73 51
q46 23 86 23q27 0 38 -11q12 -12 12 -21q0 -19 -52 -26q-67 -9 -132 -72q-58 -56 -84 -153q-12 -44 -12 -114q0 -45 1 -75v-21q0 -33 -6 -43t-24 -10t-23.5 18.5t-7.5 87.5q-3 67 -9 243q-3 87 -3 130t3 52z" />
    <glyph glyph-name="A_n.liga" unicode="An" horiz-adv-x="1236" 
d="M428 579q-28 71 -33 78q-6 4 -14 -9q-38 -60 -109.5 -208t-71.5 -167q0 -5 24 -5q9 0 49 2q10 1 42.5 3.5t62 5t51.5 4.5q95 8 95 12q0 14 -33 111.5t-63 172.5zM367 715q19 21 26 21q48 0 179 -394q43 -131 43 -136q0 -13 30.5 -87t40.5 -86q17 -20 17 -42
q0 -28 -27 -28q-44 0 -112 220q-18 59 -21 59q-7 0 -135 -14q-152 -17 -188 -19l-57 -4l-22 -56q-25 -65 -37 -108q-10 -33 -15.5 -43t-13.5 -11q-1 0 -3 -0.5t-3 -0.5q-23 0 -23 35q0 24 8 52q22 80 88 224q169 359 225 418zM957 480q26 11 54 11q49 0 83 -40
q29 -34 47.5 -100.5t35.5 -199.5q10 -90 10 -109q0 -27 -10 -34q-8 -5 -15 -5q-16 0 -23 14q-7 16 -21 129q-17 128 -31.5 185t-38.5 85q-15 18 -36 18q-19 0 -49 -15q-145 -72 -154 -325q-2 -66 -8.5 -87t-24.5 -21q-15 0 -20 8q-9 11 -24.5 185t-15.5 251q0 19 2 27
q6 23 22 23q8 0 14 -7q8 -10 13 -86q7 -97 13 -97q4 0 18 30q25 55 68.5 98.5t90.5 61.5z" />
    <glyph glyph-name="Q_u.liga" unicode="Qu" horiz-adv-x="1316" 
d="M442 681q-22 12 -72 12q-24 0 -51 -3q-66 -7 -120.5 -63.5t-76.5 -141.5q-15 -59 -15 -114q0 -122 65 -202q18 -23 53.5 -41.5t68.5 -22.5q2 0 7 -0.5t8 -0.5q26 0 56.5 4.5t30.5 11.5q0 13 -18 40q-23 37 -23 53q0 10 10 17q3 2 9 2q16 0 50 -51q27 -38 35 -38
q10 0 37.5 23t45.5 47q25 33 40.5 90.5t15.5 112.5q0 27 -5 54q-19 85 -90 158q-43 43 -61 53zM360 747q18 4 27 4q86 0 181 -110q87 -102 87 -231q0 -15 -1 -23q-14 -186 -137 -277l-28 -20l40 -62q41 -64 41 -83q0 -11 -10 -14q-8 -3 -14 -3q-11 0 -22.5 13t-37.5 53
q-45 67 -49 70h-1q-2 1 -3 1q-11 0 -39 -7q-36 -9 -78 -9t-74 9q-160 47 -191 262q-4 34 -4 52q0 76 26 152t69 124q37 41 74 61t89 27q35 5 55 11zM1147 570q11 15 26 15q13 0 19 -11q5 -10 5 -60q0 -81 35 -265q30 -165 31 -172q4 -27 4 -41q0 -11 -11 -21
q-14 -11 -19 -11q-3 0 -13 7t-27 106q-16 98 -22 113q-3 10 -5 10q-3 0 -10 -18q-39 -93 -77.5 -137t-83.5 -44q-28 0 -61 18q-53 30 -88 110.5t-48 201.5q-6 57 -6 97q0 83 25 87q1 0 3 0.5t3 0.5q12 0 16.5 -17.5t7.5 -71.5q13 -252 88 -334q30 -33 60 -33q9 0 14 2
q26 10 54.5 59.5t51.5 124.5q11 36 13.5 60t3.5 100q1 108 11 124z" />
    <glyph glyph-name="t_h_e_r.liga" unicode="ther" horiz-adv-x="2082" 
d="M538 735q10 7 15 7q6 0 14 -7q11 -8 15 -77q5 -95 5 -158q2 -99 4 -111l4 -22l28 31q40 43 92.5 68.5t102.5 25.5q12 0 34 -4q28 -7 40.5 -20t22.5 -45q9 -31 9 -208q0 -198 -10 -212q-9 -12 -19 -12q-11 0 -20 10q-9 9 -9 88q0 59 1 104v81q0 95 -5.5 123t-23.5 34
q-7 3 -20 3q-32 0 -76.5 -20.5t-71.5 -48.5q-22 -25 -35 -59.5t-27 -110.5q-16 -84 -19.5 -95.5t-15.5 -17.5q-15 -8 -26 4q-8 8 -10.5 51t-5.5 224q-1 59 -2 127.5t-1.5 106t-0.5 60.5q0 37 1.5 54t3 19.5t6.5 6.5zM179 661q5 7 21 7q14 0 20 -9.5t6 -34.5q0 -7 -2 -33
l-3 -49l73 3q14 1 37 1q33 0 43.5 -5.5t10.5 -21.5q0 -15 -14.5 -19t-70.5 -8q-66 -4 -73 -7q-12 -5 -12 -179q0 -73 3 -157q2 -76 2 -90q0 -47 -6 -59t-24 -14q-2 0 -4.5 -0.5t-3.5 -0.5q-18 0 -21.5 39.5t-3.5 219.5l-1 234l-39 -3q-22 -2 -28 -2q-40 0 -40 26q0 17 12 23
t55 10l47 4l6 59q5 59 10 66zM1417 482q-3 0 -21 3q-3 1 -10 1q-54 0 -124 -54q-21 -16 -42.5 -43.5t-21.5 -37.5q0 -1 0.5 -1t0.5 -1q4 -6 54 -6q69 0 136.5 16.5t78.5 36.5q6 12 6 23q0 23 -23 43q-22 20 -34 20zM1352 540q15 3 31 3q59 0 105.5 -37t46.5 -85
q0 -11 -3 -23q-31 -110 -272 -110h-83l3 -32q6 -75 78.5 -123.5t154.5 -48.5h10l42 2l2 -19q2 -20 -14.5 -30t-47.5 -10q-49 0 -110.5 23.5t-101.5 61.5q-31 30 -51 69q-13 27 -16 41.5t-3 51.5q0 38 3.5 53t18.5 47q29 59 87.5 106.5t119.5 59.5zM1697 522q5 7 20 7
q17 0 23 -15t6 -59v-44l32 30q33 32 61.5 44t68.5 12q51 0 89 -21t38 -50q0 -30 -22 -30q-14 0 -29 16q-19 19 -41 24q-15 4 -32 4q-91 0 -145 -123q-10 -23 -12 -44.5t-2 -101.5q0 -113 -8 -129q-9 -16 -25 -16q-13 0 -22 10q-11 12 -11 75v34q1 92 5 231t6 146z" />
    <glyph glyph-name="s_s.liga" unicode="ss" horiz-adv-x="891" 
d="M141 596q21 8 61 8q42 0 83.5 -9.5t61.5 -25.5q16 -13 16 -27q0 -19 -21 -19q-8 0 -20 6q-44 22 -101 22q-67 0 -96 -28q-18 -17 -18 -43q0 -20 10 -33.5t73 -78.5q66 -69 93 -110t41 -91q5 -22 5 -36q0 -34 -25 -59q-32 -32 -97 -32q-70 0 -116 35q-37 26 -37 66
q0 23 16 33q10 7 13.5 6.5t9.5 -7.5q8 -10 8 -21t16 -25t35 -20q22 -7 55 -7q36 0 50 9q12 8 12 22q0 8 -1 14q-5 38 -31 78t-88 103q-64 66 -83 95.5t-19 64.5q0 30 17 56q25 35 77 54zM631 584q28 7 71 7q89 0 126 -24q15 -10 15 -21q0 -1 -0.5 -3t-0.5 -4q-2 -21 -19 -21
q-8 0 -20 6q-15 8 -84 8q-81 0 -100 -10q-37 -21 -37 -47q0 -11 13.5 -27t64.5 -69q75 -76 97 -111q56 -89 56 -158q0 -75 -68 -107q-39 -18 -88 -18q-72 0 -124 35q-29 19 -47.5 48.5t-18.5 54.5q0 14 8 24q11 11 21 11q9 0 15.5 -7t6.5 -19q0 -15 17.5 -35.5t40.5 -33.5
q36 -20 83 -20q58 0 82 29q14 15 14 39q0 22 -11 51q-15 43 -40.5 78.5t-79.5 89.5q-65 65 -83.5 91.5t-18.5 55.5q0 81 109 107z" />
    <glyph glyph-name="c_h.liga" unicode="ch" horiz-adv-x="1041" 
d="M569 791q4 10 15 10q19 0 23 -40.5t6 -263.5l3 -284l10 35q22 72 63.5 132t83.5 80q21 10 47 10q31 0 52 -15q37 -26 72 -112q11 -29 27 -95t21 -106q1 -7 1 -20q0 -46 -22 -54q-2 -1 -6 -1q-25 0 -31 55q-10 87 -34.5 166t-48.5 106q-18 20 -34 20q-19 0 -53 -34
q-32 -32 -51.5 -72.5t-42.5 -120.5q-46 -164 -72 -171q-8 -2 -12 -2q-17 0 -25 20q-6 15 -6 218q0 175 4 350t10 189zM233 573q30 6 71 6q70 0 93 -12q18 -9 18 -20v-5l-2 -16l-52 2h-13q-99 0 -152 -28q-52 -26 -80 -86q-13 -30 -13 -52q0 -2 0.5 -8.5t0.5 -10.5
q5 -74 54 -127.5t125 -68.5q34 -7 87 -7q51 0 62 7q5 4 13 4q9 0 15.5 -7.5t6.5 -17.5q0 -12 -8 -20q-19 -22 -93 -22q-5 0 -15 0.5t-16 0.5q-161 9 -235 110q-30 41 -41 73.5t-11 83.5q0 39 3 54t14 39q50 101 168 128z" />
    <glyph glyph-name="t_i_o_n.liga" unicode="tion" horiz-adv-x="1921" 
d="M566 756q13 13 27 13q12 0 33 -13q18 -11 18 -37q0 -20 -12.5 -38t-32.5 -22q-2 -1 -8 -1q-29 0 -50 24q-3 4 -3 12q0 34 28 62zM197 672q9 13 23 13t20 -11q4 -8 4 -17q0 -4 -4 -28q-6 -38 -6 -41q0 -10 6.5 -13.5t26.5 -3.5q4 0 16 0.5t20 0.5h24q46 0 57 -11
q12 -11 12 -23q0 -8 -6 -13q-8 -6 -51 -6q-40 0 -78 -4l-34 -5l3 -163q3 -149 10 -225q4 -35 4 -52q0 -14 -6 -25q-8 -14 -23 -14q-17 0 -24 19q-8 20 -14 117t-6 211v124l-19 -5q-40 -8 -67 -8q-11 0 -21 2q-15 4 -15 20q0 17 8 23q11 7 62 17l54 10l7 49q7 46 17 62z
M1097 480q-20 18 -30 24t-23 6q-10 0 -45 -7q-31 -7 -49.5 -17t-38.5 -31q-27 -28 -37.5 -56.5t-10.5 -76.5v-8q0 -59 16 -100q31 -77 78 -108q35 -23 74 -23q66 0 117.5 55t51.5 132q0 13 -1 19q-11 106 -102 191zM955 546q39 12 85 12q39 0 66.5 -8.5t30.5 -23.5
q2 -10 35 -47q85 -93 85 -207q0 -19 -3 -37q-6 -41 -26.5 -81.5t-47.5 -65.5q-25 -24 -64 -42q-25 -12 -40 -15t-45 -3q-48 0 -79 15q-67 32 -108 108.5t-41 163.5q0 48 13 90q14 48 52.5 86.5t86.5 54.5zM558 542q7 10 18 10q15 0 19.5 -14.5t4.5 -65.5v-26v-22
q0 -91 7 -217q4 -73 4 -120q0 -38 -5 -48.5t-20 -12.5q-15 -1 -22 10q-16 32 -16 319q0 176 10 187zM1533 512q41 33 108 33q47 0 85 -19q48 -23 71.5 -77t46.5 -190q11 -69 25 -143q4 -26 4 -31q0 -27 -25 -30q-14 -1 -20 10q-16 28 -47 215q-18 106 -34 144t-49 53
q-25 11 -53 11q-32 0 -62 -13t-46 -34q-67 -89 -73 -283q-3 -100 -12 -111q-9 -10 -18 -10q-10 0 -21 11q-7 7 -9.5 34.5t-6.5 123.5q-2 74 -2 106q0 156 13 190q7 18 28 18q9 0 13 -4q7 -6 7 -24q0 -5 -2 -31q-1 -9 -1 -24q0 -25 4 -25q3 0 7 15q4 14 27.5 43t41.5 42z" />
    <glyph glyph-name="n_n.liga" unicode="nn" horiz-adv-x="1118" 
d="M56 550q7 9 22 7q10 -1 13 -8.5t6 -40.5q6 -71 8 -114q4 -65 8 -65q1 0 17 39q46 129 119 168q22 12 68 13q30 0 41 -2.5t28 -14.5q35 -25 64 -78.5t44 -121.5q10 -50 10 -205q0 -128 -8 -141q-9 -14 -29 -14q-12 0 -15 8q-3 5 -5 158q-1 141 -13 200.5t-49 112.5
q-30 43 -71 43t-75 -41q-34 -39 -64 -135t-40 -195q-5 -52 -8.5 -63t-14.5 -18q-12 -5 -14 -5q-4 0 -15 9q-8 8 -12 40.5t-14 170.5q-11 160 -11 218q0 62 10 75zM838 545q25 13 49 13q53 0 93 -62.5t62 -179.5q30 -167 30 -261q0 -19 -3 -24q-6 -12 -27 -12q-19 0 -23 10
q-3 10 -9 77q-26 316 -96 380q-13 13 -30 13q-27 0 -55 -39t-52 -111q-43 -131 -54 -246q-6 -67 -34 -67q-17 0 -22.5 13.5t-5.5 67.5q0 46 3 137q3 102 5.5 154.5t7 86.5t10.5 42.5t17 8.5q14 0 19 -12t5 -46v-24v-28q0 -35 1 -35t20 37q17 37 42 67t47 40z" />
    <glyph glyph-name="m_m.liga" unicode="mm" horiz-adv-x="1815" 
d="M1143 576q19 11 52 11q27 0 43 -8q81 -43 112 -262q8 -56 13 -56q4 0 10 14q38 97 81.5 161t78.5 76q19 6 52 6q41 0 59 -9q27 -14 41.5 -48.5t31.5 -126.5q3 -18 31 -150q18 -80 18 -103q0 -11 -5 -18q-7 -9 -19 -9q-16 0 -25 14q-10 16 -44 186q-35 174 -43 189
q-6 11 -12.5 13.5t-32.5 2.5q-27 0 -35 -3t-25 -21q-47 -52 -83 -139q-17 -42 -43 -125t-26 -97q0 -15 -6 -27q-6 -11 -23 -11q-16 0 -22 11q-5 9 -9 75q-8 140 -31 247.5t-52 141.5q-14 18 -37 18q-19 0 -34 -15t-35 -54q-52 -102 -75 -270q-11 -79 -18 -89q-7 -13 -24 -13
q-16 0 -22 11q-7 14 -12.5 123t-5.5 212q0 98 6 115q7 19 20 19q8 0 15 -7q8 -7 10 -22.5t2 -67.5v-18q0 -69 7 -69q5 0 16 30q46 129 100 162zM562 573q18 6 46 6q44 0 62 -13q28 -21 43 -59.5t31.5 -127.5t47.5 -303q1 -4 1 -11q0 -29 -28 -29q-17 0 -24 12t-12 48
q0 1 -22 164q-16 113 -28.5 167t-27 75t-38.5 21q-42 0 -71 -37q-34 -45 -71 -166t-46 -217q-4 -48 -9.5 -60t-24.5 -12q-20 0 -25.5 15.5t-14.5 94.5q-17 144 -34.5 251t-27.5 118q-4 4 -8 4q-19 0 -56 -42q-51 -56 -76 -152q-11 -42 -22 -110t-11 -97q0 -22 -9 -35
q-7 -12 -21 -12q-17 0 -26 17q-4 9 -10 163t-6 243q0 39 1 44q6 31 28 31q15 0 20 -18t6 -71q1 -75 8 -75q6 0 23 34q29 55 75.5 98t77.5 43q38 0 58 -42q21 -41 41 -192q8 -57 12 -57q6 0 26 63q64 201 142 226z" />
    <glyph glyph-name="i_n_g.liga" unicode="ing" horiz-adv-x="1687" 
d="M50 833q0 4 2 6t5 1q10 -3 8 -12q-1 -4 -6 -4q-9 0 -9 9zM356 751q9 9 19 9q13 0 32 -12q25 -16 25 -40t-23 -47q-16 -16 -32 -16q-13 0 -28 12q-15 11 -15 35q0 34 22 59zM369 546q6 12 20 12q16 0 24 -16q7 -13 10 -160q4 -148 9 -244q3 -52 3 -75q0 -28 -6 -37
q-9 -12 -24 -12q-12 0 -19 8q-14 15 -22 290q-3 105 -3 152q0 69 8 82zM640 548q7 10 20 10q16 0 21 -15q6 -16 6 -105t5 -89q3 0 25 43q34 68 79.5 107.5t88.5 39.5q31 0 57 -24q29 -29 47 -89t43 -213q19 -120 19 -151q0 -26 -14 -35q-11 -7 -15 -7t-14 7q-14 9 -14 32
q0 17 -19.5 141.5t-27.5 160.5q-29 121 -65 121q-1 0 -3 -0.5t-3 -0.5q-19 -4 -43.5 -25.5t-41.5 -48.5q-75 -117 -75 -269q0 -61 -6 -73q-7 -12 -26 -12q-13 0 -19 8t-19 132q-14 135 -14 258q0 87 8 97zM1476 481q-12 12 -27 12q-9 0 -37 -5q-54 -9 -88 -62
q-19 -29 -25.5 -55.5t-6.5 -73.5q0 -84 43 -130q31 -32 80 -32q40 0 78 22t58 61q18 38 18 84q0 25 -2 39q-6 47 -18 71.5t-35 39.5q-29 20 -38 29zM1399 538q17 4 36 4q21 0 66 -9q32 -8 54 -30q40 -37 55 -82.5t25 -155.5q6 -72 6 -133q0 -238 -96 -329q-50 -48 -117 -65
q-19 -5 -45 -5q-63 0 -98 33q-13 12 -27.5 40t-14.5 41q0 12 6.5 19.5t15.5 7.5q15 0 20 -15q15 -37 37.5 -52t60.5 -15h4q73 2 125 60q40 44 59 138q13 71 13 143q0 19 -2 19q-5 0 -30 -23q-49 -46 -121 -50q-7 -1 -20 -1q-63 0 -109 42q-69 62 -69 181q0 90 44 155
q45 65 122 82z" />
    <glyph glyph-name="f_o_r.liga" unicode="for" horiz-adv-x="1403" 
d="M267 811q23 6 49 6q42 0 77.5 -12t39.5 -30q2 -8 2 -11q0 -14 -18 -14q-9 0 -26 3q-31 6 -59 6q-128 0 -143 -154l-4 -40l75 -3q60 -2 79.5 -7t23.5 -20q2 -8 2 -11q0 -12 -18.5 -15t-77.5 -3h-84l4 -106q4 -116 12 -193q13 -133 13 -161q0 -22 -6 -26q-8 -8 -25 -6
q-17 1 -23 22q-5 16 -18 178t-13 211q0 36 -4 56q-2 13 -7.5 15.5t-28.5 4.5q-16 1 -22.5 2.5t-9.5 4.5t-6 10q-2 4 -2 12q0 28 46 28h10q15 0 19 9t10 57q10 75 44.5 123t88.5 64zM664 506q-3 4 -9 4q-9 0 -22 -5q-49 -19 -76.5 -77t-27.5 -141q0 -4 0.5 -12t0.5 -12
q4 -74 25.5 -126t55.5 -70q18 -9 47 -9q31 0 58 12q60 27 98.5 101.5t38.5 152.5q0 70 -34 113q-18 21 -54 39.5t-66 21.5q-31 4 -35 8zM640 564q15 3 30 3q43 0 130 -43q56 -28 89 -92q19 -39 21 -92v-18q0 -73 -27 -140t-74 -114q-70 -70 -148 -70q-39 0 -75 18
q-53 27 -84 98t-31 166q0 149 73 226q43 46 96 58zM1217 547q25 17 60 17q53 0 72 -36q6 -12 6 -19q0 -3 -4 -13q-6 -13 -14 -13q-7 0 -24 11t-34 11q-61 0 -122 -126l-20 -43l4 -137q2 -80 2 -89q0 -48 -9 -56q-10 -8 -24 -8q-15 0 -23 8q-12 12 -20 56.5t-8 94.5
q0 60 10 96q10 42 10 113q0 60 5.5 83t19.5 25h4q23 0 23 -36v-23l30 34q29 33 56 50z" />
    <glyph glyph-name="m_e_n_t.liga" unicode="ment" horiz-adv-x="2489" 
d="M2223 651q6 10 22 10q12 0 18 -6q7 -7 7 -43q0 -37 7 -41q5 -5 69 -18q61 -12 78 -20t17 -25q0 -10 -4.5 -14.5t-18.5 -4.5q-15 0 -68 8q-56 8 -66 8q-2 0 -4 -1h-1q-7 -3 -7 -15q0 -11 1 -19q5 -84 9 -234q4 -97 4 -156q0 -49 -5 -60.5t-22 -11.5q-19 0 -24 11
q-9 20 -12 192q-1 10 -1 31q-4 217 -7 245l-4 30h-44q-71 0 -71 32q0 15 14 20.5t54 5.5q38 0 46 6.5t8 38.5q0 21 5 31zM567 581q20 11 51 11t53 -11q71 -36 105 -158q9 -33 33 -172.5t24 -158.5q0 -15 -14 -22q-15 -7 -27 5q-12 11 -37 159q-26 155 -48.5 217t-57.5 81
q-18 9 -32 9q-22 0 -53 -31q-50 -52 -83.5 -151.5t-40.5 -214.5q-2 -46 -5 -61.5t-10 -20.5q-11 -8 -17 -8q-7 0 -18 8t-15 75q-10 145 -46.5 241.5t-85.5 106.5q-3 1 -10 1q-49 0 -86 -92.5t-37 -215.5q0 -23 1 -34q1 -17 1 -43q0 -33 -4.5 -44.5t-17.5 -16.5q-8 -3 -11 -3
q-7 0 -17 10q-10 9 -12.5 35t-4.5 150q-1 44 -1 119q0 170 13 186q10 10 23 8q11 -1 13 -8.5t4 -50.5l1 -57l18 28q52 83 118 83q50 0 94 -49t68 -132q8 -30 13 -30q2 0 22 55q26 71 62.5 124.5t73.5 72.5zM1559 554q4 10 17 10q17 0 23 -12t6 -45v-10v-21q0 -27 2 -39
q2 -8 4 -8q3 0 22 29q56 88 159 90q70 0 117 -51q37 -39 62 -119q16 -52 36.5 -145.5t23.5 -129.5q0 -3 0.5 -9t0.5 -8q0 -21 -5.5 -29t-19.5 -8h-8q-13 1 -16 8q-5 10 -18 92q-10 63 -33 151t-36 115q-36 76 -105 76q-29 0 -61 -15q-66 -35 -85 -167q-15 -99 -15 -190
q0 -4 0.5 -8.5t0.5 -5.5q1 -3 1 -8q0 -15 -10 -26t-24 -11q-17 0 -22.5 16.5t-12.5 98.5q-8 88 -8 261q0 109 4 118zM1332 423q10 16 10 29q0 20 -22.5 31t-54.5 11q-63 -1 -120.5 -38.5t-86.5 -97.5q-8 -18 -8 -24q0 -12 24 -12q5 0 29 2q176 14 229 99zM1192 542
q28 9 66 9q55 0 89 -17q54 -29 54 -78q0 -27 -17 -58q-71 -123 -286 -126l-63 -1l3 -29q5 -52 34.5 -90.5t78.5 -57.5q44 -17 114 -17q35 0 51 6q10 3 17 3q21 0 21 -20v-6q-4 -36 -91 -40h-17q-111 0 -184 59.5t-82 159.5q-1 7 -1 22q0 93 59 171.5t154 109.5z" />
    <glyph glyph-name="h_i_s.liga" unicode="his" horiz-adv-x="1341" 
d="M55 788q9 13 20 13q10 0 14.5 -3.5t8 -22.5t5 -48.5t2.5 -90.5q3 -124 10.5 -244t11.5 -120q2 0 32 77q42 105 93.5 162.5t103.5 57.5q22 0 41 -9q32 -15 59.5 -62t44.5 -116q23 -90 23 -216q0 -97 -16 -113q-10 -10 -15 -10q-7 0 -15 7q-7 5 -8.5 24t-2.5 93
q-3 180 -47 273q-18 39 -33.5 55t-33.5 16q-22 0 -57 -37t-57 -84q-27 -55 -61 -154t-40 -136q-5 -42 -13 -50q-6 -8 -19 -8q-18 0 -25 12q-7 13 -12 114q-7 130 -14 236q-9 138 -9 254q0 118 9 130zM686 755q19 11 37 11q23 0 42 -17q16 -16 16 -32q0 -13 -11 -30
q-11 -18 -36 -25q-22 -7 -42 -7q-44 0 -44 41q0 35 38 59zM995 576q36 9 94 9q74 0 101 -13q25 -14 25 -28q0 -17 -33 -17q-16 0 -38 3q-21 3 -44 3q-73 0 -113 -19q-20 -9 -20 -22q0 -1 0.5 -4t0.5 -5q2 -14 9 -22.5t36 -28.5q39 -28 106 -69q102 -65 147 -132
q22 -32 24 -71l2 -37l-28 -28q-32 -32 -69.5 -44t-102.5 -12q-70 0 -99 14q-35 17 -59.5 46t-24.5 56q0 23 21 23q9 0 17 -5q14 -9 14 -15q0 -4 18 -26q34 -37 107 -37q3 0 11 0.5t12 0.5q53 3 88.5 21t35.5 41q0 22 -34.5 64.5t-72.5 65.5q-72 45 -136 90.5t-70 56.5
q-15 25 -15 58q0 12 3 21q5 19 29 36t58 26zM688 519q8 10 19 10t17 -9q6 -7 9 -155q2 -134 8 -214q3 -34 3 -54q0 -25 -5.5 -34t-19.5 -9q-17 0 -25 12q-16 30 -16 285q0 157 10 168z" />
    <glyph glyph-name="q_u.liga" unicode="qu" horiz-adv-x="1185" 
d="M292 472q-6 8 -19 8q-16 0 -44 -14q-30 -14 -58 -43t-45 -62q-11 -23 -14 -38t-3 -49q0 -47 10.5 -75t39.5 -59q52 -57 122 -58q55 0 88 33t51 105q10 37 10 57q0 5 -4 39q-7 49 -14 70t-22 38q-12 14 -38 26.5t-43 12.5q-10 0 -17 9zM230 524q20 7 46 7q43 0 92 -23
q52 -25 75.5 -58t34.5 -94q5 -32 5 -68q0 -76 -14 -113q-10 -26 -10 -94v-48q0 -110 8 -160q15 -90 29 -90q8 0 18.5 26.5t10.5 45.5q0 50 29 50q16 0 22.5 -11.5t6.5 -40.5q0 -49 -30 -91q-25 -38 -60 -47q-3 -1 -7 -1q-10 0 -27 17q-55 57 -58 257q-1 36 -2 54.5t-2 17.5
l-36 -18q-39 -19 -82 -19q-86 0 -159 75q-72 73 -72 170q0 107 75 185q49 52 107 71zM655 480q11 12 18 12t17 -13q9 -13 9 -78q0 -106 32 -205t79 -143q24 -21 46 -21q34 0 84 53q56 60 78 157q9 37 16.5 102t7.5 102q0 28 13 37q11 8 17 8t17 -11t11 -59q0 -103 29 -327
q7 -50 7 -77q0 -19 -5 -25t-18 -6q-18 0 -24.5 15t-14.5 72q-11 82 -16 82q-4 0 -17 -27q-35 -69 -86 -111.5t-100 -42.5q-85 1 -147 124.5t-63 292.5v32q0 46 10 57z" />
    <glyph glyph-name="a_r_e.liga" unicode="are" horiz-adv-x="1410" 
d="M1269 507q-14 10 -55 10q-66 0 -110 -43q-19 -19 -37.5 -56t-22.5 -62l-2 -23l63 -4q40 -2 53 -2q61 0 94 17q54 27 54 87q0 12 -3 24q-6 22 -12.5 32t-21.5 20zM1153 570q18 5 49 5q52 0 77 -9q38 -16 61 -55t23 -82q0 -30 -12 -57q-23 -53 -67.5 -76t-120.5 -23
q-35 0 -54 2q-37 3 -59 3q-11 0 -12 -1t-1 -6q0 -15 9 -52.5t19 -58.5q24 -51 54 -72t80 -21h16q47 2 69 18q17 12 26 12q4 0 8 -3q9 -8 9 -19q0 -14 -12 -30t-32 -25q-26 -13 -71 -13q-68 0 -112 25q-54 32 -87.5 103t-33.5 156q0 99 49 177.5t125 101.5zM277 490
q-4 27 -19 27q-12 0 -41 -17q-50 -28 -78.5 -88.5t-28.5 -138.5q0 -79 44 -124q30 -31 53 -31q4 0 10 2q21 7 42 97t22 173v17q0 55 -4 83zM200 553q34 17 62 17t45 -17q14 -14 21 -36t23 -101q20 -100 48 -217q30 -125 30 -150q0 -15 -23 -17h-5q-13 0 -20.5 19t-29.5 103
q-22 85 -26 85t-17 -51q-33 -128 -97 -128q-1 0 -4 0.5t-5 0.5q-54 7 -97.5 57t-53.5 119q-3 21 -3 36q0 24 8 63q16 79 53.5 135t90.5 82zM618 550q10 7 13.5 7t13.5 -7q11 -8 14 -46l3 -38l30 31q25 26 53 37t79 16q20 2 25 2q15 0 26 -9q11 -11 11 -19q0 -14 -9 -19.5
t-35 -7.5q-73 -4 -105 -34q-31 -28 -51 -94q-9 -30 -10 -154q-1 -120 -8 -127t-23 -7q-14 0 -20 6q-5 5 -13 158t-8 234q0 26 1 32q3 31 13 39z" />
    <glyph glyph-name="t_i_n_g.liga" unicode="ting" horiz-adv-x="1841" 
d="M511 631q-10 9 -10 31q0 27 15 51t37 24q15 0 25 -16t10 -41q0 -24 -15.5 -41.5t-35.5 -17.5q-15 0 -26 10zM145 667q9 13 18 13q12 0 20.5 -25t9.5 -67l1 -23l39 -4q85 -8 115 -16.5t30 -27.5q0 -6 -1 -9q-4 -14 -13 -14q-1 0 -17 2q-22 3 -90 7l-64 4l4 -69
q5 -88 14 -213q6 -89 6 -135q0 -21 -1 -23q-5 -14 -24 -14q-14 0 -21 9q-11 14 -26 273q-9 155 -9 161q0 3 -25 3h-10h-6q-46 0 -46 25t57 32l30 3v47q0 48 9 61zM507 550q5 14 19 14q19 0 23 -16.5t4 -88.5q0 -89 11 -239q9 -111 9 -137q0 -18 -4 -28q-9 -17 -24 -17
q-10 0 -18 7q-8 5 -10.5 21t-4.5 72q-1 17 -5 79.5t-7 123t-3 105.5q0 77 10 104zM1665 492q-19 7 -70 11q-3 0 -8 0.5t-7 0.5q-77 0 -125.5 -50.5t-48.5 -130.5q0 -17 1 -26q4 -39 22.5 -78t44.5 -63q47 -45 105 -46h2q87 0 130 111l12 31q-5 39 -15.5 115.5t-16.5 114.5z
M1516 549q24 7 59 7q52 0 94 -17q31 -12 48 -12h2q1 0 2.5 0.5t2.5 0.5q12 0 21 -17.5t22 -65.5q15 -56 17 -154q2 -82 8 -168q3 -38 3 -71q0 -180 -101 -240q-66 -39 -137 -39q-82 0 -127 50q-32 35 -32 70q0 14 8 29.5t16 15.5q5 0 23 -38q18 -39 41.5 -52.5t70.5 -13.5
q83 0 130 47q26 26 35 57t11 106v35q0 50 -2 50q-3 0 -27 -24q-53 -53 -126 -53q-87 0 -154 73q-53 58 -70 141q-6 27 -6 55q0 106 64 170q41 40 104 58zM761 528q7 13 21 13t19 -13q6 -24 9 -77q10 -153 19 -189q2 -5 3 -5q3 0 16 44q23 74 53.5 126.5t61.5 68.5
q26 13 56 13q19 0 39 -6q62 -18 88 -98t36 -291q1 -18 1 -45q0 -33 -5 -44.5t-19 -11.5t-20 8q-7 10 -16 123q-10 133 -21.5 195.5t-29.5 87t-53 24.5q-24 0 -43 -17t-39 -57q-37 -73 -66 -245q-17 -104 -30 -114q-12 -10 -16 -10t-17 10q-8 7 -12.5 35.5t-16.5 139.5
q-22 205 -22 292q0 36 4 43z" />
    <glyph glyph-name="e_n_t.liga" unicode="ent" horiz-adv-x="1550" 
d="M1316 673q6 11 23 11t20 -10q4 -10 4 -53v-12q0 -44 8 -51t56 -9q29 -1 44.5 -3.5t22.5 -8t7 -14.5q0 -18 -19 -24.5t-63 -6.5h-52l3 -170q2 -153 11 -230q4 -32 4 -48q0 -15 -7 -26q-10 -14 -21 -14q-1 0 -3.5 0.5t-4.5 0.5l-18 1l-7 59q-8 61 -13 241q-5 184 -6 185
q0 1 -21 1t-34 -1q-12 -1 -31 -1q-29 0 -38.5 5t-9.5 20q0 18 14 23.5t64 9.5l54 4l4 35q3 28 3 54q0 20 6 32zM367 503q-18 12 -64 12q-33 0 -57 -8q-49 -17 -84.5 -59.5t-45.5 -95.5l-4 -21l36 -4q33 -4 82 -4q78 0 104 9q71 25 71 96q0 51 -38 75zM223 560q31 12 75 12
h16q41 -1 53.5 -4t30.5 -15q25 -18 43 -47t19 -72q0 -5 0.5 -13t0.5 -11q0 -25 -13 -50q-29 -55 -82 -79q-25 -12 -87 -12h-58h-116l4 -44q9 -129 88 -169q20 -11 40 -13.5t105 -4.5q77 -2 97.5 -3.5t24.5 -8.5q2 -4 2 -7q0 -9 -11 -18t-27 -12q-52 -10 -128 -10
q-23 0 -47 2q-100 11 -153 83.5t-53 197.5q0 112 45.5 188.5t130.5 109.5zM653 534q6 16 24 16q10 0 17 -8t10 -91l3 -84l12 25q19 43 29 60t33 40q29 29 57.5 40.5t70.5 11.5q38 0 59 -14t39 -51q23 -47 40.5 -149.5t19.5 -207.5v-28q0 -39 -8 -48q-10 -10 -26 -4l-16 5
l-7 99q-2 45 -14 145q-10 71 -27 127.5t-32 65.5q-5 4 -23 4q-38 0 -62 -13q-47 -24 -72 -86t-42 -197q-12 -106 -29 -129q-9 -13 -28 -13q-15 0 -21 10q-4 7 -7.5 123t-3.5 226q0 116 4 125z" />
    <glyph glyph-name="t_h.liga" unicode="th" horiz-adv-x="1009" 
d="M539 765q8 13 22 13t20 -11q6 -16 6 -246q0 -235 5 -235t21 31q26 54 64 93t75 49q12 3 25 3q58 0 102 -76t70 -221q11 -69 11 -79q0 -9 -4 -19q-8 -17 -23 -18h-5q-11 0 -17.5 16.5t-16.5 76.5q-48 259 -119 259q-18 0 -39 -14q-16 -11 -43 -49t-40 -67
q-46 -112 -55 -175q-6 -38 -12 -46t-17 -8q-16 0 -26 15q-6 9 -7.5 67.5t-2.5 286.5v148q0 196 6 206zM170 708q5 12 14 12q23 0 29 -90q3 -64 11 -68t48 -4q39 0 54.5 -5.5t15.5 -19.5q0 -31 -51 -31q-17 0 -27 1l-48 4v-43q0 -34 8 -170.5t13 -183.5q2 -20 2 -25
q0 -15 -8 -28q-10 -15 -26 -15q-11 0 -17 8q-6 7 -15 113t-13 231l-4 105q-17 0 -52 1.5t-53 2.5l-2 18q-1 18 11 24.5t53 11.5l42 4l4 67q4 65 11 80z" />
    <glyph glyph-name="f_i.liga" unicode="fi" horiz-adv-x="658" 
d="M317 787q20 5 38 5q34 0 74 -17q47 -20 47 -52q0 -24 -16 -24q-11 0 -33 14q-18 12 -29 15t-35 3q-41 0 -57 -8q-32 -14 -56.5 -52.5t-31.5 -87.5l-4 -25h88q60 0 74.5 -1.5t19.5 -9.5q3 -6 3 -12q0 -15 -14 -23q-6 -4 -40.5 -7t-72.5 -5.5t-44 -3.5l-19 -3l3 -73
q6 -123 48 -286q20 -80 20 -102q0 -16 -7 -23t-19 -7t-19 7q-7 8 -31 107t-34 158q-13 88 -16 146l-3 73q-16 0 -50 1.5t-50 2.5l-2 18v6q0 15 11 20t48 9q45 4 47 10q2 5 11 50q17 77 53.5 119.5t97.5 57.5zM540 708q11 11 26 11q17 0 30.5 -12.5t13.5 -30.5
q0 -21 -13.5 -35t-30.5 -14q-18 0 -28 18q-9 16 -9 34t11 29zM542 542q8 4 11 3.5t13 -7.5q8 -6 11 -30.5t5 -115.5q8 -241 22 -314q6 -33 6 -51q0 -26 -14 -34q-8 -6 -16 -6q-20 0 -25 23q-10 40 -21 181t-11 225q0 113 19 126z" />
    <glyph glyph-name="i_o_n.liga" unicode="ion" horiz-adv-x="1395" 
d="M65 756q10 10 25 10q18 0 33 -13.5t15 -33.5q0 -18 -12.5 -38t-26.5 -25q-13 -5 -18 -5q-8 0 -22 14t-14 39q0 32 20 52zM570 507q-37 39 -40 39q-13 0 -42 -9t-42 -16q-34 -17 -61 -58.5t-42 -98.5q-14 -54 -14 -94q0 -101 79 -139q34 -16 95 -18q5 0 13.5 -0.5
t12.5 -0.5q46 0 74 9.5t52 32.5t34 43t14 49q2 16 2 24q0 83 -70 164q-5 6 -29.5 33.5t-35.5 39.5zM474 590q31 7 55 7q28 0 54 -13q23 -11 49.5 -38.5t26.5 -40.5q0 -10 29 -44q53 -61 69 -134q5 -20 5 -50q0 -89 -46 -145q-18 -21 -51.5 -41.5t-60.5 -27.5q-34 -9 -79 -9
q-93 0 -149 29q-105 53 -105 191q0 67 29 148q51 140 174 168zM1134 592q16 6 33 6q45 0 79 -40q33 -39 54.5 -128t38.5 -254q8 -76 8 -118q0 -38 -11 -48q-11 -11 -25 -4q-13 6 -17 27t-13 122q-33 384 -115 384q-10 0 -19 -5q-25 -14 -52.5 -47.5t-48.5 -76.5
q-31 -62 -42 -113.5t-13 -140.5q-2 -75 -7.5 -94.5t-22.5 -19.5q-20 0 -25.5 31t-11.5 184q-6 135 -6 203q0 66 6 92t21 28q1 0 3 0.5t3 0.5q11 0 15 -18.5t6 -78.5l2 -86l20 39q25 53 65 97t75 58zM68 542q7 10 18 10q13 0 20 -13q8 -13 8 -256q-1 -195 -5 -232.5
t-24 -37.5q-17 0 -23 23.5t-8 101.5q-1 28 -1 94q0 106 4.5 204.5t10.5 105.5z" />
    <glyph glyph-name="s_p.liga" unicode="sp" horiz-adv-x="1056" 
d="M184 584q25 6 71 6q51 0 73 -7q25 -7 40 -20.5t15 -27.5q0 -21 -20 -21q-12 0 -27 7q-26 12 -77 12q-44 0 -76 -10q-22 -7 -50.5 -31.5t-28.5 -35.5q0 -28 82 -91q142 -109 188 -163q62 -74 62 -129q0 -19 -3.5 -27.5t-15.5 -21.5q-45 -48 -157 -48q-74 0 -134 26
q-33 15 -56.5 40t-23.5 45q0 33 20 33q16 0 30 -23q33 -50 131 -60q30 -2 41 -2q108 0 108 45q0 64 -185 205q-80 61 -112.5 98t-32.5 69q0 17 8 36q12 30 50.5 58t79.5 38zM826 479q-23 12 -36.5 15.5t-40.5 3.5q-51 0 -129 -32q-6 -2 -7.5 -19t-1.5 -79v-76l2 -169l23 -11
q27 -12 56 -14q2 0 8 -0.5t8 -0.5q64 0 131 38.5t93 90.5q16 31 16 72q0 40 -16 71q-16 32 -46 62.5t-60 47.5zM643 530q51 24 98 24q3 0 11 -0.5t13 -0.5q48 -2 82 -18.5t77 -59.5q70 -73 82 -149q2 -10 2 -30q0 -85 -67.5 -155.5t-171.5 -93.5q-37 -7 -58 -7q-37 0 -72 13
l-24 9l3 -81q4 -84 7 -114q2 -18 2 -23q0 -16 -9 -26q-13 -14 -27 -10q-15 4 -19 14q-6 16 -11 179.5t-5 323.5q0 177 6 198q8 26 27 26q17 0 20 -21q1 -9 5 -9q2 0 29 11z" />
    <glyph glyph-name="c_o_n.liga" unicode="con" horiz-adv-x="1659" 
d="M254 573q30 5 38 5t35 -5q58 -12 58 -46q0 -26 -20 -26q-10 0 -23 8q-20 13 -46 13q-43 0 -87.5 -33t-69.5 -86q-32 -67 -32 -139q0 -80 41 -121q25 -25 81.5 -41t119.5 -16q19 0 28 1q10 1 26 1q21 0 28 -5t7 -19q0 -13 -10.5 -19.5t-39.5 -11.5q-16 -3 -40 -3
q-88 0 -151 20q-150 46 -150 212q1 112 61.5 203t145.5 108zM867 465q-54 12 -97 12q-28 0 -45 -6q-49 -18 -79.5 -70.5t-30.5 -116.5q0 -20 3 -39q28 -165 143 -165q11 0 17 1q60 6 110 56t68 122q8 35 8 73q0 57 -14 83q-10 21 -27 31t-56 19zM737 533q27 5 43 5
q27 0 81 -12q92 -19 125.5 -59t34.5 -129q0 -151 -87 -238q-79 -79 -171 -79q-3 0 -8.5 0.5t-8.5 0.5q-103 7 -151 102q-38 76 -38 157q0 94 49 164.5t131 87.5zM1175 508q7 13 22 13q14 0 20 -16.5t6 -57.5v-44l22 31q59 83 132 83q64 0 124 -63q37 -39 57 -91.5t37 -155.5
q16 -106 16 -159q0 -29 -5 -36q-8 -9 -19 -9q-15 0 -24 14q-8 15 -17 103q-14 125 -32 189t-51 101q-25 28 -43 37.5t-46 9.5q-25 0 -42.5 -12t-39.5 -44q-29 -42 -45 -108t-27 -188q-7 -88 -11 -95q-5 -7 -22 -7q-14 0 -23 6q-8 5 -8 73q0 50 1 88q5 315 18 338z" />
    <glyph glyph-name="c_k.liga" unicode="ck" horiz-adv-x="987" 
d="M572 761q11 16 24 16q7 0 13 -7q6 -9 10 -142q3 -98 8 -207l3 -74l48 45q34 32 85 67t72 41q14 4 27 -8q9 -8 9 -15q0 -18 -59 -54q-42 -26 -84 -63t-62 -66l-17 -25l26 -22q44 -39 202 -150q39 -27 49.5 -37t10.5 -20q0 -31 -24 -31q-23 0 -204 138l-81 60v-92
q0 -75 -4 -90.5t-25 -15.5q-15 0 -22 17q-7 20 -10 286q-5 292 -5 342q0 91 10 107zM246 585q31 11 61 11q41 0 70 -18t29 -45v-5q-2 -18 -16 -18q-12 0 -26 15q-9 10 -15.5 13t-21.5 3h-11q-69 -1 -141 -72q-27 -26 -34.5 -39t-17.5 -49q-14 -49 -14 -111q0 -61 14 -95
q23 -62 52.5 -87.5t76.5 -25.5q3 0 9 0.5t9 0.5q38 3 80 26.5t55 49.5q6 13 22 13q26 0 26 -21q0 -27 -36 -61q-71 -69 -166 -69q-46 0 -81 19q-52 27 -87.5 99.5t-35.5 151.5q0 42 11.5 95.5t25.5 82.5q20 39 67.5 79.5t94.5 56.5z" />
    <glyph glyph-name="e_r_e.liga" unicode="ere" horiz-adv-x="1516" 
d="M1309 512q-17 9 -42 9q-63 0 -111 -37q-19 -16 -38 -42q-13 -20 -26.5 -50t-13.5 -40l1 -3q7 -7 65 -7q41 0 71 5q104 17 116 105q2 14 2 18q0 30 -24 42zM1196 569q27 10 68 10t66 -11q56 -26 60 -91v-13q0 -50 -25 -90.5t-68 -61.5q-61 -29 -142 -29q-41 0 -72 9l-14 4
l3 -43q7 -108 114 -162q86 -43 168 -43q31 0 43 2.5t26 12.5q18 12 25 12q6 0 8 -2q10 -6 10 -18q0 -14 -14 -30q-30 -32 -104 -32q-94 0 -190 47q-40 20 -77.5 57.5t-50.5 71.5q-17 43 -17 116q0 45 8 80q40 158 175 204zM376 492q-16 15 -51 16h-11q-52 0 -99 -32
q-35 -25 -64 -64.5t-36 -74.5q-2 -10 -2 -11q0 -8 19 -12q14 -2 39 -2q6 0 18.5 0.5t19.5 0.5q89 5 135.5 39t46.5 95q0 31 -15 45zM248 557q27 10 69 10q29 0 52 -6q21 -6 43 -25t29 -37q8 -19 8 -48q0 -31 -10 -63q-36 -109 -196 -129q-22 -2 -36 -2q-63 0 -92 12
q-8 2 -8 -3q-1 -4 2 -19q17 -104 102 -162q73 -48 180 -52q48 -2 58 -4.5t10 -13.5q0 -17 -24 -27t-61 -10q-21 0 -51 5q-175 30 -244 167q-31 61 -31 128q0 110 78 195q54 60 122 84zM629 546q7 17 19 14q28 -3 28 -63q0 -33 3 -36h1q5 0 27 27q28 34 61.5 50t83.5 17
q5 0 13.5 0.5t11.5 0.5q29 0 55 -13q17 -9 21.5 -14.5t4.5 -19.5q0 -12 -2 -15.5t-10 -3.5h-6q-15 0 -45 8q-15 4 -32 4q-36 0 -69 -16.5t-51 -44.5q-46 -69 -46 -202q0 -39 3 -87q4 -53 4 -83q0 -27 -6 -39q-9 -18 -26 -18q-16 0 -23 15q-8 17 -24 415q-1 16 -1 42
q0 49 5 62z" />
    <glyph glyph-name="o_r.liga" unicode="or" horiz-adv-x="1002" 
d="M323 486q-42 15 -93 15q-35 0 -48 -8q-33 -18 -53.5 -68t-20.5 -107q0 -42 12 -79q11 -34 35.5 -70t47.5 -52q25 -17 53 -17q48 0 95 42q31 28 52.5 93t21.5 122q0 40 -11 59q-22 43 -91 70zM147 555q7 7 55 7q55 0 100 -9q57 -13 102 -45t65 -73q16 -32 16 -66v-10
q-1 -68 -27.5 -144t-62.5 -113q-60 -60 -137 -60q-40 0 -70 17q-44 25 -78.5 74t-50.5 112q-11 39 -11 76q0 34 10 74q19 73 60 117q22 24 22 30t7 13zM622 511q8 9 16 9q24 0 26 -57q1 -46 8 -46q5 0 22 20q40 47 123 64q31 6 59 6q34 0 56 -8.5t22 -23.5
q0 -14 -14.5 -19.5t-58.5 -6.5q-70 -2 -106 -21.5t-58 -65.5q-29 -59 -29 -136q0 -12 2 -50q4 -80 4 -85q0 -29 -8 -39q-6 -8 -20 -8q-18 0 -29 12q-7 7 -9.5 32.5t-6.5 114.5q-7 168 -7 219q0 79 8 89z" />
    <glyph glyph-name="t_e_r.liga" unicode="ter" horiz-adv-x="1480" 
d="M177 703q10 10 16 10q5 0 15 -7q10 -8 10 -50v-23l-2 -65l67 3q38 2 43 2q24 0 36 -9q10 -7 10.5 -11t-6.5 -14q-7 -11 -22 -14.5t-82 -10.5q-40 -4 -42 -9v-2q0 -2 -0.5 -5t-0.5 -7q0 -140 16 -358q3 -45 3 -64q0 -26 -7 -36q-9 -14 -24 -14q-13 0 -19 12
q-12 21 -24 305l-7 159l-45 -4q-22 -2 -29 -2q-34 0 -34 22q0 25 64 36l43 8l1 21q6 83 9 101t11 26zM829 508q-30 15 -68 15q-62 0 -124.5 -34.5t-91.5 -87.5q-12 -24 -12 -28q0 -10 39 -18q80 -16 141 -16q116 0 153 43q17 20 17 36q0 2 -0.5 7t-0.5 8q-2 28 -14 44.5
t-39 30.5zM684 572q28 8 66 8q81 0 129 -34q62 -46 62 -118q0 -37 -19.5 -69t-55.5 -50q-34 -18 -110 -26q-7 -1 -25 -1q-46 0 -110 9.5t-95 21.5h-2q-7 0 -7 -16q0 -40 24 -90q32 -66 100 -106.5t155 -46.5q42 -2 49.5 -5t7.5 -18q0 -32 -62 -32q-72 0 -161 43
q-79 38 -124 109t-45 152q0 75 40 139q29 44 79 79.5t104 50.5zM1075 539q5 13 22 13q11 0 17 -8q7 -8 14 -61q5 -53 11 -53q5 0 5 6q0 10 34.5 42t56.5 43q33 16 85 16q53 0 81 -14q18 -9 24 -15t7 -17v-5q0 -17 -20 -17q-13 0 -43 6q-28 5 -48 5q-65 0 -100 -39
q-38 -39 -61 -109q-10 -30 -10 -57q0 -14 5 -109q4 -61 4 -101q0 -32 -4.5 -44.5t-16.5 -18.5q-6 -3 -11 -3q-20 0 -33 29q-16 38 -16 143q0 38 3 74q3 40 3 72q0 31 -5 108q-5 65 -5 95q0 16 1 19z" />
    <glyph glyph-name="f_f.liga" unicode="ff" horiz-adv-x="917" 
d="M727 795q8 2 24 2q41 0 78.5 -19.5t37.5 -43.5q0 -12 -6.5 -19.5t-15.5 -7.5q-10 0 -17 10q-6 10 -27 17t-43 7q-11 0 -16 -1q-52 -8 -75 -62q-11 -25 -14 -98l-3 -71l85 1h22q50 0 65 -4.5t15 -19.5q0 -16 -18 -21.5t-80 -7.5q-81 -4 -85 -8q-1 0 -1 -12q0 -42 12 -200
q16 -198 16 -225q0 -22 -11 -33q-12 -12 -26 -6q-11 5 -15 17q-5 20 -22 240q-17 214 -19 217q-1 1 -8 1q-8 0 -58 -4q-28 -3 -45 -3q-21 0 -28 5.5t-7 19.5q0 16 15 22t65 12l63 7l1 28q3 56 10 96t22 76t42 58t67 30zM317 783q9 2 26 2q26 0 68 -12q47 -14 47 -37v-6
t-1.5 -3.5t-4.5 -3t-9 -0.5q-7 0 -74 5q-10 1 -27 1q-29 0 -43.5 -9.5t-27.5 -36.5q-10 -20 -18.5 -52.5t-8.5 -49.5q0 -8 90 -8q91 0 104 -5q18 -8 18 -20q0 -7 -8 -17q-7 -10 -22 -11.5t-89 -3.5l-100 -2l3 -108q2 -69 12.5 -195t12.5 -168q2 -36 2 -43q0 -27 -6 -35
t-23 -8q-16 0 -21.5 15t-9.5 70q0 2 -11 154t-13 215l-4 97l-60 -3q-38 -2 -41 -2q-13 0 -17 2t-8 10q-4 10 -4 14q0 14 12 24.5t28 10.5q7 0 10 -1t13 -1q11 0 35 2l38 4l6 42q24 158 126 173z" />
    <glyph glyph-name="o_n.liga" unicode="on" horiz-adv-x="1186" 
d="M259 505q-14 -3 -23 4q-1 1 -5 1q-11 0 -33 -15t-38 -33q-50 -58 -50 -148q0 -40 12 -78q21 -65 61 -101.5t87 -36.5q49 0 90 40q64 61 64 199q0 68 -23.5 101.5t-88.5 56.5q-27 11 -47 11q-1 0 -3 -0.5t-3 -0.5zM223 569q27 9 44 9q16 0 29 -7q4 -2 61 -31
q43 -21 67 -41.5t38 -49.5q24 -49 24 -114q0 -33 -6 -67q-26 -157 -135 -212q-32 -16 -77 -16q-42 0 -72 15q-52 26 -89.5 80.5t-52.5 126.5q-6 29 -6 55q0 57 29 120q25 52 59 83t87 49zM855 530q23 6 48 6q68 0 115 -34t80 -134.5t39 -227.5q2 -48 2 -58q0 -58 -20 -68
q-16 -6 -26 4q-12 11 -12 62q0 90 -16.5 178.5t-44.5 144.5q-20 41 -44.5 57t-67.5 16h-6q-29 0 -47 -7.5t-37 -27.5q-29 -30 -51 -108t-30 -178q-6 -72 -11 -88.5t-22 -16.5q-25 0 -29 27.5t-4 187.5q0 185 5 222q6 37 27 37q6 0 12 -3q7 -4 9 -14t2 -46v-53l15 26
q45 77 114 96z" />
    <glyph glyph-name="S_h.liga" unicode="Sh" horiz-adv-x="1144" 
d="M657 774q5 15 21 15q13 0 16 -11q3 -9 3 -272v-76q0 -190 3 -194q0 -1 1 -1q6 0 20 38q21 58 51 92.5t80 57.5q37 18 74 18h4q74 0 111.5 -62t51.5 -209q4 -35 4 -72q0 -72 -17 -89q-11 -11 -16 -11q-4 0 -14 7q-11 8 -13 92q-5 208 -57 265q-12 13 -19 17t-23 4h-9
q-49 -1 -90.5 -34.5t-61.5 -88.5q-16 -43 -40 -149q-18 -80 -28.5 -105t-26.5 -25h-4q-17 2 -22.5 33t-10.5 147q-5 148 -5 268q0 300 17 345zM173 759q35 5 66 5q60 0 165 -20q41 -8 56 -16.5t15 -22.5q0 -12 -5.5 -16.5t-22.5 -4.5q-23 0 -78 9q-75 11 -132 11
q-67 0 -89 -12q-44 -22 -44 -84q0 -49 20 -80.5t65 -54.5q73 -37 144 -98t126 -136q57 -77 57 -135q0 -51 -43 -88q-51 -45 -126 -45q-102 0 -183 76q-27 25 -61 68t-34 52q0 8 7.5 15.5t14.5 7.5q8 0 65 -57q47 -48 76 -67.5t69 -30.5q23 -6 45 -6q47 0 80 22t33 55
q0 61 -124 187q-43 44 -73.5 67t-82.5 51q-57 31 -75.5 47.5t-35.5 49.5q-13 27 -16 41.5t-3 55.5q0 59 11 79q34 64 113 75z" />
    <glyph glyph-name="E_r.liga" unicode="Er" horiz-adv-x="962" 
d="M131 742q22 4 129 4h30q98 -1 118.5 -3t30.5 -12q13 -13 7 -23q-4 -7 -26 -9t-109 -4q-199 -5 -207 -22v-1v-5t-0.5 -6.5t-0.5 -9v-10.5q0 -22 2 -114l4 -143l126 3h56q59 0 76 -4t17 -18v-6q-1 -15 -16.5 -19t-69.5 -5q-9 0 -34.5 -1t-48.5 -1.5t-39 -1.5l-66 -4l4 -111
q3 -105 8 -132l3 -21l35 -3q7 -1 37 -1q53 0 118 3q60 3 93 3q40 0 54.5 -4.5t14.5 -17.5q0 -21 -59.5 -29.5t-201.5 -9.5h-23q-63 0 -89 5t-33 18q-8 15 -17 232t-9 359q0 83 4 88q7 9 33 20t49 16zM762 516q28 11 68 11q33 0 52 -8q33 -15 33 -43q0 -13 -10 -20
q-9 -7 -26 3q-18 10 -50 10q-33 0 -58 -11q-28 -13 -53.5 -39t-39.5 -57q-18 -36 -24.5 -63t-6.5 -75q0 -15 2 -71q2 -60 2 -71q0 -40 -5 -47q-8 -8 -21 -8q-18 0 -24 11q-7 13 -12 115t-5 207q0 122 7 139q4 10 19 10q25 0 25 -61v-33l30 33q43 47 97 68z" />
    <glyph glyph-name="a_n.liga" unicode="an" horiz-adv-x="1093" 
d="M294 493q0 12 -2.5 15t-13.5 3q-39 -2 -89 -52q-80 -79 -82 -223v-11q0 -42 6 -62q6 -16 20.5 -32t27.5 -20q2 -1 7 -1q29 0 56 41q19 29 27.5 63t19.5 115q5 43 12.5 90t10.5 74zM247 564q12 4 28 4q43 0 69 -29q10 -11 11 -81q1 -134 73 -296q25 -57 26 -71v-6
q0 -24 -21 -24q-6 0 -9 1q-9 2 -17 13t-21 40q-26 54 -42 102q-17 46 -22 46q-1 0 -1 -1q-2 -5 -10 -43q-16 -75 -55 -121.5t-86 -46.5q-11 0 -23 3q-46 13 -73.5 63t-27.5 119q0 23 5 55q17 103 70 177t126 96zM641 546q9 9 12.5 10t9.5 -6q10 -10 14 -55t5 -84t4 -39
q4 0 18 36q14 37 43.5 66.5t61.5 39.5q25 8 55 8q31 0 52 -10q29 -14 45.5 -37t30 -72.5t31.5 -154.5q22 -123 22 -160q0 -21 -5.5 -27.5t-19.5 -6.5q-27 0 -34 58q-6 50 -27 158.5t-29 134.5q-12 36 -24.5 46.5t-43.5 10.5q-45 0 -71.5 -22.5t-43.5 -75.5q-27 -79 -37 -200
q-7 -92 -10.5 -110.5t-15.5 -26.5q-10 -7 -14 -6.5t-14 6.5q-14 9 -17 48t-7 240l-4 218z" />
    <glyph glyph-name="O_n.liga" unicode="On" horiz-adv-x="1329" 
d="M348 684q-31 4 -48 4q-15 0 -30 -4q-49 -15 -92 -69t-62 -124q-10 -36 -10 -102q0 -58 9 -94q18 -68 57.5 -118.5t85.5 -65.5q27 -9 58 -9q54 0 103 24q58 28 102.5 84t57.5 118q4 20 4 52q0 67 -16 109q-28 78 -88 131t-131 64zM297 731q34 2 46 2q71 0 132 -39
q51 -33 90 -84t58 -109t19 -117q0 -138 -103 -241q-99 -99 -221 -99q-3 0 -9.5 0.5t-9.5 0.5q-87 4 -156 78q-95 101 -95 264q0 169 95 271q36 38 69 53.5t85 19.5zM1082 522q15 4 31 4q67 0 102 -69q20 -40 30 -98.5t23 -224.5q9 -115 12 -118q2 -2 -4 -13q-5 -12 -25 -12
q-14 0 -20 8q-13 14 -27 193q-10 123 -20 174t-30 79q-16 22 -42 22q-31 0 -70 -30.5t-75 -85.5q-43 -65 -61.5 -122t-25.5 -146q-6 -88 -16 -99q-7 -7 -17 -7q-15 0 -23 14q-5 10 -12 120t-10 236q-1 28 -1 69q0 57 5.5 73.5t21.5 18.5h3q12 0 16.5 -24.5t8.5 -106.5
l5 -103l22 43q91 178 199 205z" />
    <glyph glyph-name="t_i_o.liga" unicode="tio" horiz-adv-x="1297" 
d="M535 745q12 9 33 9q22 0 31 -9q10 -9 10 -33q0 -26 -11 -43q-20 -32 -53 -32q-24 0 -34 19q-6 12 -6 27q0 41 30 62zM192 697q6 11 23 11q12 0 16 -7q3 -7 7 -65l3 -58l76 -3q75 -4 82 -7q7 -4 7 -18q0 -16 -9 -20q-11 -5 -79 -9q-71 -4 -73 -6q-1 -4 -1 -9q0 -12 8 -176
q14 -237 14 -295q0 -40 -10 -50q-11 -11 -18 -11q-6 0 -16 10q-11 11 -15 88q-11 235 -12 256q-9 178 -11 182h-5q-17 0 -49 -3q-29 -3 -40 -3q-15 0 -25 7q-16 12 -16 24t13.5 20.5t35.5 8.5q32 0 58 3l30 4v57q0 57 6 69zM1065 488q-15 6 -36 6q-52 0 -89 -28
q-35 -25 -56 -80.5t-21 -117.5q0 -49 13 -88q13 -40 36 -65t53 -29q18 -2 27 -2q56 0 107 31t75 81q15 31 15 80q-1 73 -35.5 132.5t-88.5 79.5zM977 544q14 7 40 7q45 0 86 -18q62 -28 104.5 -104t42.5 -154q0 -20 -3 -38q-13 -80 -77 -139q-57 -53 -136 -70q-25 -5 -43 -5
q-83 0 -134.5 66.5t-51.5 178.5q0 135 76 217q28 30 54 41q31 12 42 18zM552 536q12 9 16 9q5 0 14 -6q7 -6 7 -27q0 -18 -3 -70q-3 -48 -3 -151q0 -67 1 -98t1 -85q0 -76 -3 -81q-6 -8 -26 -8h-6q-8 0 -12 4.5t-6.5 22t-3.5 48.5t-1 90v72q1 167 5.5 217t19.5 63z" />
    <glyph glyph-name="a_t_i_o.liga" unicode="atio" horiz-adv-x="1669" 
d="M970 723q18 20 28 20q17 0 30 -18t13 -38q0 -10 -2 -14q-13 -36 -48 -36q-17 0 -29 12t-12 32q0 22 20 42zM610 679q6 12 21 12q14 0 20 -11q5 -10 5 -85v-73l20 3q16 3 77 7q32 2 38 2q23 0 31 -5.5t8 -20.5q0 -25 -57 -26q-13 0 -67 -7l-41 -8l1 -77q2 -77 11 -171
q13 -121 13 -161q0 -26 -5.5 -32.5t-19.5 -6.5q-22 0 -30 53.5t-28 332.5l-4 48l-47 -3q-26 -2 -31 -2q-19 0 -27 8q-10 12 -10 18q0 10 10.5 17.5t23.5 8.5q6 0 46 7l31 7l2 77q2 77 9 88zM250 507q-7 16 -24 16q-11 0 -30 -8q-83 -35 -93 -203q-1 -11 -1 -33
q0 -130 55 -179q17 -16 31 -16q13 0 28 14q52 43 52 269q0 94 -18 140zM160 554q30 15 63 15q22 0 38 -8q9 -5 27 -11q9 -3 17 -22q7 -18 57.5 -262t50.5 -261q0 -11 -7 -18t-18 -7q-8 0 -15 4q-18 10 -38 125q-12 62 -14 69q-3 7 -4 7q-3 0 -20 -55q-24 -83 -87 -99
q-18 -4 -26 -4q-36 0 -76 41q-19 19 -27.5 34t-18.5 46q-11 33 -13.5 53.5t-2.5 75.5q1 221 114 277zM1465 505q-19 11 -29 11q-5 0 -32 -5q-61 -12 -101.5 -59t-51.5 -121q-3 -18 -3 -37q0 -64 24.5 -128t56.5 -80q18 -9 37 -9q53 0 108 53.5t77 131.5q9 28 9 84
q0 35 -3 48t-14 33q-31 52 -78 78zM1377 561q28 7 66 7q34 0 50 -5q17 -4 31 -17.5t45 -52.5q34 -44 46 -89q7 -25 7 -57q0 -112 -74.5 -217.5t-178.5 -109.5q-5 0 -12 -0.5t-10 -0.5q-24 0 -51 19q-74 50 -99 187q-6 35 -6 67q0 100 50.5 174.5t135.5 94.5zM965 528
q5 7 21 7q18 0 21 -7q5 -7 9 -103q3 -88 15 -228q7 -78 7 -110q0 -23 -5 -30q-7 -9 -21 -9t-20 9q-9 11 -20 165t-11 251q0 50 4 55z" />
    <glyph glyph-name="S_t.liga" unicode="St" horiz-adv-x="907" 
d="M171 749q30 11 84 11q88 0 183 -29q47 -15 47 -29q0 -5 -5 -10q-6 -6 -16 -6q-13 0 -70 10q-81 13 -126 13q-79 0 -117 -34l-24 -21l2 -49q2 -45 14.5 -80.5t43.5 -80.5q31 -46 132 -132q110 -95 140 -131.5t30 -73.5q0 -34 -31 -61t-86 -40q-43 -10 -78 -10
q-106 0 -184 69q-28 25 -45 51.5t-17 44.5t17 19h5q13 0 32 -27q40 -53 106 -83q27 -13 88 -13q62 0 91 14q47 20 47 38q0 5 -3 11q-15 34 -149 148q-93 80 -128 122t-60 106q-26 66 -26 116q0 103 103 137zM676 684q8 13 24 12l16 -2q0 -28 -2 -83.5t-2 -82.5l64 4
q15 1 38 1q26 0 35 -5t9 -17q0 -13 -13.5 -18.5t-53.5 -10.5q-8 -1 -19.5 -2t-16.5 -1.5t-12.5 -1.5t-10 -2.5t-7 -3t-5.5 -4t-3.5 -5t-2.5 -7.5t-0.5 -10t-0.5 -12v-36q0 -75 9 -205q7 -109 7 -114q0 -21 -7 -33q-10 -14 -23 -14q-12 0 -21.5 11t-9.5 28q0 2 0.5 4t0.5 4
l1 5v8q0 33 -7 119q-8 124 -8 162q0 52 -3 70l-4 21l-44 -3q-4 0 -11 -0.5t-10 -0.5q-27 0 -38 7t-11 23t13.5 22t48.5 6q42 0 50.5 6t8.5 34q0 35 6.5 75t14.5 52z" />
    <glyph glyph-name="S_c_h.liga" unicode="Sch" horiz-adv-x="1695" 
d="M1174 778q9 11 19 9q15 -3 20 -36t9 -147q5 -136 10 -184l4 -35l17 33q45 89 147 109q16 3 33 3q53 0 89 -45t69 -150q24 -76 39.5 -160t15.5 -133q0 -19 -3 -31q-4 -15 -7.5 -19t-14.5 -5h-6q-26 0 -26 50q0 113 -60 298q-26 79 -46.5 107.5t-53.5 28.5h-2
q-26 -1 -57.5 -14.5t-45.5 -29.5q-31 -37 -52 -128.5t-21 -190.5q0 -42 -7 -58.5t-24 -16.5q-11 0 -16.5 4t-9.5 21.5t-5.5 44.5t-3.5 81q-2 55 -11.5 233t-9.5 257q0 93 10 104zM189 753q36 12 112 12q65 0 119 -9q52 -9 68.5 -16t17.5 -23l2 -16l-51 4q-70 5 -142 5
q-61 0 -80 -2t-39 -11q-28 -13 -46 -31q-13 -14 -13 -25q0 -8 1 -14q4 -21 23.5 -55.5t39.5 -55.5q16 -16 106 -78q88 -60 137 -108.5t74 -99.5q30 -61 30 -109q0 -47 -28 -78q-45 -50 -132 -50q-26 0 -49 4q-100 18 -195.5 74.5t-95.5 98.5q0 19 12 19q14 0 43 -23
q63 -50 146.5 -82t145.5 -32q22 0 37 4q59 16 59 64q0 15 -4 31q-16 63 -64.5 116.5t-152.5 124.5q-74 50 -111 86.5t-59 80.5t-22 81q0 26 12 44q32 48 99 69zM841 562q25 5 51 5q42 0 72.5 -10.5t30.5 -29.5q0 -11 -10.5 -13t-58.5 -2q-47 0 -62.5 -2.5t-37.5 -13.5
q-29 -14 -47 -33t-34 -55q-25 -53 -25 -108q0 -75 47 -137q25 -33 70 -53t90 -20q33 0 59 12q18 9 25 18t16 36q3 9 13 9q16 0 25 -17q5 -10 5 -19q0 -21 -23 -47q-44 -50 -122 -50q-62 0 -128 33q-67 34 -107 116q-15 30 -19.5 46t-5.5 52q0 4 -0.5 12t-0.5 11q0 72 33 138
q50 99 144 122z" />
    <glyph glyph-name=".notdef" horiz-adv-x="364" 
d="M33 0v666h265v-666h-265zM66 33h199v600h-199v-600z" />
    <glyph glyph-name=".null" 
 />
    <glyph glyph-name=".null" 
 />
    <glyph glyph-name="nonmarkingreturn" horiz-adv-x="333" 
 />
    <glyph glyph-name="CR" unicode="&#xd;" 
 />
    <glyph glyph-name="space" unicode=" " 
 />
    <glyph glyph-name="exclam" unicode="!" horiz-adv-x="224" 
d="M67 892q8 14 21 14q14 0 20 -16t6 -100q0 -66 12 -284q12 -192 12 -236q0 -41 -10 -53q-8 -10 -20 -10q-17 0 -24 26t-11 114q-1 18 -5.5 108.5t-6.5 130.5q-5 92 -5 158q0 129 11 148zM87 143q19 11 33 11q19 0 36 -16q18 -15 18 -33q0 -32 -23 -54.5t-52 -22.5
q-21 0 -35 13q-17 15 -17 38q0 38 40 64z" />
    <glyph glyph-name="quotedbl" unicode="&#x22;" horiz-adv-x="352" 
d="M65 727q18 15 28 15q9 0 19 -13t10 -105t-6 -104q-6 -11 -22 -11q-17 0 -25 13q-7 15 -14.5 61.5t-8.5 83.5q0 33 2.5 41t16.5 19zM241 716q9 7 28 7h4q18 -2 25 -11t7 -33q0 -17 -3 -42q-6 -60 -6 -87q0 -57 -31 -57h-3q-20 2 -26.5 26t-6.5 100q0 60 2 75.5t10 21.5z
" />
    <glyph glyph-name="numbersign" unicode="#" horiz-adv-x="620" 
d="M385 479q0 9 -10.5 11t-64.5 2q-50 0 -63 -1.5t-15 -8.5q-6 -24 -15 -75t-9 -63q0 -9 78 -9h74l12 66q13 67 13 78zM229 749q4 10 17 10q9 0 16 -7t7 -26q0 -24 -12 -96q-9 -63 -9 -75q0 -5 77 -7l73 -1l16 79q17 80 25 100q6 13 9.5 17t10.5 4h6q10 -1 14 -6.5t4 -19.5
q0 -23 -13 -95q-12 -67 -12 -80q0 -4 52 -8q43 -4 52 -8t9 -18q0 -15 -15.5 -20.5t-58.5 -5.5h-51l-13 -69q-12 -65 -12 -76q0 -8 2.5 -10t9.5 -2q15 0 64 -7q71 -10 71 -29q0 -5 -3 -11q-3 -7 -9 -9t-26 -2q-26 0 -47 1l-76 2l-11 -47q-63 -270 -74 -283q-7 -10 -18 -10
q-12 0 -21 14q-5 7 -5 15q0 14 32 150q33 135 33 159q0 7 -15 9t-63 2h-75l-19 -74q-33 -137 -60 -204q-5 -14 -24 -14q-15 0 -22 10q-4 4 -4 14q0 22 35 140q24 77 30 109q0 2 0.5 4t1 3t0.5 2.5v2.5q0 7 -21 7t-41 6q-11 4 -14.5 8t-3.5 15q0 17 13 23t47 6h37l13 62
q3 14 7 32t6 29.5t3 13.5q0 1 0.5 2.5t0.5 2.5q0 9 -29 12q-30 4 -40.5 10t-10.5 19q0 14 13 20t44 6q36 0 36 3q0 10 19 100t22 96z" />
    <glyph glyph-name="dollar" unicode="$" horiz-adv-x="510" 
d="M387 280q-13 28 -50 67l-34 37l4 -113q4 -119 5 -121q1 -4 10 -4q17 0 44 13q36 16 36 63q0 28 -15 58zM247 619q2 60 2 63q0 25 -5 25q-11 0 -31 -16t-29 -32q-8 -16 -8 -24q0 -3 4 -19q5 -15 30 -51.5t31 -36.5h1q1 1 5 91zM269 844q8 8 17 8q11 0 17 -8q7 -11 10 -44
q2 -23 5 -29t11 -6q13 0 25 -9t12 -20q0 -9 -5.5 -11.5t-23.5 -4.5l-26 -2q-2 -42 -4.5 -125.5t-3.5 -125.5l48 -50q60 -62 85 -107t25 -90q0 -49 -32 -84.5t-86 -45.5l-36 -7l4 -53q1 -11 1 -28q0 -29 -6.5 -41t-21.5 -14h-5q-16 0 -22 18.5t-6 67.5v61l-29 10
q-59 20 -136 94q-25 24 -32 33.5t-7 20.5q0 1 0.5 4t0.5 5q1 16 4 20t14 6q16 3 24 -14q11 -20 71 -66.5t76 -46.5q8 0 8 141v140l-47 49q-81 87 -81 141q1 38 33 75.5t75 50.5l30 10l4 35q4 33 10 42z" />
    <glyph glyph-name="percent" unicode="%" horiz-adv-x="721" 
d="M497 792q14 18 27 18h3q18 -2 18 -16q0 -16 -27 -63q-58 -101 -175 -346.5t-125 -283.5q-8 -33 -33 -33q-11 0 -20 9t-9 20q0 24 60 154q85 183 167 340.5t114 200.5zM172 660q-19 11 -27 11q-17 0 -31 -47q-14 -41 -14 -97q0 -51 13 -68q13 -16 28 -18h5q28 0 48 34.5
t20 84.5q0 74 -42 100zM79 669q12 55 66 55q53 0 88.5 -47t35.5 -112q0 -17 -3 -37q-11 -66 -44 -104.5t-76 -38.5q-14 0 -21 2q-39 9 -64 55q-13 25 -13 81q0 59 14 94q14 37 17 52zM581 375q-16 18 -26 18q-16 0 -32.5 -51t-16.5 -99q0 -14 1 -20q2 -27 8 -42t21 -30
q11 -13 21 -13q11 0 26 17q31 37 31 110q0 74 -33 110zM518 437q16 13 35 13t42 -13q35 -21 56.5 -67.5t21.5 -101.5q0 -22 -5 -49q-12 -64 -41 -100.5t-67 -36.5q-15 0 -34 8q-75 34 -75 153q0 55 20 113t47 81z" />
    <glyph glyph-name="ampersand" unicode="&#x26;" horiz-adv-x="695" 
d="M272 351q-27 36 -29 36q-3 0 -40 -51.5t-52 -76.5q-45 -73 -45 -118q0 -37 37 -60.5t90 -23.5q31 0 63 9q71 22 133 75l23 19l-76 77q-74 74 -104 114zM292 772q-32 16 -88 16q-16 0 -22 -3q-35 -14 -35 -54q0 -25 12 -62q9 -29 41 -94t43 -77q2 -2 4 -2q7 0 33 34
q36 49 50.5 81.5t14.5 65.5q0 68 -53 95zM185 835q9 2 29 2q70 0 107 -24q41 -25 62 -67q18 -35 18 -70q0 -77 -113 -231q-2 -4 -2 -7q0 -10 38 -62q32 -43 94 -109t70 -66q11 0 51.5 71t54.5 116q12 34 31 34q1 0 3 -0.5t3 -0.5q15 -1 15 -28q0 -20 -34 -92
q-39 -77 -59 -107l-24 -34l28 -29q29 -29 45 -38t16 -20q0 -15 -21 -16h-3q-18 0 -55 30q-40 33 -47 33q-5 0 -20 -15q-31 -34 -108 -74q-64 -32 -132 -32q-77 0 -130.5 39.5t-53.5 103.5q0 81 122 245l41 54l-21 36q-56 97 -82 172q-11 37 -11 78q0 46 14 66q24 33 74 42z
" />
    <glyph glyph-name="quotesingle" unicode="'" horiz-adv-x="178" 
d="M53 733q10 15 35 15q24 0 36 -12q7 -8 7 -25q0 -22 -4 -66q-8 -99 -13.5 -117.5t-24.5 -18.5q-15 0 -20.5 12.5t-10.5 57.5q-12 96 -12 121q0 21 7 33z" />
    <glyph glyph-name="parenleft" unicode="(" horiz-adv-x="281" 
d="M166 758q22 24 39 24q13 0 13 -10q0 -14 -32 -78q-82 -164 -82 -356q0 -6 0.5 -20t0.5 -21q3 -93 18 -152q24 -101 85 -232q22 -47 22 -65q0 -16 -19 -16q-11 0 -18 6.5t-21 31.5q-39 66 -72.5 155t-45.5 156q-8 43 -8 135q0 93 8 144q14 95 45 176.5t67 121.5z" />
    <glyph glyph-name="parenright" unicode=")" horiz-adv-x="258" 
d="M49 751q0 9 3 11.5t12 2.5q13 0 39 -31.5t45 -70.5q63 -132 63 -328q0 -158 -43 -305q-19 -64 -40.5 -100t-41.5 -36h-2q-20 3 -20 17q0 15 16 51q32 69 53 177t21 201q0 176 -74 330q-31 66 -31 81z" />
    <glyph glyph-name="asterisk" unicode="*" horiz-adv-x="537" 
d="M206 781q5 7 18 7q14 0 20 -8q8 -9 11 -49q4 -41 8 -41t44 40q43 46 62 46q5 0 12 -5q8 -6 8 -14q0 -14 -33 -51q-65 -73 -65 -82q0 -1 43 -3t86.5 -4t44.5 -2q24 -6 24 -24q0 -5 -3 -10q-4 -7 -22 -10t-73 -5q-92 -4 -92 -6t60 -84t60 -104q0 -14 -8 -20q-5 -5 -13 -5
q-19 0 -60 61q-37 58 -41 58q-3 0 -3 -27q0 -21 1 -33q2 -40 2 -44q0 -21 -8 -29q-10 -10 -20 -10q-13 0 -21.5 15t-8.5 40q0 31 -6.5 75.5t-10.5 44.5q-6 0 -30 -45q-24 -46 -30 -50q-8 -5 -17 -5q-15 0 -23 15q-3 6 -3 11q0 12 26 63q28 54 28 61h-5q-15 0 -45 -3
q-26 -2 -33 -2q-23 0 -32.5 7t-9.5 23q0 13 13.5 18.5t55.5 10.5q52 6 52 9q0 5 -21 30q-55 67 -55 91q0 10 9 13h2q12 0 54 -42l46 -45l-1 58v17q0 43 3 48z" />
    <glyph glyph-name="plus" unicode="+" horiz-adv-x="606" 
d="M256 623q5 14 21 14q13 0 20 -9q6 -7 12 -114q5 -105 8 -113t88 -9q78 0 118 -7q21 -5 27 -8.5t7 -13.5v-5q0 -13 -15.5 -18t-64.5 -5q-7 0 -23 0.5t-25 0.5l-106 2l2 -95q0 -9 0.5 -24t0.5 -20q0 -44 -5.5 -56t-24.5 -12q-34 0 -34 62v6v27v61v48h-98q-68 0 -84.5 2
t-24.5 10q-11 11 -4 25q4 9 12 12t34 5q44 4 100 4h61l-4 108q-1 22 -1 61q0 54 3 61z" />
    <glyph glyph-name="comma" unicode="," horiz-adv-x="227" 
d="M138 127q3 10 18 10q12 0 19 -7q6 -6 6 -20q0 -39 -51 -160q-18 -43 -30 -58.5t-29 -15.5q-25 0 -25 15q0 14 21 59q49 102 71 177z" />
    <glyph glyph-name="hyphen" unicode="-" horiz-adv-x="389" 
d="M58 372q15 10 80 10q49 0 115 -6q53 -5 71 -10.5t18 -18.5t-16 -18t-67 -5q-41 0 -68 1q-127 4 -135 7q-10 4 -10 17q0 15 12 23z" />
    <glyph glyph-name="period" unicode="." horiz-adv-x="210" 
d="M67 123q13 14 41 14q29 0 41 -11t14 -39q0 -2 0.5 -6t0.5 -5q0 -31 -19.5 -49t-53.5 -18t-44 33q-2 8 -2 13q0 17 6.5 37.5t15.5 30.5z" />
    <glyph glyph-name="slash" unicode="/" horiz-adv-x="461" 
d="M345 703q33 45 47 45q6 0 13 -7q6 -6 6 -15q0 -17 -36 -74q-137 -218 -242 -506l-38 -105h-19q-28 0 -28 20q0 15 12 51q50 154 131 322.5t154 268.5z" />
    <glyph glyph-name="zero" unicode="0" horiz-adv-x="505" 
d="M291 667q-21 21 -34 25q-2 1 -6 1q-14 0 -35 -11t-33 -26q-32 -36 -55 -150.5t-23 -225.5q0 -37 3 -70q12 -124 50 -165q12 -14 20 -17.5t25 -3.5q46 1 97 47q53 47 80 123q18 50 18 130q0 93 -22 174q-12 45 -38.5 97t-46.5 72zM198 734q10 5 34 5q40 0 69 -15
q45 -23 90 -110q66 -130 66 -277q0 -51 -7 -96q-11 -69 -36 -118t-74 -94q-69 -65 -135 -65q-79 0 -121 89q-38 82 -38 223q0 98 20 213q37 202 132 245z" />
    <glyph glyph-name="one" unicode="1" horiz-adv-x="329" 
d="M144 713q30 30 45 30q19 0 25.5 -21.5t12.5 -100.5q8 -105 25 -275.5t22 -191.5q6 -26 6 -80q0 -44 -6.5 -61t-22.5 -17q-17 0 -22.5 23t-11.5 116q-7 119 -12 124q-4 4 -19.5 149.5t-17.5 195.5q-2 32 -7 32q-6 0 -43 -42q-35 -42 -50 -42q-6 0 -13 7q-6 6 -6 16
q0 37 95 138z" />
    <glyph glyph-name="two" unicode="2" horiz-adv-x="456" 
d="M132 697q0 21 42.5 36t89.5 15q27 0 45 -6q76 -25 76 -111q0 -61 -37 -153q-34 -85 -102.5 -225.5t-93.5 -175.5q-12 -18 -12 -22t56.5 -5.5t120 -4.5t75.5 -11q14 -8 14 -21t-14 -21q-10 -7 -50 -7q-31 0 -115 3q-101 2 -128 4.5t-37 10.5q-13 10 -13 22q0 17 28 49
q42 51 128.5 227.5t108.5 257.5q11 42 11 69q0 63 -65 63q-30 0 -69 -10q-24 -6 -37 -6q-22 0 -22 22z" />
    <glyph glyph-name="three" unicode="3" horiz-adv-x="514" 
d="M171 743q19 4 55 4q83 0 123 -15q29 -10 49 -29.5t24 -38.5q2 -14 2 -20q0 -33 -24 -65t-78 -75q-60 -47 -60 -50q0 -6 29 -11q77 -18 125.5 -72.5t48.5 -117.5q0 -33 -15 -65q-31 -60 -123 -106q-36 -17 -94 -34t-82 -17q-41 0 -71.5 20t-30.5 46q0 23 12 29q3 2 7 2
q7 0 21 -14q19 -21 33 -24q8 -2 16 -2q37 0 99.5 21t104.5 49q29 19 47 44.5t18 48.5q0 18 -13.5 48t-27.5 43q-24 22 -71.5 38t-87.5 16q-59 0 -59 32q0 13 23.5 34.5t89.5 68.5q42 30 70 59t33 46q1 3 1 7q0 22 -35 35t-95 13q-46 0 -77 -9q-22 -5 -32 -5q-22 0 -22 16
q0 5 3 14q8 25 64 36z" />
    <glyph glyph-name="four" unicode="4" horiz-adv-x="436" 
d="M350 746q6 8 17 8t18 -9q7 -8 7 -349q0 -394 -8 -404q-6 -8 -23 -8t-22 15q-6 16 -6 208v194l-127 -4q-64 -2 -77 -2q-47 0 -60 6t-19 25q-2 10 -2 28q0 55 11.5 150t21.5 121q8 18 22 18t19 -5.5t5 -25.5t-8 -90q-12 -98 -12 -136v-33h226v46q1 84 6 162t11 85z" />
    <glyph glyph-name="five" unicode="5" horiz-adv-x="468" 
d="M141 749q10 5 70 5q58 0 85 -5q41 -8 41 -26q0 -3 -3 -8q-6 -10 -91 -12q-85 -4 -91 -10q-5 -5 -8 -124q-2 -73 -6 -163l-3 -45l47 -1q103 -2 141 -17q45 -17 70.5 -47t25.5 -67q0 -38 -40.5 -88t-93.5 -76q-79 -40 -157 -40q-76 0 -79 38v5q0 24 17 24q6 0 13 -3
q16 -6 41 -6q49 0 106.5 21.5t88.5 52.5q46 48 46 74q0 20 -24.5 39t-58.5 25q-10 2 -102 4q-84 0 -92 6q-6 5 -6 72q0 13 2 131q5 201 11 212q4 11 26.5 19.5t23.5 9.5z" />
    <glyph glyph-name="six" unicode="6" horiz-adv-x="421" 
d="M247 319q-24 12 -43 12t-44 -11q-26 -11 -31 -11q-6 0 -18 -8q-7 -4 -7 -17q0 -11 3 -38q13 -91 56 -134q21 -20 48 -22h9q51 0 77 54q13 26 13 50q0 3 -0.5 10t-0.5 11q-4 74 -62 104zM257 753q28 17 50 17q20 0 20 -17q0 -11 -39 -39q-78 -57 -121 -144
q-18 -37 -38.5 -107.5t-20.5 -94.5v-12l32 15q33 16 68 16q81 0 131 -79q33 -50 33 -101q0 -21 -6 -44q-27 -106 -112 -130q-16 -5 -37 -5q-56 0 -105 55q-66 73 -66 216q0 147 71 292q59 119 140 162z" />
    <glyph glyph-name="seven" unicode="7" horiz-adv-x="508" 
d="M285 751q12 1 63 1h32q44 -1 54.5 -2.5t16.5 -8.5q8 -11 8 -22q0 -21 -25 -58q-42 -64 -155 -395q-72 -210 -83 -226q-12 -19 -27 -19q-11 0 -20 10q-8 10 -8 14t5 16l76 222q86 257 139 369q15 32 15 41q0 2 -18 2q-35 0 -91 -3q-94 -6 -142 -6q-46 0 -61.5 6t-15.5 22
t34 21.5t203 15.5z" />
    <glyph glyph-name="eight" unicode="8" horiz-adv-x="476" 
d="M278 341q-32 44 -45 57l-16 16l-22 -25q-25 -29 -44 -71t-22 -76q0 -4 -0.5 -9.5t-0.5 -7.5q0 -23 16 -56q25 -51 69.5 -89t79.5 -38q27 0 47.5 20t27.5 54q1 4 1 13q0 34 -25.5 93.5t-65.5 118.5zM241 714q-3 5 -20 5q-49 0 -83 -23q-32 -21 -33 -46q0 -39 73 -112
l39 -40l48 50q75 80 75 105v1l-1 2q-2 2 -49 29t-49 29zM136 757q24 9 69 9q44 0 74 -9q33 -11 65 -43q33 -35 38 -35q6 0 11 -16q3 -7 3 -17q0 -42 -90 -138l-47 -49l19 -22q46 -55 88.5 -130.5t55.5 -127.5q6 -23 6 -45q0 -61 -37.5 -105t-91.5 -44q-9 0 -14 1
q-43 5 -94.5 40t-78.5 78q-35 57 -35 128v18q2 57 20 93q18 37 48 77l29 39l-47 51q-79 85 -79 142q0 13 5 30q6 19 32.5 42.5t50.5 32.5z" />
    <glyph glyph-name="nine" unicode="9" horiz-adv-x="419" 
d="M305 639q-4 14 -9.5 17t-23.5 4h-7q-42 0 -84 -23.5t-59 -57.5q-14 -27 -14 -75q1 -64 25 -101t63 -37q14 0 31 6q18 7 39 27.5t32 42.5q13 25 13 72v30q0 77 -6 95zM251 714q35 5 46 5q18 0 36 -15q16 -14 22 -24t10.5 -44t5.5 -95t2 -177v-25q1 -97 1 -206
q0 -64 -2 -80t-8 -22q-11 -11 -19 -11q-7 0 -17 10t-12 164t-5 158h-1q-6 0 -32 -17q-44 -29 -86 -29q-51 0 -90 43q-54 59 -54 153q0 20 3 39q27 148 200 173z" />
    <glyph glyph-name="colon" unicode=":" horiz-adv-x="215" 
d="M93 559q16 10 34 10q30 0 39 -26q2 -8 2 -12q0 -24 -22 -53t-48 -37q-10 -3 -17 -3t-17 6q-18 12 -18 32q0 14 7 31q9 23 16 32.5t24 19.5zM65 148q9 10 26 10q18 0 37 -11q23 -14 23 -39q0 -5 -2 -25q-2 -23 -5.5 -28t-22.5 -13q-24 -10 -37 -10q-11 0 -22 8
q-12 8 -12 24q0 2 2 30q5 46 13 54z" />
    <glyph glyph-name="semicolon" unicode=";" horiz-adv-x="241" 
d="M108 551q12 6 25 6q24 0 42.5 -15.5t18.5 -36.5q0 -27 -17.5 -45.5t-40.5 -18.5q-20 0 -35 16q-14 14 -14 44q0 39 21 50zM135 125q7 9 18 9q12 0 21 -14q5 -8 5 -13q0 -9 -22 -57q-21 -47 -36 -89q-12 -38 -19 -49t-20 -13h-5q-28 0 -28 24q0 21 34.5 101.5t51.5 100.5z
" />
    <glyph glyph-name="less" unicode="&#x3c;" horiz-adv-x="548" 
d="M397 616q72 33 89 33q8 0 11 -7q2 -4 2 -7q0 -12 -22 -28t-80 -45q-99 -51 -185.5 -110t-86.5 -76q0 -12 156 -50q197 -49 197 -97q0 -22 -23 -22q-12 0 -28 8q-53 27 -168 56q-182 46 -200 65q-11 13 -11 26q0 25 47 69q97 92 302 185z" />
    <glyph glyph-name="equal" unicode="=" horiz-adv-x="549" 
d="M69 533q7 7 74 7q77 0 184 -5q140 -5 152 -12q11 -5 11 -18q0 -10 -8 -17q-6 -5 -133 -5q-254 0 -274 10q-13 8 -13 23q0 10 7 17zM52 330q6 7 49 7q7 0 103 -2q194 -6 245 -10t53 -12q2 -10 -15 -20q-12 -9 -107 -9h-104q-154 1 -190.5 5t-39.5 21q-2 12 6 20z" />
    <glyph glyph-name="greater" unicode="&#x3e;" horiz-adv-x="549" 
d="M56 617q2 1 7 1q18 0 75 -37q105 -67 231 -124q89 -40 110 -54t21 -34q0 -19 -25 -40t-106 -71q-65 -39 -158 -101q-78 -51 -90 -51t-19.5 8t-7.5 19q0 19 17 26q9 4 79 52q69 48 149 95q84 51 84 58q0 2 -124 66q-251 126 -251 171q0 14 8 16z" />
    <glyph glyph-name="question" unicode="?" horiz-adv-x="436" 
d="M165 755q18 3 40 3q62 0 104 -15q78 -30 78 -103q0 -60 -55 -112q-45 -43 -124 -83q-45 -23 -45 -24t10 -55q13 -62 13 -110q0 -28 -6 -36q-8 -9 -20 -9q-15 0 -21 10q-6 12 -15 77q-10 72 -17 96q-8 27 -8 39q0 15 13.5 26t56.5 32q69 34 95 55q64 49 64 93q0 17 -10 30
q-24 33 -110 33q-42 0 -78 -8q-35 -8 -55 -8q-17 0 -23 7q-4 5 -4 11q0 32 117 51zM152 129q9 3 18 3q24 0 43.5 -17t19.5 -40q0 -43 -39 -56q-11 -4 -23 -4q-44 0 -44 58q0 44 25 56z" />
    <glyph glyph-name="at" unicode="@" horiz-adv-x="818" 
d="M408 440q-3 34 -5 41t-10 7h-4q-91 -3 -120 -101q-6 -23 -6 -47q0 -34 10.5 -62.5t27.5 -38.5q9 -5 20 -5q35 0 61.5 53.5t26.5 125.5q0 18 -1 27zM452 764q-36 12 -72 12q-98 0 -173.5 -84t-97.5 -221q-4 -25 -4 -70q0 -97 16 -159q12 -45 35.5 -93.5t45.5 -70.5
q27 -28 53 -39t72 -13h17q74 0 142 43q50 31 50 38q0 4 -15 16q-38 32 -66 115q-9 30 -14 30t-14 -17q-45 -74 -104 -74q-10 0 -15 1q-27 4 -54 32q-44 44 -44 123v19q4 80 46 128t111 53q42 3 47 11q7 9 23 7q19 -2 26 -19.5t7 -62.5v-15q0 -54 17 -125.5t41 -121.5
q22 -43 43 -43q15 0 43 20q93 69 97 203q0 5 0.5 14t0.5 13q0 85 -41 163q-32 61 -92.5 112.5t-126.5 74.5zM319 826q30 9 61 9q67 0 149 -44q68 -36 128 -101.5t84 -130.5q29 -76 29 -162q0 -38 -8 -78q-10 -52 -33.5 -90t-79.5 -94q-64 -66 -99 -91q-105 -78 -212 -78
q-58 0 -110 24q-76 35 -124.5 133t-55.5 232q-1 13 -1 39q0 217 126 343q69 69 146 89z" />
    <glyph glyph-name="A" unicode="A" horiz-adv-x="659" 
d="M440 328q-2 9 -61 174.5t-64 165.5t-9 -8t-24 -56q-25 -59 -61.5 -160.5t-36.5 -110.5q0 -5 109 -9q102 -4 129 -8q14 -2 15 -2q5 0 5 4zM290 741q13 18 27 18h6q13 -1 19.5 -10.5t26.5 -60.5q10 -24 72 -192t73 -196q6 -11 25 -69.5t38.5 -123t22.5 -72.5q9 -24 9 -39
q0 -22 -19 -27q-3 -1 -8 -1q-13 0 -24 18.5t-26 66.5q-40 130 -53 165t-23 39q-19 6 -155 9l-141 4l-6 -20q0 -1 -13.5 -48t-23.5 -86.5t-10 -52.5q0 -37 -27 -37h-6q-16 1 -24 17q-4 12 -4 18q0 15 11 59q31 131 114.5 353.5t118.5 267.5z" />
    <glyph glyph-name="B" unicode="B" horiz-adv-x="517" 
d="M333 416q-22 9 -61 9q-49 0 -86 -14q-37 -15 -60 -18l-25 -4l4 -68q7 -132 18 -196q2 -12 6.5 -16t17.5 -6q5 -1 19 -1q71 0 125 24q28 13 59 41t47 54q17 29 17 67q0 39 -17 67q-26 44 -64 61zM225 704q-33 10 -55 10q-25 0 -50 -11l-25 -12l5 -118q4 -119 6 -121t8 -2
q23 0 53 16q24 12 56 43t52 61q25 37 25 59q0 21 -23 44q-22 20 -52 31zM130 760q15 5 41 5q68 0 121 -32q64 -40 64 -100q0 -50 -45 -110l-28 -38l34 -7q96 -21 138 -111q15 -34 15 -79q0 -30 -3.5 -44.5t-16.5 -41.5q-34 -70 -110 -115t-160 -45h-7h-12q-29 0 -37 -3
q-6 -3 -13 -3q-23 0 -35 25q-25 55 -30 401q-1 45 -1 125q0 97 2 111t8.5 20.5t27.5 18.5q34 20 47 23z" />
    <glyph glyph-name="C" unicode="C" horiz-adv-x="536" 
d="M246 731q29 10 69 10q37 0 62 -8q38 -11 62.5 -29.5t24.5 -35.5t-12 -17q-8 0 -22 11q-16 13 -46.5 22.5t-59.5 9.5q-12 0 -17 -1q-91 -10 -147 -92t-56 -191q0 -87 38 -166q26 -54 78.5 -98t99.5 -52q5 -1 16 -1q33 0 65.5 19t52.5 50q17 26 24 26q6 0 8 -30v-5
q0 -34 -27 -62.5t-74 -44.5q-20 -7 -44 -7q-56 0 -117 37t-106 100q-71 98 -71 234q0 154 87 248q45 49 112 73z" />
    <glyph glyph-name="D" unicode="D" horiz-adv-x="590" 
d="M190 662q-53 13 -62 14l-24 3l-3 -25q-2 -18 -2 -49q0 -116 13 -338t21 -232q8 -11 41 -11q59 0 109 26q54 27 103 75.5t72 96.5q26 57 26 112q0 57 -25 117q-34 85 -97.5 135t-171.5 76zM87 718q15 5 36 5q23 0 62 -7q286 -51 348 -310q9 -37 9 -76q0 -168 -160 -285
q-103 -76 -194 -76q-4 0 -10 0.5t-10 0.5q-10 1 -27 1q-23 0 -24 -3q-3 -5 -16 -5q-16 0 -20 7q-7 9 -11 43.5t-11 152.5q-14 257 -14 416q0 43 2 63q3 32 13 41q8 8 8 17q0 10 19 15z" />
    <glyph glyph-name="E" unicode="E" horiz-adv-x="534" 
d="M251 712q42 5 109 5q53 0 61 -4q11 -6 11 -15q0 -6 -8 -14q-12 -7 -109 -18t-191 -32q-11 -3 -11 -13q0 -8 1 -15q5 -33 10 -119q6 -96 8 -98q2 -3 33 -3q44 0 113 4q58 2 63 2q26 0 32 -7q5 -7 5 -12q0 -14 -19 -21q-15 -6 -86.5 -14.5t-103.5 -8.5h-34v-31
q0 -27 6 -103.5t9 -89.5t30 -17t146 -11q137 -8 147 -18q11 -11 11 -22q0 -12 -16.5 -16.5t-67.5 -4.5q-41 0 -67 1q-205 6 -229 32q-16 19 -27 225q-16 302 -24 341q-4 16 -4 29q0 18 18 30q11 8 72 20.5t112 17.5z" />
    <glyph glyph-name="F" unicode="F" horiz-adv-x="466" 
d="M150 751q35 5 114 5q94 0 123 -7q29 -6 29 -26q0 -5 -1 -7q-2 -6 -17 -7.5t-70 -1.5q-80 0 -148 -9q-47 -7 -56.5 -10.5t-11.5 -14.5q-2 -12 -6 -102.5t-4 -128.5l1 -14l11 -1q12 -1 34 -2.5t43 -2.5q64 -4 83 -8.5t19 -17.5q0 -17 -19 -21t-93 -5h-80l3 -164
q1 -41 1 -99q0 -61 -4.5 -76.5t-20.5 -15.5h-1q-24 0 -28.5 20.5t-6.5 143.5q-1 41 -1 128q0 338 13 390q9 29 21 37q11 8 73 17z" />
    <glyph glyph-name="G" unicode="G" horiz-adv-x="691" 
d="M293 730q40 11 104 11q108 0 158 -26q16 -8 16 -19v-5q-1 -11 -5 -13q-6 -2 -21 -2q-13 0 -113 5q-48 2 -57 2q-34 0 -61 -7q-100 -23 -154.5 -96t-54.5 -184q0 -132 72.5 -218t191.5 -97q7 -1 21 -1q63 0 109 40q47 41 70 126q15 56 15 61q0 9 -6.5 12.5t-23.5 3.5
q-7 0 -55 -2q-60 -2 -62 -2q-24 0 -34 10q-11 11 -5 23q5 10 15 14q13 4 76.5 9.5t94.5 5.5q35 0 47.5 -10t12.5 -42q0 -18 -3 -45q-9 -86 -14 -128t-11 -68.5t-11.5 -32t-15.5 -5.5t-19.5 13t-9.5 27q0 8 -2 8q-5 0 -24 -18q-66 -58 -149 -58q-13 0 -41 4
q-137 23 -217 122.5t-80 247.5q0 131 63 217t183 117z" />
    <glyph glyph-name="H" unicode="H" horiz-adv-x="632" 
d="M525 735q6 3 11 3q12 0 20 -15q6 -16 14 -231q7 -201 13 -327q4 -74 4 -83q0 -31 -6 -40t-21 -9q-17 0 -22 10q-4 8 -11 102.5t-7 147.5v40l-205 -3q-206 -2 -207 -3t-5 -143q-4 -144 -10 -150q-6 -7 -16 -7q-14 0 -25 11q-9 10 -9 90q0 10 2 188q6 373 22 403
q6 11 14 11t13 -10q5 -11 9 -170q4 -160 11 -164t110 -4q82 0 180 3l109 4l2 171q1 169 10 175z" />
    <glyph glyph-name="I" unicode="I" horiz-adv-x="472" 
d="M185 773q12 1 104 3h16q58 0 81 -6t23 -22q0 -14 -16 -19t-63 -5q-55 0 -71 -4l-14 -3l3 -222q3 -219 12 -311q2 -21 4.5 -44.5t4 -36t1.5 -13.5q0 -3 62 -7q89 -5 89 -32q0 -17 -23.5 -20.5t-142.5 -3.5q-152 0 -168 6q-15 6 -15 25t11.5 23t65.5 4h58l-4 39
q-15 160 -19 388l-3 203l-58 -5q-15 -1 -38 -1q-24 0 -28 4q-7 6 -7 20t7 20q12 10 128 20z" />
    <glyph glyph-name="J" unicode="J" horiz-adv-x="509" 
d="M157 765q6 6 77 6q41 0 68 -1q58 -1 86 -2t45.5 -4.5t21 -8t3.5 -14.5q0 -22 -77 -22h-47l4 -22q15 -90 27 -266q4 -53 4 -118q0 -169 -33 -280q-27 -92 -75.5 -147t-98.5 -55q-31 0 -56 22q-25 21 -41 56.5t-16 66.5q0 7 2 19q7 31 17 31q12 0 30 -57q11 -37 29.5 -59.5
t36.5 -22.5q17 0 45 29.5t45 65.5q58 119 58 338q0 123 -17 322l-7 77h-58q-59 0 -69 5q-11 6 -11 22q0 12 7 19z" />
    <glyph glyph-name="K" unicode="K" horiz-adv-x="547" 
d="M50 708q6 11 17 11q13 0 19 -13q5 -9 10.5 -106t6.5 -187q0 -45 4 -45q1 0 3 3q5 6 56 80q69 102 152.5 178.5t119.5 76.5q18 0 18 -20q0 -14 -44 -45q-36 -26 -64 -55t-72 -83q-31 -39 -72.5 -100t-41.5 -68q0 -3 77 -61q68 -52 93 -72.5t92 -81.5q70 -64 72 -71
q1 -2 1 -7q0 -10 -7 -18.5t-16 -8.5q-17 0 -137 108q-54 49 -126 105.5t-80 56.5q-4 0 -14 -20q-6 -12 -6 -35q0 -20 3 -68q5 -84 15 -109q6 -16 6 -32q0 -27 -18 -36q-8 -4 -15 -4q-30 0 -40 104q-18 170 -18 479q0 132 6 144z" />
    <glyph glyph-name="L" unicode="L" horiz-adv-x="461" 
d="M56 727q8 9 18 9q11 0 16 -10q5 -11 9 -228q2 -147 8.5 -286.5t11.5 -144.5q3 -3 21 -3q62 0 157 20q67 14 88 14q26 0 26 -21q0 -15 -7 -20q-9 -7 -82.5 -24.5t-120.5 -23.5q-42 -4 -50 -4q-12 0 -38 4q-34 8 -44.5 22.5t-14.5 57.5q-11 125 -11 365q0 259 13 273z" />
    <glyph glyph-name="M" unicode="M" horiz-adv-x="913" 
d="M571 692q18 15 34 15q39 0 76 -78q19 -39 38.5 -104.5t84.5 -314.5q59 -222 59 -261q0 -16 -6 -22q-3 -3 -7 -3q-14 0 -29 50q-73 251 -123 442q-56 208 -84 233l-14 13l-11 -20q-25 -41 -49.5 -131.5t-35.5 -180.5q-17 -149 -29 -195t-37 -56q-14 -4 -16 -4q-8 0 -18 6
q-23 12 -50.5 63t-93.5 203q-32 74 -62.5 141t-50 105.5t-21.5 36.5q-3 -1 -12 -162q-9 -160 -20 -269q-12 -120 -12 -147q0 -37 -9 -41q-2 -1 -6 -1q-22 0 -22 76q0 46 5 94q9 93 18 268q7 129 12 176t15 58q6 8 26 8q19 0 38 -25q41 -56 159 -330q87 -202 102 -202h1
q8 2 13 28t15 109q22 179 53 278q35 115 69 144z" />
    <glyph glyph-name="N" unicode="N" horiz-adv-x="664" 
d="M69 775q9 14 28 14q18 0 33 -13q22 -20 62.5 -87.5t134.5 -242.5q85 -156 151 -264.5t77 -108.5q5 0 5 42q0 79 -15 229q-20 203 -20 298q0 45 5 60q8 24 15 28q3 3 6 3q14 0 27 -162q8 -105 23 -236q16 -125 16 -202q0 -65 -13 -94.5t-41 -29.5q-38 0 -94 82.5
t-199 348.5q-147 273 -158 273q-7 0 -10 -68.5t-5 -268.5q-2 -284 -5 -295q-5 -21 -22 -21q-7 0 -12 5q-15 15 -15 268q0 93 1 147q2 163 7 218.5t18 76.5z" />
    <glyph glyph-name="O" unicode="O" horiz-adv-x="636" 
d="M326 689q-28 6 -45 6q-16 0 -40 -8q-58 -21 -97 -114t-39 -208q0 -24 1 -36q9 -133 82 -206q62 -62 149 -66h17q68 0 108 32t62 103q13 44 13 109q0 59 -11 106q-32 131 -136 241q-21 23 -32.5 30t-31.5 11zM218 727q26 8 52 8h3q28 0 64.5 -10t58.5 -24
q52 -34 103.5 -111.5t75.5 -158.5q14 -47 14 -134q0 -59 -2 -80.5t-11 -47.5q-19 -57 -56.5 -98.5t-84.5 -58.5q-35 -13 -88 -13q-38 0 -63 7q-111 28 -173.5 123.5t-62.5 230.5q0 76 21 158q20 78 61.5 136.5t87.5 72.5z" />
    <glyph glyph-name="P" unicode="P" horiz-adv-x="507" 
d="M288 661q-45 15 -114 15q-32 0 -48 -4l-25 -6v-365l19 -4q3 -1 11 -1q52 0 122 34q54 27 97.5 83.5t50.5 108.5q1 4 1 13q0 40 -31 74t-83 52zM109 719q38 11 92 11q39 0 69 -6q55 -12 105.5 -45.5t69.5 -72.5q15 -30 15 -67q0 -34 -12 -68q-34 -96 -117 -159.5
t-175 -63.5q-3 0 -8.5 0.5t-8.5 0.5l-40 3l5 -97q2 -52 2 -63q0 -37 -5 -47q-7 -12 -20 -12q-15 0 -25 15q-7 11 -8.5 56.5t-3.5 232.5q0 28 -0.5 73.5t-0.5 63.5q0 120 4 165t16 57t46 23z" />
    <glyph glyph-name="Q" unicode="Q" horiz-adv-x="712" 
d="M427 699q-27 7 -58 7q-81 0 -149 -49q-105 -77 -111 -215q0 -4 -0.5 -11.5t-0.5 -11.5q0 -81 42 -166q39 -78 108 -128.5t136 -50.5q8 0 22 2q23 3 31 6t8 11q0 10 -20 42q-23 37 -23 51q0 12 13 17q2 1 7 1q17 0 50 -44q27 -34 32 -34q6 0 26.5 26t30.5 46q33 64 33 156
q0 52 -11 91q-26 96 -101 195q-26 35 -37 44.5t-28 14.5zM289 751q24 6 63 6q66 0 100 -12q24 -9 44 -27t53 -63q54 -72 85 -155.5t31 -154.5q0 -59 -26 -129t-63 -111q-27 -31 -27 -35t16 -25q21 -27 43.5 -65.5t22.5 -48.5q0 -12 -7.5 -19t-17.5 -7q-15 0 -26 14
q-6 9 -30.5 49t-34.5 52l-16 20l-25 -10q-37 -14 -76 -14q-61 0 -128 32q-45 22 -94 71q-31 32 -45 52t-34 59q-49 101 -49 202q0 142 102 238q62 59 139 81z" />
    <glyph glyph-name="R" unicode="R" horiz-adv-x="586" 
d="M239 676q-30 7 -55 7q-20 -1 -46.5 -5.5t-30.5 -8.5q-5 -5 -5 -93q0 -86 4 -178t9 -97h1q11 0 115 78q32 25 68.5 63t50.5 63q12 19 12 51v16q-1 28 -38.5 59.5t-84.5 44.5zM115 726q42 10 75 10q108 0 184 -76q50 -50 50 -104q0 -39 -26 -83q-19 -34 -64.5 -80
t-88.5 -76q-12 -9 -27 -19.5t-24 -16.5t-11 -8q-5 -3 -5 -5q0 -4 21 -12q83 -33 166 -85.5t141 -108.5q29 -28 29 -40q0 -8 -9 -12q-4 -3 -11 -3q-21 0 -82 48q-76 61 -163 104q-33 17 -88.5 41t-60.5 24q-3 0 -3 -87q0 -65 -2 -78t-13 -24q-12 -12 -17 -12q-3 0 -11 5
q-9 6 -11.5 25t-5.5 108q-2 69 -10 245q-3 63 -3 118q0 183 27 191q24 6 43 11z" />
    <glyph glyph-name="S" unicode="S" horiz-adv-x="475" 
d="M201 729q27 7 65 7q56 0 101.5 -14t45.5 -37q0 -13 -16 -13q-11 0 -26 4q-48 12 -81 12q-28 0 -49 -5q-53 -10 -93.5 -37.5t-40.5 -51.5q0 -18 25 -53t94 -111q98 -110 140.5 -171t55.5 -109q4 -15 4 -34q0 -61 -42 -83q-25 -13 -64 -13q-62 0 -120 29q-34 17 -75 55
t-55 67q-15 29 -15 46q0 11 7 11q5 0 63 -52q47 -43 75.5 -61t65.5 -29q24 -7 52 -7q36 0 47 11q5 5 5 17q0 25 -21 69t-54 86q-29 38 -76 90q-170 189 -170 241q0 41 43 79.5t109 56.5z" />
    <glyph glyph-name="T" unicode="T" horiz-adv-x="602" 
d="M72 762q8 2 38 2q88 0 255 -8t177 -14t10 -19q0 -14 -11 -20q-7 -4 -57 -4q-36 0 -59 1l-105 4l3 -28q4 -34 13 -185q4 -77 19 -289q8 -93 8 -137q0 -4 -1 -9v-4q-5 -23 -27 -23q-8 0 -13 2q-15 5 -21 37.5t-7 109.5q-1 66 -11.5 250t-11.5 197l-4 76l-44 4q-36 3 -91 3
q-45 0 -63 6q-20 8 -20 23q0 17 23 25z" />
    <glyph glyph-name="U" unicode="U" horiz-adv-x="606" 
d="M65 712q6 8 16 8q13 0 18 -10t5 -37q0 -17 -1 -27q-1 -16 -1 -49q0 -198 45 -333q23 -68 61.5 -124t75.5 -75q21 -11 49 -11q31 0 50 13q34 23 60.5 80t39.5 136q21 128 21 251q0 60 -6 96q-3 19 -3 27q0 11 8 18q8 8 18 8q15 0 23 -15q17 -32 17 -161q0 -7 -0.5 -21
t-0.5 -21q-13 -326 -123 -428q-48 -45 -103 -45q-70 0 -138 72q-109 116 -141 360q-8 66 -8 136q0 131 18 152z" />
    <glyph glyph-name="V" unicode="V" horiz-adv-x="574" 
d="M477 707q10 13 20 13q12 0 21 -15q7 -10 7 -24t-4 -42q-11 -78 -55 -223.5t-99 -284.5q-38 -94 -38 -106q0 -10 -13 -25.5t-21 -15.5q-5 0 -20 13q-15 15 -41 95q0 1 -97 301q-88 275 -88 293q0 6 3 11q6 11 15 11q13 0 22 -18q34 -66 128 -358q50 -152 61.5 -184.5
t15.5 -32.5h1q14 10 93 246q32 95 56 189t24 122q0 22 9 35z" />
    <glyph glyph-name="W" unicode="W" horiz-adv-x="860" 
d="M786 753q7 11 9.5 11.5t8.5 -6.5q7 -10 7 -52q0 -52 -8 -108q-6 -45 -23 -204q-34 -320 -75 -382q-15 -21 -36 -21q-15 0 -29 12q-60 56 -138 421q-35 166 -42 166q-1 0 -2 -1q-7 -9 -95 -326q-43 -156 -53 -174q-7 -12 -20.5 -20.5t-25.5 -8.5q-11 0 -28 19t-31 46
q-24 51 -64.5 186t-70.5 270q-21 92 -21 115q0 14 7 20q8 10 14 10q7 0 16 -11t11 -23q48 -193 104 -380q51 -168 63 -168q6 0 64 205q81 282 98 317q18 24 35 25q27 0 44 -43t49 -192q32 -150 49 -214q14 -56 34 -110.5t27 -54.5q22 0 58 320q20 178 33.5 254.5t30.5 101.5
z" />
    <glyph glyph-name="X" unicode="X" horiz-adv-x="625" 
d="M52 756q4 4 10 4q14 0 26 -15q15 -22 47 -77q36 -60 91 -138.5t60 -78.5t29 44q89 149 136 201q28 31 44 31q11 0 14 -15q2 -8 2 -10q0 -9 -41 -66q-25 -35 -91 -144q-53 -89 -53 -104q0 -4 1 -5q6 -13 96 -131q152 -201 152 -225q0 -9 -8.5 -16.5t-17.5 -7.5q-4 0 -6 1
q-8 2 -59 71q-193 257 -195 257q-4 0 -93 -165q-62 -117 -71 -126q-9 -11 -22 -11q-10 0 -18 7t-8 19q0 10 66.5 136.5t103.5 186.5q0 1 0.5 1t0.5 1q0 12 -67 113q-132 200 -132 251q0 8 3 11z" />
    <glyph glyph-name="Y" unicode="Y" horiz-adv-x="516" 
d="M53 722q4 4 18 4q13 0 31.5 -27t82.5 -137q68 -117 73 -117t70.5 109t74.5 129q13 34 32 34q8 0 17 -6q14 -9 14 -21q0 -25 -111 -205l-75 -121l3 -32q1 -7 3 -31.5t5.5 -61t6.5 -65.5q9 -84 9 -115q0 -23 -4.5 -31t-16.5 -8h-7q-12 2 -16.5 6t-8.5 19q-5 15 -20 180
l-13 156l-68 122q-66 118 -85.5 156.5t-19.5 51.5q0 6 5 11z" />
    <glyph glyph-name="Z" unicode="Z" horiz-adv-x="540" 
d="M128 777q48 4 122 4h31q100 -1 145 -15q44 -13 51 -18q7 -7 7 -15q0 -19 -35 -64q-79 -98 -165 -247q-30 -53 -71.5 -140.5t-41.5 -98.5q0 -7 -15 -37q-12 -26 -12 -31q0 -10 15 -12t66 -3q83 0 162 -5.5t90 -11.5q13 -7 13 -21t-13 -20q-12 -6 -131 -6q-121 0 -191 6
q-50 4 -69 12t-19 25q0 9 32.5 83.5t33.5 80.5q8 44 87.5 185t150.5 237q32 45 32 46q0 2 -33 9q-27 5 -90 5q-46 0 -75 -1q-76 -2 -86 -2q-47 0 -57 7q-12 9 -12 20t13 17q13 5 65 11z" />
    <glyph glyph-name="bracketleft" unicode="[" horiz-adv-x="347" 
d="M159 806q38 5 69 5q26 0 48 -4q19 -3 19 -19q0 -11 -16.5 -16t-69.5 -11q-57 -5 -84 -14q-21 -7 -21 -21q0 -6 1 -21.5t3 -41t3 -47.5q8 -123 12 -275q5 -131 13 -276t12 -148q2 -2 67 -6q43 -4 55.5 -7t18.5 -10q5 -8 4.5 -12.5t-7.5 -13.5q-8 -10 -21.5 -12t-71.5 -2
h-24q-61 0 -71.5 14t-15.5 93q-14 198 -23 504q-5 217 -11 249q-2 8 -2 26q0 15 2 19q14 35 111 47z" />
    <glyph glyph-name="backslash" unicode="\" horiz-adv-x="538" 
d="M48 740q3 8 15 8q17 0 31 -15q19 -22 140 -265q119 -237 167 -324q87 -159 87 -180q0 -8 -7 -8q-3 0 -11 2q-68 21 -328 574q-72 151 -85 177q-10 17 -10 28q0 1 1 3z" />
    <glyph glyph-name="bracketright" unicode="]" horiz-adv-x="330" 
d="M56 753q7 7 36 7q26 0 95 -8q67 -8 74 -16q22 -22 25 -442v-110q0 -162 -8 -237q-9 -83 -16 -97q-8 -16 -54 -16q-10 0 -56 2q-60 3 -78 7.5t-22 19.5q-2 8 -2 10q0 12 18.5 17t71.5 7l74 3l4 38q5 47 5 392q0 281 -4 317l-5 46l-70 10q-70 9 -82 16q-13 8 -13 19
q0 8 7 15z" />
    <glyph glyph-name="asciicircum" unicode="^" horiz-adv-x="504" 
d="M237 733q10 10 25 10q14 0 24 -10q8 -9 77 -192t90 -249q2 -10 2 -14q0 -14 -6.5 -25.5t-15.5 -12.5h-4q-13 0 -24 19t-28 69q-28 84 -71 196.5t-47 113.5q-5 2 -64 -125q-56 -120 -82 -163t-44 -43q-6 0 -12 3q-9 4 -9 14q0 16 30 76q51 102 91 192q57 127 68 141z" />
    <glyph glyph-name="underscore" unicode="_" horiz-adv-x="682" 
d="M62 -103q9 3 34 3h15q16 -2 151 -8q138 -7 281 -21q55 -5 75.5 -11t20.5 -16q0 -3 -4 -11q-9 -16 -50 -16q-21 0 -88 5q-81 6 -261 12q-158 5 -175 11q-19 8 -19 26t20 26z" />
    <glyph glyph-name="grave" unicode="`" horiz-adv-x="313" 
d="M53 817q6 6 13 6q15 0 60 -35q69 -55 93 -73q31 -25 39 -34t8 -22q0 -14 -6 -20t-21 -6q-8 0 -70 48.5t-92 78.5q-30 29 -30 43q0 8 6 14z" />
    <glyph glyph-name="a" unicode="a" horiz-adv-x="475" 
d="M285 441q-1 21 -2 29.5t-3.5 12t-7.5 4.5h-2q-12 0 -38 -17t-43 -36q-37 -44 -68 -137q-18 -56 -18 -121q0 -49 12 -70q13 -22 32 -22q24 0 52 35t50 95q13 36 24.5 105t11.5 113v9zM271 543q41 9 52 9q15 0 21 -10t6 -34q0 -9 -2 -45q-1 -15 -1 -44q0 -186 58 -304
q20 -42 20 -48q0 -7 -14 -16q-8 -5 -15 -5q-37 0 -67 102q-16 51 -19 51q-4 -2 -29 -54q-29 -59 -64 -91.5t-71 -32.5q-7 0 -17 2q-31 6 -67 66q-11 19 -13.5 32.5t-2.5 59.5q0 66 13 113q33 118 98 185q30 30 53.5 43.5t60.5 20.5z" />
    <glyph glyph-name="b" unicode="b" horiz-adv-x="521" 
d="M375 390q-15 12 -47 12t-58 -12q-65 -30 -113 -128q-38 -77 -38 -118v-10q2 -13 6 -18t19 -9q14 -5 39 -5q43 0 82 16q32 12 70 46.5t54 65.5q18 36 18 77q0 59 -32 83zM60 804q5 8 16 8q12 0 21 -12q10 -14 10 -243q0 -231 4 -231q7 0 24 28q34 53 87.5 83t107.5 30
q64 0 102 -41q24 -26 33 -52t9 -69q0 -37 -3 -51.5t-19 -45.5q-29 -57 -80.5 -101.5t-110.5 -61.5q-29 -8 -51 -8q-7 0 -33 2q-82 6 -100 9t-25 13q-6 7 -7.5 63t-1.5 254q1 408 17 426z" />
    <glyph glyph-name="c" unicode="c" horiz-adv-x="416" 
d="M183 511q27 11 47 11q21 0 30 -10q8 -8 8 -17q0 -15 -26 -18q-37 -6 -77 -51q-29 -32 -45 -84.5t-16 -105.5q0 -57 17 -92q26 -54 93 -54q52 0 98 34q30 21 41 21t13 -23q0 -2 0.5 -5t0.5 -4q0 -14 -18 -31q-17 -17 -51 -33q-31 -15 -84 -15q-46 0 -71 10.5t-51 40.5
q-26 29 -36 61.5t-10 86.5q1 97 38 172q16 32 44.5 63t54.5 43z" />
    <glyph glyph-name="d" unicode="d" horiz-adv-x="521" 
d="M305 439q-16 8 -33 8q-24 0 -51 -13q-95 -45 -100 -156q0 -4 -0.5 -11t-0.5 -10q0 -25 15 -55q23 -46 71 -71.5t113 -26.5l51 -1l16 20q11 13 14 23t4 35q0 87 -28.5 161.5t-70.5 96.5zM423 803q11 15 26 15q11 0 17 -10q5 -11 9 -384q2 -250 2 -266q0 -110 -7 -120
q-9 -13 -25 -13q-18 0 -28 14q-8 11 -13 11q-3 0 -20 -5q-21 -8 -65 -8q-61 0 -108 15q-77 25 -120 82.5t-43 132.5q0 18 3 36q19 128 133 191q24 13 37.5 16t46.5 4q30 0 42.5 -2.5t29.5 -12.5q27 -16 43 -33q18 -18 21 -18t7 169q2 114 3.5 145t8.5 41z" />
    <glyph glyph-name="e" unicode="e" horiz-adv-x="469" 
d="M345 486q-21 21 -50 21q-34 0 -73 -27q-27 -18 -59.5 -66.5t-32.5 -68.5q0 -4 2 -6q5 -5 75 -7q45 0 61.5 2.5t34.5 11.5q59 29 59 89q0 22 -3 30.5t-14 20.5zM254 559q30 8 37 8h2q46 0 86 -35q43 -37 43 -95q0 -47 -29 -88t-79 -61q-34 -15 -106 -15q-33 0 -68 5l-31 6
v-43q1 -83 61.5 -130.5t165.5 -47.5h18l55 2v-17q0 -16 -16 -29q-16 -11 -54 -11h-19q-117 1 -188.5 57t-83.5 154q-1 8 -1 24q0 58 27 126.5t70 117.5q50 57 110 72z" />
    <glyph glyph-name="f" unicode="f" horiz-adv-x="446" 
d="M247 760q12 4 32 4q38 0 77 -13.5t39 -28.5q0 -5 -0.5 -6.5t-3.5 -3t-9 -1.5q-7 0 -52 5q-22 2 -30 2q-40 0 -65 -21q-28 -22 -39.5 -66t-11.5 -123v-31l2 -81l70 -3q89 -3 89 -21q0 -6 -7 -16q-8 -11 -73 -15q-68 -5 -68 -11q0 -55 33 -284q4 -25 4 -39q0 -13 -8 -21
q-9 -10 -20 -10q-15 0 -22 16q-4 9 -27 177q-22 163 -23 164t-30 5q-55 8 -55 31t38 23h10l30 -2l-2 73v29q0 230 122 268z" />
    <glyph glyph-name="g" unicode="g" horiz-adv-x="507" 
d="M347 435q-8 8 -53 8q-22 0 -39 -3q-25 -5 -54.5 -22.5t-46.5 -35.5q-51 -57 -51 -149q0 -72 36 -120q39 -52 104 -52q21 0 38 7q31 11 55.5 48t34.5 89q3 16 3 32q0 21 -9 97q-11 94 -18 101zM228 485q33 7 58 7q46 0 79 -15q23 -10 30.5 -18t17.5 -29q26 -58 26 -125
q0 -3 -0.5 -10t-0.5 -11v-9q0 -43 9 -138q12 -109 12 -191q0 -217 -101 -271q-30 -17 -71 -17q-35 0 -64 13q-42 19 -78.5 68.5t-36.5 88.5q0 14 7 28t14 14q2 0 27 -47q41 -77 89 -99q24 -11 40 -11q18 0 44 13q47 24 63 103q7 32 7 139q0 74 -4 98l-5 25l-22 -26
q-19 -24 -49 -42q-18 -11 -31.5 -14t-48.5 -3t-48.5 3t-34.5 15q-53 30 -81.5 86t-28.5 122q0 72 33 135t93 95q33 17 56 23z" />
    <glyph glyph-name="h" unicode="h" horiz-adv-x="506" 
d="M50 735q7 13 19 13q15 0 21 -16q7 -22 18 -226q8 -160 16 -252l4 -43l33 70q90 187 159 187q23 0 44 -21q22 -21 37 -69.5t33 -153.5q23 -131 23 -178q0 -21 -5 -28q-7 -8 -23 -8q-19 0 -23 10q-7 11 -12 68q-14 120 -34.5 215t-34.5 104q-1 1 -3 1q-14 0 -43 -38
t-55 -90q-43 -85 -63 -190q-10 -51 -19 -69t-25 -18q-19 0 -26 20.5t-14 96.5q-31 355 -31 557q0 51 4 58z" />
    <glyph glyph-name="i" unicode="i" horiz-adv-x="172" 
d="M59 738q10 10 22 10q9 0 20 -6q12 -7 12 -29q0 -20 -10 -30q-9 -10 -24 -10q-17 0 -28 14q-6 9 -6 19q0 16 14 32zM54 558q6 16 21 16q13 0 21 -14q6 -12 11 -163q3 -130 12 -250l7 -99l-14 -11q-13 -10 -17 -10q-3 0 -16 10q-8 7 -11.5 23.5t-7.5 70.5q-10 133 -10 320
q0 98 4 107z" />
    <glyph glyph-name="j" unicode="j" horiz-adv-x="345" 
d="M234 721q12 16 28 16t24 -18q4 -8 4 -20q0 -24 -14.5 -45t-32.5 -21q-4 0 -6 1q-20 4 -20 36q0 30 17 51zM236 505q9 9 16 9q11 0 18 -30.5t16 -113.5q14 -120 14 -247q0 -116 -13 -168q-36 -142 -115 -158q-5 -1 -14 -1q-40 0 -71 39t-37 97q-1 5 -1 15q0 22 6.5 38.5
t14.5 16.5h2q9 -2 20 -49q26 -100 61 -100q14 0 32 18q60 61 60 264q0 62 -6 136q-5 68 -9 148q-2 50 -2 53q0 25 8 33z" />
    <glyph glyph-name="k" unicode="k" horiz-adv-x="541" 
d="M73 770q7 7 16 7q12 0 17 -11q3 -6 3 -36q0 -42 -4 -102q-3 -63 -3 -130q0 -43 2 -101l4 -103l76 75q63 62 114 102t67 40h2q18 -4 18 -22q0 -3 -2 -9q-4 -11 -54 -54q-102 -87 -159 -151q-30 -34 -30 -42q0 -4 2 -6q7 -9 103 -58q114 -58 179.5 -102.5t65.5 -63.5
q0 -10 -7 -16.5t-18 -6.5q-13 0 -62 33q-39 26 -156 88t-127 62h-1q-1 -2 -1 -4q0 -3 1 -8.5t2 -13.5t2 -14q7 -35 7 -72q0 -34 -13 -43q-9 -6 -18 -6q-14 0 -22 13q-14 26 -29 323q-3 57 -3 117q0 113 8 206t20 109z" />
    <glyph glyph-name="l" unicode="l" horiz-adv-x="155" 
d="M60 797q6 9 17 9t18 -9q7 -10 7 -135v-65v-59q0 -143 4 -287q1 -24 2 -54.5t1.5 -47t0.5 -27.5q0 -32 -6 -41q-9 -13 -20 -13q-12 0 -22 12q-11 12 -14 117q-5 140 -5 263q0 318 17 337z" />
    <glyph glyph-name="m" unicode="m" horiz-adv-x="846" 
d="M233 535q17 8 37 8q80 0 121 -166q13 -54 17 -54t10 22q18 57 53 111t64 68q13 8 40 8t40 -8q34 -17 67.5 -77t55.5 -142q23 -84 26 -92q8 -26 20.5 -99.5t12.5 -96.5q0 -17 -7 -27t-16 -10q-12 0 -21 14q-12 18 -27 118q-20 113 -35.5 170t-39.5 105q-47 93 -75 93
q-23 0 -54.5 -46t-53.5 -114q-32 -102 -35 -197q-2 -66 -5 -72q-7 -7 -21 -7q-35 0 -35 62q0 37 -12.5 123.5t-24.5 136.5q-11 43 -27 78t-26 40q-6 2 -9 2q-33 0 -78.5 -59.5t-63.5 -129.5q-9 -36 -9 -135t-6 -113q-6 -11 -23 -11q-18 0 -24 12q-6 11 -14.5 138.5
t-9.5 210.5v17q0 93 22 103q6 2 7 2q21 0 25 -74l2 -56l22 35q18 30 53.5 65t56.5 44z" />
    <glyph glyph-name="n" unicode="n" horiz-adv-x="489" 
d="M63 547q8 8 12 8.5t13 -5.5q10 -5 12 -106l3 -100l22 41q32 60 79.5 101t85.5 41q74 0 107 -104q24 -79 41 -264q4 -43 4 -65q0 -19 -7 -29q-9 -15 -21 -15t-20 13q-8 15 -12 64q-5 64 -12 119q-15 119 -33 170t-46 51q-23 0 -60 -34q-32 -30 -59 -83q-25 -50 -34 -97.5
t-9 -123.5q0 -52 -2 -66t-9 -21t-18 -7q-16 0 -24 14q-8 17 -19.5 140t-11.5 201v29q0 110 18 128z" />
    <glyph glyph-name="o" unicode="o" horiz-adv-x="573" 
d="M340 501q-30 14 -73 14q-26 0 -49 -7q-20 -7 -48 -36.5t-43 -60.5q-19 -36 -21 -87v-18q0 -111 69 -188q56 -62 130 -62q48 0 88.5 28.5t60.5 81.5q16 39 16 106q0 32 -4 52q-12 57 -48 107t-78 70zM253 562q24 2 35 2q81 0 145 -64q93 -95 93 -238q0 -120 -73 -197
q-60 -65 -143 -65q-24 0 -51 6q-81 18 -137 88t-71 172q-3 20 -3 39q0 57 22.5 110t62.5 89q54 50 120 58z" />
    <glyph glyph-name="p" unicode="p" horiz-adv-x="539" 
d="M355 513q-17 8 -48 8q-42 0 -91 -17t-88 -45l-31 -22l4 -122q4 -138 11 -162q7 -23 36 -42q2 -2 16 -11q22 -15 48 -15q57 0 126 71q96 98 96 204q0 3 -0.5 9t-0.5 9q-4 44 -12 63q-10 23 -29.5 44t-36.5 28zM250 570q38 8 56 8t50 -8q92 -24 126 -132q11 -32 11 -74
q0 -67 -32.5 -136.5t-91.5 -124.5q-32 -29 -71.5 -50.5t-67.5 -24.5q-2 0 -6 -0.5t-6 -0.5q-45 0 -82 26q-21 14 -23 14q-1 0 -1 -123q0 -102 -5.5 -130t-25.5 -30q-2 0 -4.5 -0.5t-3.5 -0.5q-14 0 -17.5 41t-7.5 227q-5 268 -5 338q0 106 7 119q8 13 22 13t20 -12
q5 -8 7 -8q3 0 26 15q59 40 125 54z" />
    <glyph glyph-name="q" unicode="q" horiz-adv-x="597" 
d="M311 442q-20 12 -49 12q-23 0 -41 -7q-28 -10 -57 -40.5t-42 -62.5q-17 -43 -17 -99q0 -34 8 -61q15 -45 49.5 -71.5t73.5 -26.5q40 0 68 27q56 53 56 175v18q-2 61 -19 94q-17 34 -30 42zM204 498q30 11 70 11q38 0 66.5 -11t30.5 -29q2 -16 18 -50q17 -36 24 -71
q4 -20 4 -60q0 -74 -11 -101q-7 -15 -7 -160q0 -199 22 -221q5 -5 11 -5q20 0 45 47q15 26 15 47q0 16 -7 37q-1 2 -1 7q0 12 16 12q26 0 38 -23q8 -16 8 -36q0 -64 -52 -116q-34 -34 -66 -34q-26 0 -47 23q-19 19 -26.5 57.5t-9.5 132.5l-4 112l-21 -14q-40 -26 -86 -26
q-71 0 -126.5 57t-59.5 143q0 4 -0.5 12t-0.5 11q0 68 31 130q46 89 126 118z" />
    <glyph glyph-name="r" unicode="r" horiz-adv-x="369" 
d="M48 523q6 15 19 15q9 0 15 -10q7 -13 10 -61q4 -51 7 -51q4 0 18 21q25 37 67.5 60.5t80.5 23.5q26 0 41 -12q16 -13 16 -26q0 -7 -7 -13q-8 -6 -47 -8t-64 -20q-23 -17 -45.5 -49.5t-35.5 -69.5q-9 -27 -11.5 -52.5t-2.5 -107.5q0 -123 -4 -129q-4 -7 -19 -7
q-21 0 -25 10q-8 15 -11 66.5t-5 199.5q-1 37 -1 98q0 108 4 122z" />
    <glyph glyph-name="s" unicode="s" horiz-adv-x="457" 
d="M181 570q40 8 80 8q80 0 125 -24q14 -8 19 -15.5t5 -21.5q0 -18 -13 -18q-9 0 -25 8q-22 11 -100 11q-54 -1 -72 -3t-38 -11q-53 -24 -53 -57q0 -11 8 -25q6 -12 76 -69q66 -53 123.5 -110t73.5 -86q20 -38 20 -70q0 -46 -36 -67q-34 -21 -76 -21q-90 0 -176 86
q-62 62 -62 96q0 5 2 11q6 16 18 16q16 0 28 -24q11 -21 49 -56t66 -49q38 -18 80 -18q30 0 41 11q7 8 7 15t-4 18q-12 37 -57 84.5t-142 124.5q-33 26 -47.5 39t-34 41.5t-19.5 53.5q0 34 31 68q37 40 103 54z" />
    <glyph glyph-name="t" unicode="t" horiz-adv-x="439" 
d="M205 662q7 10 23 10q12 0 16 -7q2 -4 2 -38v-24v-18q0 -49 3 -68l4 -29l57 -5q58 -6 71 -19t7 -23q-8 -10 -68 -10q-61 0 -65 -4q-1 -1 -1 -15q0 -102 19 -237q9 -63 9 -91q0 -24 -7 -32t-24 -8q-18 0 -22 14q-4 10 -16 122.5t-17 188.5l-4 53h-27q-15 0 -55 -5
q-16 -3 -28 -3q-32 0 -33 24v6q0 14 13.5 19t65.5 11q58 7 63 14q2 7 4 86q1 79 10 88z" />
    <glyph glyph-name="u" unicode="u" horiz-adv-x="541" 
d="M55 485q9 14 22 14q11 0 15 -12q6 -25 9 -69q7 -105 53 -200q56 -110 109 -110q14 0 25 7q15 9 29 25.5t16 28.5q1 7 14 33q39 77 52 234q4 43 10 53.5t27 10.5q17 0 22.5 -18t5.5 -74q0 -143 20 -283q8 -49 8 -76q0 -24 -14 -31q-15 -6 -25 3q-13 12 -21 56.5t-12 83
t-8 38.5q-3 0 -29 -52q-20 -42 -39.5 -62t-47.5 -30q-16 -6 -34 -6q-91 0 -164 153q-46 98 -50 203q-1 16 -1 38q0 30 8 42z" />
    <glyph glyph-name="v" unicode="v" horiz-adv-x="446" 
d="M55 488q7 9 15 9q17 0 44 -67q26 -61 84 -179q55 -111 62 -111l1 1q5 10 29.5 101t36.5 150q12 57 21.5 76.5t25.5 19.5q9 0 17 -7.5t8 -15.5q0 -4 -1 -5q-4 -7 -15 -74q-16 -93 -48 -208t-46 -130q-11 -11 -25 -11q-15 0 -27 12q-17 17 -95.5 186.5t-89.5 213.5
q-4 15 -4 23t7 16z" />
    <glyph glyph-name="w" unicode="w" horiz-adv-x="730" 
d="M349 475q8 7 18 7q13 0 21.5 -13.5t8.5 -35.5q0 -50 23.5 -129.5t52.5 -129.5q43 -74 77 -74q78 0 78 258v18q0 77 4 83t13 6q19 0 29 -16q9 -14 9 -78v-48q0 -109 -12 -156q-31 -115 -107 -128q-4 -1 -12 -1q-17 0 -42 13q-76 38 -131 188q-13 36 -18 36q-1 0 -1 -1
q0 -2 -2 -9l-5 -17.5t-5 -19.5q-22 -83 -53 -129q-13 -19 -34.5 -31t-40.5 -12q-6 0 -9 1q-19 4 -41.5 18.5t-35.5 31.5q-32 43 -58 125t-28 144v9q0 33 6 45t23 12q14 0 19 -13.5t8 -56.5q6 -86 44 -170t71 -84q28 0 50.5 57t53.5 208q18 85 26 92z" />
    <glyph glyph-name="x" unicode="x" horiz-adv-x="477" 
d="M363 520q20 14 25 14q4 0 10 -6q7 -7 7 -16q0 -18 -35 -57q-38 -42 -74 -95l-39 -57l76 -112q78 -116 85 -130q9 -18 9 -32q0 -26 -20 -26t-37 29q-22 39 -82 122t-65 83q-6 0 -38.5 -60t-60.5 -123q-22 -47 -28.5 -57t-19.5 -11h-4q-24 0 -24 23q0 10 4 21
q10 29 40 91.5t59 113.5l39 68l-56 91q-61 101 -63 113q0 5 3 11q6 11 15 11q12 0 32.5 -24.5t60.5 -84.5q39 -59 43 -59q5 0 28 34q66 94 110 125z" />
    <glyph glyph-name="y" unicode="y" horiz-adv-x="458" 
d="M364 533q5 12 9.5 15.5t14.5 3.5q19 0 24 -10q3 -6 3 -79q0 -114 -5.5 -283.5t-11.5 -203.5q-20 -116 -65 -178.5t-109 -63.5h-2q-43 0 -88 32.5t-69 80.5q-17 34 -17 51q0 15 9 27t15 12q10 0 22 -31q12 -30 41 -62.5t55 -45.5q18 -9 29 -9q7 0 19 3q61 18 93 143
q7 25 14.5 96.5t7.5 101.5q0 11 -1 12q-2 2 -18 -24q-14 -25 -41 -48.5t-44 -27.5q-4 -1 -19 -1t-21 1q-67 11 -111 109t-44 233v23q2 66 10 92t25 26h3l16 -2v-113q1 -113 13 -159q18 -67 47.5 -110.5t55.5 -43.5q23 0 49 37t42 91q32 116 37 220q4 64 12 85z" />
    <glyph glyph-name="z" unicode="z" horiz-adv-x="484" 
d="M250 551q132 11 144 11q18 0 29 -8q13 -9 13 -22q0 -20 -28 -42q-125 -101 -225 -254q-65 -104 -65 -126l1 -2q4 -4 40 -6q162 -9 183 -23q13 -9 13 -21q0 -15 -17 -21q-9 -4 -31 -4q-17 0 -52 3q-60 5 -118 7q-47 1 -63.5 5t-23.5 17q-4 7 -4 17q0 22 30 86
q29 62 85 139.5t117 141.5q41 43 41 47h-4q-7 0 -89 -4q-26 -2 -63 -2q-36 0 -49 6t-13 24q0 11 26 16.5t123 14.5z" />
    <glyph glyph-name="braceleft" unicode="{" horiz-adv-x="402" 
d="M267 761q27 9 53 9h5q19 -1 22.5 -3.5t3.5 -14.5t-4 -15t-22 -8q-31 -7 -59.5 -21t-39.5 -26q-10 -11 -10 -26q0 -12 3 -42q5 -50 5 -108q-1 -38 -4 -53.5t-15 -41.5q-21 -43 -48 -68l-29 -29l35 -39q84 -92 84 -193q0 -16 -3 -33q-6 -30 -6 -56q0 -35 9 -47
q11 -14 35 -17q20 -3 31.5 -12t11.5 -20q0 -13 -18 -22q-12 -5 -24 -5q-23 0 -47 12.5t-39 32.5q-18 26 -18 76q0 19 3 40q4 27 4 55q0 48 -21 86t-77 98q-26 29 -33 38.5t-7 20.5v7q2 14 5.5 19t13.5 8q26 8 42 18.5t29 30.5q29 41 29 97q0 21 -3 50q-7 63 -7 83
q0 29 7.5 45t25.5 33q26 25 77 41z" />
    <glyph glyph-name="bar" unicode="|" horiz-adv-x="159" 
d="M53 806q7 12 19 12t17 -12q4 -11 13.5 -312.5t11.5 -474.5v-59q0 -74 -4 -93.5t-19 -19.5h-7q-15 2 -21.5 14.5t-6.5 45.5q0 22 1 36q0 3 0.5 16t0.5 23q0 98 -7 315q-7 207 -7 351q0 140 9 158z" />
    <glyph glyph-name="braceright" unicode="}" horiz-adv-x="470" 
d="M131 734q11 3 28 3q37 0 55 -8q18 -7 33.5 -25.5t22.5 -39.5q6 -16 6 -42q0 -54 -23 -112q-18 -45 -18 -50q0 -4 51 -20q48 -15 89 -35q46 -20 46 -40q0 -17 -27.5 -41.5t-92.5 -69.5l-48 -33l1 -123v-63q0 -43 -2 -57t-10 -30q-24 -51 -92 -66q-16 -4 -34 -4
q-29 0 -47.5 11t-18.5 29q0 13 6.5 18t23.5 5q12 0 19 -1q6 -1 17 -1q50 0 71 31q10 17 10 77q0 7 -0.5 28t-0.5 35q0 11 -0.5 29.5t-0.5 25.5q0 62 7 81t33 35q26 15 62.5 43t36.5 32q0 8 -84 32q-50 14 -64 22t-14 26q0 1 0.5 5t0.5 6q5 34 24 80q21 54 21 92q0 25 -9 43
q-12 22 -39 22q-6 0 -34 -4q-16 -3 -29 -3q-28 0 -28 22q0 17 52 35z" />
    <glyph glyph-name="asciitilde" unicode="~" horiz-adv-x="579" 
d="M143 452q17 5 29 5q28 0 54 -19q58 -41 92.5 -56t70.5 -15q29 0 62 20q50 31 59 31q4 0 9 -3q10 -6 12 -23v-5q0 -14 -21 -30q-44 -35 -96 -48q-14 -3 -27 -3q-82 0 -181 73q-28 20 -38 20q-12 0 -57 -33q-36 -27 -51 -27q-14 0 -14 23q0 13 21 35q38 40 76 55z" />
    <glyph glyph-name="nbsp" unicode="&#xa0;" 
 />
    <glyph glyph-name="sterling" unicode="&#xa3;" horiz-adv-x="594" 
d="M324 752q29 8 57 8q26 0 74 -8q44 -8 58.5 -14t14.5 -18q0 -6 -1 -8t-8.5 -3.5t-26.5 -1.5q-34 0 -63 1h-42q-45 0 -68 -12q-37 -20 -58.5 -72.5t-21.5 -122.5q0 -4 0.5 -12.5t0.5 -13.5q4 -56 6 -61q6 -3 94 -10q69 -6 93 -12.5t33 -20.5q7 -10 -2 -19q-6 -6 -31 -6
q-20 0 -77 3q-88 4 -94 4h-4l5 -53q4 -38 4 -50t-4 -44q-5 -32 -18 -63.5t-26 -41.5q-8 -6 -8 -10q0 -7 38 -7q10 0 72 2q70 2 80 2q45 0 78 -8q65 -14 65 -37q0 -9 -5.5 -11.5t-30.5 -2.5q-32 0 -58 1h-29q-86 0 -154 -5q-44 -3 -77 -3q-130 0 -130 47q0 28 49 37
q59 13 83 61q14 28 14 71v21v27q0 51 -8.5 59.5t-58.5 11.5q-54 4 -71.5 11t-19.5 26v5q0 24 30 24q7 0 31 -4q38 -6 55 -6h22l-4 60q-1 10 -1 30q0 98 38 165t105 84z" />
    <glyph glyph-name="yen" unicode="&#xa5;" horiz-adv-x="557" 
d="M396 751q9 10 20 10q9 0 15.5 -8t6.5 -21q0 -32 -37 -163t-62 -190q-8 -19 -8 -24q0 -4 4 -6q7 -5 63 -5q53 0 71 -6q21 -7 21 -24q0 -5 -3 -11q-6 -10 -87 -12l-80 -3l-2 -26v-8q0 -20 6 -25q9 -7 84 -12q62 -5 80.5 -10.5t18.5 -19.5v-5l-2 -15h-184l5 -64q2 -42 2 -45
q0 -21 -9 -33q-12 -14 -26 -10q-15 4 -20 19.5t-7 70.5l-3 65h-41q-34 0 -47 5.5t-13 20.5v6q1 15 14.5 19.5t55.5 5.5l33 1v58h-57q-45 0 -60 5t-15 20v6q2 15 15 20t55 6q39 2 39 7q0 3 -50 94q-94 164 -119 212.5t-25 66.5q-1 14 1 18.5t10 4.5q11 0 39.5 -42.5
t102.5 -166.5q73 -125 81 -133q2 -1 6 7t9.5 23t12.5 35t15 44.5t15.5 50.5t15 53t13.5 51q18 72 27 83z" />
    <glyph glyph-name="guillemotleft" unicode="&#xab;" horiz-adv-x="495" 
d="M178 455q28 27 36 27q5 0 13 -5q10 -6 10 -19q0 -19 -20 -42q-80 -91 -98 -120l-10 -16l42 -45q58 -63 67 -72q25 -26 25 -47q0 -22 -29 -22q-9 0 -22.5 12.5t-52.5 55.5q-58 64 -75 85.5t-17 36.5q0 11 15 33q18 27 55 71.5t61 66.5zM344 447q33 34 50 34h3q11 -1 15 -5
t4 -15q0 -14 -40 -61q-45 -53 -65 -79l-22 -30l20 -25q28 -33 79 -84q58 -59 58 -75q0 -30 -30 -30q-15 0 -89 83q-71 78 -86 97.5t-15 35.5q0 31 118 154z" />
    <glyph glyph-name="logicalnot" unicode="&#xac;" horiz-adv-x="566" 
d="M70 420q12 4 162 4q233 0 259 -6q12 -4 20 -14t8 -20q0 -5 -1 -7q-3 -7 -7 -122q-4 -90 -9 -111t-24 -21q-17 0 -23 14t-6 57v13q2 73 5 108l4 44l-74 4q-82 4 -188 4q-114 0 -129 5q-20 8 -20 23q0 17 23 25z" />
    <glyph glyph-name="degree" unicode="&#xb0;" horiz-adv-x="353" 
d="M224 669q-9 9 -28 9t-43 -7q-51 -14 -51 -68q0 -15 4 -30q14 -56 67 -56q17 0 25.5 4t23.5 19q16 16 19.5 24.5t3.5 32.5q0 52 -21 72zM138 728q20 8 46 8q30 0 52 -11q33 -15 51.5 -48.5t18.5 -72.5q0 -59 -39 -101t-96 -42q-40 0 -72.5 22.5t-44.5 62.5q-7 22 -7 48
q0 46 24.5 82t66.5 52z" />
    <glyph glyph-name="plusminus" unicode="&#xb1;" horiz-adv-x="583" 
d="M271 654q9 14 16 14q15 0 18 -22t3 -121v-129h19q7 -1 71 -3q85 -5 110.5 -10.5t25.5 -20.5q0 -9 -2.5 -13t-16.5 -7t-35 -3.5t-65 -0.5h-105l3 -79q1 -15 1 -39q0 -35 -5.5 -45.5t-21.5 -10.5q-31 0 -31 64q0 34 -4 74l-4 34h-62h-10q-82 0 -82 29q0 15 14.5 20t61.5 5
q64 0 71 3q9 3 9 52q0 60 7 129t14 80zM64 92q7 4 17 4q3 0 15 -2q9 -3 61 -3q36 0 55 1q21 1 65 1q192 0 220 -19q14 -9 14 -16q-1 -17 -29 -20t-180 -4h-59q-147 0 -161 3q-15 4 -24.5 13t-9.5 20q0 15 16 22z" />
    <glyph glyph-name="uni00b2" unicode="&#xb2;" horiz-adv-x="360" 
d="M116 711q0 38 82 38q114 0 114 -84q0 -88 -127 -238q-34 -39 -34 -48q0 -7 71 -7q54 0 68 -4.5t14 -21.5q0 -20 -23 -26t-106 -6q-101 0 -115 6q-12 6 -12 17q0 21 57 85q147 168 147 238q0 18 -3.5 23t-21.5 9q-22 4 -54 4h-13l-44 -2v17z" />
    <glyph glyph-name="uni00b3" unicode="&#xb3;" horiz-adv-x="359" 
d="M161 769q16 2 26 2q55 0 73 -13q23 -15 23 -39q0 -36 -48 -87l-36 -38l24 -15q42 -25 64.5 -63t22.5 -77q0 -60 -49 -96q-47 -35 -105 -35q-54 0 -88 32q-20 19 -20 39q0 33 18 33q13 0 31 -20q19 -21 41 -24q5 -1 14 -1q39 0 69 22t30 51q-1 39 -33 69t-82 37
q-31 5 -41.5 11t-10.5 20v6q2 12 9 19t33 21q35 19 62.5 44t27.5 38q0 9 -14 9q-11 0 -39 -3q-65 -5 -75 -5q-13 0 -17 3t-4 11q0 16 26 29.5t68 19.5z" />
    <glyph glyph-name="periodcentered" unicode="&#xb7;" horiz-adv-x="233" 
d="M81 448q18 15 42 15q20 0 33 -10q12 -9 21 -28t9 -37q0 -30 -18.5 -47t-45.5 -17q-34 0 -62 25q-14 12 -14 33q0 36 35 66z" />
    <glyph glyph-name="guillemotright" unicode="&#xbb;" horiz-adv-x="562" 
d="M282 504q7 5 8 5q4 0 45.5 -28t70.5 -51q45 -35 76 -69t31 -48q0 -15 -87 -101q-62 -61 -82 -78t-30 -17q-6 0 -10 3q-12 7 -12 15q0 20 79 100l79 82l-19 21q-11 13 -86 74q-68 55 -69 71q-2 18 6 21zM65 486q6 12 16 12q25 0 126 -108q53 -57 66 -74t13 -30
q0 -14 -5.5 -21.5t-27.5 -23.5q-42 -31 -101 -90q-68 -66 -74 -66q-11 0 -20.5 8t-9.5 18q0 14 63 77q57 59 84 79q22 17 22 23q0 4 -44 57t-82 94q-28 28 -28 39q0 2 2 6z" />
    <glyph glyph-name="onequarter" unicode="&#xbc;" horiz-adv-x="615" 
d="M56 735q4 6 14 6q11 0 19 -8q5 -7 10 -98t5 -165q0 -58 -4 -66q-6 -11 -22 -11q-12 0 -19 9q-13 14 -13 183q0 134 10 150zM436 683q23 23 38 23q10 0 16 -11q4 -8 4 -10q0 -8 -39 -57q-86 -109 -228 -352q-75 -128 -104 -171.5t-44 -50.5q-10 -4 -14.5 -3t-11.5 9
q-10 13 -6 24q6 14 106.5 181t136.5 223q90 137 146 195zM531 401q6 16 22 14l15 -2v-167q-1 -116 -2 -143t-7 -33q-9 -9 -24 -6q-25 6 -25 62q0 20 1 32l4 53l-54 7q-49 5 -65 13t-16 44q0 8 2 38q9 95 28 95q5 0 12 -5q10 -6 14 -66q2 -40 5 -50.5t11 -12.5q10 -3 30 -3
q31 0 31 5q1 20 7.5 68t10.5 57z" />
    <glyph glyph-name="onehalf" unicode="&#xbd;" horiz-adv-x="684" 
d="M94 723q8 13 16 13q7 0 13 -8q16 -19 22 -242q2 -88 2 -94q0 -38 -7 -45q-8 -6 -16 -6q-21 0 -29 24q-7 21 -7 197q0 149 6 161zM435 703q22 31 37 33q5 0 7 -0.5t3.5 -2.5t1.5 -6q0 -9 -1 -15q-2 -23 -58 -110q-44 -67 -175 -291q-114 -197 -137.5 -234.5t-34.5 -37.5
q-1 0 -3.5 0.5t-4.5 0.5q-21 2 -21 17q0 19 31 71q32 53 32 57q0 3 75 130t111 186q52 84 137 202zM510 450q22 2 32 2q67 0 86 -46q7 -19 7 -32q0 -33 -31.5 -81.5t-108.5 -135.5q-57 -66 -57 -68q0 -1 78 -5q62 -1 79 -7t17 -25q0 -16 -22.5 -20t-112.5 -6
q-11 0 -27.5 -0.5t-22.5 -0.5q-50 0 -63 5.5t-13 24.5q0 17 16 39.5t71 83.5q120 134 133 170q6 17 6 28q0 18 -15 21q-10 2 -20 2q-51 0 -91 -14q-17 -6 -27 -6q-14 0 -18 12q-1 2 -1 5q0 17 31 33t74 21z" />
    <glyph glyph-name="multiply" unicode="&#xd7;" horiz-adv-x="539" 
d="M376 568q41 33 56 33h2q20 -2 20 -11q0 -14 -63 -74q-52 -51 -92 -93l-27 -31l108 -108q67 -67 88 -91t21 -34q0 -24 -27 -24q-7 0 -11 1q-13 4 -114 107l-103 104l-71 -81q-45 -54 -60.5 -68t-26.5 -14q-23 0 -23 18q0 6 3 14q5 13 71 92q65 80 65 82q0 4 -72 83t-72 98
q0 7 6 13t13 6q18 0 93 -78l76 -79l49 51q40 40 91 84z" />
    <glyph glyph-name="oslash" unicode="&#xd8;" horiz-adv-x="634" 
d="M504 400q-15 34 -25 42q-5 5 -8 5q-6 0 -28 -26q-60 -70 -161 -220q-45 -66 -45 -77q0 -2 0.5 -4t2 -4t2.5 -3t4 -3t5 -3l6 -3l7 -3.5t8.5 -4t9.5 -4.5q32 -15 78 -15q48 0 69 7q25 9 50 34t35 51q16 46 16 99q0 74 -26 132zM360 483q-18 0 -23 -1q-9 -1 -61 -14
q-38 -10 -55.5 -26t-39.5 -61q-12 -27 -15 -42t-3 -54q0 -59 12 -85q12 -28 16 -28q3 0 62 84q70 100 111 152q50 67 50 70q0 5 -54 5zM506 573q45 46 60 46q11 0 11 -18t-46 -75q-23 -29 -23 -32q0 -7 14 -19q17 -16 34.5 -58.5t24.5 -85.5q6 -37 6 -58q0 -17 -3 -44
q-14 -103 -64.5 -153t-144.5 -54h-18q-79 0 -135 37q-21 14 -24 14q-2 0 -34.5 -43t-46.5 -66q-22 -34 -41 -34q-7 0 -13 3q-13 6 -13 17q0 18 38 72q40 55 52 75l14 20l-20 40q-30 59 -30 125q0 77 40 143t102 97q37 18 74 18h23q54 -2 88 -8l29 -7z" />
    <glyph glyph-name="oslash" unicode="&#xf8;" horiz-adv-x="634" 
d="M504 400q-15 34 -25 42q-5 5 -8 5q-6 0 -28 -26q-60 -70 -161 -220q-45 -66 -45 -77q0 -2 0.5 -4t2 -4t2.5 -3t4 -3t5 -3l6 -3l7 -3.5t8.5 -4t9.5 -4.5q32 -15 78 -15q48 0 69 7q25 9 50 34t35 51q16 46 16 99q0 74 -26 132zM360 483q-18 0 -23 -1q-9 -1 -61 -14
q-38 -10 -55.5 -26t-39.5 -61q-12 -27 -15 -42t-3 -54q0 -59 12 -85q12 -28 16 -28q3 0 62 84q70 100 111 152q50 67 50 70q0 5 -54 5zM506 573q45 46 60 46q11 0 11 -18t-46 -75q-23 -29 -23 -32q0 -7 14 -19q17 -16 34.5 -58.5t24.5 -85.5q6 -37 6 -58q0 -17 -3 -44
q-14 -103 -64.5 -153t-144.5 -54h-18q-79 0 -135 37q-21 14 -24 14q-2 0 -34.5 -43t-46.5 -66q-22 -34 -41 -34q-7 0 -13 3q-13 6 -13 17q0 18 38 72q40 55 52 75l14 20l-20 40q-30 59 -30 125q0 77 40 143t102 97q37 18 74 18h23q54 -2 88 -8l29 -7z" />
    <glyph glyph-name="divide" unicode="&#xf7;" horiz-adv-x="585" 
d="M271 608q13 5 17 5q7 0 24 -7q14 -6 24.5 -23t10.5 -32q0 -6 -1 -9q-6 -18 -20.5 -28.5t-32.5 -10.5q-17 0 -31 10q-15 10 -19 17.5t-4 25.5q0 39 32 52zM457 430q4 0 10.5 0.5t9.5 0.5q59 0 59 -24q0 -14 -29.5 -21t-128.5 -16q-96 -8 -213 -21q-54 -6 -72 -6
q-15 0 -27 5q-18 9 -18 21q0 11 11 20.5t26 9.5q25 0 79 8q47 7 293 23zM280 264q12 5 23 5q26 0 44 -16q14 -13 14 -34q0 -20 -13.5 -38t-35.5 -25q-11 -4 -21 -4q-23 0 -36 35q-7 25 -7 27q0 4 7 21q11 22 25 29z" />
    <glyph glyph-name="Gamma" unicode="&#x393;" horiz-adv-x="520" 
d="M430 765q11 4 26 0q14 -3 14 -17t-14 -25q-10 -7 -35.5 -9.5t-113.5 -6.5q-133 -5 -167 -9l-34 -4l4 -84q1 -30 3.5 -109.5t5.5 -134.5t8 -110q9 -102 9 -164q0 -64 -9 -76q-9 -13 -22 -13q-19 0 -24 18t-7 87q-2 82 -11 186q-9 106 -13 268l-3 167l14 9q30 20 249 22
q105 0 120 5z" />
    <glyph glyph-name="Gamma" unicode="&#x3b3;" horiz-adv-x="520" 
d="M430 765q11 4 26 0q14 -3 14 -17t-14 -25q-10 -7 -35.5 -9.5t-113.5 -6.5q-133 -5 -167 -9l-34 -4l4 -84q1 -30 3.5 -109.5t5.5 -134.5t8 -110q9 -102 9 -164q0 -64 -9 -76q-9 -13 -22 -13q-19 0 -24 18t-7 87q-2 82 -11 186q-9 106 -13 268l-3 167l14 9q30 20 249 22
q105 0 120 5z" />
    <glyph glyph-name="Delta" unicode="&#x394;" horiz-adv-x="615" 
d="M331 658q0 11 -12 -3l-8 -12q-31 -59 -91.5 -229.5t-88.5 -275.5l-20 -76l12 -3q11 -3 200 -5l186 -2l-37 108q-65 189 -115 389q-26 102 -26 109zM306 735q12 12 20 12q11 0 28 -27q15 -23 29 -67t50 -176q36 -134 79 -258q57 -166 57 -182q0 -4 -2 -12q-4 -16 -18 -25
q-10 -7 -39 -7q-31 0 -88 4q-124 6 -238 6q-99 0 -118.5 4.5t-19.5 25.5q0 17 39 150.5t63 200.5q47 130 92 229.5t66 121.5z" />
    <glyph glyph-name="Delta" unicode="&#x3b4;" horiz-adv-x="615" 
d="M331 658q0 11 -12 -3l-8 -12q-31 -59 -91.5 -229.5t-88.5 -275.5l-20 -76l12 -3q11 -3 200 -5l186 -2l-37 108q-65 189 -115 389q-26 102 -26 109zM306 735q12 12 20 12q11 0 28 -27q15 -23 29 -67t50 -176q36 -134 79 -258q57 -166 57 -182q0 -4 -2 -12q-4 -16 -18 -25
q-10 -7 -39 -7q-31 0 -88 4q-124 6 -238 6q-99 0 -118.5 4.5t-19.5 25.5q0 17 39 150.5t63 200.5q47 130 92 229.5t66 121.5z" />
    <glyph glyph-name="Lambda" unicode="&#x39b;" horiz-adv-x="645" 
d="M313 729q11 12 26 12h4q17 -2 30 -19.5t29 -59.5q114 -305 156 -429.5t42 -164.5q0 -28 -22 -28h-5q-16 1 -23.5 17.5t-30.5 98.5q-14 54 -53 160q-11 31 -40.5 112t-38.5 107q-45 129 -51 129q-2 0 -5 -7q-16 -30 -161 -414q-51 -134 -69 -172t-30 -38q-10 0 -18.5 9
t-8.5 19q0 25 145 390q60 151 85 207t39 71z" />
    <glyph glyph-name="Lambda" unicode="&#x3bb;" horiz-adv-x="645" 
d="M313 729q11 12 26 12h4q17 -2 30 -19.5t29 -59.5q114 -305 156 -429.5t42 -164.5q0 -28 -22 -28h-5q-16 1 -23.5 17.5t-30.5 98.5q-14 54 -53 160q-11 31 -40.5 112t-38.5 107q-45 129 -51 129q-2 0 -5 -7q-16 -30 -161 -414q-51 -134 -69 -172t-30 -38q-10 0 -18.5 9
t-8.5 19q0 25 145 390q60 151 85 207t39 71z" />
    <glyph glyph-name="Xi" unicode="&#x39e;" horiz-adv-x="657" 
d="M165 761q46 3 117 3q100 0 190 -4.5t97 -11.5q8 -7 8 -17q0 -12 -10 -18q-16 -6 -230 -6q-156 0 -189 2t-41 10q-12 12 -6 23q5 10 17.5 13.5t46.5 5.5zM412 435q36 3 55 3q29 0 41 -9q14 -11 7 -23q-5 -12 -20 -16q-18 -4 -144.5 -15t-154.5 -11q-30 0 -50.5 7.5
t-20.5 18.5q0 13 31 20t117 14q28 2 60 4.5t53 4.5t26 2zM255 96q63 6 210 6q120 0 133 -5q16 -7 14 -23q-1 -16 -29 -20t-166 -9h-4h-4q-153 -5 -245 -15q-53 -5 -74 -5q-26 0 -35 5.5t-11 20.5v5q0 14 17 19.5t71 10.5q20 2 64.5 5.5t58.5 4.5z" />
    <glyph glyph-name="Xi" unicode="&#x3be;" horiz-adv-x="657" 
d="M165 761q46 3 117 3q100 0 190 -4.5t97 -11.5q8 -7 8 -17q0 -12 -10 -18q-16 -6 -230 -6q-156 0 -189 2t-41 10q-12 12 -6 23q5 10 17.5 13.5t46.5 5.5zM412 435q36 3 55 3q29 0 41 -9q14 -11 7 -23q-5 -12 -20 -16q-18 -4 -144.5 -15t-154.5 -11q-30 0 -50.5 7.5
t-20.5 18.5q0 13 31 20t117 14q28 2 60 4.5t53 4.5t26 2zM255 96q63 6 210 6q120 0 133 -5q16 -7 14 -23q-1 -16 -29 -20t-166 -9h-4h-4q-153 -5 -245 -15q-53 -5 -74 -5q-26 0 -35 5.5t-11 20.5v5q0 14 17 19.5t71 10.5q20 2 64.5 5.5t58.5 4.5z" />
    <glyph glyph-name="Pi" unicode="&#x3a0;" horiz-adv-x="645" 
d="M63 730q10 11 45 11q5 0 77 -2q133 -4 249.5 -14.5t125.5 -19.5q10 -10 14 -45.5t7 -135.5q3 -122 13 -284q5 -83 5 -131q0 -32 -4 -40q-10 -18 -28 -18q-10 0 -16 7q-8 10 -16 159.5t-13.5 294t-7.5 145.5q-4 4 -107.5 13t-176.5 11q-103 4 -115 7l-13 3l-1 -153
q0 -19 -0.5 -71.5t-0.5 -82.5t0.5 -83t0.5 -74v-45q0 -113 -4 -129t-21 -23q-8 -3 -14 -3q-12 0 -15 29t-3 134v104q1 252 4.5 338t14.5 98z" />
    <glyph glyph-name="Pi" unicode="&#x3c0;" horiz-adv-x="645" 
d="M63 730q10 11 45 11q5 0 77 -2q133 -4 249.5 -14.5t125.5 -19.5q10 -10 14 -45.5t7 -135.5q3 -122 13 -284q5 -83 5 -131q0 -32 -4 -40q-10 -18 -28 -18q-10 0 -16 7q-8 10 -16 159.5t-13.5 294t-7.5 145.5q-4 4 -107.5 13t-176.5 11q-103 4 -115 7l-13 3l-1 -153
q0 -19 -0.5 -71.5t-0.5 -82.5t0.5 -83t0.5 -74v-45q0 -113 -4 -129t-21 -23q-8 -3 -14 -3q-12 0 -15 29t-3 134v104q1 252 4.5 338t14.5 98z" />
    <glyph glyph-name="Sigma" unicode="&#x3a3;" horiz-adv-x="655" 
d="M96 751q8 8 75 8q9 0 159 -2q222 -3 231 -10q7 -6 7 -15q0 -12 -10 -21q-7 -7 -38 -8.5t-146 -2.5l-173 -2l64 -54q52 -44 76.5 -70.5t46.5 -63.5q18 -30 18 -46q0 -22 -33 -56q-56 -60 -162 -214q-68 -100 -72 -104t-4 -7q0 -4 27 -5q151 -2 289 -7t146 -9q13 -6 13 -21
t-13 -21q-10 -5 -139 -5q-125 0 -259 4t-142 9q-12 8 -12 21q0 21 30 56q26 31 82 114q96 141 151 204q34 38 34 46t-21.5 37t-42.5 49q-49 46 -105 89q-53 43 -70.5 60t-17.5 28q0 8 11 19z" />
    <glyph glyph-name="Sigma" unicode="&#x3c3;" horiz-adv-x="655" 
d="M96 751q8 8 75 8q9 0 159 -2q222 -3 231 -10q7 -6 7 -15q0 -12 -10 -21q-7 -7 -38 -8.5t-146 -2.5l-173 -2l64 -54q52 -44 76.5 -70.5t46.5 -63.5q18 -30 18 -46q0 -22 -33 -56q-56 -60 -162 -214q-68 -100 -72 -104t-4 -7q0 -4 27 -5q151 -2 289 -7t146 -9q13 -6 13 -21
t-13 -21q-10 -5 -139 -5q-125 0 -259 4t-142 9q-12 8 -12 21q0 21 30 56q26 31 82 114q96 141 151 204q34 38 34 46t-21.5 37t-42.5 49q-49 46 -105 89q-53 43 -70.5 60t-17.5 28q0 8 11 19z" />
    <glyph glyph-name="Phi" unicode="&#x3a6;" horiz-adv-x="738" 
d="M551 545q-16 8 -99 43l-75 31l4 -103v-47q0 -94 -3 -154q-3 -53 -3 -85q0 -16 1 -17t6 -1q19 0 72.5 11.5t73.5 20.5q96 43 105 153q0 3 0.5 7t0.5 7q0 91 -83 134zM324 541q-4 84 -9 84q-71 -13 -124 -46q-17 -10 -27 -23.5t-27 -49.5q-21 -43 -25 -57t-4 -55
q0 -38 2.5 -51t12.5 -28q19 -29 71 -57.5t97 -36.5l23 -4l3 46q9 118 9 205q0 27 -2 73zM329 787q5 7 18 7t18 -7q6 -12 11 -56l6 -50l50 -7q94 -13 97 -50q0 -4 41 -25q35 -17 64 -46t43 -60q13 -29 13 -81q0 -56 -14 -90q-28 -70 -89.5 -109.5t-166.5 -53.5l-53 -7v-20
q-1 -41 -7.5 -101t-10.5 -66q-6 -8 -18 -8q-16 0 -24 13q-6 9 -6 32q0 25 2 45q5 58 5 87l1 24l-42 9q-69 17 -124 53t-75 77q-20 42 -20 94q0 99 63 191q46 68 172 92l35 7l3 50q4 49 8 56z" />
    <glyph glyph-name="Phi" unicode="&#x3c6;" horiz-adv-x="738" 
d="M551 545q-16 8 -99 43l-75 31l4 -103v-47q0 -94 -3 -154q-3 -53 -3 -85q0 -16 1 -17t6 -1q19 0 72.5 11.5t73.5 20.5q96 43 105 153q0 3 0.5 7t0.5 7q0 91 -83 134zM324 541q-4 84 -9 84q-71 -13 -124 -46q-17 -10 -27 -23.5t-27 -49.5q-21 -43 -25 -57t-4 -55
q0 -38 2.5 -51t12.5 -28q19 -29 71 -57.5t97 -36.5l23 -4l3 46q9 118 9 205q0 27 -2 73zM329 787q5 7 18 7t18 -7q6 -12 11 -56l6 -50l50 -7q94 -13 97 -50q0 -4 41 -25q35 -17 64 -46t43 -60q13 -29 13 -81q0 -56 -14 -90q-28 -70 -89.5 -109.5t-166.5 -53.5l-53 -7v-20
q-1 -41 -7.5 -101t-10.5 -66q-6 -8 -18 -8q-16 0 -24 13q-6 9 -6 32q0 25 2 45q5 58 5 87l1 24l-42 9q-69 17 -124 53t-75 77q-20 42 -20 94q0 99 63 191q46 68 172 92l35 7l3 50q4 49 8 56z" />
    <glyph glyph-name="Psi" unicode="&#x3a8;" horiz-adv-x="764" 
d="M391 735q8 8 15 8q10 0 19 -15q8 -11 8 -56q0 -7 -2 -99q-1 -39 -1 -121q0 -74 1 -94l4 -74l28 3q44 5 86.5 40t71.5 89q38 73 38 183v14q0 11 -0.5 30t-0.5 26v13v10l1 4q0 7 13 7q17 0 24 -10q20 -23 20 -100q0 -68 -17 -128q-26 -95 -90.5 -161t-139.5 -75l-31 -3
l3 -108q2 -70 2 -76q0 -34 -9 -43t-19 -9q-12 0 -19 13q-8 13 -12 104q0 9 -1 25q-3 81 -10 93q-6 9 -30 16l-10 3q-63 19 -121.5 65.5t-93.5 102.5q-32 52 -51 123.5t-19 126.5q0 69 29 69q26 0 26 -66q8 -127 61 -216t145 -132q44 -21 50 -21q11 0 13.5 20.5t2.5 86.5v60
q1 257 16 272z" />
    <glyph glyph-name="Psi" unicode="&#x3c8;" horiz-adv-x="764" 
d="M391 735q8 8 15 8q10 0 19 -15q8 -11 8 -56q0 -7 -2 -99q-1 -39 -1 -121q0 -74 1 -94l4 -74l28 3q44 5 86.5 40t71.5 89q38 73 38 183v14q0 11 -0.5 30t-0.5 26v13v10l1 4q0 7 13 7q17 0 24 -10q20 -23 20 -100q0 -68 -17 -128q-26 -95 -90.5 -161t-139.5 -75l-31 -3
l3 -108q2 -70 2 -76q0 -34 -9 -43t-19 -9q-12 0 -19 13q-8 13 -12 104q0 9 -1 25q-3 81 -10 93q-6 9 -30 16l-10 3q-63 19 -121.5 65.5t-93.5 102.5q-32 52 -51 123.5t-19 126.5q0 69 29 69q26 0 26 -66q8 -127 61 -216t145 -132q44 -21 50 -21q11 0 13.5 20.5t2.5 86.5v60
q1 257 16 272z" />
    <glyph glyph-name="Omega" unicode="&#x3a9;" horiz-adv-x="856" 
d="M322 728q31 8 70 8q36 0 78 -7q86 -15 117.5 -43.5t66.5 -121.5q32 -87 32 -150q0 -22 -3 -46q-15 -118 -42 -162q-15 -22 -52 -70q-39 -48 -39 -51q0 -2 76 -2h53l129 3l1 -16q2 -16 -16 -25.5t-57 -14t-103 -4.5h-41q-90 2 -109.5 7t-19.5 28q0 18 28 47q70 76 93 112
t32 81q12 66 12 110q0 66 -36 155q-20 51 -39 70t-59 28q-55 13 -103 13q-113 0 -192 -98q-76 -95 -76 -172q0 -51 31 -116q32 -67 119 -164q51 -56 51 -73q0 -19 -11.5 -25.5t-51.5 -6.5q-30 0 -84 3q-80 4 -105.5 10.5t-25.5 21.5t22 20.5t83 5.5q80 0 80 3q0 5 -43 53
q-120 139 -120 265q0 84 55 170q81 125 199 154z" />
    <glyph glyph-name="Omega" unicode="&#x3c9;" horiz-adv-x="856" 
d="M322 728q31 8 70 8q36 0 78 -7q86 -15 117.5 -43.5t66.5 -121.5q32 -87 32 -150q0 -22 -3 -46q-15 -118 -42 -162q-15 -22 -52 -70q-39 -48 -39 -51q0 -2 76 -2h53l129 3l1 -16q2 -16 -16 -25.5t-57 -14t-103 -4.5h-41q-90 2 -109.5 7t-19.5 28q0 18 28 47q70 76 93 112
t32 81q12 66 12 110q0 66 -36 155q-20 51 -39 70t-59 28q-55 13 -103 13q-113 0 -192 -98q-76 -95 -76 -172q0 -51 31 -116q32 -67 119 -164q51 -56 51 -73q0 -19 -11.5 -25.5t-51.5 -6.5q-30 0 -84 3q-80 4 -105.5 10.5t-25.5 21.5t22 20.5t83 5.5q80 0 80 3q0 5 -43 53
q-120 139 -120 265q0 84 55 170q81 125 199 154z" />
    <glyph glyph-name="uni2010" unicode="&#x2010;" horiz-adv-x="423" 
d="M140 320q70 5 145 5q80 0 85 -8q6 -6 6 -13q0 -14 -23 -22q-18 -7 -151 -14q-64 -4 -105 -4q-33 0 -42 5t-9 19q0 16 17.5 22t76.5 10z" />
    <glyph glyph-name="uni2011" unicode="&#x2011;" horiz-adv-x="404" 
d="M58 312q11 8 45 8q6 0 78 -2q98 -3 137 -9.5t39 -19.5q0 -3 -3 -8q-5 -7 -29.5 -8.5t-126.5 -1.5h-150l-2 16q-1 15 12 25z" />
    <glyph glyph-name="figuredash" unicode="&#x2012;" horiz-adv-x="706" 
d="M228 407q218 5 309 5q75 0 90 -3q32 -6 32 -26q0 -8 -7 -15q-10 -10 -58 -11q-420 -12 -472 -12t-62 7q-14 9 -14 23q0 15 13 21q10 6 169 11z" />
    <glyph glyph-name="endash" unicode="&#x2013;" horiz-adv-x="619" 
d="M59 335q11 8 97 8q83 0 151 -1q160 -2 200 -3.5t50 -8.5q15 -9 15 -22q0 -11 -11 -17q-7 -4 -133 -4q-120 0 -245 3.5t-130 7.5q-7 6 -7 15q0 13 13 22z" />
    <glyph glyph-name="emdash" unicode="&#x2014;" horiz-adv-x="1071" 
d="M196 343q185 5 488 5q320 0 330 -5q10 -6 10 -17q0 -10 -8 -17q-8 -6 -83 -9t-444 -10q-84 -2 -177 -3.5t-136 -2.5t-67 -1q-27 0 -39.5 1t-14 2t-3.5 5q-6 9 -6 19q0 15 13 23q11 7 137 10z" />
    <glyph glyph-name="afii00208" unicode="&#x2015;" horiz-adv-x="1001" 
d="M369 363q15 1 77 1q276 0 366 -9q119 -11 135 -24q7 -6 7 -15q0 -13 -14 -19q-8 -2 -19 -2q-10 0 -54 4q-62 7 -259 7q-281 0 -411 -11q-86 -8 -124 -8q-3 0 -5 0.5t-4 0.5h-1q-17 6 -17 21q0 20 24 28q37 11 299 26z" />
    <glyph glyph-name="uni2016" unicode="&#x2016;" horiz-adv-x="423" 
d="M305 766q7 12 22 11l15 -2l4 -240q4 -234 13 -391q10 -163 13 -252q2 -72 2 -75q0 -29 -10 -37q-9 -9 -19 -9q-13 0 -21 16q-6 13 -10 98q0 5 -15 308q-11 222 -11 355q0 186 17 218zM72 763q8 9 15 9l18 -14q8 -11 8 -80q0 -11 -2 -157q-2 -124 -7 -489
q-2 -194 -6 -236.5t-19 -42.5q-6 0 -10 1q-16 1 -20 19q-5 20 -5 171q0 152 6 342q9 316 12.5 393t9.5 84z" />
    <glyph glyph-name="underscoredbl" unicode="&#x2017;" horiz-adv-x="551" 
d="M158 1q92 5 179 5q80 0 100 -4q17 -5 17 -20q0 -7 -7 -14q-10 -8 -124 -13q-119 -6 -184 -9q-36 -2 -44 -2q-30 0 -41 5.5t-11 20.5t21 21t94 10zM220 -152q7 1 84 1h58q52 0 78 -1t42.5 -4.5t20 -8t3.5 -13.5q0 -18 -25 -22.5t-139 -6.5q-124 -3 -210 -8q-34 -2 -43 -2
q-26 0 -36 5.5t-10 19.5q0 15 15 20t75 11q21 2 87 9z" />
    <glyph glyph-name="quoteleft" unicode="&#x2018;" horiz-adv-x="231" 
d="M141 752q13 8 21 8q12 0 18 -12q3 -6 3 -13q0 -8 -8 -38q-17 -61 -30 -110q-13 -54 -22 -73t-23 -19q-10 0 -30 11q-15 7 -19 12.5t-4 17.5q0 17 8 45q10 33 43 98t43 73z" />
    <glyph glyph-name="quoteright" unicode="&#x2019;" horiz-adv-x="206" 
d="M95 740q10 15 33 15q22 0 27 -13q3 -6 3 -12q0 -11 -34 -109q-21 -60 -31.5 -79t-23.5 -19q-23 0 -23 43q0 24 18.5 90.5t30.5 83.5z" />
    <glyph glyph-name="quotesinglbase" unicode="&#x201a;" horiz-adv-x="196" 
d="M78 131q9 10 35 10q20 0 28 -3.5t8 -16.5q0 -19 -21 -86q-26 -82 -32.5 -95.5t-22.5 -13.5q-28 0 -28 39q0 14 1 22q5 46 15 91t17 53z" />
    <glyph glyph-name="quotereversed" unicode="&#x201b;" horiz-adv-x="249" 
d="M57 744q9 11 31 11q20 0 30 -10q6 -7 38 -103q26 -83 40 -111q6 -12 6 -22q0 -27 -27 -27q-18 0 -36 28q-16 24 -54 111.5t-38 100.5q0 12 10 22z" />
    <glyph glyph-name="quotedblleft" unicode="&#x201c;" horiz-adv-x="405" 
d="M136 739q9 21 19 21q1 0 3 -0.5t3 -0.5q12 -1 17 -5t5 -15q0 -19 -24 -104q-21 -77 -35 -104t-34 -27q-9 0 -28 7q-15 6 -15 26q0 17 19.5 65.5t40.5 82.5q18 28 29 54zM311 729q22 20 30 20q7 0 14 -9q3 -3 3 -9q0 -12 -23 -82q-29 -95 -31 -104q-3 -20 -13 -30
q-13 -12 -41 -12q-12 0 -21 3q-9 4 -11.5 6.5t-2.5 10.5q0 1 0.5 5.5t0.5 7.5q3 27 39.5 101t55.5 92z" />
    <glyph glyph-name="quotedblright" unicode="&#x201d;" horiz-adv-x="384" 
d="M281 752q25 7 37 7q9 0 15 -7q3 -5 3 -11q0 -13 -14 -58q-26 -87 -41 -157q-3 -15 -11.5 -24t-17.5 -9q-10 0 -18 12q-5 9 -5 55q0 51 5.5 107t13.5 67q7 11 33 18zM82 745q9 10 35 10q27 0 38 -11q6 -6 6 -17q0 -17 -21 -74q-13 -35 -27 -84q-11 -35 -20 -48.5
t-22 -13.5h-4q-21 1 -21 42q0 21 6 49q10 48 15 90q5 45 15 57z" />
    <glyph glyph-name="quotedblbase" unicode="&#x201e;" horiz-adv-x="376" 
d="M69 152q7 3 18 3q25 0 51 -13q16 -8 16 -24q0 -14 -28 -93.5t-36 -89.5q-5 -9 -20 -9t-20 9t-5 41q0 9 2 59q4 80 6.5 96t15.5 21zM277 152q24 2 31 2h8l4 -1q10 -3 10 -17q0 -24 -49 -171q-17 -50 -35 -50q-8 0 -18 10q-9 9 -11 25t-2 81q0 67 1.5 81t11.5 24
q13 13 49 16z" />
    <glyph glyph-name="uni201f" unicode="&#x201f;" horiz-adv-x="403" 
d="M72 764q20 7 35 7q16 0 23 -8q7 -9 20 -83q13 -75 20 -106q4 -22 4 -26q0 -24 -21 -24h-6q-10 2 -19 14.5t-31 58.5q-51 102 -51 134q0 24 26 33zM250 741q21 14 43 14q15 0 20 -3.5t10 -15.5q8 -19 20 -80.5t13 -86.5v-8q0 -19 -5 -25.5t-19 -6.5q-11 0 -19 7.5
t-25 34.5q-59 91 -59 133q0 25 21 37z" />
    <glyph glyph-name="dagger" unicode="&#x2020;" horiz-adv-x="439" 
d="M210 781q8 13 22 13q13 0 19 -11q6 -14 6 -113v-102l66 -2q59 -2 64 -6q3 -3 3 -12q0 -12 -15.5 -18t-59.5 -10l-59 -7l3 -222q1 -57 1 -135q0 -57 -3 -81t-8.5 -29t-20.5 -5h-20l-4 41q-2 23 -4 233l-1 193l-67 3q-52 2 -68 7.5t-16 20.5q0 16 19 22t69 6h61l3 101
q3 97 10 113z" />
    <glyph glyph-name="daggerdbl" unicode="&#x2021;" horiz-adv-x="505" 
d="M248 780q5 4 12 4q15 0 24 -14q3 -5 7 -93t12 -92q6 -4 63 -8q45 -3 61 -8.5t16 -17.5q0 -16 -14.5 -20t-65.5 -4h-65v-110q0 -115 3 -136l4 -26l62 -3q49 -2 68.5 -8t19.5 -19q0 -14 -15.5 -18.5t-66.5 -6.5l-67 -2l-3 -91q-2 -71 -7.5 -90t-23.5 -19t-22.5 16.5
t-4.5 88.5v92l-56 -4q-66 -4 -81 -4q-41 0 -51 8q-9 7 -9 27q0 14 6 18q6 3 65 5q124 3 124 17q0 1 -0.5 21t-1.5 52.5t-1 63.5v128h-81q-59 0 -76.5 4t-17.5 18q0 1 0.5 3.5t0.5 4.5q3 29 108 30l59 1l2 92q2 63 4 79t9 21z" />
    <glyph glyph-name="bullet" unicode="&#x2022;" horiz-adv-x="321" 
d="M103 480q30 26 40 30.5t36 4.5q34 0 51 -10t30 -35t13 -50t-18 -62.5t-39 -56.5q-32 -28 -71 -28q-40 0 -68.5 29t-29.5 76q0 32 11 52.5t45 49.5z" />
    <glyph glyph-name="uni2023" unicode="&#x2023;" horiz-adv-x="384" 
d="M52 667q4 10 17 10q23 0 81 -43q40 -30 117 -77q44 -26 55 -35.5t13 -21.5v-6q0 -9 -10 -17t-48 -30q-55 -33 -116.5 -61t-76.5 -28q-13 0 -19 8q-5 7 -12 93.5t-7 138.5v10q0 49 6 59z" />
    <glyph glyph-name="onedotenleader" unicode="&#x2024;" horiz-adv-x="231" 
d="M86 297q16 9 32 9q27 0 46.5 -19.5t19.5 -46.5q0 -8 -1 -12q-4 -17 -20.5 -33t-35.5 -20q-10 -2 -14 -2q-26 0 -46.5 18t-20.5 41q0 16 12.5 36.5t27.5 28.5z" />
    <glyph glyph-name="twodotenleader" unicode="&#x2025;" horiz-adv-x="761" 
d="M71 684q7 3 28 3q64 0 82 -10q10 -6 10 -27q0 -22 13 -70q8 -34 8 -44q0 -8 -3 -14q-13 -24 -75 -24q-4 0 -11 0.5t-10 0.5q-48 3 -57.5 16t-9.5 77q0 50 5 67.5t20 24.5zM591 673q20 4 49 4q24 0 40 -3q18 -4 26 -21.5t8 -57.5q0 -4 -0.5 -12.5t-0.5 -13.5
q-2 -58 -12 -69.5t-61 -12.5h-16q-36 0 -48 4q-24 12 -24 110q0 44 6 55t33 17z" />
    <glyph glyph-name="ellipsis" unicode="&#x2026;" horiz-adv-x="777" 
d="M626 150q16 15 30 15q12 0 34 -11q41 -24 41 -71q0 -32 -20 -54.5t-47 -22.5q-7 0 -11 1q-24 4 -38.5 26t-14.5 51q0 40 26 66zM90 144q18 17 40 17q24 0 41 -19.5t17 -46.5q0 -16 -7 -33q-7 -20 -30.5 -36.5t-43.5 -16.5q-23 0 -42.5 18t-19.5 39q0 13 15 39t30 39z
M367 142q13 6 32 6q40 0 58 -18q12 -11 12 -32q0 -13 -6 -23t-27 -32q-33 -33 -52 -33q-14 0 -31 16q-12 10 -15 18t-3 28q0 53 32 70z" />
    <glyph glyph-name="uni2027" unicode="&#x2027;" horiz-adv-x="215" 
d="M77 469q17 11 32 11q19 0 39 -20t20 -43q0 -13 -8 -27q-13 -22 -35 -41.5t-33 -19.5q-18 0 -30.5 16.5t-14.5 44.5q0 3 -0.5 7.5t-0.5 6.5q0 44 31 65z" />
    <glyph glyph-name="minute" unicode="&#x2032;" horiz-adv-x="184" 
d="M81 749q5 0 10.5 1t8.5 1.5t4 0.5q3 1 18 -10q10 -8 12.5 -22t3.5 -77v-38q0 -51 -5.5 -67.5t-22.5 -16.5q-37 0 -55 109q-9 56 -9 79q0 22 7.5 30t27.5 10z" />
    <glyph glyph-name="second" unicode="&#x2033;" horiz-adv-x="372" 
d="M81 741q21 6 34 6q12 0 15 -5q3 -3 3 -75v-28q-1 -85 -7 -110.5t-27 -25.5q-17 0 -22 7q-4 7 -17.5 90.5t-13.5 101.5t6.5 25.5t28.5 13.5zM255 728q14 7 29 7q17 0 28 -8q13 -9 13 -44q0 -25 -6 -75q-13 -109 -43 -109q-6 0 -12 3q-13 6 -16.5 27.5t-5.5 104.5l-1 87z
" />
    <glyph glyph-name="uni2034" unicode="&#x2034;" horiz-adv-x="534" 
d="M52 739q7 9 35 9q22 0 29.5 -6t7.5 -28q0 -16 -3 -45q-9 -86 -14 -113t-12 -33q-8 -7 -14 -7q-7 0 -18 10q-9 8 -11.5 23.5t-4.5 83.5q-1 22 -1 54q0 45 6 52zM231 724q6 12 24 12q24 0 36 -17q9 -12 9 -34q0 -17 -3 -57q-5 -73 -12 -89q-6 -12 -20 -12q-15 0 -24 13
q-6 9 -10.5 52.5t-4.5 83.5q0 38 5 48zM418 722q6 9 24 9q22 0 35 -13q9 -9 9 -25q0 -13 -1 -23q0 -5 -2 -46t-5.5 -69.5t-10.5 -37.5q-7 -13 -24 -13q-13 0 -20 9q-10 13 -10 139q0 64 5 70z" />
    <glyph glyph-name="uni2035" unicode="&#x2035;" horiz-adv-x="249" 
d="M63 927q15 12 26 12q8 0 17 -9q9 -10 50.5 -102t44.5 -109q1 -3 1 -9q0 -13 -6 -22.5t-15 -9.5q-11 0 -30 22t-35 55q-16 32 -44 80q-25 43 -25 64q0 15 16 28z" />
    <glyph glyph-name="uni2036" unicode="&#x2036;" horiz-adv-x="435" 
d="M254 931q18 9 25 9q15 0 27.5 -21t33.5 -79q26 -70 35 -88q13 -26 13 -40q0 -19 -19 -21q-2 0 -4 -0.5t-3 -0.5q-12 0 -23 12.5t-42 59.5q-66 100 -66 132q0 5 2 11q6 18 21 26zM68 915q19 12 35 12q11 0 16 -4q12 -8 63 -126q32 -74 32 -94q0 -16 -24 -16q-13 0 -19 4
t-13 19q-10 21 -62 92q-49 66 -49 85q0 14 21 28z" />
    <glyph glyph-name="uni2037" unicode="&#x2037;" horiz-adv-x="649" 
d="M262 926q16 8 36 8t32 -16.5t54 -104.5q38 -79 38 -94q0 -4 -2 -10q-5 -13 -15 -17h-2l-2 -1q-9 0 -21.5 8t-12.5 14q0 8 -29.5 51t-54.5 71q-39 44 -39 66q0 16 18 25zM62 909q13 19 28 19q16 0 23 -24q6 -19 53 -103q43 -80 43 -99q0 -15 -19 -15q-11 0 -20 8t-31 38
q-82 113 -89 133q-3 7 -3 13q0 10 15 30zM452 915q9 13 31 13t37 -19.5t51 -92.5q31 -65 31 -75q0 -6 -5 -14q-9 -14 -19 -14q-14 0 -33 27q-19 29 -60 82q-41 54 -41 72q0 10 8 21z" />
    <glyph glyph-name="uni2038" unicode="&#x2038;" horiz-adv-x="445" 
d="M190 372q10 6 19 6q13 0 21 -13q1 -2 14 -27t34.5 -66.5t41.5 -80.5q76 -149 76 -168q0 -3 -1 -4q-6 -11 -20 -11t-25 11q-7 7 -73 139q-63 127 -67 127q-4 1 -31 -61t-50 -124q-19 -51 -29.5 -69t-21.5 -18q-10 0 -20 10.5t-10 19.5q0 12 36.5 105t63.5 150q32 69 42 74
z" />
    <glyph glyph-name="guilsinglleft" unicode="&#x2039;" horiz-adv-x="340" 
d="M179 452q37 41 52 41h5q20 -2 20 -15q0 -17 -36 -62q-34 -41 -68.5 -92.5t-34.5 -59.5q0 -6 52 -64q56 -60 79 -91q30 -38 35 -40q7 -4 7 -18t-7 -20q-9 -7 -16 -7q-21 0 -74 60q-50 57 -97 108q-48 53 -48 66q0 14 47.5 84t83.5 110z" />
    <glyph glyph-name="guilsinglright" unicode="&#x203a;" horiz-adv-x="299" 
d="M66 499q6 6 14 6q18 0 56 -41q46 -49 80 -105.5t34 -85.5q0 -12 -48 -65q-72 -82 -81 -94q-34 -43 -51 -43q-8 0 -15 7t-7 17q0 32 96 137l44 48l-12 29q-18 46 -81 118q-35 41 -35 58q0 8 6 14z" />
    <glyph glyph-name="uni20a9" unicode="&#x20a9;" horiz-adv-x="756" 
d="M238 258q0 5 -7.5 9t-16.5 4q-8 0 -12 -3q-4 -1 -4 -12q0 -10 3.5 -27.5t7.5 -30t5 -13.5h1q4 0 13.5 30t9.5 43zM507 241l4 45h-18q-10 0 -13.5 -1.5t-3.5 -9.5q0 -11 9 -50q7 -36 12 -36q6 0 10 52zM530 392l4 33h-47q-30 0 -37.5 -1t-7.5 -6q0 -4 1 -6q3 -12 9 -44
l7 -30h28q25 0 32 8.5t11 45.5zM390 387l-11 40q-8 1 -23.5 2.5t-23.5 1.5l-7 -37q-9 -47 -10 -49q-1 -3 -1 -6q0 -5 6.5 -6t32.5 -1q41 0 44 7l1 1v2q0 9 -8 45zM236 430q-36 0 -56 4q-4 1 -9 1q-9 0 -9 -11q0 -8 10 -55l9 -43h73l6 29q1 4 5 24t5 28l4 23h-38zM366 503
q-3 22 -9 22q-3 0 -6 -9q-3 -14 -3 -21q0 -11 7 -11h3q9 1 8 19zM53 742q7 7 14 7q20 0 34 -48q3 -11 26 -117q18 -86 21 -89q4 -4 72 -6l68 -2l16 66q17 67 22 121q4 45 9.5 57t20.5 12q17 0 25.5 -23t23.5 -111q18 -112 23 -120q4 -6 61 -10l58 -4l14 54q20 81 33 160
q3 15 19 15q9 0 18 -6q12 -9 12 -33q0 -27 -17 -106q-15 -63 -15 -79q0 -5 27 -9q33 -5 33 -20q0 -9 -12.5 -16.5t-34.5 -9.5l-30 -3l-7 -37q-5 -25 -5 -36q0 -4 1 -5q2 -2 62 -6q53 -2 58 -8q2 -3 2 -11q0 -11 -14.5 -16t-58.5 -9l-61 -6l-10 -78q-14 -105 -28.5 -144.5
t-39.5 -39.5h-3q-17 1 -25 23t-29 126q-20 101 -26 105q-4 2 -23 2q-74 0 -82 -8q-5 -5 -21 -67q-36 -137 -53 -157q-6 -8 -23 -8t-23 8q-5 9 -27 112l-22 103l-33 7q-35 7 -43 11t-8 17q0 26 50 26q20 0 20 8q0 14 -12.5 62.5t-16.5 50.5q-15 5 -30 19t-15 25t6 18.5
t16 7.5t10 13q0 16 -16 93q-17 81 -17 101q0 12 6 18z" />
    <glyph glyph-name="Euro" unicode="&#x20ac;" horiz-adv-x="641" 
d="M226 687q36 38 74.5 52t111.5 14h19q71 -2 101 -15q27 -13 38 -22.5t11 -21.5q0 -22 -15 -22q-12 0 -32 10q-38 19 -96 19q-31 0 -56 -4q-62 -9 -95.5 -32t-57.5 -74q-11 -21 -20 -54t-9 -47q0 -5 1 -6q3 -3 109 -5q99 -1 130.5 -5.5t40.5 -17.5q5 -6 5 -16
q0 -14 -11 -16h-75h-72h-140v-81l65 -1q9 0 29 -0.5t30 -0.5q11 0 29.5 0.5t24.5 0.5h20q26 0 35.5 -4.5t9.5 -17.5q0 -10 -11.5 -16.5t-28.5 -6.5t-21 -6q-3 -5 -88 -5h-26q-35 0 -46 -3t-11 -15q0 -8 12 -51q26 -91 71 -132q34 -31 76 -31q7 0 31 2q39 2 82 26
q41 22 67 48q23 22 38 22q13 0 16 -22v-7q0 -14 -29 -42q-34 -32 -66 -47q-36 -19 -38 -22q-5 -5 -40 -13q-19 -4 -46 -4q-57 0 -93 18q-50 25 -82.5 85t-58.5 171q-2 10 -8 13.5t-26 4.5q-29 3 -37 14q-7 10 -7 18q0 20 35 22q5 0 12.5 0.5t12 1t5.5 0.5q4 2 4 44v43h-25
q-22 0 -37.5 7t-17.5 18q0 1 -0.5 3t-0.5 3q0 21 50 21q37 0 39 8q2 5 11 50q21 91 77 147z" />
    <glyph glyph-name="uni20b9" unicode="&#x20b9;" horiz-adv-x="537" 
d="M151 755q31 1 194 4h34q70 0 89 -5.5t19 -25.5q0 -16 -23.5 -20.5t-110.5 -4.5h-104l20 -30q32 -47 32 -87v-17h60q65 0 86 -4.5t21 -20.5q0 -13 -20 -17.5t-83 -7.5l-82 -4l-11 -22q-11 -22 -52.5 -65t-71.5 -64q-28 -20 -28 -28q0 -23 97.5 -145t128.5 -153
q30 -28 30 -45q0 -11 -15 -13h-4q-29 0 -88.5 64t-172.5 220q-49 67 -49 85q0 12 10 21.5t38 27.5q34 23 76.5 62.5t42.5 49.5q0 6 -70 11q-55 4 -67.5 10t-12.5 26q0 11 11.5 15.5t43.5 4.5q29 0 49 -1l77 -3l-3 25q-5 40 -42.5 67t-93.5 32q-43 3 -48 11q-5 6 -5 12
q0 7 10 18q8 9 22 12t66 5z" />
    <glyph glyph-name="uni20ba" unicode="&#x20ba;" horiz-adv-x="651" 
d="M257 744q11 11 22 5q8 -4 10 -17.5t3 -63.5l1 -76l44 21q87 42 121 42h5q15 -1 19 -5t4 -16q0 -7 -11.5 -14t-54.5 -26q-67 -30 -99 -48l-30 -17v-50v-26q0 -19 11 -19q9 0 100 31q72 25 88 25q5 0 9 -2q11 -6 11 -18q0 -9 -9 -18q-9 -8 -69 -30q-68 -25 -99 -39l-42 -18
v-52q0 -61 5 -143q3 -44 4 -60.5t8 -29.5t15.5 -14t29.5 -1q59 0 115.5 51t82.5 128q15 45 27 46h4q20 0 20 -34q0 -39 -25 -90q-32 -68 -96 -114t-125 -47q-36 0 -65 12t-39 32q-17 32 -19 230v19q0 37 -11 37q-5 0 -53 -23q-73 -36 -95 -36q-7 0 -13 3q-14 6 -14 18
q0 1 0.5 3t0.5 4q1 13 9 18.5t45 20.5q45 18 92 40l39 18v47q0 46 -3 46q-4 0 -38 -18q-31 -16 -48 -16q-19 0 -19 20q0 12 8.5 19t44.5 29l53 30l4 56q4 71 8.5 96t13.5 34z" />
    <glyph glyph-name="uni20bd" unicode="&#x20bd;" horiz-adv-x="558" 
d="M360 798q-36 9 -81 9h-46v-213l18 -4q19 -4 41 -4q69 0 122 53q38 38 38 68q0 16 -7 33q-9 23 -27.5 36t-57.5 22zM191 847q5 7 11.5 9.5t29.5 2.5q30 0 55 -1q87 -2 122 -16q48 -19 74 -52.5t26 -76.5q0 -20 -6 -41q-10 -34 -41.5 -68t-71.5 -53q-26 -13 -40.5 -16
t-56.5 -3h-60v-55h98q98 0 111 -11t6 -22q-6 -12 -26 -15.5t-100 -7.5q-58 -2 -73.5 -4.5t-15.5 -8.5q0 -2 1 -14.5t3 -33.5t3 -39q3 -41 3 -58q0 -23 -7 -33q-9 -13 -20 -13q-12 0 -22 14q-13 17 -16 97l-4 84l-34 3q-39 5 -54 11t-15 19t10 17t49 8l43 4l1 29l2 30l-54 3
q-44 2 -59 8t-15 23q0 13 8.5 17.5t32.5 5.5q39 0 55 1l30 1l4 121q4 120 13 134z" />
    <glyph glyph-name="arrowleft" unicode="&#x2190;" horiz-adv-x="796" 
d="M152 310q91 86 102 86q25 0 25 -31q0 -16 -47 -64q-46 -48 -46 -51q0 -2 204 -2q325 -2 350 -22q9 -5 7 -21l-2 -15l-290 -1q-296 -2 -315 -6l-26 -5l19 -12q16 -11 84 -34q55 -19 67 -26t12 -21q0 -21 -27 -21q-19 0 -44 7q-176 46 -178 105q0 23 19 47.5t86 86.5z" />
    <glyph glyph-name="arrowup" unicode="&#x2191;" horiz-adv-x="407" 
d="M193 626q10 3 19 3q37 0 66.5 -47t64.5 -158q15 -44 15 -59q0 -7 -3 -13q-6 -16 -22 -13q-14 2 -23 18t-37 94q-34 93 -43 93q-1 0 -3 -2t-2 -26q0 -127 17 -299q8 -83 8 -109q0 -29 -7 -36q-6 -6 -20 -6q-20 0 -24 10q-8 16 -13 94q-2 37 -7 84t-7.5 85t-2.5 84
q0 70 -6 70h-1q-6 -3 -37 -43q-36 -48 -56 -48q-5 0 -12 5q-9 7 -9 21q0 19 16 41q16 21 42 66q48 80 87 91z" />
    <glyph glyph-name="arrowright" unicode="&#x2192;" horiz-adv-x="809" 
d="M560 305q0 8 10.5 20.5t18.5 12.5t71 -34t76 -46q24 -21 24 -55q0 -6 -1 -9q-6 -28 -121 -126q-49 -42 -66 -42h-2q-19 2 -23 16q-2 4 -2 7q0 7 9.5 17.5t46.5 45.5l59 57l-286 2q-220 2 -270 6t-56 20q-1 2 -1 6q0 16 31 21q13 2 287 4q265 2 265 4q0 1 -35 34
q-35 31 -35 39z" />
    <glyph glyph-name="arrowdown" unicode="&#x2193;" horiz-adv-x="392" 
d="M145 591q7 12 18 12q13 0 21 -16q7 -12 8 -150q1 -113 7.5 -212.5t13.5 -99.5q5 0 46 48q40 49 55 49q29 0 29 -26t-49 -86.5t-84 -78.5q-22 -12 -41 -12q-26 0 -46 24.5t-41 79.5q-18 48 -27 59q-7 7 -7 17q0 9 7.5 15.5t18.5 6.5q8 0 12 -2q16 -7 38 -49l22 -44l-4 93
q-5 110 -5 206q0 152 8 166z" />
    <glyph glyph-name="arrowboth" unicode="&#x2194;" horiz-adv-x="699" 
d="M485 314q5 6 12 6q21 0 71 -37q82 -60 82 -94q0 -13 -34 -40q-32 -26 -65 -62q-35 -41 -53 -41q-5 0 -11 3q-11 6 -11 17q0 20 42 68q22 25 21 26h-18q-20 0 -172 -2l-188 -3l33 -20q39 -23 39 -44q0 -14 -21 -14q-11 0 -79 25.5t-78 33.5q-8 6 -8 17q0 31 82 101
q58 52 85 52q5 0 10 -3q9 -8 9 -17q0 -17 -29 -39t-29 -26t131 -4q243 0 243 9q0 7 -31 31q-35 27 -35 48q0 6 2 9z" />
    <glyph glyph-name="arrowupdn" unicode="&#x2195;" horiz-adv-x="328" 
d="M125 591q9 14 35 14q21 0 24 -11q10 -33 54 -94q35 -48 35 -69q0 -10 -8 -18q-6 -5 -15 -5q-19 0 -38 28l-17 26l-2 -86q0 -11 -0.5 -39.5t-0.5 -44.5t0.5 -44.5t0.5 -38.5l2 -82l20 31q20 30 34 33q2 1 7 1q10 0 16.5 -7t6.5 -18t-34 -84.5t-43 -80.5q-12 -7 -27 -10
q-3 -1 -9 -1q-28 0 -34 39q-3 19 -30 51q-25 29 -25 43v6q1 20 15 21q15 2 25 -8q11 -9 13 -7q4 4 4 258q0 90 -1 91h-1q-5 0 -22 -27q-13 -20 -20 -25.5t-20 -5.5q-14 0 -18 4t-4 20q0 18 33 72q11 17 27 41.5t17 26.5z" />
    <glyph glyph-name="arrowupdnbse" unicode="&#x21a8;" horiz-adv-x="351" 
d="M134 582q26 28 47 28q20 0 38.5 -20.5t44.5 -72.5q25 -49 25 -65q0 -9 -6 -15q-7 -7 -14 -7q-22 0 -51 54q-16 27 -18 27t-2 -105q0 -202 4 -244l3 -28l34 33q32 31 39 31q5 0 13 -5q10 -6 10 -20q0 -21 -24 -70q-23 -47 -39.5 -65.5t-34.5 -18.5q-19 0 -34.5 10.5
t-55.5 52.5q-38 39 -48 51t-10 20q0 3 4 11q6 11 16 11q11 0 36 -17q19 -14 28 -14h1q4 3 4 163q0 161 -4 172q-2 5 -4 5q-4 0 -22 -24q-13 -18 -19 -23.5t-16 -5.5h-8q-15 2 -19 6t-4 20q0 18 29 57q31 40 57 68zM78 -12q3 8 38 8q30 0 93 -6q61 -6 77 -11.5t16 -19.5
q0 -15 -10.5 -20.5t-41.5 -5.5q-9 0 -45 2q-70 4 -98 10.5t-30 20.5q-2 15 1 22z" />
    <glyph glyph-name="arrowdblright" unicode="&#x21d2;" horiz-adv-x="687" 
d="M422 756q4 4 9 4q19 0 55.5 -39t79.5 -105q38 -57 50 -73q22 -27 22 -44q0 -14 -44 -57q-31 -31 -85 -92q-53 -61 -74 -61q-1 0 -3 0.5t-3 0.5q-13 3 -13 14q0 16 30 54.5t30 42.5q0 5 -195 7q-150 2 -185.5 6t-35.5 21v6q1 15 17 18q13 3 237 5l223 1l19 20l20 19
l-19 29q-24 35 -26 39q-5 10 -59 10h-40h-36q-90 0 -209 4.5t-129 8.5t-10 18q0 15 12 21q11 6 112 6q102 0 209 -7q61 -5 92 -5q17 0 17 4q0 2 -2 6q-6 12 -38 53q-32 42 -32 56q0 5 4 9z" />
    <glyph glyph-name="arrowdblboth" unicode="&#x21d4;" horiz-adv-x="759" 
d="M611 557l-34 47h-400l-30 -31q-26 -28 -26 -39q0 -6 34 -32l31 -25l218 -6q129 -3 172 -3q49 0 55 7q10 13 10 24q0 17 -30 58zM489 753q6 6 14 6q32 0 113 -114q51 -72 73 -94q21 -23 21 -38q0 -12 -53.5 -104t-72.5 -111q-11 -13 -27 -11q-16 1 -16 16q0 19 25 62
q26 46 26 50t-171 4h-171l21 -30q18 -27 18 -41q0 -13 -14 -15h-2q-14 0 -60 43q-51 49 -106 92q-25 19 -34 26.5t-17 17.5t-8 19q0 12 13.5 29t50.5 54q7 6 10 10q56 57 101.5 94t60.5 37q9 0 15.5 -6.5t6.5 -15.5q0 -5 -1 -7q-4 -12 -35 -39q-29 -25 -29 -29q0 -6 226 -6
q73 0 73 2q0 6 -29 39q-29 32 -29 46q0 7 7 14z" />
    <glyph glyph-name="universal" unicode="&#x2200;" horiz-adv-x="734" 
d="M367 514q-34 0 -48 -1q-51 -1 -51 -11v-1q1 -12 45.5 -115.5t50.5 -104.5q7 0 24 43q21 57 46 114q28 71 28 72q0 4 -95 4zM642 942q8 16 26 16q12 0 15 -9q1 -2 1 -9q0 -37 -29 -130q-27 -89 -121 -287q-43 -88 -88 -206q-35 -92 -46 -111t-28 -19q-15 0 -27 14t-36 60
q-32 62 -143.5 346t-115.5 312q-1 5 -1 13q0 19 8 19q4 0 10 -6q8 -9 52.5 -104t78.5 -176l39 -93l128 -2l128 -1l15 28q23 45 56 127.5t48 131.5q23 74 30 86z" />
    <glyph glyph-name="partialdiff" unicode="&#x2202;" horiz-adv-x="546" 
d="M357 422q-34 16 -71 16q-54 0 -96 -27q-80 -49 -80 -160q0 -71 36 -116q32 -40 84 -40h5q33 1 57.5 12.5t54.5 40.5q21 20 29 34.5t21 58.5q20 58 24 96q2 20 2 22q0 14 -18 31q-21 20 -48 32zM245 742q22 4 37 4q41 0 86.5 -12.5t71.5 -31.5q59 -41 59 -161
q0 -32 -7 -90q-10 -76 -13 -102q-10 -103 -56 -185t-111 -112q-36 -16 -68 -16h-12q-39 1 -63 10.5t-53 36.5q-31 30 -49.5 76.5t-18.5 95.5q0 19 3 39q15 82 67 133.5t134 65.5q10 2 30 2q60 0 115 -33q22 -13 28 -13q3 0 5 3q10 18 10 106q0 21 -1 29q-5 34 -17.5 52.5
t-42.5 31.5q-41 19 -107 19q-30 0 -48 -6q-12 -4 -23 -4q-21 0 -21 18q0 13 19 25.5t46 18.5z" />
    <glyph glyph-name="existential" unicode="&#x2203;" horiz-adv-x="650" 
d="M93 928q24 2 128 2h75q121 0 156 -2t72 -11q52 -12 67 -23q10 -9 10 -19l-4 -32q-10 -55 -25 -467q-5 -170 -12 -185q-5 -13 -19 -16q-2 -1 -17 -1q-48 0 -174 8.5t-184 15.5q-65 9 -80 18q-14 9 -14 29q0 12 7 19t20 7t15 -6t54 -12q46 -5 178.5 -13.5t155.5 -8.5h3
q2 2 8.5 113t6.5 150v54l-197 -3q-46 -1 -111 -1q-51 0 -74 2t-30 6.5t-7 14.5q0 11 4.5 16t29.5 8.5t64.5 4.5t123.5 2q108 1 198 1q0 29 2 64q4 65 9 118q5 50 5 64q0 17 -48.5 22.5t-213.5 7.5q-163 2 -194.5 6.5t-31.5 23.5q0 11 9.5 16t34.5 7z" />
    <glyph glyph-name="emptyset" unicode="&#x2205;" horiz-adv-x="771" 
d="M618 737q-23 16 -30 16q-11 0 -204 -183q-131 -122 -146 -135l-40 -37l23 -21q73 -64 184 -64h16q52 1 86.5 16.5t68.5 50.5q39 41 67.5 112.5t28.5 130.5q0 34 -14.5 65t-39.5 49zM425 838q-34 7 -74 7q-83 0 -139 -28q-25 -13 -51.5 -37.5t-37.5 -46.5q-11 -23 -14 -82
q0 -4 -0.5 -12t-0.5 -11q0 -74 35 -147q15 -33 22 -33h1l2 1q8 5 159 145q174 161 183 169q28 25 28 33v1l-1 1q-6 7 -41 19.5t-71 20.5zM288 899q24 3 49 3q114 0 210 -47q40 -20 45 -20q2 0 51 32q46 31 63 31q13 0 16 -14q1 -3 1 -9q0 -9 -10 -18.5t-39 -31.5l-36 -27
l27 -33q31 -37 43.5 -66t14.5 -71v-13q0 -76 -35 -159t-87 -130q-79 -72 -196 -72q-121 0 -218 79l-33 26l-16 -11q-15 -10 -33 -30q-17 -18 -29 -18q-10 0 -17 9q-8 8 -8 17q0 15 33 47l34 32l-20 36q-51 93 -51 196q0 68 23 115q26 58 85.5 98t132.5 49z" />
    <glyph glyph-name="gradient" unicode="&#x2207;" horiz-adv-x="723" 
d="M541 870q-34 0 -198.5 8t-205.5 8q-25 0 -25 -2q0 -8 55 -147.5t88 -215.5q40 -92 76 -183q28 -70 31 -75q1 -1 2 -1q7 0 59 148q35 98 68 187q30 82 35 97q4 17 27 66t41 80l18 30h-71zM87 941q9 1 43 1q120 0 293 -11q106 -7 187 -10q47 -1 58 -12q5 -5 5 -9
q0 -10 -31 -69q-29 -56 -57 -119.5t-29 -77.5q-4 -22 -40 -121q-38 -109 -38 -115q0 -9 -31.5 -90t-41.5 -99q-20 -35 -40 -35q-8 0 -16 4q-16 7 -27.5 29t-38.5 96q-32 86 -81 200q-40 94 -83.5 208.5t-53.5 152.5q-5 23 -12 38q-4 7 -4 15q0 21 38 24z" />
    <glyph glyph-name="element" unicode="&#x2208;" horiz-adv-x="703" 
d="M354 809q46 8 93 8q33 0 73 -5q74 -10 74 -35v-13l-110 -1q-89 -1 -129.5 -8.5t-91.5 -30.5q-53 -23 -98.5 -67t-53.5 -79q-3 -10 -0.5 -13.5t13.5 -5.5q20 -4 261 -8l244 -4l2 -16q1 -9 -2 -13.5t-13 -8.5q-35 -15 -296 -15q-76 0 -118 3q-15 1 -34.5 2t-32 2t-18.5 1
l-7 -1q-1 -1 -1 -3q0 -11 21 -39.5t46 -53.5q119 -111 293 -113h20q43 0 90 18q41 17 59 17q16 0 16 -17q0 -25 -40 -45q-54 -26 -148 -26q-77 0 -132 17q-95 28 -165.5 81t-102.5 119q-17 36 -18 79v11q0 32 21 75q35 71 110 120.5t175 67.5z" />
    <glyph glyph-name="notelement" unicode="&#x2209;" horiz-adv-x="670" 
d="M279 487q0 4 -10 4q-115 -11 -136 -15l-21 -4l9 -27q9 -29 18 -37q9 -10 38.5 -27t38.5 -17q10 0 36 59q27 58 27 64zM384 716q0 2 -24 2q-63 -2 -123.5 -21t-83.5 -44q-12 -13 -26 -45t-18 -54l-3 -22l27 3q42 6 104 10q56 5 67.5 8t15.5 14q10 21 37 84t27 65zM439 839
q17 35 23 44t13 9h3q15 -2 15 -26q0 -21 -10 -47l-12 -31h37q40 -1 65 -10t25 -22q0 -6 -4 -11q-8 -9 -41 -9q-39 0 -68 -3l-36 -5l-33 -79q-35 -81 -35 -84q0 -5 105 -7q79 -1 101.5 -5t22.5 -18q0 -20 -21.5 -25.5t-91.5 -6.5q-79 0 -113 -4l-32 -4l-36 -73
q-32 -64 -37 -79q0 -6 53 -13q27 -4 55 -4q27 0 84 6q84 8 111 8h6q23 -2 28 -5t5 -17q0 -13 -18.5 -19.5t-85.5 -16.5q-72 -10 -142 -10q-64 0 -106 8q-4 1 -10 1q-7 0 -12 -6.5t-14 -27.5q-16 -35 -20 -56q-6 -29 -26 -29q-6 0 -9 1q-19 4 -19 27q0 19 12 52q18 46 18 57
q0 9 -6 13.5t-27 15.5q-37 19 -57 40.5t-33 57.5q-18 50 -18 96q0 31 7 55q28 112 108 153q29 14 76.5 27.5t71.5 13.5q16 0 62 6l40 7z" />
    <glyph glyph-name="product" unicode="&#x220f;" horiz-adv-x="658" 
d="M66 749q13 8 48 8q49 0 94 -2q19 -1 207 -5q88 -1 106 -2.5t28 -10.5q9 -8 11.5 -50.5t4.5 -253.5q2 -225 7 -315t23 -210q14 -93 14 -102q0 -12 -11 -18q-10 -4 -14 -4q-24 0 -32 29q-19 62 -36 284t-17 417q0 11 0.5 31.5t0.5 30.5l2 116l-61 -1h-15q-66 0 -160 7
q-112 9 -139 9h-26l2 -444v-190q0 -258 -5 -267q-8 -12 -24 -12t-22 11q-10 20 -10 208q0 39 2 301l4 424z" />
    <glyph glyph-name="summation" unicode="&#x2211;" horiz-adv-x="653" 
d="M327 742q226 4 229 5h1q8 0 8 -17q0 -4 -2 -14q-4 -16 -18 -21q-10 -4 -108.5 -7.5t-192.5 -6.5t-95 -5q-1 0 -1 -2q0 -9 88 -102q81 -86 144.5 -168.5t63.5 -100.5q0 -12 -32 -44q-55 -53 -158 -238q-52 -93 -82 -141q-25 -39 -25 -45q0 -7 22 -10.5t97 -7.5
q44 -2 82 -2q187 0 224 11q1 0 2.5 0.5t2.5 0.5q10 0 17.5 -9t7.5 -19q0 -4 -1 -6q-6 -17 -46.5 -23.5t-160.5 -8.5q-25 -1 -71 -1q-179 0 -228 17q-28 12 -28 38q0 3 2 11q5 16 37 61q41 61 87 144q110 195 153 243q25 27 25 39q0 22 -101.5 137.5t-187.5 199.5
q-34 33 -34 51q0 10 9 19q11 11 56 15t214 7z" />
    <glyph glyph-name="minus" unicode="&#x2212;" horiz-adv-x="605" 
d="M162 399q37 1 144 1q238 0 246 -5q5 -3 5 -10q0 -16 -15 -25q-10 -6 -53 -8.5t-194 -6.5q-123 -3 -175 -3q-59 0 -66 5q-8 8 -8 24t7 20t109 8z" />
    <glyph glyph-name="uni2215" unicode="&#x2215;" horiz-adv-x="590" 
d="M491 748q18 22 31 22h2q17 -2 17 -14q0 -20 -45 -87q-96 -146 -214 -357q-163 -288 -182 -313q-14 -18 -27 -18h-5q-19 2 -19 14q0 23 103 204q251 444 339 549z" />
    <glyph glyph-name="uni2216" unicode="&#x2216;" horiz-adv-x="569" 
d="M51 843q4 9 13 9q17 0 55.5 -55t158.5 -250q156 -251 212 -325q29 -39 29 -53q0 -7 -6 -13q-7 -7 -16 -7q-16 0 -36 23q-80 92 -288 441q-123 206 -123 226v3z" />
    <glyph glyph-name="uni2218" unicode="&#x2218;" horiz-adv-x="468" 
d="M104 460q0 -64 30.5 -100.5t89.5 -36.5q64 0 103 42t41 111q0 46 -4 57q-3 10 -25 28t-31 18q-5 0 -21 9q-17 9 -41 9q-56 0 -95 -34q-47 -40 -47 -103zM187 645q31 9 48 9h2q18 0 51.5 -8.5t39.5 -14.5q5 -5 18 -5t31.5 -16.5t30.5 -38.5q13 -24 13 -91
q0 -44 -2.5 -60.5t-12.5 -38.5q-26 -54 -77 -85t-108 -31q-69 0 -116 44q-32 30 -44.5 58.5t-13.5 77.5v17q0 83 49 132q22 21 41 32t50 19z" />
    <glyph glyph-name="radical" unicode="&#x221a;" horiz-adv-x="741" 
d="M663 940q15 11 19 11q6 0 8 -4.5t-2 -9.5q-18 -21 -96 -341q-63 -258 -130 -427q-42 -107 -69 -153.5t-46 -46.5q-15 0 -23 15.5t-17 59.5q-4 23 -23.5 108t-34.5 158t-15 98q0 5 -75 5q-105 1 -109 27v5q0 11 19.5 14.5t94.5 7.5q52 3 79 3q33 0 41 -7.5t8 -32.5
q0 -22 6 -68q4 -31 31 -149t30 -122q1 -1 2 -1q8 0 41 82q67 167 135 420q52 196 76 261.5t50 86.5z" />
    <glyph glyph-name="uni221b" unicode="&#x221b;" horiz-adv-x="694" 
d="M210 1041q0 6 22.5 7.5t108.5 1.5h132l-3 -23q-6 -44 -62 -79q-35 -22 -35 -23q0 -2 29 -20q60 -38 60 -102q0 -57 -39.5 -91.5t-109.5 -38.5l-44 -2l8 -22q7 -21 22 -53q3 -7 41 -95q27 -64 59.5 -127.5t39.5 -63.5q5 0 10.5 16t7.5 36q1 11 17 84q18 86 44 229
q47 262 71 336q9 29 13 34t21 5h21l-13 -49q-22 -86 -69 -384q-25 -143 -41 -215q-20 -87 -20 -97t-15 -44t-24 -44q-10 -10 -22 -10t-22 10q-20 22 -90 173.5t-89 214.5q-8 25 -12 29h-1q-8 0 -36 -25q-78 -75 -122 -75q-20 0 -20 20q0 13 18 23q24 15 68 51t53 50l12 18
l-15 16q-15 16 -15 37q0 16 10 20t12 -3t23.5 -17.5t41.5 -15.5q25 -5 44 -5q46 0 76.5 20t30.5 50q0 16 -11 35q-9 16 -24.5 24.5t-59.5 23.5q-34 11 -47 22t-13 28t6.5 21.5t41.5 13.5q48 13 79.5 30t31.5 31q0 4 -3 7q-6 6 -49 6q-58 0 -91 -9q-20 -5 -32 -5
q-26 0 -26 15z" />
    <glyph glyph-name="infinity" unicode="&#x221e;" horiz-adv-x="756" 
d="M245 410q-22 7 -45 7q-34 0 -58.5 -16.5t-33.5 -46.5q-3 -10 -3 -18q0 -24 30 -37q19 -8 56 -8q40 0 75 10q30 9 60 24t30 21q0 7 -44.5 32.5t-66.5 31.5zM644 429q-9 13 -22 13q-18 0 -49.5 -18.5t-59.5 -44.5l-37 -35l35 -16q33 -16 76 -16h8q38 0 48 11.5t10 51.5
q0 41 -9 54zM571 489q24 10 49 10q53 0 77 -48q12 -24 12 -65q0 -46 -16 -80q-16 -33 -33.5 -42t-64.5 -9h-6q-77 0 -144 41l-20 12l-38 -20q-27 -16 -90 -38q-51 -18 -105 -18q-65 0 -105.5 28t-40.5 75q0 21 11 48q13 30 37 52q45 42 101 42q66 0 168 -61q55 -32 60 -32
q7 0 42 31q67 59 106 74z" />
    <glyph glyph-name="angle" unicode="&#x2220;" horiz-adv-x="659" 
d="M427 850q51 66 66 66q7 0 12 -10q2 -4 2 -8q0 -27 -107 -171q-83 -110 -142 -206q-47 -75 -91 -153.5t-44 -85.5q0 -3 60 -3q20 0 79.5 0.5t93.5 0.5q128 0 180 -8q46 -7 60 -13.5t14 -22.5q0 -23 -29 -23q-13 0 -20 2q-27 7 -174 7q-88 0 -184 -3q-47 -2 -98 -2
q-37 0 -45 8q-12 12 -12 23q0 13 32 77.5t69 127.5q59 100 113 177t165 220z" />
    <glyph glyph-name="logicaland" unicode="&#x2227;" horiz-adv-x="674" 
d="M270 795q8 5 19 5q18 0 39 -18q18 -15 65 -85t86 -139q32 -55 89 -169.5t57 -122.5q0 -7 -11 -18q-8 -8 -15 -8q-12 0 -30 28t-58 106q-125 240 -191 330q-16 23 -23 23q-3 0 -5 -2q-7 -7 -42 -112q-56 -164 -106 -258q-31 -58 -42.5 -72.5t-25.5 -14.5q-29 0 -29 27
q0 22 20 85q47 143 117 265q20 34 57 105q18 39 29 45z" />
    <glyph glyph-name="logicalor" unicode="&#x2228;" horiz-adv-x="574" 
d="M51 774q5 5 19 3q15 -1 32.5 -35t89.5 -200q120 -277 132 -277h1q10 7 63 157t76 236q21 84 38 84q3 0 5 -1q18 -6 18 -34q0 -21 -11 -71q-14 -61 -50.5 -173.5t-61.5 -170.5q-26 -58 -43.5 -81t-37.5 -23q-9 0 -18 3q-18 7 -64 103t-143 332q-48 118 -48 138q0 7 3 10z
" />
    <glyph glyph-name="intersection" unicode="&#x2229;" horiz-adv-x="582" 
d="M204 540q8 1 18 2.5t17 2.5t9 1q10 0 54 -11q95 -24 148 -76.5t74 -142.5q11 -50 11 -154q0 -92 -9 -111q-9 -20 -29 -20q-9 0 -14 5t-5 59v36v25q0 150 -40 221.5t-138 99.5q-22 6 -59 6q-41 0 -61 -7q-79 -25 -79 -252q0 -43 3 -94q4 -86 4 -87q0 -25 -8 -35
q-10 -12 -19 -12q-21 0 -31 100q-4 39 -4 108q0 39 1 57q5 143 40 206t117 73z" />
    <glyph glyph-name="union" unicode="&#x222a;" horiz-adv-x="587" 
d="M57 820q7 10 15 10q18 -1 25 -30.5t7 -111.5q2 -240 76 -353q19 -28 53 -46.5t65 -18.5q14 0 27 5q18 7 43 41q65 89 101 340q12 86 16 102t16 23q9 6 17 6q20 0 20 -33q0 -30 -16.5 -134.5t-29.5 -157.5q-28 -116 -79 -184t-110 -68q-40 0 -83 19t-69 48
q-34 38 -60 110.5t-37 159.5q-7 55 -7 146q0 116 10 127z" />
    <glyph glyph-name="integral" unicode="&#x222b;" horiz-adv-x="480" 
d="M349 811q13 5 28 5q24 0 44 -10q10 -4 8 -21q-2 -11 -6 -13t-25 -3q-41 -1 -59 -25.5t-18 -83.5q0 -50 14 -142q26 -173 26 -271q0 -65 -9 -133q-13 -95 -48.5 -177.5t-78.5 -116.5q-42 -33 -83 -33q-55 0 -81 53q-12 24 -12 38t14 28t22 14q9 0 9 -22t12.5 -37.5
t29.5 -15.5q55 0 101.5 86.5t59.5 209.5q5 45 5 107q0 107 -25 270q-14 89 -14 141q0 66 20 100.5t66 51.5z" />
    <glyph glyph-name="uni222e" unicode="&#x222e;" horiz-adv-x="625" 
d="M360 565q0 -3 14.5 -100t14.5 -100q0 -1 2 -1q7 0 26.5 9.5t28.5 18.5q30 28 30 60q0 21 -16 48q-12 19 -33.5 38.5t-30.5 19.5q-7 0 -13 8q-8 9 -15 9q-8 0 -8 -10zM312 497q-9 56 -13 69t-12 14h-1q-11 0 -34.5 -20t-33.5 -39q-9 -16 -9 -48q0 -43 28 -75.5t73 -39.5
l22 -4l-4 31q-4 38 -16 112zM383 956q16 6 35 6q72 0 132 -60q24 -24 24 -42q0 -11 -12 -11q-14 0 -35 17q-57 46 -101 46q-48 0 -72 -51q-13 -27 -13 -75v-23q0 -136 14 -136q8 0 49 -19q60 -28 93.5 -69t33.5 -87q0 -14 -3 -27q-8 -37 -39.5 -68.5t-71.5 -43.5l-22 -6v-79
q-1 -136 -34 -205q-11 -23 -18.5 -32t-25.5 -18q-22 -11 -51 -11q-55 0 -110 40t-88 106q-20 41 -20 62q0 2 0.5 6.5t0.5 7.5q5 57 51 72q9 3 13 3q8 0 8 -6q0 -7 -12 -25q-14 -20 -14 -42t14 -50q24 -48 70 -82.5t86 -34.5q39 0 52.5 36t17.5 147l4 94l-26 4q-46 8 -84 34
t-56 63q-16 34 -16 77q0 40 12 65t37.5 48t51.5 33l29 12l-1 94v18q0 101 20.5 146t76.5 66z" />
    <glyph glyph-name="uni222f" unicode="&#x222f;" horiz-adv-x="985" 
d="M744 745q-44 27 -48 27q-5 0 -5 -28q0 -6 2 -54q3 -65 16 -196.5t17 -135.5q1 -1 2 -1q9 0 44.5 27t58.5 52q55 57 56 113q0 47 -38.5 100t-104.5 96zM291 599q-7 171 -12 176q-1 1 -2 1q-10 0 -43 -36.5t-50 -67.5q-28 -49 -53 -110t-25 -77q0 -45 46 -86
q18 -16 58.5 -37.5t63.5 -26.5l16 -4l4 49q1 8 1 38q0 45 -4 181zM572 820q-35 8 -81 12q-3 0 -10 0.5t-11 0.5q-44 0 -84.5 -9t-44.5 -20q-1 -2 -1 -23q0 -41 3 -103q6 -130 6 -240v-123l28 -5q33 -5 90 -5q115 0 159 12l41 10v25q0 23 -11 122q-23 211 -23 297q0 11 1 13
v2l1 2q0 19 -63 32zM316 1018l15 32h83l-19 -15q-19 -17 -29 -37q-9 -17 -16 -53.5t-7 -63.5v-20l45 8q32 6 75 6q73 0 133 -15l41 -11l10 60q10 68 22 99l13 39q11 1 32.5 2t32.5 2l-13 -28q-28 -58 -36 -151l-3 -46l39 -22q75 -41 131 -99q71 -77 71 -158q0 -41 -20 -83
q-14 -27 -63 -74.5t-85 -68.5l-43 -25v-53q-1 -87 -23.5 -157.5t-59.5 -97.5q-18 -13 -40 -13q-25 0 -46 15q-36 24 -72.5 79t-36.5 84q0 21 8 21q10 0 43 -40q46 -58 68 -80t35 -22q5 0 12 5q11 9 24.5 39t20.5 62q14 68 14 112q0 18 -3 20h-1q-2 1 -4 1q-13 0 -41 -7
q-35 -9 -131 -9q-53 0 -122 3l-29 1l-10 -57q-44 -256 -135 -278q-10 -2 -14 -2q-38 0 -71.5 46t-54.5 129q-8 35 -8 57q0 20 6 38q4 11 13 20.5t17 9.5q5 0 10 -42q10 -63 31.5 -118t42.5 -74q9 -7 15 -7q16 0 41 51q19 39 39.5 121t20.5 115q0 10 -2 12q-6 4 -29 11
q-26 8 -65 29.5t-59 38.5q-62 51 -62 132q0 15 3 32q6 35 39 103t64 110q32 43 62 66q9 7 23.5 18t16.5 13q10 7 10 36q1 34 10 78.5t21 70.5zM498 1043q-6 3 -6 4q0 2 24 2h12q18 0 18 -9q0 -10 -6.5 -17t-13.5 -7q-9 0 -12 10q-4 13 -16 17zM876 1041q0 9 17 9t17 -6
q0 -5 -8 -11q-7 -5 -12 -5q-14 0 -14 13z" />
    <glyph glyph-name="approxequal" unicode="&#x2248;" horiz-adv-x="660" 
d="M137 549q31 15 69 15q34 0 57 -8.5t78 -41.5q98 -60 159 -60q18 0 30 6q16 9 28 24q12 13 22 13q16 0 16 -22q0 -15 -8 -28q-27 -47 -97 -47q-77 0 -165 55q-52 32 -71.5 40.5t-42.5 8.5h-14q-27 -2 -40 -6.5t-40 -22.5q-41 -27 -49 -27t-14.5 7t-6.5 16q0 11 31.5 38.5
t57.5 39.5zM174 349q32 17 56 17q33 0 88 -34q131 -81 199 -81q30 0 45 14t28 14q7 0 13 -6q8 -8 8 -18q0 -22 -29 -41.5t-65 -20.5q-39 0 -102 24t-122 62q-48 30 -63 30t-45 -18t-54 -41q-21 -21 -35 -21h-5q-11 1 -14.5 4.5t-4.5 14.5v6q0 14 34 45q40 36 68 50z" />
    <glyph glyph-name="uni225d" unicode="&#x225d;" horiz-adv-x="695" 
d="M230 766q-12 12 -34 12q-18 0 -32.5 -8.5t-14.5 -21.5q0 -10 16 -18t37 -8q9 0 14 1q16 2 20.5 5.5t4.5 12.5q0 14 -11 25zM239 994q3 9 17 9t20 -10q5 -9 12 -114q4 -78 10 -143q0 -4 0.5 -10t0.5 -8q0 -23 -7 -31t-25 -8q-16 0 -48 -6q-15 -3 -26 -3q-13 0 -35 6
q-67 20 -67 72q0 20 14 42q29 40 92 40h39v78q0 78 3 86zM403 819q-8 5 -16 5q-10 0 -17 -7t-7 -10q0 -6 20 -6q26 0 26 11q0 4 -6 7zM534 987q18 11 46 11q18 0 26 -3.5t21 -16.5q19 -19 19 -34q0 -9 -8 -16t-27 8q-17 14 -31 14q-31 0 -44 -61q-4 -16 -4 -28
q0 -11 5.5 -15t20.5 -4q22 0 37.5 -8.5t15.5 -21.5q0 -23 -58 -23h-29l4 -38q3 -34 15 -79q9 -30 9 -41q0 -14 -16 -14h-6q-13 2 -18 7t-14 27q-15 35 -20 75q-9 55 -14 55q-3 0 -11 -8q-24 -24 -69 -24q-8 0 -11.5 -1.5t-2.5 -5.5q4 -10 25.5 -20t40.5 -10q16 0 20.5 -2
t4.5 -9q0 -33 -42 -33q-55 0 -93 47q-24 31 -24 68q0 35 20.5 61.5t54.5 30.5q5 1 14 1q16 0 43 -17q20 -13 31 -13h2q6 6 11 39q7 34 23 62.5t33 39.5zM113 581q33 0 104 5t105 6q35 2 111 2q133 0 155 -8q12 -4 12 -17q0 -9 -7 -15q-8 -6 -132 -10q-143 -4 -220 -10
q-48 -4 -85 -4q-50 0 -59 16q-3 4 -3 11q0 9 5.5 16.5t13.5 7.5zM51 409q6 10 27 8q66 -9 213 -17t244 -8q63 0 74 4t18 4q6 0 12 -6q7 -6 7 -15q0 -20 -24 -30q-17 -7 -138 -7q-117 0 -243.5 6t-155.5 15q-37 11 -37 34q0 6 3 12z" />
    <glyph glyph-name="notequal" unicode="&#x2260;" horiz-adv-x="687" 
d="M461 642q23 26 41 26q9 0 12 -9q2 -6 2 -9q0 -20 -40 -72l-35 -46l90 -7q92 -7 98 -10q9 -3 9 -13q0 -16 -15 -20q-13 -5 -116 -5h-101l-25 -39q-57 -90 -57 -104q0 -2 2 -2q76 -2 156.5 -8t94.5 -11q26 -9 26 -24q0 -5 -6 -13q-6 -6 -49 -6q-8 0 -110 2l-151 4l-34 -59
q-42 -77 -57 -107q-21 -42 -31 -55t-22 -13q-27 0 -27 19q0 22 49 113q50 94 50 96t-20 2q-11 0 -47 -2q-6 0 -16.5 -0.5t-14.5 -0.5q-65 0 -69 25v7q0 14 18 18t89 8q95 4 98 7q4 5 43.5 71.5t39.5 68.5h-4q-6 0 -90 -4q-24 -1 -64 -1q-37 0 -41 2q-13 4 -13 17q0 10 9 19
q9 8 68 15t121 7h53l31 44q29 41 55 69z" />
    <glyph glyph-name="equivalence" unicode="&#x2261;" horiz-adv-x="663" 
d="M317 569q52 4 116 4q125 0 143 -7q14 -5 14 -17q0 -9 -9 -15q-10 -9 -117 -13q-103 -4 -188 -13q-80 -8 -100 -8q-29 0 -38 13q-9 12 -1 24q11 16 180 32zM231 378q46 3 140 3q169 0 201 -6q19 -3 33 -10q10 -4 10 -20q0 -12 -7 -18q-10 -8 -341 -8q-149 0 -154 4
q-7 4 -7 18q0 7 3 16q6 15 122 21zM52 206q8 8 272 9q77 1 170 1q66 0 83 -2t23 -8q7 -7 7 -15q0 -13 -17 -22q-13 -8 -198 -13q-114 -3 -183 -3q-121 0 -142 11q-19 10 -19 29q0 8 4 13z" />
    <glyph glyph-name="lessequal" unicode="&#x2264;" horiz-adv-x="641" 
d="M426 584q85 43 109 43q11 0 14 -8q1 -2 1 -6q0 -9 -17 -21t-71 -42q-119 -67 -219.5 -133t-100.5 -76q0 -4 101.5 -38.5t204.5 -70t106 -40.5q3 -6 3 -11q0 -17 -24 -17q-33 0 -235 61.5t-231 80.5q-19 13 -19 27q0 3 2 13q4 18 130.5 98t245.5 140zM146 53q35 4 127 4
q169 0 235 -9q48 -6 65.5 -13.5t17.5 -24.5t-45 -17q-10 0 -78 4q-50 3 -128 3q-72 0 -108 -1q-84 -2 -94 -2q-50 0 -58 8q-9 9 -9 14q0 6 10 17q10 12 65 17z" />
    <glyph glyph-name="greaterequal" unicode="&#x2265;" horiz-adv-x="630" 
d="M56 632q6 6 18 6q44 0 218 -82q105 -49 218 -121q38 -24 46 -32t8 -22q0 -17 -15 -29t-52 -24q-114 -38 -255 -101q-87 -40 -100 -40q-11 0 -17.5 8.5t-6.5 19.5q0 21 17 28q156 74 293 122q46 17 46 21q0 13 -156.5 92.5t-250.5 113.5q-19 8 -19 23q0 9 8 17zM150 85
q23 1 88 1q295 0 325 -8q15 -4 17 -20q0 -2 0.5 -4.5t0.5 -3.5q0 -16 -38.5 -19t-221.5 -5h-6q-61 -1 -142 -1q-106 0 -115 9t-9 19q0 11 10 20q9 9 91 12z" />
    <glyph glyph-name="uni226a" unicode="&#x226a;" horiz-adv-x="780" 
d="M332 803q37 26 52 26q16 0 16 -20q0 -9 -12.5 -22.5t-51.5 -45.5q-71 -60 -142 -137t-71 -95q0 -5 14 -14q28 -18 119.5 -83.5t125.5 -92.5q60 -47 63 -49q10 -5 6 -21q-2 -10 -6.5 -13t-16.5 -3q-19 0 -104 61q-82 60 -173 120q-73 49 -88 61.5t-15 26.5q0 9 33 53.5
t77 94.5q27 31 79.5 77t94.5 76zM531 759q44 25 50 25q9 0 16 -7.5t7 -17.5q0 -8 -17 -22.5t-90 -68.5q-60 -45 -93 -76q-49 -45 -49 -54q0 -3 5 -3q6 0 90 -54.5t131 -88.5q56 -40 102.5 -81t47.5 -50q0 -8 -10 -15t-20 -7q-9 0 -89 60q-173 128 -295 192q-32 16 -40 23.5
t-8 19.5q0 11 13 25t63 57q115 101 186 143z" />
    <glyph glyph-name="uni226b" unicode="&#x226b;" horiz-adv-x="765" 
d="M50 829q0 8 7 16t14 8q17 0 121 -96t166 -169q57 -64 72 -78q19 -16 19 -32q0 -7 -3 -16q-2 -6 -130.5 -104.5t-181.5 -135.5q-25 -17 -41 -17q-19 0 -19 18q0 14 42.5 50.5t158.5 123.5q99 75 99 81q0 9 -82.5 100t-147.5 153q-94 89 -94 98zM332 802q-4 8 -4 11
q0 17 20 17q17 0 114 -66.5t141 -107.5q40 -37 76.5 -88t36.5 -68q0 -13 -45 -54q-37 -34 -166 -165q-81 -83 -103 -102.5t-34 -19.5h-5q-22 2 -22 12q0 12 70.5 90.5t153.5 158.5q87 85 87 89q0 3 -25 39q-57 79 -159 149q-125 88 -136 105z" />
    <glyph glyph-name="propersubset" unicode="&#x2282;" horiz-adv-x="655" 
d="M297 804q31 7 115 7h41q122 -1 138 -12q15 -9 15 -19q0 -6 -5 -14q-6 -8 -143 -12q-119 -2 -154.5 -10t-82.5 -41q-35 -24 -53 -46t-40 -65q-14 -26 -17.5 -40t-3.5 -40q1 -53 22.5 -84t77.5 -61q52 -29 134 -29q19 0 73 4q89 7 122 7q45 0 52 -7t7 -16q0 -11 -10 -18
q-7 -7 -59 -11q-54 -4 -117 -11q-36 -4 -74 -4q-107 0 -183 50q-58 37 -80.5 78t-23.5 108v13q0 23 4.5 37.5t23.5 50.5q28 57 66 95q71 69 155 90z" />
    <glyph glyph-name="propersuperset" unicode="&#x2283;" horiz-adv-x="702" 
d="M108 784q33 11 77 11q68 0 152.5 -22.5t159.5 -61.5q41 -21 80.5 -58.5t59.5 -73.5q16 -29 17 -78q0 -49 -17 -81q-34 -70 -120 -116t-211 -62q-38 -4 -59 -4q-59 0 -112.5 12t-74.5 30q-12 10 -12 16q0 8 19 8q11 0 18 -1q13 -2 116 -6q52 -2 64 -2q39 0 74 7
q119 22 189.5 75t70.5 120q0 27 -7 45t-28 46q-71 93 -281 145q-60 15 -101 15q-5 0 -15.5 -0.5t-17.5 -0.5l-71 -2v14q0 9 6 14t24 11z" />
    <glyph glyph-name="notsubset" unicode="&#x2284;" horiz-adv-x="641" 
d="M407 715q1 6 -1 8t-10 1q-27 -2 -85 -10.5t-77 -14.5q-32 -9 -61 -29t-41 -41q-25 -44 -25 -114q0 -45 13 -70q11 -21 38 -45.5t52 -37.5q29 -15 44 -15q14 0 17 13q4 15 67 178q15 39 32 83t26.5 68t10.5 26zM476 869q9 12 21 12q9 0 15.5 -7.5t6.5 -19.5q0 -10 -12 -42
l-12 -29h23q22 0 37 -8.5t15 -22.5q0 -10 -12 -15t-43 -9l-44 -6l-12 -30q-34 -85 -83 -215.5t-49 -135.5t33 -5q43 0 91 7q84 12 104 12q19 0 28 -9q8 -8 9 -11.5t-5 -12.5q-19 -29 -193 -37q-89 -3 -92 -10q-1 -2 -16 -45.5t-30 -84.5t-19 -43q-10 -6 -25 -4
q-11 2 -13.5 5t-1.5 14q2 24 22 89q19 66 19 78q0 5 -33 18q-29 11 -65 38q-92 70 -92 179q0 29 6 62q17 93 86 138t217 58l80 7l15 36q14 32 24 49z" />
    <glyph glyph-name="reflexsubset" unicode="&#x2286;" horiz-adv-x="695" 
d="M407 869q31 4 114 6h17q43 0 57.5 -4.5t14.5 -18.5v-5q-1 -13 -15.5 -17.5t-52.5 -5.5q-78 -2 -158 -17t-126 -37q-62 -30 -101.5 -85t-39.5 -110q0 -29 11 -51q17 -35 57.5 -58t117.5 -43q56 -14 156 -15q95 0 99 7q5 8 19 6q14 -1 15 -21q0 -2 0.5 -4.5t0.5 -3.5
q0 -7 -5 -11t-22 -12q-31 -14 -101 -16h-27q-120 0 -216 34t-133 89q-30 47 -30 98q0 3 0.5 10t0.5 11q6 86 83 163q92 90 264 111zM109 317q45 5 149 5q239 0 312 -13q50 -7 63 -13.5t13 -22.5q0 -12 -8.5 -17t-30.5 -5q-25 0 -76 6q-63 8 -168 8q-64 0 -104 -1
q-30 -1 -85 -1q-99 0 -114 3q-13 4 -13 21q0 13 8 18q8 6 54 12z" />
    <glyph glyph-name="uni2288" unicode="&#x2288;" horiz-adv-x="656" 
d="M363 699q0 2 -18 2q-21 -1 -66 -16.5t-78 -34.5q-54 -30 -74 -61t-20 -85q0 -60 42 -96q12 -11 37 -24t33 -13h2l3 9q4 8 11.5 25.5l13.5 31.5q54 126 70 162q44 97 44 100zM442 856q12 19 18 24.5t13 5.5h5q17 -2 17 -16q0 -16 -18 -52q-21 -40 -21 -47q0 -6 24 -6
q37 0 63.5 -12t26.5 -29q0 -5 -1 -7q-4 -13 -26 -13q-12 0 -33 3q-30 4 -47 4q-10 0 -13 -1l-22 -4l-49 -108q-94 -209 -94 -235q0 -4 2 -6q7 -8 159 -8h153l1 -15q0 -1 0.5 -3t0.5 -3q0 -7 -4.5 -10.5t-18.5 -8.5q-15 -6 -74 -12.5t-96 -6.5q-15 0 -20 1q-27 3 -75 6l-59 3
l-15 -41q-15 -41 -15 -47q0 -4 48 -4q90 0 231 11q57 5 83 5q11 0 12 -1q9 -3 9 -17q0 -18 -12 -25q-15 -10 -135 -21t-209 -11h-50l-23 -71q-15 -47 -22.5 -60.5t-19.5 -13.5q-3 0 -15 2q-13 3 -13 17q0 16 14 61q14 47 14 57q0 6 -23 6q-41 0 -41 28q0 14 12 21t41 10
l36 4l17 46q17 49 17 52q0 6 -38 26q-109 57 -109 170q0 110 72 164q92 68 223 91l57 10l11 28q8 27 31 59z" />
    <glyph glyph-name="circleplus" unicode="&#x2295;" horiz-adv-x="892" 
d="M490 903q-43 12 -86 12q-101 0 -185 -67q-48 -39 -75 -99.5t-27 -127.5q0 -52 16 -99q40 -119 140 -193t215 -74q53 0 104 18q88 32 138 104t50 164q0 46 -11 87q-25 101 -98.5 173t-180.5 102zM309 966q28 7 98 7q75 0 112 -8q85 -21 163.5 -86t119.5 -149
q43 -90 43 -179v-7q-1 -115 -58 -201t-162 -130l-51 -21h-87q-63 1 -81.5 3.5t-54.5 16.5q-98 37 -168 104q-35 35 -56 65t-42 75q-37 78 -37 171q0 39 8 81q19 91 90 163t163 95zM412 808q3 9 21 9q16 0 19 -14.5t5 -97.5q4 -86 8 -90q1 -1 26 -1q45 0 74 2q51 3 78 3
q23 0 27 -3q11 -8 11 -24q0 -14 -9 -18q-7 -4 -109 -13l-97 -8l4 -66q5 -59 5 -100q0 -35 -10 -44q-10 -7 -15 -7q-7 0 -15 7q-7 5 -10 22.5t-6 71.5q-6 92 -8 101l-3 14l-81 -5q-44 -2 -52 -2q-28 0 -37.5 5t-9.5 17q0 17 19 24t76 11q75 5 80 9q6 4 6 96q0 94 3 101z" />
  </font>
</defs>
</svg>
