<?xml version="1.0" encoding="UTF-8"?>
<svg version="1.1" xmlns="http://www.w3.org/2000/svg" width="514" height="580">
<path d="M0 0 C0.88429688 0.20367188 1.76859375 0.40734375 2.6796875 0.6171875 C32.63283276 7.81660817 60.4844262 21.47865311 85 40 C85.91120605 40.67796631 85.91120605 40.67796631 86.84082031 41.36962891 C96.51603892 48.59045282 105.32364167 56.61783862 114 65 C114.52255371 65.50063965 115.04510742 66.0012793 115.58349609 66.51708984 C122.28105103 72.95139335 128.23521623 79.72927438 134 87 C134.8739673 88.05142428 135.75037523 89.10082349 136.62890625 90.1484375 C143.31992399 98.20520528 149.35452641 106.66516989 155.25 115.3125 C155.82923218 116.15823578 155.82923218 116.15823578 156.42016602 117.02105713 C157.52029761 118.63117612 158.6118956 120.2471157 159.703125 121.86328125 C160.33895508 122.80469971 160.97478516 123.74611816 161.62988281 124.71606445 C163 127 163 127 163 129 C163.66 129 164.32 129 165 129 C165.12955078 127.87078125 165.12955078 127.87078125 165.26171875 126.71875 C167.15761441 112.38647455 170.34375846 95.88126618 182.05859375 86.41015625 C186.73829187 83.01101939 191.26991548 82.16480318 197 83 C202.37470988 84.65604529 206.03507488 87.33213895 209.03515625 92.08984375 C214.11663047 102.14992834 211.89371389 113.92983255 210.93359375 124.71801758 C209.35381817 142.48534336 208.70894967 160.03888731 209.11132812 177.87548828 C209.30846293 188.50057295 209.40222444 198.38608666 201.6796875 206.53125 C195.86462213 211.61605135 189.68371317 213.4578265 182.07519531 213.33325195 C178.59350831 212.95594942 175.78453369 212.00169067 172.5078125 210.76953125 C171.27401855 210.31449219 170.04022461 209.85945312 168.76904297 209.390625 C167.82566071 209.04052368 167.82566071 209.04052368 166.86322021 208.68334961 C161.6960196 206.78824108 156.46772777 205.06229351 151.25 203.3125 C150.30472946 202.99526978 150.30472946 202.99526978 149.34036255 202.67163086 C139.6511334 199.43071396 129.90363558 196.45353122 120.08792114 193.62078857 C94.26076137 186.16494405 69.22139258 177.27690091 44.57324219 166.54882812 C41.22717736 165.09847043 37.86945039 163.67940767 34.5078125 162.265625 C22.12864988 156.97240305 10.92471463 151.8798144 5 139 C3.14244593 133.42733779 3.27847455 127.34495773 5 121.75 C9.57653074 115.45727023 14.73329367 111.23883081 22.375 109.375 C36.50994114 107.35572269 49.9188062 115.33711401 62.54559326 120.79119873 C74.05820112 125.75355883 85.61992305 130.5156449 97.375 134.875 C98.5088916 135.29740967 99.6427832 135.71981934 100.81103516 136.1550293 C106.2698527 138.27965089 106.2698527 138.27965089 112 139 C101.92883183 125.41840773 91.59310031 112.31988489 80 100 C79.38382812 99.34128906 78.76765625 98.68257813 78.1328125 98.00390625 C47.79518774 66.57761074 3.81429804 45.54142651 -39.93286133 44.6484375 C-84.93815329 44.34746167 -126.12788885 61.64696464 -158.56347656 92.63085938 C-159.95598613 93.95805068 -161.36448908 95.2683983 -162.7734375 96.578125 C-200.27537929 132.46823548 -216.8798649 187.52477213 -218.25 238.19921875 C-218.45459225 252.22282799 -217.87453632 266.09955256 -216 280 C-215.87641113 280.9266748 -215.75282227 281.85334961 -215.62548828 282.80810547 C-208.23965293 336.10250286 -186.18495676 386.77282069 -153 429 C-152.57847656 429.54011719 -152.15695313 430.08023437 -151.72265625 430.63671875 C-125.01335281 464.51401416 -86.68213489 494.45992116 -42.86621094 500.69091797 C-6.34570116 504.62916033 25.62876526 492.85075214 54.046875 470.42578125 C57.62116576 467.4897567 60.85396738 464.38264232 64 461 C69 456 69 456 70.73876953 454.3359375 C75.83845062 449.38770689 80.21491116 444.14509545 84.4375 438.4375 C85.09073242 437.55763428 85.74396484 436.67776855 86.41699219 435.77124023 C91.79845244 428.43476511 96.61935146 420.96777061 101 413 C101.42200684 412.24734863 101.84401367 411.49469727 102.27880859 410.71923828 C107.89099337 400.65928104 112.86769954 390.43159621 117.1875 379.75 C117.55480225 378.84910645 117.92210449 377.94821289 118.30053711 377.02001953 C126.93016159 355.02456417 132.74910565 332.11851169 138.56866455 309.26202393 C153.19013296 251.87324469 153.19013296 251.87324469 165 244 C170.36950705 242.21016432 175.19735333 242.11568276 180.3125 244.625 C186.2708006 249.89047495 188.59907347 255.85619796 189.20654297 263.64990234 C189.3069446 266.70720993 189.32818568 269.75356186 189.3125 272.8125 C189.30831055 273.94469971 189.30412109 275.07689941 189.29980469 276.2434082 C189.13544694 288.94004452 187.77548469 301.4376805 186 314 C185.86078125 314.9909668 185.7215625 315.98193359 185.578125 317.00292969 C176.87644434 376.72627033 151.46755309 440.3379305 109.37109375 484.51171875 C107.36392041 486.61809341 105.48581128 488.76611653 103.625 491 C87.2300116 509.81520098 65.503059 524.57668003 43 535 C41.30810547 535.80050781 41.30810547 535.80050781 39.58203125 536.6171875 C-0.34119901 554.68326825 -45.76886931 555.17971357 -86.66699219 539.90673828 C-113.79536958 529.36312237 -137.10627743 513.81434503 -158.54296875 494.234375 C-160.15464463 492.76874924 -161.78192582 491.32006451 -163.42578125 489.890625 C-222.87021877 437.93599699 -257.88243674 354.07961444 -266 277 C-266.0942627 276.13648926 -266.18852539 275.27297852 -266.28564453 274.38330078 C-267.20636771 264.89441667 -267.24343184 255.40005545 -267.25 245.875 C-267.25067474 244.99149872 -267.25134949 244.10799744 -267.25204468 243.19772339 C-267.23404247 228.29139136 -266.46835283 213.72583176 -264 199 C-263.82839355 197.96955566 -263.65678711 196.93911133 -263.47998047 195.87744141 C-257.22458442 159.58049185 -244.86660677 123.01688748 -223 93 C-222.56075195 92.38850098 -222.12150391 91.77700195 -221.66894531 91.14697266 C-215.68084624 82.83377215 -209.43049234 74.99553195 -202.39453125 67.546875 C-200.44879182 65.47734465 -198.61317042 63.3813087 -196.8125 61.1875 C-193.56581811 57.36301879 -189.82861907 54.2260823 -186 51 C-185.02804688 50.15179688 -184.05609375 49.30359375 -183.0546875 48.4296875 C-151.34509654 20.87514639 -112.36076642 3.55958569 -71 -3 C-70.33677734 -3.10530029 -69.67355469 -3.21060059 -68.99023438 -3.3190918 C-46.58506654 -6.3199772 -21.93190279 -5.06120834 0 0 Z " fill="#FFFFFF" transform="translate(286,19)"/>
</svg>
